<?xml version="1.0" encoding="UTF-8"?>
<!DOCTYPE svg PUBLIC "-//W3C//DTD SVG 1.1//EN" "http://www.w3.org/Graphics/SVG/1.1/DTD/svg11.dtd">
<!-- Creator: CorelDRAW -->
<svg xmlns="http://www.w3.org/2000/svg" xml:space="preserve" width="38px" height="47px" version="1.1" style="shape-rendering:geometricPrecision; text-rendering:geometricPrecision; image-rendering:optimizeQuality; fill-rule:evenodd; clip-rule:evenodd"
viewBox="0 0 38 47.59"
 xmlns:xlink="http://www.w3.org/1999/xlink"
 xmlns:xodm="http://www.corel.com/coreldraw/odm/2003">
 <defs>
  <style type="text/css">
   <![CDATA[
    .str6 {stroke:#282829;stroke-width:3.01;stroke-miterlimit:22.9256}
    .str7 {stroke:#FEFEFE;stroke-width:2.41;stroke-miterlimit:22.9256}
    .str4 {stroke:#24E53B;stroke-width:2.51;stroke-linecap:round;stroke-linejoin:round;stroke-miterlimit:22.9256}
    .str3 {stroke:#6398D1;stroke-width:2.51;stroke-linecap:round;stroke-linejoin:round;stroke-miterlimit:22.9256}
    .str2 {stroke:#972F97;stroke-width:2.51;stroke-linecap:round;stroke-linejoin:round;stroke-miterlimit:22.9256}
    .str5 {stroke:#EB1CD3;stroke-width:2.51;stroke-linecap:round;stroke-linejoin:round;stroke-miterlimit:22.9256}
    .str0 {stroke:#FB472F;stroke-width:2.51;stroke-linecap:round;stroke-linejoin:round;stroke-miterlimit:22.9256}
    .str1 {stroke:#FEFEFE;stroke-width:2.01;stroke-linecap:round;stroke-linejoin:round;stroke-miterlimit:22.9256}
    .fil0 {fill:none;fill-rule:nonzero}
    .fil1 {fill:#FEFEFE}
   ]]>
  </style>
     <mask id="id0">
  <linearGradient id="id1" gradientUnits="userSpaceOnUse" x1="30.47" y1="22.23" x2="30.47" y2="16.52">
   <stop offset="0" style="stop-opacity:0; stop-color:white"/>
   <stop offset="1" style="stop-opacity:1; stop-color:white"/>
  </linearGradient>
      <rect style="fill:url(#id1)" x="17.06" y="17.32" width="20.69" height="7.6"/>
     </mask>
     <mask id="id2">
  <linearGradient id="id3" gradientUnits="userSpaceOnUse" x1="8.6" y1="21.8" x2="8.87" y2="14.93">
   <stop offset="0" style="stop-opacity:0; stop-color:white"/>
   <stop offset="0.360784" style="stop-opacity:0.501961; stop-color:white"/>
   <stop offset="1" style="stop-opacity:1; stop-color:white"/>
  </linearGradient>
      <rect style="fill:url(#id3)" x="0.25" y="17.32" width="19.76" height="7.6"/>
     </mask>
     <mask id="id4">
  <linearGradient id="id5" gradientUnits="userSpaceOnUse" x1="20.25" y1="27.62" x2="20.26" y2="12.12">
   <stop offset="0" style="stop-opacity:0; stop-color:white"/>
   <stop offset="1" style="stop-opacity:1; stop-color:white"/>
  </linearGradient>
      <rect style="fill:url(#id5)" x="18" y="16.39" width="2.01" height="20.67"/>
     </mask>
      <mask id="id6">
  <linearGradient id="id7" gradientUnits="userSpaceOnUse" x1="14.56" y1="44.55" x2="11.38" y2="39.04">
   <stop offset="0" style="stop-opacity:0; stop-color:white"/>
   <stop offset="1" style="stop-opacity:1; stop-color:white"/>
  </linearGradient>
       <rect style="fill:url(#id7)" x="4.93" y="35.06" width="15.08" height="12.27"/>
      </mask>
      <mask id="id8">
  <linearGradient id="id9" gradientUnits="userSpaceOnUse" x1="32.25" y1="44.8" x2="33.94" y2="41.19">
   <stop offset="0" style="stop-opacity:0; stop-color:white"/>
   <stop offset="1" style="stop-opacity:1; stop-color:white"/>
  </linearGradient>
       <rect style="fill:url(#id9)" x="18.01" y="35.06" width="16.93" height="12.27"/>
      </mask>
    <mask id="id10">
  <linearGradient id="id11" gradientUnits="userSpaceOnUse" x1="19.88" y1="8.11" x2="24.49" y2="0.13">
   <stop offset="0" style="stop-opacity:0; stop-color:white"/>
   <stop offset="1" style="stop-opacity:1; stop-color:white"/>
  </linearGradient>
     <rect style="fill:url(#id11)" x="10.45" y="0.43" width="17.11" height="17.11"/>
    </mask>
 </defs>
 <g id="Camada_x0020_1">
  <metadata id="CorelCorpID_0Corel-Layer"/>
  <g id="_2601144651616">
   <g>
    <path class="fil0 str0" d="M36.75 18.32l-2.81 2.8 2.81 2.8m-18.69 -2.8l15.88 0"/>
   </g>
   <g>
    <path class="fil0 str1" style="mask:url(#id0)" d="M36.75 18.32l-2.81 2.8 2.81 2.8m-18.69 -2.8l15.88 0"/>
   </g>
   <g>
    <path class="fil0 str2" d="M2.2 18.32l1.86 2.8 14.95 0m-14.95 0l-2.81 2.8"/>
   </g>
   <g>
    <path class="fil0 str1" style="mask:url(#id2)" d="M2.2 18.32l1.86 2.8 14.95 0m-14.95 0l-2.81 2.8"/>
   </g>
   <g>
    <polyline class="fil0 str3" points="19.01,17.39 19.01,21.12 19.01,36.06 "/>
   </g>
   <g>
    <polyline class="fil0 str1" style="mask:url(#id4)" points="19.01,17.39 19.01,21.12 19.01,36.06 "/>
   </g>
   <g>
    <polyline class="fil0 str4" points="19.01,36.06 8.73,46.33 5.93,43.53 "/>
    <g>
     <polyline class="fil0 str1" style="mask:url(#id6)" points="19.01,36.06 8.73,46.33 5.93,43.53 "/>
    </g>
   </g>
   <g>
    <polyline class="fil0 str5" points="19.01,36.06 30.21,46.33 33.94,43.53 "/>
    <g>
     <polyline class="fil0 str1" style="mask:url(#id8)" points="19.01,36.06 30.21,46.33 33.94,43.53 "/>
    </g>
   </g>
   <circle class="fil1 str6" cx="19.01" cy="8.98" r="7.47"/>
   <path class="fil1 str7" style="mask:url(#id10)" d="M26.35 8.98c0,-4.06 -3.29,-7.34 -7.34,-7.34 -4.06,0 -7.35,3.28 -7.35,7.34 0,4.06 3.29,7.35 7.35,7.35 4.05,0 7.34,-3.29 7.34,-7.35z"/>
  </g>
 </g>
</svg>
