<?xml version="1.0" encoding="UTF-8"?>
<!DOCTYPE svg PUBLIC "-//W3C//DTD SVG 1.1//EN" "http://www.w3.org/Graphics/SVG/1.1/DTD/svg11.dtd">
<!-- Creator: CorelDRAW -->
<svg xmlns="http://www.w3.org/2000/svg" xml:space="preserve" width="28px" height="44px" version="1.1" style="shape-rendering:geometricPrecision; text-rendering:geometricPrecision; image-rendering:optimizeQuality; fill-rule:evenodd; clip-rule:evenodd"
viewBox="0 0 28 43.05"
 xmlns:xlink="http://www.w3.org/1999/xlink"
 xmlns:xodm="http://www.corel.com/coreldraw/odm/2003">
 <defs>
  <style type="text/css">
   <![CDATA[
    .str0 {stroke:white;stroke-width:1.48;stroke-linecap:round;stroke-linejoin:round;stroke-miterlimit:22.9256}
    .fil2 {fill:none;fill-rule:nonzero}
    .fil4 {fill:#0066FF;fill-rule:nonzero}
    .fil3 {fill:#009900;fill-rule:nonzero}
    .fil5 {fill:#FD68B3;fill-rule:nonzero}
    .fil0 {fill:#FF9900;fill-rule:nonzero}
    .fil1 {fill:url(#id0);fill-rule:nonzero}
   ]]>
  </style>
  <linearGradient id="id0" gradientUnits="objectBoundingBox" x1="0%" y1="40.6936%" x2="100.688%" y2="59.3045%">
   <stop offset="0" style="stop-opacity:0; stop-color:white"/>
   <stop offset="0.54902" style="stop-opacity:0.2; stop-color:gray"/>
   <stop offset="1" style="stop-opacity:0.4; stop-color:black"/>
  </linearGradient>
 </defs>
 <g id="Camada_x0020_1">
  <metadata id="CorelCorpID_0Corel-Layer"/>
  <g id="_3089463670080">
   <g>
    <g>
     <g>
      <g>
       <path class="fil0" d="M9.86 4.04c0,-1.11 -0.4,-2.06 -1.19,-2.85 -0.79,-0.79 -1.74,-1.19 -2.85,-1.19 -1.11,0 -2.06,0.4 -2.85,1.19 -0.79,0.79 -1.18,1.74 -1.19,2.85 0.01,1.12 0.4,2.07 1.19,2.86 0.79,0.78 1.74,1.15 2.85,1.13 -1.31,0.14 -2.58,1.07 -3.8,2.79 -1.39,1.99 -2.07,4.27 -2.02,6.84 0.02,0.84 2.06,1.3 6.12,1.37 4.05,0.06 6.05,-0.31 5.99,-1.13 -0.15,-2.64 -0.84,-4.96 -2.07,-6.96 -1.15,-1.92 -2.46,-2.89 -3.92,-2.91 0.99,-0.05 1.84,-0.43 2.55,-1.13 0.79,-0.79 1.19,-1.74 1.19,-2.86z"/>
      </g>
     </g>
    </g>
    <path class="fil1" d="M9.86 4.04c0,-1.11 -0.4,-2.06 -1.19,-2.85 -0.79,-0.79 -1.73,-1.19 -2.85,-1.19 -1.11,0 -2.06,0.4 -2.85,1.19 -0.79,0.79 -1.18,1.74 -1.19,2.85 0.01,1.12 0.4,2.07 1.19,2.86 0.79,0.78 1.74,1.15 2.85,1.13 -1.31,0.14 -2.58,1.07 -3.8,2.79 -1.39,1.99 -2.07,4.27 -2.02,6.84 0.02,0.84 2.06,1.3 6.12,1.37 4.05,0.06 6.05,-0.31 5.99,-1.13 -0.15,-2.64 -0.84,-4.96 -2.07,-6.96 -1.15,-1.92 -2.46,-2.89 -3.92,-2.91 0.99,-0.05 1.84,-0.43 2.55,-1.13 0.79,-0.79 1.19,-1.74 1.19,-2.86z"/>
    <path class="fil2 str0" d="M3.8 4.1c0.17,-1.01 0.69,-1.74 1.55,-2.2m-2.73 15.23c0.24,-3.36 1.31,-5.66 3.2,-6.9"/>
   </g>
   <g>
    <path class="fil3" d="M25.74 4.04c0,-1.11 -0.4,-2.06 -1.19,-2.85 -0.78,-0.79 -1.73,-1.19 -2.84,-1.19 -1.12,0 -2.07,0.4 -2.85,1.19 -0.79,0.79 -1.19,1.74 -1.19,2.85 0,1.12 0.4,2.07 1.19,2.86 0.78,0.78 1.73,1.15 2.85,1.13 -1.32,0.14 -2.58,1.07 -3.8,2.79 -1.4,1.99 -2.07,4.27 -2.02,6.84 0.02,0.84 2.06,1.3 6.11,1.37 4.05,0.06 6.05,-0.31 6,-1.13 -0.15,-2.64 -0.84,-4.96 -2.08,-6.96 -1.15,-1.92 -2.46,-2.89 -3.92,-2.91 0.99,-0.05 1.85,-0.43 2.55,-1.13 0.79,-0.79 1.19,-1.74 1.19,-2.86z"/>
    <path class="fil1" d="M25.74 4.04c0,-1.11 -0.4,-2.06 -1.19,-2.85 -0.78,-0.79 -1.73,-1.19 -2.84,-1.19 -1.12,0 -2.07,0.4 -2.85,1.19 -0.79,0.79 -1.19,1.74 -1.19,2.85 0,1.12 0.4,2.07 1.19,2.86 0.78,0.78 1.73,1.15 2.85,1.13 -1.32,0.14 -2.58,1.07 -3.8,2.79 -1.4,1.99 -2.07,4.27 -2.02,6.84 0.02,0.84 2.06,1.3 6.11,1.37 4.05,0.06 6.05,-0.31 6,-1.13 -0.15,-2.64 -0.84,-4.96 -2.08,-6.96 -1.15,-1.92 -2.46,-2.89 -3.92,-2.91 0.99,-0.05 1.85,-0.43 2.55,-1.13 0.79,-0.79 1.19,-1.74 1.19,-2.86z"/>
    <path class="fil2 str0" d="M19.69 4.1c0.17,-1.01 0.68,-1.74 1.54,-2.2m-2.73 15.23c0.25,-3.36 1.32,-5.66 3.21,-6.9"/>
   </g>
   <g>
    <g>
     <g>
      <g>
       <path class="fil4" d="M9.86 28.06c0,-1.11 -0.4,-2.06 -1.19,-2.85 -0.79,-0.79 -1.74,-1.19 -2.85,-1.19 -1.11,0 -2.06,0.4 -2.85,1.19 -0.79,0.79 -1.18,1.74 -1.19,2.85 0.01,1.12 0.4,2.07 1.19,2.86 0.79,0.78 1.74,1.15 2.85,1.13 -1.31,0.14 -2.58,1.07 -3.8,2.79 -1.39,1.99 -2.07,4.27 -2.02,6.84 0.02,0.84 2.06,1.3 6.12,1.37 4.05,0.06 6.05,-0.32 5.99,-1.13 -0.15,-2.64 -0.84,-4.96 -2.07,-6.96 -1.15,-1.92 -2.46,-2.89 -3.92,-2.91 0.99,-0.05 1.84,-0.43 2.55,-1.13 0.79,-0.79 1.19,-1.74 1.19,-2.86z"/>
      </g>
     </g>
    </g>
    <path class="fil1" d="M9.86 28.06c0,-1.11 -0.4,-2.07 -1.19,-2.85 -0.79,-0.79 -1.73,-1.19 -2.85,-1.19 -1.11,0 -2.06,0.4 -2.85,1.19 -0.79,0.79 -1.18,1.74 -1.19,2.85 0.01,1.12 0.4,2.07 1.19,2.86 0.79,0.78 1.74,1.15 2.85,1.13 -1.31,0.14 -2.58,1.07 -3.8,2.79 -1.39,1.99 -2.07,4.27 -2.02,6.84 0.02,0.84 2.06,1.3 6.12,1.37 4.05,0.06 6.05,-0.32 5.99,-1.13 -0.15,-2.64 -0.84,-4.96 -2.07,-6.96 -1.15,-1.92 -2.46,-2.89 -3.92,-2.91 0.99,-0.05 1.84,-0.43 2.55,-1.13 0.79,-0.79 1.19,-1.74 1.19,-2.86z"/>
    <path class="fil2 str0" d="M3.8 28.12c0.17,-1.01 0.69,-1.74 1.55,-2.2m-2.73 15.22c0.24,-3.35 1.31,-5.65 3.2,-6.89"/>
   </g>
   <g>
    <g>
     <g>
      <g>
       <path class="fil5" d="M25.74 28.06c0,-1.11 -0.4,-2.06 -1.19,-2.85 -0.78,-0.79 -1.73,-1.19 -2.84,-1.19 -1.12,0 -2.07,0.4 -2.85,1.19 -0.79,0.79 -1.19,1.74 -1.19,2.85 0,1.12 0.4,2.07 1.19,2.86 0.78,0.78 1.73,1.15 2.85,1.13 -1.32,0.14 -2.58,1.07 -3.8,2.79 -1.4,1.99 -2.07,4.27 -2.02,6.84 0.02,0.84 2.06,1.3 6.11,1.37 4.05,0.06 6.05,-0.32 6,-1.13 -0.15,-2.64 -0.84,-4.96 -2.08,-6.96 -1.15,-1.92 -2.46,-2.89 -3.92,-2.91 0.99,-0.05 1.85,-0.43 2.55,-1.13 0.79,-0.79 1.19,-1.74 1.19,-2.86z"/>
      </g>
     </g>
    </g>
    <path class="fil1" d="M25.74 28.06c0,-1.11 -0.4,-2.07 -1.19,-2.85 -0.78,-0.79 -1.73,-1.19 -2.84,-1.19 -1.12,0 -2.07,0.4 -2.85,1.19 -0.79,0.79 -1.19,1.74 -1.19,2.85 0,1.12 0.4,2.07 1.19,2.86 0.78,0.78 1.73,1.15 2.85,1.13 -1.32,0.14 -2.58,1.07 -3.8,2.79 -1.4,1.99 -2.07,4.27 -2.02,6.84 0.02,0.84 2.06,1.3 6.11,1.37 4.05,0.06 6.05,-0.32 6,-1.13 -0.15,-2.64 -0.84,-4.96 -2.08,-6.96 -1.15,-1.92 -2.46,-2.89 -3.92,-2.91 0.99,-0.05 1.85,-0.43 2.55,-1.13 0.79,-0.79 1.19,-1.74 1.19,-2.86z"/>
    <path class="fil2 str0" d="M19.69 28.12c0.17,-1.01 0.68,-1.74 1.54,-2.2m-2.73 15.22c0.25,-3.35 1.32,-5.65 3.21,-6.89"/>
   </g>
  </g>
 </g>
</svg>
