
<svg xmlns="http://www.w3.org/2000/svg" version="1.1" xmlns:xlink="http://www.w3.org/1999/xlink" preserveAspectRatio="none" x="0px" y="0px" width="23px" height="23px" viewBox="0 0 23 23">
<defs>
<g id="Layer4_0_FILL">
<path fill="#000000" stroke="none" d="
M -5.4 4.35
Q -6.25 3.75 -7.75 3.75
L -10.55 3.75 -10.55 12.3 -7.25 12.3
Q -5.8 12.3 -4.95 11.65 -4.15 11.05 -4.15 9.8 -4.15 9.1 -4.55 8.55 -4.95 8 -5.75 7.85 -5.2 7.6 -4.9 7.15 -4.6 6.7 -4.6 6.1 -4.6 4.95 -5.4 4.35
M -8.85 5.1
L -7.75 5.1
Q -7.05 5.1 -6.65 5.35 -6.3 5.65 -6.3 6.25 -6.3 6.8 -6.65 7.05 -7.05 7.35 -7.7 7.35
L -8.85 7.35 -8.85 5.1
M -7.3 8.55
Q -6.55 8.55 -6.2 8.85 -5.85 9.2 -5.85 9.8 -5.85 10.4 -6.25 10.7 -6.6 11 -7.25 11
L -8.85 11 -8.85 8.55 -7.3 8.55 Z"/>
</g>
</defs>

<g transform="matrix( 2.6783599853515625, 0, 0, 2.6783599853515625, 31.2,-10) ">
<use xlink:href="#Layer4_0_FILL"/>
</g>
</svg>
