
<svg xmlns="http://www.w3.org/2000/svg" version="1.1" xmlns:xlink="http://www.w3.org/1999/xlink" preserveAspectRatio="none" x="0px" y="0px" width="19px" height="19px" viewBox="0 0 19 19">
<defs/>

<g id="Layer_2">
<g transform="matrix( 1.26666259765625, 0, 0, 1.2661285400390625, 0,1.45) ">
<g id="Layer_4">
<g transform="matrix( 1, 0, 0, 1, 0,0) ">
<g id="Layer_1">
<g transform="matrix( 1, 0, 0, 1, 0,0) ">
<g>
<g>
<path fill="#FFFFFF" stroke="none" d="
M 12.8 8.75
Q 15 7.2486328125 15 5.1 15 2.9638671875 12.8 1.45 10.6 -0.0220703125 7.5 -0.05 4.4 -0.0220703125 2.2 1.45 0 2.9638671875 0 5.1 0 7.2486328125 2.2 8.75 2.7798828125 9.1451171875 3.4 9.45 3.2482421875 10.9271484375 1.35 12.35 4.0875 12.0125 6.05 10.15 6.7576171875 10.2498046875 7.5 10.25 10.6 10.2470703125 12.8 8.75 Z"/>
</g>
</g>
</g>
</g>
</g>
</g>

<g id="Layer_2">
<g transform="matrix( 1, 0, 0, 1, 0,0) ">
<g>
<path stroke="#000000" stroke-width="0.05" stroke-linejoin="round" stroke-linecap="round" fill="none" d="
M 1.35 12.375
Q 3.2482421875 10.9271484375 3.425 9.45 2.7798828125 9.1451171875 2.2 8.75 0 7.2486328125 0 5.1 0 2.9638671875 2.2 1.475 4.4 -0.0220703125 7.5 -0.025 10.6 -0.0220703125 12.8 1.475 15 2.9638671875 15 5.1 15 6.87421875 13.5 8.2 13.1833984375 8.48828125 12.8 8.75 10.6 10.2470703125 7.5 10.25 6.7576171875 10.2498046875 6.075 10.175 4.0875 12.0125 1.35 12.375 Z"/>
</g>
</g>
</g>
</g>
</g>

<g id="Layer_1"/>
</svg>
