
<svg xmlns="http://www.w3.org/2000/svg" version="1.1" xmlns:xlink="http://www.w3.org/1999/xlink" preserveAspectRatio="none" x="0px" y="0px" width="200px" height="200px" viewBox="0 0 200 200">
<defs>
<g id="Layer0_0_FILL">
<path fill="#000000" stroke="none" d="
M 176.45 104.35
Q 176.45 100.75 176.2 97.25 168.65 99.35 160.25 99.35 136.25 99.35 119.3 82.35 102.4 65.45 102.4 41.45 102.4 33.25 104.35 25.85 101.1 25.65 97.75 25.65 65.2 25.65 42.1 48.65 19.05 71.65 19.05 104.35 19.05 136.9 42.1 160 65.2 183.05 97.75 183.05 130.3 183.05 153.35 160 176.45 136.9 176.45 104.35
M 66.7 56.5
Q 73.6 56.5 78.45 61.4 83.35 66.25 83.35 73.2 83.35 80.1 78.45 85 73.6 89.85 66.7 89.85 59.75 89.85 54.9 85 50 80.1 50 73.2 50 66.25 54.9 61.4 59.75 56.5 66.7 56.5
M 63.6 142.35
Q 50.15 128.55 49.4 109.35
L 146.5 109.35
Q 145.75 128.55 132.3 142.35 118.05 157 97.95 157 77.8 157 63.6 142.35 Z"/>
</g>

<path id="Layer0_0_1_STROKES" stroke="#000000" stroke-width="19" stroke-linejoin="round" stroke-linecap="round" fill="none" d="
M 157.8 61.8
L 157.8 40.35 136.35 40.35
M 157.8 18.9
L 157.8 40.35 179.25 40.35"/>
</defs>

<g transform="matrix( 1, 0, 0, 1, 0,0) ">
<use xlink:href="#Layer0_0_FILL"/>

<use xlink:href="#Layer0_0_1_STROKES"/>
</g>
</svg>
