<?xml version="1.0" encoding="utf-8"?>
<!-- Generator: Adobe Illustrator 25.1.0, SVG Export Plug-In . SVG Version: 6.00 Build 0)  -->
<svg version="1.1" id="Camada_1" xmlns="http://www.w3.org/2000/svg" xmlns:xlink="http://www.w3.org/1999/xlink" x="0px" y="0px"
	 viewBox="0 0 19 19" style="enable-background:new 0 0 19 19;" xml:space="preserve">
<style type="text/css">
	.st0{fill:#999999;}
	.st1{fill:#333333;fill-opacity:0.1176;}
	.st2{fill:url(#SVGID_1_);}
	.st3{fill:#FFAF12;fill-opacity:0.7686;}
	.st4{fill:none;stroke:#666666;stroke-linecap:round;stroke-linejoin:round;stroke-opacity:0.451;}
	.st5{fill:none;stroke:#666666;stroke-linecap:round;stroke-linejoin:round;stroke-opacity:0.4471;}
	.st6{fill:url(#SVGID_2_);}
</style>
<g transform="matrix( 1, 0, 0, 1, 0,0) ">
	<g id="Back" transform="matrix( 1, 0, 0, 1, -9.2,-9.3) ">
		<g transform="matrix( 1, 0, 0, 1, 0,0) ">
			<g>
				<g id="Symbol_7_0_Layer0_0_FILL">
					<path class="st0" d="M24.9,12.1l-1.2-1c-1.4-1-3.1-1.5-4.9-1.5H18c-1.5,0.1-2.9,0.6-4,1.4l-1.4,1.1L12,12.7
						c-1.3,1.6-2,3.5-2,5.6c0,2.4,0.9,4.4,2.6,6.2c1.7,1.7,3.7,2.5,6.2,2.6c2.4,0,4.4-0.9,6.2-2.6c1.7-1.7,2.6-3.8,2.6-6.2
						C27.4,15.9,26.6,13.9,24.9,12.1z"/>
				</g>
			</g>
		</g>
	</g>
</g>
<g transform="matrix( 1, 0, 0, 1, 0,0) ">
	<g transform="matrix( 1, 0, 0, 1, -8.25,-8.2) ">
		<g transform="matrix( 1, 0, 0, 1, 0,0) ">
			<g>
				<g id="Symbol_9_0_Layer0_0_FILL">
					<path class="st1" d="M22.6,21.9c0-0.4-0.1-0.7-0.4-1c-0.2-0.3-0.6-0.4-1-0.4c-0.4,0-0.7,0.1-1,0.4c-0.2,0.3-0.4,0.6-0.4,1
						s0.1,0.7,0.4,1l0.6,0.3l0.5,0.1l0.7-0.2l0.3-0.2C22.5,22.6,22.6,22.3,22.6,21.9 M18.6,24.1L18.1,24l-0.4,0.2l-0.2,0.5l0.2,0.5
						c0.1,0.1,0.3,0.2,0.4,0.2l0.5-0.2l0.2-0.5L18.6,24.1 M14,18.7c-0.4,0-0.7,0.1-1,0.4c-0.2,0.3-0.4,0.6-0.4,1s0.1,0.7,0.4,1
						l0.6,0.3l0.5,0.1l0.7-0.2l0.3-0.2c0.3-0.3,0.4-0.6,0.4-1s-0.1-0.7-0.4-1C14.7,18.8,14.4,18.7,14,18.7 M9.9,17.3v0.6l0.3,0.6
						l0.3,0.1l0.3-0.3l0-0.6l-0.3-0.5L10.2,17L9.9,17.3 M14.3,12.3c-0.3-0.4-0.8-0.6-1.3-0.6s-1,0.2-1.3,0.6
						c-0.3,0.4-0.5,0.8-0.5,1.3c0,0.5,0.2,1,0.5,1.3l0.7,0.5l0.6,0.1l0.9-0.2l0.4-0.3c0.4-0.4,0.6-0.8,0.6-1.3
						C14.9,13.1,14.7,12.7,14.3,12.3 M18.2,11.8c0.3-0.2,0.4-0.6,0.4-0.9c0-0.4-0.1-0.7-0.4-1c-0.2-0.3-0.6-0.4-0.9-0.4
						s-0.7,0.1-1,0.4c-0.2,0.2-0.4,0.6-0.4,1c0,0.4,0.1,0.7,0.4,0.9c0.3,0.3,0.6,0.4,1,0.4S17.9,12.1,18.2,11.8 M24.6,20
						c-0.1,0-0.3,0-0.4,0.1l-0.3,0.5v0.6l0.3,0.3l0.4-0.1l0.3-0.6v-0.6L24.6,20 M21.3,14.2c-0.6,0-1.2,0.2-1.6,0.6
						c-0.4,0.4-0.6,1-0.6,1.6c0,0.6,0.2,1.1,0.6,1.6c0.4,0.4,1,0.6,1.6,0.6c0.6,0,1.1-0.2,1.5-0.6c0.5-0.5,0.7-1,0.7-1.6
						c0-0.6-0.2-1.2-0.7-1.6C22.5,14.4,21.9,14.2,21.3,14.2 M23.4,11.7c-0.1-0.2-0.3-0.2-0.5-0.2c-0.2,0-0.4,0.1-0.5,0.2l-0.2,0.5
						l0.2,0.5l0.3,0.1l0.2,0l0.4-0.1l0.1-0.1l0.2-0.5L23.4,11.7z"/>
				</g>
			</g>
		</g>
	</g>
</g>
<g transform="matrix( 1, 0, 0, 1, 0,0) ">
	<g transform="matrix( 1, 0, 0, 1, 0,0) ">
		<g>
			<g id="Symbol_10_0_Layer2_0_FILL">
				
					<radialGradient id="SVGID_1_" cx="9.2788" cy="10.9864" r="9.7513" gradientTransform="matrix(1 0 0 -1 -0.7 18.8398)" gradientUnits="userSpaceOnUse">
					<stop  offset="0" style="stop-color:#000000;stop-opacity:0"/>
					<stop  offset="0.698" style="stop-color:#000000;stop-opacity:0"/>
					<stop  offset="1" style="stop-color:#000000;stop-opacity:0.251"/>
				</radialGradient>
				<path class="st2" d="M16.4,3.7c0,0.2-0.1,0.4-0.1,0.6c-0.5,2.2-1.5,4.3-3,6.1c-1.5,1.8-3.2,3.2-5.3,4.1c-1.3,0.6-2.7,1-4.1,1.2
					c1.6,1.4,3.5,2,5.6,2.1c2.4,0,4.4-0.9,6.2-2.6c1.7-1.7,2.6-3.8,2.6-6.2C18.2,7,17.6,5.2,16.4,3.7z"/>
			</g>
		</g>
	</g>
	<g transform="matrix( 1, 0, 0, 1, 0,0) ">
		<g>
			<g id="Symbol_10_0_Layer1_0_FILL">
				<path class="st3" d="M15.7,15.3c1.7-1.7,2.6-3.8,2.6-6.2c0-1.9-0.5-3.5-1.6-5c-1.5,6.8-5.8,10.7-12.8,11.7
					c1.6,1.4,3.5,2,5.6,2.1C11.9,17.8,13.9,16.9,15.7,15.3z"/>
			</g>
		</g>
		<g>
			<path id="Symbol_10_0_Layer1_0_1_STROKES" class="st4" d="M16.7,4.1c1,1.5,1.5,3.1,1.5,5c0,2.4-0.9,4.4-2.6,6.2
				c-1.7,1.7-3.8,2.5-6.2,2.6c-2.2,0-4-0.7-5.6-2"/>
		</g>
		<g>
			<path id="Symbol_10_0_Layer1_0_2_STROKES" class="st5" d="M3.9,15.8c7-1,11.2-4.9,12.8-11.7"/>
		</g>
	</g>
	<g transform="matrix( 1, 0, 0, 1, 0,0) ">
		<g>
			<g id="Symbol_10_0_Layer0_0_FILL">
				
					<linearGradient id="SVGID_2_" gradientUnits="userSpaceOnUse" x1="15.5045" y1="4.4102" x2="18.7933" y2="16.6913" gradientTransform="matrix(1 0 0 -1 0 19.8898)">
					<stop  offset="0.2039" style="stop-color:#FFFFFF;stop-opacity:0"/>
					<stop  offset="0.7373" style="stop-color:#FFFFFF;stop-opacity:0.2196"/>
					<stop  offset="1" style="stop-color:#FFFFFF;stop-opacity:0.651"/>
					<stop  offset="1" style="stop-color:#000000;stop-opacity:0.251"/>
				</linearGradient>
				<path class="st6" d="M18.2,8.1c-0.2-1.5-0.4-2.3-0.6-2.4c-0.2-0.1-0.4,0.5-0.8,1.6c-0.4,1.1-0.8,2.4-1.2,4l-0.4,1.5l0.9,0.1
					l0.3-1.3C17.8,10.7,18.4,9.6,18.2,8.1z"/>
			</g>
		</g>
	</g>
</g>
</svg>
