<?xml version="1.0" encoding="utf-8"?>
<!-- Generator: Adobe Illustrator 24.0.1, SVG Export Plug-In . SVG Version: 6.00 Build 0)  -->
<svg version="1.1" xmlns="http://www.w3.org/2000/svg" xmlns:xlink="http://www.w3.org/1999/xlink" x="0px" y="0px" width="20.6px"
	 height="20.4px" viewBox="0 0 20.6 20.4" style="enable-background:new 0 0 20.6 20.4;" xml:space="preserve">
<style type="text/css">
	.st0{fill:#66CCFF;}
	.st1{fill:#FFCC00;}
</style>
<g id="Capa_2">
	<path class="st0" d="M18.2,19.8H5c-1.3,0-2.4-1.1-2.4-2.4v-10C2.6,6.1,3.6,5,5,5h13.3c1.3,0,2.4,1.1,2.4,2.4v10
		C20.6,18.7,19.5,19.8,18.2,19.8z"/>
	<path d="M7.2,14.5l-0.7,0.9c-0.1,0.1-0.2,0.3-0.3,0.5c-0.1-0.1-0.2-0.3-0.3-0.5l-0.6-0.9H4.6l1.3,1.8l-1.4,2h0.8l1-1.5l1,1.5H8
		l-1.4-2l1.3-1.8L7.2,14.5 M11.9,15.3c0-0.2-0.1-0.4-0.2-0.5c-0.1-0.1-0.3-0.2-0.5-0.3c-0.2-0.1-0.5-0.1-0.8-0.1
		c-0.3,0-0.6,0.1-0.9,0.2c-0.2,0.1-0.4,0.2-0.6,0.4c-0.1,0.2-0.2,0.4-0.3,0.7l0.7,0.1c0.1-0.3,0.2-0.5,0.3-0.6
		C9.9,15,10.1,15,10.4,15c0.3,0,0.6,0.1,0.7,0.2c0.1,0.1,0.2,0.3,0.2,0.6v0.2c-0.2,0.1-0.6,0.1-1.2,0.2c-0.2,0-0.4,0.1-0.6,0.1
		c-0.2,0.1-0.3,0.1-0.5,0.2c-0.1,0.1-0.2,0.2-0.3,0.4c-0.1,0.1-0.2,0.3-0.2,0.5c0,0.3,0.1,0.6,0.4,0.8c0.2,0.2,0.5,0.3,1,0.3
		c0.2,0,0.5-0.1,0.7-0.2c0.2-0.1,0.4-0.2,0.7-0.4c0,0.2,0.1,0.3,0.1,0.5h0.7C12.1,18.1,12,18,12,17.8v-2C12,15.6,12,15.4,11.9,15.3
		 M11.3,16.4v0.2c0,0.3,0,0.5-0.1,0.7c-0.1,0.2-0.2,0.3-0.4,0.5c-0.2,0.1-0.4,0.2-0.7,0.2c-0.3,0-0.5-0.1-0.6-0.2
		c-0.1-0.1-0.2-0.2-0.2-0.4c0-0.1,0-0.2,0.1-0.3c0.1-0.1,0.2-0.2,0.3-0.2c0.1,0,0.3-0.1,0.6-0.1C10.7,16.6,11.1,16.5,11.3,16.4
		 M13.7,13.2l-0.6,0.4v1h-0.5V15h0.5v2.1c0,0.4,0,0.7,0.1,0.8c0.1,0.1,0.2,0.2,0.3,0.3c0.1,0.1,0.3,0.1,0.5,0.1c0.1,0,0.3,0,0.5-0.1
		l-0.1-0.6H14c-0.1,0-0.1,0-0.2-0.1l-0.1-0.1c0-0.1-0.1-0.2-0.1-0.4V15h0.7v-0.5h-0.7L13.7,13.2 M18.1,17.7c0.1-0.2,0.2-0.4,0.2-0.6
		c0-0.2-0.1-0.4-0.2-0.6c-0.1-0.1-0.2-0.2-0.4-0.3s-0.5-0.2-1-0.3c-0.3-0.1-0.5-0.1-0.6-0.2c-0.1-0.1-0.2-0.1-0.3-0.2
		c0,0-0.1-0.1-0.1-0.2c0-0.1,0.1-0.3,0.2-0.4c0.1-0.1,0.4-0.1,0.7-0.1c0.2,0,0.4,0.1,0.6,0.2c0.1,0.1,0.2,0.3,0.3,0.5l0.6-0.1
		c0-0.2-0.1-0.4-0.2-0.6c-0.1-0.2-0.3-0.3-0.5-0.4c-0.2-0.1-0.5-0.2-0.8-0.2c-0.2,0-0.4,0-0.6,0.1c-0.2,0-0.3,0.1-0.4,0.2
		c-0.1,0.1-0.2,0.2-0.3,0.4c-0.1,0.2-0.1,0.3-0.1,0.5c0,0.2,0,0.3,0.1,0.5c0.1,0.1,0.2,0.3,0.4,0.4c0.2,0.1,0.5,0.2,1,0.3
		c0.3,0.1,0.5,0.1,0.6,0.2c0.1,0.1,0.2,0.2,0.2,0.4c0,0.1-0.1,0.3-0.2,0.4c-0.1,0.1-0.4,0.2-0.7,0.2c-0.3,0-0.5-0.1-0.7-0.2
		s-0.3-0.3-0.3-0.6l-0.7,0.1c0.1,0.4,0.3,0.7,0.5,0.9c0.3,0.2,0.6,0.3,1.1,0.3c0.3,0,0.6-0.1,0.8-0.2C17.8,18.1,17.9,17.9,18.1,17.7
		 M10.4,8.1v0.5C10.1,8.2,9.8,8,9.3,8C9,8,8.7,8.1,8.5,8.3C8.2,8.4,8,8.7,7.9,9c-0.1,0.3-0.2,0.6-0.2,1c0,0.5,0.1,0.9,0.4,1.3
		c0.3,0.4,0.7,0.6,1.2,0.6c0.4,0,0.7-0.2,1-0.5c0,0.4,0,0.7-0.1,0.8c0,0.2-0.1,0.4-0.3,0.5c-0.2,0.1-0.4,0.2-0.7,0.2
		c-0.3,0-0.5-0.1-0.6-0.2c-0.1-0.1-0.2-0.2-0.3-0.4l-0.6-0.1c0,0.4,0.1,0.7,0.4,0.9s0.6,0.3,1.1,0.3c0.4,0,0.7-0.1,0.9-0.2
		c0.3-0.1,0.5-0.3,0.6-0.6c0.1-0.3,0.2-0.7,0.2-1.3V8.1H10.4 M9.4,8.6c0.3,0,0.5,0.1,0.7,0.3c0.2,0.2,0.3,0.6,0.3,1.1
		c0,0.5-0.1,0.8-0.3,1.1c-0.2,0.2-0.4,0.4-0.7,0.4c-0.3,0-0.6-0.1-0.8-0.4c-0.2-0.2-0.3-0.6-0.3-1.1c0-0.5,0.1-0.8,0.3-1.1
		C8.8,8.7,9.1,8.6,9.4,8.6 M15.6,10.1V10c0-0.6-0.2-1.1-0.5-1.5C14.8,8.2,14.3,8,13.8,8s-0.9,0.2-1.3,0.6c-0.3,0.3-0.5,0.8-0.5,1.5
		c0,0.6,0.2,1.1,0.5,1.4c0.3,0.3,0.7,0.5,1.3,0.5c0.4,0,0.8-0.1,1.1-0.4c0.3-0.2,0.5-0.5,0.6-0.9l-0.7-0.1c-0.1,0.3-0.2,0.5-0.4,0.6
		c-0.2,0.1-0.4,0.2-0.6,0.2c-0.3,0-0.6-0.1-0.8-0.3c-0.2-0.2-0.3-0.6-0.4-1L15.6,10.1 M13.1,8.8c0.2-0.2,0.4-0.3,0.7-0.3
		c0.3,0,0.6,0.1,0.8,0.4c0.1,0.1,0.2,0.4,0.2,0.7h-2.1C12.8,9.3,12.9,9,13.1,8.8 M17.1,6.8l-0.6,0.4v1H16v0.5h0.5v2.1
		c0,0.4,0,0.7,0.1,0.8c0.1,0.1,0.2,0.2,0.3,0.3c0.1,0.1,0.3,0.1,0.5,0.1c0.1,0,0.3,0,0.5-0.1l-0.1-0.6h-0.3c-0.1,0-0.1,0-0.2-0.1
		l-0.1-0.1c0-0.1-0.1-0.2-0.1-0.4V8.6h0.7V8.1h-0.7C17.1,8.1,17.1,6.8,17.1,6.8z"/>
</g>
<g id="Capa_1">
	<path id="b" class="st1" d="M3,5.8L2.6,9.2l2.5-2.4l3.1,1.5L6.7,5.2l2.4-2.5L5.7,3.2L4,0.1L3.4,3.5L0,4.1L3,5.8z"/>
</g>
</svg>
