<?xml version="1.0" encoding="utf-8"?>
<!-- Generator: Adobe Illustrator 25.1.0, SVG Export Plug-In . SVG Version: 6.00 Build 0)  -->
<svg version="1.1" id="Camada_1" xmlns="http://www.w3.org/2000/svg" xmlns:xlink="http://www.w3.org/1999/xlink" x="0px" y="0px"
	 viewBox="0 0 19 19" style="enable-background:new 0 0 19 19;" xml:space="preserve">
<style type="text/css">
	.st0{fill:#666666;}
	.st1{opacity:0.5;}
	.st2{fill:url(#SVGID_1_);}
	.st3{fill:url(#SVGID_2_);}
	.st4{fill:none;stroke:#000000;stroke-width:0.6;stroke-linecap:round;stroke-linejoin:round;stroke-opacity:0.651;}
	.st5{fill:none;stroke:#FFFFFF;stroke-linecap:round;stroke-linejoin:round;}
	.st6{fill:none;stroke:#000000;stroke-width:5.000000e-02;stroke-linecap:round;stroke-linejoin:round;}
</style>
<g transform="matrix( 0.6670684814453125, 0, 0, 0.736572265625, 25.85,4.35) ">
	<g id="col0_FL_1_" transform="matrix( 1, 0, 0, 1, 0.5,0.5) ">
		<g transform="matrix( 1, 0, 0, 1, 0,0) ">
			<g>
				<g id="ChatterB_0_Layer0_0_FILL_2_">
					<path class="st0" d="M-20.7,0.9c0-1.2-0.5-2.1-1.4-3c-0.9-0.7-2-1.2-3.4-1.2c-1.4,0-2.4,0.4-3.4,1.2c-0.9,0.7-1.4,1.8-1.4,3
						s0.5,2.1,1.4,3c0.9,0.7,2,1.2,3.4,1.2c-1.5,0.1-3.1,1-4.4,2.8c-1.7,1.9-2.4,4.5-2.3,7c0,0.7,2.4,1.3,7.2,1.3
						c4.7,0.1,7-0.3,7-1.2c-0.2-2.7-0.9-5-2.4-7.1c-1.4-1.9-2.9-3-4.6-3c1.2,0,2.1-0.4,3.1-1.2C-21.1,2.8-20.7,1.9-20.7,0.9z"/>
				</g>
			</g>
		</g>
	</g>
	<g transform="matrix( 1, 0, 0, 1, 0,0) " class="st1">
		<g>
			<g id="C_pia_de_Pawn_0_Layer0_0_FILL_1_">
				
					<radialGradient id="SVGID_1_" cx="-15.6839" cy="10.3515" r="2.55" gradientTransform="matrix(1.3027 0 0 1.2681 -3.7835 -3.9973)" gradientUnits="userSpaceOnUse">
					<stop  offset="0" style="stop-color:#000000;stop-opacity:0.4118"/>
					<stop  offset="1" style="stop-color:#013198;stop-opacity:0"/>
				</radialGradient>
				<path class="st2" d="M-24.4,5.5c-0.2,0-0.3,0-0.3,0l0,0c-1.5,0.1-3.1,1-4.4,2.8c-1.7,1.9-2.4,4.3-2.3,7c0,0.7,2.4,1.2,7.2,1.3
					s7-0.3,7-1.2c-0.2-2.7-0.9-5-2.3-7.1C-21.2,6.4-22.8,5.5-24.4,5.5 M-28.6,14.7c0.3-3.4,1.5-5.8,3.8-7.1
					C-27,8.8-28.2,11.2-28.6,14.7z"/>
				
					<radialGradient id="SVGID_2_" cx="-15.8628" cy="2.3753" r="1.454" gradientTransform="matrix(1.3027 0 0 1.2681 -3.7835 -3.9973)" gradientUnits="userSpaceOnUse">
					<stop  offset="0" style="stop-color:#000000;stop-opacity:0.4235"/>
					<stop  offset="1" style="stop-color:#013198;stop-opacity:0"/>
				</radialGradient>
				<path class="st3" d="M-21.5-1.6c-0.9-0.7-2-1.2-3.4-1.2s-2.4,0.4-3.4,1.2c-0.9,0.7-1.4,1.8-1.4,3s0.5,2.1,1.4,3
					c0.9,0.7,2,1.2,3.4,1.2l0,0c0.2,0,0.2,0,0.3,0c1.1-0.1,2.1-0.6,2.9-1.2c0.9-0.7,1.4-1.8,1.4-3S-20.6-0.7-21.5-1.6 M-27.2,1.4
					c0.2-1,0.8-1.9,1.8-2.2C-26.4-0.4-27,0.3-27.2,1.4z"/>
			</g>
		</g>
		<g>
			<path id="C_pia_de_Pawn_0_Layer0_0_1_STROKES_1_" class="st4" d="M-24.9,5.5c-1.4,0-2.4-0.4-3.4-1.2c-0.9-0.7-1.4-1.8-1.4-3
				s0.5-2.1,1.4-3c0.9-0.7,2-1.2,3.4-1.2s2.4,0.4,3.4,1.2c0.9,0.7,1.4,1.8,1.4,3s-0.5,2.1-1.4,3c-0.8,0.6-1.8,1.2-2.9,1.2
				c1.7,0,3.2,0.9,4.6,3c1.4,2.1,2.1,4.3,2.3,7.1c0,0.7-2.3,1.2-7,1.2s-7.2-0.6-7.2-1.3c0-2.7,0.8-4.9,2.3-7
				C-27.8,6.6-26.4,5.5-24.9,5.5z"/>
		</g>
		<g>
			<path id="C_pia_de_Pawn_0_Layer0_0_2_STROKES_1_" class="st5" d="M-27.2,1.4c0.2-1,0.8-1.9,1.8-2.2 M-28.6,14.7
				c0.3-3.4,1.5-5.8,3.8-7.1"/>
		</g>
		<g>
			<path id="C_pia_de_Pawn_0_Layer0_0_3_STROKES_1_" class="st6" d="M-24.7,5.5L-24.7,5.5"/>
		</g>
	</g>
</g>
</svg>
