<?xml version="1.0" encoding="utf-8"?>
<!-- Generator: Adobe Illustrator 25.1.0, SVG Export Plug-In . SVG Version: 6.00 Build 0)  -->
<svg version="1.1" id="Camada_1" xmlns="http://www.w3.org/2000/svg" xmlns:xlink="http://www.w3.org/1999/xlink" x="0px" y="0px"
	 viewBox="0 0 21 21" style="enable-background:new 0 0 21 21;" xml:space="preserve">
<style type="text/css">
	.st0{fill:#FF0000;}
	.st1{fill:none;stroke:#FFFFFF;stroke-linecap:round;stroke-linejoin:round;}
	.st2{fill:none;stroke:#CC0000;stroke-linecap:round;stroke-linejoin:round;}
</style>
<g transform="matrix(.78311 0 0 .78473 3.55 5.1)">
	<g>
		<path id="a" class="st0" d="M19.6,6.4c-2-0.4-3.7-2.1-5.1-4.9c-1.3-2.9-3.1-1.8-5.3,3.2c-2-4.8-3.9-5.8-5.7-3
			C1.6,4.5,0.2,6.1-0.9,6.5c4.4,5.8,7.7,8.6,9.9,8.6C11.3,15.1,14.8,12.1,19.6,6.4 M12.8,1.1l-1.5,1.7L12.8,1.1 M5.3,1.2l-1.4,2
			L5.3,1.2 M6.6,7.3c1.8,0.3,3.3,0.3,4.6,0C9.9,7.6,8.4,7.6,6.6,7.3 M3.8,8.4c3.5,4.5,7.1,4.4,10.8-0.3C10.9,12.8,7.3,12.9,3.8,8.4z
			"/>
	</g>
	<g>
		<path id="b" class="st1" d="M12.8,1.1l-1.5,1.7 M5.3,1.2l-1.4,2 M3.8,8.4c3.5,4.5,7.1,4.4,10.8-0.3"/>
	</g>
	<g>
		<path id="c" class="st2" d="M6.6,7.3c1.8,0.3,3.3,0.3,4.6,0"/>
	</g>
</g>
</svg>
