
<svg xmlns="http://www.w3.org/2000/svg" version="1.1" xmlns:xlink="http://www.w3.org/1999/xlink" preserveAspectRatio="none" x="0px" y="0px" width="23px" height="23px" viewBox="0 0 23 23">
<defs>
<g id="Layer0_0_MEMBER_0_FILL">
<path fill="#000000" stroke="none" d="
M 10.8 10.9
Q 11.5896484375 10.8966796875 12.15 11.45 12.7033203125 12.0103515625 12.7 12.8 12.7 12.95 12.7 13.05 12.703515625 13.4607421875 13 13.75 13.2892578125 14.046484375 13.7 14.05 14.1107421875 14.046484375 14.4 13.75 14.696484375 13.4607421875 14.7 13.05 14.7 12.95 14.7 12.8 14.6966796875 11.1896484375 13.55 10.05 12.4103515625 8.9033203125 10.8 8.9
L 5.5 8.9
Q 3.8896484375 8.9033203125 2.75 10.05 1.6033203125 11.1896484375 1.6 12.8 1.6033203125 14.4103515625 2.75 15.55 3.8896484375 16.6966796875 5.5 16.7
L 8.55 16.7
Q 8.9607421875 16.696484375 9.25 16.4 9.546484375 16.1107421875 9.55 15.7 9.546484375 15.2892578125 9.25 15 8.9607421875 14.703515625 8.55 14.7
L 5.5 14.7
Q 4.7103515625 14.7033203125 4.15 14.15 3.5966796875 13.5896484375 3.6 12.8 3.5966796875 12.0103515625 4.15 11.45 4.7103515625 10.8966796875 5.5 10.9
L 10.8 10.9 Z"/>
</g>

<g id="Layer0_0_MEMBER_1_FILL">
<path fill="#000000" stroke="none" d="
M 22.55 12.8
Q 22.5466796875 11.1896484375 21.4 10.05 20.2603515625 8.9033203125 18.65 8.9
L 15.6 8.9
Q 15.1892578125 8.903515625 14.9 9.2 14.603515625 9.4892578125 14.6 9.9 14.603515625 10.3107421875 14.9 10.6 15.1892578125 10.896484375 15.6 10.9
L 18.65 10.9
Q 19.4396484375 10.8966796875 20 11.45 20.5533203125 12.0103515625 20.55 12.8 20.5533203125 13.5896484375 20 14.15 19.4396484375 14.7033203125 18.65 14.7
L 13.35 14.7
Q 12.5603515625 14.7033203125 12 14.15 11.4466796875 13.5896484375 11.45 12.8 11.45 12.65 11.45 12.55 11.446484375 12.1392578125 11.15 11.85 10.8607421875 11.553515625 10.45 11.55 10.0392578125 11.553515625 9.75 11.85 9.453515625 12.1392578125 9.45 12.55 9.45 12.65 9.45 12.8 9.4533203125 14.4103515625 10.6 15.55 11.7396484375 16.6966796875 13.35 16.7
L 18.65 16.7
Q 20.2603515625 16.6966796875 21.4 15.55 22.5466796875 14.4103515625 22.55 12.8 Z"/>
</g>
</defs>

<g transform="matrix( 0.9547882080078125, -0.9547882080078125, 0.9547882080078125, 0.9547882080078125, -12.25,10.85) ">
<use xlink:href="#Layer0_0_MEMBER_0_FILL"/>
</g>

<g transform="matrix( 0.9547882080078125, -0.9547882080078125, 0.9547882080078125, 0.9547882080078125, -12.25,10.85) ">
<use xlink:href="#Layer0_0_MEMBER_1_FILL"/>
</g>
</svg>
