<?xml version="1.0" encoding="utf-8"?>
<!-- Generator: Adobe Illustrator 24.0.1, SVG Export Plug-In . SVG Version: 6.00 Build 0)  -->
<svg version="1.1" xmlns="http://www.w3.org/2000/svg" xmlns:xlink="http://www.w3.org/1999/xlink" x="0px" y="0px" width="22px"
	 height="22px" viewBox="0 0 22 22" style="enable-background:new 0 0 22 22;" xml:space="preserve">
<style type="text/css">
	.Sombra_x0020_paralela{fill:none;}
	.Resplandor_x0020_externo_x0020_5_x0020_pt_x002E_{fill:none;}
	.Neón_x0020_azul{fill:none;stroke:#8AACDA;stroke-width:7;stroke-linecap:round;stroke-linejoin:round;}
	.Resalte_x0020_cromado{fill:url(#SVGID_1_);stroke:#FFFFFF;stroke-width:0.3629;stroke-miterlimit:1;}
	.A_x0020_todo_x0020_ritmo_GS{fill:#FFDD00;}
	.Alyssa_GS{fill:#000000;}
	.st0{fill:#000000;}
</style>
<linearGradient id="SVGID_1_" gradientUnits="userSpaceOnUse" x1="0" y1="0" x2="6.123234e-17" y2="-1">
	<stop  offset="0" style="stop-color:#656565"/>
	<stop  offset="0.618" style="stop-color:#1B1B1B"/>
	<stop  offset="0.6292" style="stop-color:#545454"/>
	<stop  offset="0.9831" style="stop-color:#3E3E3E"/>
</linearGradient>
<g id="Capa_7">
</g>
<g id="Capa_3">
</g>
<g id="Capa_2">
	<path class="st0" d="M11.083,20.292c-0.666-0.386-2.246-1.382-3.25-2.208C5,15.75,0.01,12.117,0.917,7.25
		c0.348-1.868,1.828-4.11,4.167-4.583c2.166-0.438,4.574,0.74,6,3c0.27-0.486,1.548-2.666,4-3.125c0.855-0.16,1.522-0.045,1.75,0
		c1.98,0.39,3.748,2.187,4.25,3.958c1.19,4.205-4.487,9.214-7.125,11.542C12.835,19.033,11.823,19.78,11.083,20.292z"/>
</g>
</svg>
