
<svg xmlns="http://www.w3.org/2000/svg" version="1.1" xmlns:xlink="http://www.w3.org/1999/xlink" preserveAspectRatio="none" x="0px" y="0px" width="19px" height="19px" viewBox="0 0 19 19">
<defs>
<g id="a_0_Layer0_0_FILL">
<path fill="#FFFFFF" stroke="none" d="
M 2.15 10.7
L 3.15 8.35 8.2 8.35 9.2 10.7 11.35 10.7 6.75 0 4.6 0 0 10.7 2.15 10.7
M 4.35 6.5
L 5.65 2.9 6.85 6.5 4.35 6.5 Z"/>
</g>

<g id="japanese_0_Layer0_0_FILL">
<path fill="#64695D" stroke="none" d="
M 10.65 3
L 10.65 1.6 6.1 1.6 6.1 0 4.6 0 4.6 1.7 0.2 1.7 0.2 2.95 7.2 2.95
Q 7.3 5.35 5.35 6.7 4.05 5.65 3.6 3.6
L 2.1 3.6
Q 2.6 6.1 4 7.8 2.9 8.7 0 9.6
L 0.85 11
Q 3.15 10.15 5.3 8.9 7.3 10.35 8.9 10.5
L 10.2 9.45
Q 8.05 9.2 6.8 7.7 8.6 6.2 8.85 3
L 10.65 3 Z"/>
</g>

<g id="arrows_0_Layer0_0_FILL">
<path fill="#0067CD" stroke="none" d="
M 2.85 0
L 0 3.4 1.9 3.4
Q 1.55 9 6.25 8.7
L 6.25 9.85 9.85 7.6 6.45 5 6.45 6.5
Q 4.1 6.45 4.3 3.4
L 6 3.4 2.85 0 Z"/>
</g>
</defs>

<g transform="matrix( 0.850006103515625, 0, 0, 0.850006103515625, 1.05,2) ">
<g transform="matrix( 1, 0, 0, 1, 8.6,7) ">
<g transform="matrix( 1, 0, 0, 1, 0,0) ">
<use xlink:href="#a_0_Layer0_0_FILL"/>
</g>
</g>

<g transform="matrix( 1, 0, 0, 1, 0,0) ">
<g transform="matrix( 1, 0, 0, 1, 0,0) ">
<use xlink:href="#japanese_0_Layer0_0_FILL"/>
</g>
</g>

<g transform="matrix( 1, 0, 0, 1, 3.05,6.45) ">
<g transform="matrix( 1, 0, 0, 1, 0,0) ">
<use xlink:href="#arrows_0_Layer0_0_FILL"/>
</g>
</g>
</g>
</svg>
