<?xml version="1.0" encoding="UTF-8"?>
<!DOCTYPE svg PUBLIC "-//W3C//DTD SVG 1.1//EN" "http://www.w3.org/Graphics/SVG/1.1/DTD/svg11.dtd">
<!-- Creator: CorelDRAW -->
<svg xmlns="http://www.w3.org/2000/svg" xml:space="preserve" width="666px" height="608px" version="1.1" style="shape-rendering:geometricPrecision; text-rendering:geometricPrecision; image-rendering:optimizeQuality; fill-rule:evenodd; clip-rule:evenodd"
viewBox="0 0 666 608.63"
 xmlns:xlink="http://www.w3.org/1999/xlink"
 xmlns:xodm="http://www.corel.com/coreldraw/odm/2003">
 <defs>
  <style type="text/css">
   <![CDATA[
    .fil1 {fill:#FEFEFE}
    .fil2 {fill:#FEFEFE}
    .fil0 {fill:url(#id2)}
   ]]>
  </style>
    <mask id="id0">
  <linearGradient id="id1" gradientUnits="userSpaceOnUse" x1="337.49" y1="312.53" x2="97.76" y2="5.87">
   <stop offset="0" style="stop-opacity:0; stop-color:white"/>
   <stop offset="0.619608" style="stop-opacity:0.501961; stop-color:white"/>
   <stop offset="1" style="stop-opacity:1; stop-color:white"/>
  </linearGradient>
     <rect style="fill:url(#id1)" x="8.9" y="6.48" width="642.86" height="587.69"/>
    </mask>
  <linearGradient id="id2" gradientUnits="userSpaceOnUse" x1="129.73" y1="61.76" x2="536.27" y2="546.87">
   <stop offset="0" style="stop-opacity:1; stop-color:#c316e1"/>
   <stop offset="1" style="stop-opacity:1; stop-color:#17bfff"/>
  </linearGradient>
 </defs>
 <g id="Camada_x0020_1">
  <metadata id="CorelCorpID_0Corel-Layer"/>
  <g id="_3087240683968">
   <path class="fil0" d="M207.42 532.89c-41.22,-66.82 -117.79,-196.66 -157.14,-264.71 -39.35,-68.06 -41.46,-74.32 -43.83,-84.52 -2.37,-10.2 -4.98,-24.34 -5.97,-37.65 -0.99,-13.31 -0.35,-25.78 1.1,-35.93 1.45,-10.16 3.73,-18.01 8.19,-27.3 4.46,-9.29 11.11,-20.03 20.84,-30.24 9.73,-10.21 22.54,-19.89 34.01,-26.71 11.48,-6.82 21.64,-10.77 35.86,-14.25 14.23,-3.49 32.53,-6.5 49.98,-8.56 17.45,-2.07 34.05,-3.18 51.27,-3 17.23,0.18 35.07,1.67 51.44,3.5 16.37,1.82 31.27,4 51.97,8.67 20.7,4.66 47.21,11.83 75.96,21.26 28.74,9.42 59.72,21.11 89.08,34.14 29.36,13.04 57.1,27.43 81.59,43.03 24.49,15.61 45.73,32.42 62.66,48.17 16.93,15.75 29.55,30.43 37.14,40.94 7.6,10.5 10.17,16.83 12.05,26.53 1.89,9.69 3.09,22.75 1.91,37.88 -1.18,15.13 -4.74,32.33 -14.67,54.84 -9.94,22.51 -26.25,50.32 -41.48,71.62 -15.24,21.31 -29.4,36.11 -48.15,53.7 -18.75,17.59 -42.09,37.97 -67.1,57.18 -25.01,19.2 -51.68,37.22 -76.65,52.52 -24.96,15.3 -48.21,27.87 -68.29,36.89 -20.08,9.02 -37,14.48 -51.27,16.63 -14.27,2.14 -25.9,0.96 -34.65,-1.53 -8.76,-2.49 -14.63,-6.28 -55.85,-73.1z"/>
   <path class="fil1" style="mask:url(#id0)" d="M209.56 520.15c-39.64,-64.26 -113.28,-189.13 -151.12,-254.58 -37.84,-65.45 -39.88,-71.47 -42.16,-81.29 -2.27,-9.81 -4.79,-23.41 -5.74,-36.2 -0.95,-12.8 -0.34,-24.79 1.06,-34.56 1.4,-9.77 3.58,-17.32 7.87,-26.25 4.3,-8.94 10.69,-19.27 20.05,-29.09 9.36,-9.82 21.67,-19.13 32.71,-25.68 11.04,-6.56 20.81,-10.36 34.49,-13.71 13.68,-3.35 31.28,-6.25 48.06,-8.23 16.79,-1.99 32.75,-3.06 49.31,-2.88 16.56,0.17 33.73,1.6 49.47,3.36 15.74,1.76 30.07,3.84 49.98,8.34 19.91,4.49 45.41,11.38 73.05,20.44 27.64,9.07 57.44,20.31 85.67,32.84 28.23,12.54 54.91,26.38 78.46,41.39 23.56,15 43.99,31.17 60.27,46.32 16.28,15.15 28.42,29.27 35.72,39.37 7.3,10.1 9.78,16.19 11.59,25.51 1.81,9.32 2.97,21.88 1.83,36.44 -1.13,14.55 -4.56,31.09 -14.11,52.74 -9.55,21.64 -25.24,48.39 -39.89,68.88 -14.65,20.49 -28.27,34.72 -46.31,51.64 -18.03,16.91 -40.48,36.52 -64.53,54.98 -24.05,18.47 -49.7,35.81 -73.71,50.52 -24.01,14.71 -46.36,26.8 -65.68,35.47 -19.31,8.68 -35.58,13.94 -49.3,16 -13.73,2.06 -24.92,0.92 -33.33,-1.47 -8.42,-2.39 -14.06,-6.04 -53.71,-70.3z"/>
   <path class="fil2" d="M469.21 289.97c10.99,-10.37 12.97,-11.55 5.1,-19.67 -30.51,-31.44 -197.41,-130.92 -224.89,-127.12 -16.23,22.4 -18.46,271.87 3.37,269.29 2.45,-0.29 0.85,0.13 2.03,-0.8 22.67,2.02 187.4,-96.21 214.39,-121.7z"/>
  </g>
 </g>
</svg>
