<?xml version="1.0" encoding="UTF-8"?>
<!DOCTYPE svg PUBLIC "-//W3C//DTD SVG 1.1//EN" "http://www.w3.org/Graphics/SVG/1.1/DTD/svg11.dtd">
<!-- Creator: CorelDRAW -->
<svg xmlns="http://www.w3.org/2000/svg" xml:space="preserve" width="55px" height="43px" version="1.1" style="shape-rendering:geometricPrecision; text-rendering:geometricPrecision; image-rendering:optimizeQuality; fill-rule:evenodd; clip-rule:evenodd"
viewBox="0 0 54.97 42.95"
 xmlns:xlink="http://www.w3.org/1999/xlink"
 xmlns:xodm="http://www.corel.com/coreldraw/odm/2003">
 <defs>
  <style type="text/css">
   <![CDATA[
    .str0 {stroke:#333333;stroke-width:2;stroke-linecap:round;stroke-linejoin:round;stroke-miterlimit:22.9256}
    .fil2 {fill:none;fill-rule:nonzero}
    .fil1 {fill:#FEFEFE;fill-rule:nonzero}
    .fil12 {fill:#00980E;fill-rule:nonzero}
    .fil9 {fill:#5756FC;fill-rule:nonzero}
    .fil0 {fill:#DD262F;fill-rule:nonzero}
    .fil6 {fill:#FD9718;fill-rule:nonzero}
    .fil4 {fill:white;fill-rule:nonzero;fill-opacity:0.200000}
    .fil3 {fill:url(#id8);fill-rule:nonzero}
    .fil7 {fill:url(#id9);fill-rule:nonzero}
    .fil14 {fill:url(#id10);fill-rule:nonzero}
    .fil5 {fill:url(#id11);fill-rule:nonzero}
    .fil13 {fill:url(#id12);fill-rule:nonzero}
    .fil10 {fill:url(#id13);fill-rule:nonzero}
    .fil8 {fill:url(#id14);fill-rule:nonzero}
    .fil11 {fill:url(#id15);fill-rule:nonzero}
   ]]>
  </style>
        <mask id="id0">
  <linearGradient id="id1" gradientUnits="userSpaceOnUse" x1="14.91" y1="16.27" x2="4.73" y2="8.25">
   <stop offset="0" style="stop-opacity:0; stop-color:white"/>
   <stop offset="0.631373" style="stop-opacity:0.501961; stop-color:white"/>
   <stop offset="1" style="stop-opacity:1; stop-color:white"/>
  </linearGradient>
         <rect style="fill:url(#id1)" x="3.31" y="5.47" width="32.25" height="31.49"/>
        </mask>
        <mask id="id2">
  <linearGradient id="id3" gradientUnits="userSpaceOnUse" x1="23.36" y1="15.15" x2="14.5" y2="2.35">
   <stop offset="0" style="stop-opacity:0; stop-color:white"/>
   <stop offset="1" style="stop-opacity:1; stop-color:white"/>
  </linearGradient>
         <rect style="fill:url(#id3)" x="11.35" y="3.18" width="29.8" height="32.6"/>
        </mask>
        <mask id="id4">
  <linearGradient id="id5" gradientUnits="userSpaceOnUse" x1="33.6" y1="13.9" x2="31.16" y2="1.15">
   <stop offset="0" style="stop-opacity:0; stop-color:white"/>
   <stop offset="0.611765" style="stop-opacity:0.501961; stop-color:white"/>
   <stop offset="1" style="stop-opacity:1; stop-color:white"/>
  </linearGradient>
         <rect style="fill:url(#id5)" x="22.5" y="4.79" width="23.17" height="30.24"/>
        </mask>
       <mask id="id6">
  <linearGradient id="id7" gradientUnits="userSpaceOnUse" x1="40.93" y1="19.79" x2="43.74" y2="5.19">
   <stop offset="0" style="stop-opacity:0; stop-color:white"/>
   <stop offset="0.639216" style="stop-opacity:0.501961; stop-color:white"/>
   <stop offset="1" style="stop-opacity:1; stop-color:white"/>
  </linearGradient>
        <rect style="fill:url(#id7)" x="28.44" y="7.77" width="23.72" height="30.61"/>
       </mask>
  <linearGradient id="id8" gradientUnits="userSpaceOnUse" x1="16.83" y1="-28.82" x2="19.66" y2="20.72">
   <stop offset="0" style="stop-opacity:1; stop-color:white"/>
   <stop offset="1" style="stop-opacity:0.701961; stop-color:white"/>
  </linearGradient>
  <linearGradient id="id9" gradientUnits="userSpaceOnUse" xlink:href="#id8" x1="38.85" y1="-28.71" x2="26.65" y2="19.09">
  </linearGradient>
  <linearGradient id="id10" gradientUnits="userSpaceOnUse" x1="42.75" y1="23.19" x2="40.49" y2="36.96">
   <stop offset="0" style="stop-opacity:0.807843; stop-color:white"/>
   <stop offset="1" style="stop-opacity:1; stop-color:white"/>
  </linearGradient>
  <linearGradient id="id11" gradientUnits="userSpaceOnUse" xlink:href="#id10" x1="20.84" y1="19.31" x2="31.13" y2="28.36">
  </linearGradient>
  <linearGradient id="id12" gradientUnits="userSpaceOnUse" xlink:href="#id8" x1="82.51" y1="-6.26" x2="40.91" y2="22.91">
  </linearGradient>
  <linearGradient id="id13" gradientUnits="userSpaceOnUse" xlink:href="#id8" x1="64.68" y1="-19.55" x2="34.58" y2="19.73">
  </linearGradient>
  <linearGradient id="id14" gradientUnits="userSpaceOnUse" xlink:href="#id10" x1="28.18" y1="18.07" x2="35.24" y2="29.76">
  </linearGradient>
  <linearGradient id="id15" gradientUnits="userSpaceOnUse" xlink:href="#id10" x1="36.36" y1="19.36" x2="38.27" y2="32.82">
  </linearGradient>
 </defs>
 <g id="Camada_x0020_1">
  <metadata id="CorelCorpID_0Corel-Layer"/>
  <g id="_3091746976928">
   <g>
    <g>
     <g>
      <g>
       <path class="fil0" d="M12.82 4.63l-10.72 12.22c-1.6,1.82 -1.49,3.54 0.34,5.14l19.98 17.53c1.75,1.53 3.42,1.39 5.03,-0.44l10.71 -12.21c1.61,-1.83 1.53,-3.51 -0.22,-5.05l-19.98 -17.52c-1.82,-1.61 -3.54,-1.49 -5.14,0.33z"/>
      </g>
     </g>
    </g>
    <g>
     <g>
      <g>
       <path class="fil1" style="mask:url(#id0)" d="M13.44 7.12l-8.76 9.99c-1.31,1.49 -1.22,2.89 0.27,4.21l16.34 14.33c1.44,1.26 2.81,1.14 4.12,-0.36l8.76 -9.99c1.31,-1.49 1.25,-2.87 -0.18,-4.12l-16.34 -14.34c-1.49,-1.31 -2.9,-1.22 -4.21,0.28z"/>
      </g>
     </g>
    </g>
    <g>
     <g>
      <g>
       <path class="fil2 str0" d="M17.89 4.3l19.95 17.51c1.78,1.56 1.89,3.24 0.33,5.02l-10.76 12.26c-1.57,1.79 -3.25,1.91 -5.03,0.35l-19.96 -17.51c-1.78,-1.56 -1.88,-3.24 -0.31,-5.03l10.76 -12.27c1.56,-1.78 3.23,-1.89 5.02,-0.33z"/>
      </g>
     </g>
     <g>
      <g>
       <g>
        <path class="fil3" d="M17.89 4.3c-1.79,-1.56 -3.46,-1.45 -5.02,0.33l-10.76 12.27c-1.57,1.79 -1.47,3.47 0.31,5.03l19.96 17.51c1.78,1.56 3.46,1.44 5.03,-0.35l10.76 -12.26c1.56,-1.78 1.45,-3.46 -0.33,-5.02l-19.95 -17.51m-4.52 2.28c1.34,-1.52 2.81,-1.58 4.41,-0.18l17.98 15.77c1.61,1.42 1.75,2.89 0.41,4.41l-9.24 10.53c-1.34,1.53 -2.81,1.59 -4.42,0.17l-17.98 -15.77c-1.6,-1.4 -1.74,-2.87 -0.4,-4.4l9.24 -10.53z"/>
       </g>
      </g>
     </g>
     <g>
      <g>
       <g>
        <path class="fil4" d="M17.89 4.3c-1.79,-1.56 -3.46,-1.45 -5.02,0.33l-10.76 12.27c-1.57,1.79 -1.47,3.47 0.31,5.03l19.96 17.51c1.78,1.56 3.46,1.44 5.03,-0.35l10.76 -12.26c1.56,-1.78 1.45,-3.46 -0.33,-5.02l-19.95 -17.51z"/>
       </g>
      </g>
     </g>
     <g>
      <g>
       <g>
        <path class="fil5" d="M18.91 17.1c-0.62,-0.54 -1.34,-0.79 -2.17,-0.74 -0.83,0.05 -1.52,0.39 -2.06,1 -0.55,0.63 -0.79,1.35 -0.73,2.18 0.06,0.84 0.39,1.52 1.01,2.07 0.61,0.54 1.34,0.78 2.19,0.74 0.82,-0.06 1.5,-0.4 2.05,-1.02 -0.58,0.8 -0.69,1.96 -0.31,3.5 0.41,1.72 1.35,3.2 2.83,4.47 0.47,0.36 1.71,-0.56 3.73,-2.77 2.02,-2.23 2.79,-3.53 2.32,-3.9 -1.36,-1.05 -2.75,-1.76 -4.16,-2.11 -0.23,-0.07 -0.46,-0.12 -0.7,-0.16 -0.04,0 -0.09,-0.01 -0.13,-0.02 -1.6,-0.24 -2.73,0.02 -3.41,0.79 0.42,-0.57 0.61,-1.23 0.57,-1.97 -0.07,-0.83 -0.42,-1.52 -1.03,-2.06z"/>
       </g>
      </g>
     </g>
    </g>
   </g>
   <g>
    <g>
     <g>
      <g>
       <path class="fil6" d="M24.98 1.68l-13.9 8.42c-2.08,1.26 -2.49,2.92 -1.23,5l13.76 22.74c1.21,1.99 2.85,2.36 4.93,1.1l13.9 -8.42c2.08,-1.26 2.51,-2.88 1.31,-4.87l-13.77 -22.74c-1.25,-2.08 -2.92,-2.49 -5,-1.23z"/>
      </g>
     </g>
    </g>
    <g>
     <g>
      <g>
       <path class="fil1" style="mask:url(#id2)" d="M24.78 4.22l-11.38 6.89c-1.71,1.03 -2.04,2.4 -1.01,4.1l11.27 18.62c0.99,1.63 2.33,1.93 4.04,0.9l11.38 -6.89c1.71,-1.03 2.06,-2.36 1.07,-3.99l-11.27 -18.62c-1.03,-1.71 -2.4,-2.04 -4.1,-1.01z"/>
      </g>
     </g>
    </g>
    <g>
     <g>
      <g>
       <path class="fil2 str0" d="M29.91 2.9l13.75 22.7c1.22,2.03 0.82,3.66 -1.21,4.89l-13.95 8.45c-2.04,1.23 -3.67,0.83 -4.9,-1.19l-13.75 -22.71c-1.23,-2.03 -0.82,-3.66 1.22,-4.89l13.96 -8.45c2.02,-1.23 3.65,-0.83 4.88,1.2z"/>
      </g>
     </g>
     <g>
      <g>
       <g>
        <path class="fil7" d="M29.91 2.9c-1.23,-2.03 -2.86,-2.43 -4.88,-1.2l-13.96 8.45c-2.04,1.23 -2.45,2.86 -1.22,4.89l13.75 22.71c1.23,2.02 2.86,2.42 4.9,1.19l13.95 -8.45c2.03,-1.23 2.43,-2.86 1.21,-4.89l-13.75 -22.7m-4.99 0.81c1.73,-1.05 3.15,-0.67 4.26,1.15l12.38 20.46c1.11,1.84 0.8,3.28 -0.94,4.33l-11.98 7.26c-1.74,1.05 -3.16,0.66 -4.27,-1.18l-12.39 -20.46c-1.1,-1.82 -0.78,-3.26 0.95,-4.31l11.99 -7.25z"/>
       </g>
      </g>
     </g>
     <g>
      <g>
       <g>
        <path class="fil4" d="M29.91 2.9c-1.23,-2.03 -2.86,-2.43 -4.88,-1.2l-13.96 8.45c-2.04,1.23 -2.45,2.86 -1.22,4.89l13.75 22.71c1.23,2.02 2.86,2.42 4.9,1.19l13.95 -8.45c2.03,-1.23 2.43,-2.86 1.21,-4.89l-13.75 -22.7z"/>
       </g>
      </g>
     </g>
     <g>
      <g>
       <g>
        <path class="fil8" d="M27.03 15.4c-0.43,-0.7 -1.04,-1.15 -1.85,-1.36 -0.81,-0.2 -1.57,-0.08 -2.27,0.34 -0.71,0.43 -1.16,1.05 -1.35,1.86 -0.2,0.81 -0.09,1.57 0.34,2.27 0.42,0.7 1.04,1.15 1.86,1.36 0.8,0.2 1.55,0.08 2.27,-0.35 -0.8,0.59 -1.25,1.67 -1.35,3.25 -0.13,1.76 0.32,3.46 1.34,5.11 0.34,0.49 1.81,-0.02 4.39,-1.51 2.61,-1.52 3.74,-2.52 3.39,-3.02 -0.97,-1.42 -2.08,-2.51 -3.33,-3.27 -0.19,-0.13 -0.4,-0.25 -0.61,-0.36 -0.04,-0.02 -0.08,-0.04 -0.12,-0.06 -1.45,-0.71 -2.61,-0.8 -3.49,-0.27 0.57,-0.42 0.95,-0.99 1.14,-1.71 0.18,-0.82 0.06,-1.57 -0.36,-2.28z"/>
       </g>
      </g>
     </g>
    </g>
   </g>
   <g>
    <g>
     <g>
      <g>
       <path class="fil9" d="M39.86 3.06l-16.09 2.29c-2.41,0.35 -3.44,1.72 -3.09,4.13l3.75 26.31c0.33,2.3 1.69,3.28 4.1,2.94l16.09 -2.29c2.4,-0.35 3.44,-1.67 3.11,-3.98l-3.75 -26.31c-0.34,-2.4 -1.72,-3.44 -4.12,-3.09z"/>
      </g>
     </g>
    </g>
    <g>
     <g>
      <g>
       <path class="fil1" style="mask:url(#id4)" d="M38.72 5.29l-13.19 1.88c-1.97,0.28 -2.81,1.41 -2.53,3.38l3.08 21.56c0.26,1.89 1.38,2.7 3.36,2.42l13.18 -1.88c1.97,-0.29 2.83,-1.37 2.56,-3.26l-3.08 -21.57c-0.28,-1.97 -1.41,-2.81 -3.38,-2.53z"/>
      </g>
     </g>
    </g>
    <g>
     <g>
      <g>
       <path class="fil2 str0" d="M43.92 6.11l3.74 26.28c0.34,2.34 -0.67,3.68 -3.01,4.02l-16.16 2.3c-2.36,0.34 -3.7,-0.66 -4.04,-3.01l-3.75 -26.28c-0.33,-2.35 0.68,-3.69 3.04,-4.03l16.16 -2.3c2.34,-0.33 3.68,0.67 4.02,3.02z"/>
      </g>
     </g>
     <g>
      <g>
       <g>
        <path class="fil10" d="M43.92 6.11c-0.34,-2.35 -1.68,-3.35 -4.02,-3.02l-16.16 2.3c-2.36,0.34 -3.37,1.68 -3.04,4.03l3.75 26.28c0.34,2.35 1.68,3.35 4.04,3.01l16.16 -2.3c2.34,-0.34 3.35,-1.68 3.01,-4.02l-3.74 -26.28m-4.91 -1.21c2.01,-0.29 3.16,0.62 3.46,2.73l3.38 23.68c0.3,2.12 -0.55,3.33 -2.56,3.61l-13.87 1.98c-2.01,0.29 -3.17,-0.63 -3.47,-2.75l-3.38 -23.68c-0.3,-2.11 0.56,-3.31 2.56,-3.59l13.88 -1.98z"/>
       </g>
      </g>
     </g>
     <g>
      <g>
       <g>
        <path class="fil4" d="M43.92 6.11c-0.34,-2.35 -1.68,-3.35 -4.02,-3.02l-16.16 2.3c-2.36,0.34 -3.37,1.68 -3.04,4.03l3.75 26.28c0.34,2.35 1.68,3.35 4.04,3.01l16.16 -2.3c2.34,-0.34 3.35,-1.68 3.01,-4.02l-3.74 -26.28z"/>
       </g>
      </g>
     </g>
     <g>
      <g>
       <g>
        <path class="fil11" d="M36.36 16.49c-0.11,-0.82 -0.5,-1.47 -1.16,-1.98 -0.67,-0.5 -1.41,-0.69 -2.22,-0.58 -0.82,0.12 -1.48,0.51 -1.97,1.18 -0.5,0.67 -0.7,1.41 -0.58,2.22 0.11,0.81 0.51,1.48 1.18,1.99 0.66,0.5 1.39,0.68 2.22,0.57 -0.96,0.22 -1.8,1.04 -2.52,2.45 -0.8,1.57 -1.06,3.31 -0.76,5.23 0.12,0.58 1.67,0.69 4.63,0.33 2.99,-0.37 4.43,-0.86 4.3,-1.45 -0.34,-1.68 -0.93,-3.12 -1.78,-4.31 -0.13,-0.2 -0.27,-0.39 -0.42,-0.57 -0.03,-0.03 -0.06,-0.07 -0.09,-0.1 -1.06,-1.23 -2.09,-1.77 -3.1,-1.62 0.69,-0.16 1.26,-0.54 1.71,-1.12 0.49,-0.69 0.68,-1.43 0.56,-2.24z"/>
       </g>
      </g>
     </g>
    </g>
   </g>
   <g>
    <g>
     <g>
      <g>
       <path class="fil12" d="M50.93 8.62l-16.03 -2.65c-2.4,-0.39 -3.8,0.61 -4.19,3.01l-4.32 26.22c-0.38,2.3 0.63,3.65 3.03,4.04l16.03 2.65c2.4,0.39 3.79,-0.56 4.17,-2.86l4.32 -26.23c0.39,-2.39 -0.61,-3.79 -3.01,-4.18z"/>
      </g>
     </g>
    </g>
    <g>
     <g>
      <path class="fil1" style="mask:url(#id6)" d="M49.16 10.47l-13.2 -2.18c-1.97,-0.32 -3.12,0.5 -3.45,2.47l-3.56 21.6c-0.31,1.89 0.52,3 2.5,3.32l13.2 2.18c1.97,0.32 3.12,-0.46 3.43,-2.35l3.56 -21.59c0.32,-1.98 -0.5,-3.13 -2.48,-3.45z"/>
     </g>
    </g>
    <g>
     <g>
      <g>
       <path class="fil2 str0" d="M53.89 12.74l-4.32 26.2c-0.38,2.34 -1.74,3.31 -4.08,2.93l-16.1 -2.66c-2.36,-0.38 -3.34,-1.75 -2.95,-4.08l4.32 -26.2c0.38,-2.34 1.75,-3.31 4.1,-2.93l16.1 2.66c2.34,0.38 3.31,1.74 2.93,4.08z"/>
      </g>
     </g>
     <g>
      <g>
       <g>
        <path class="fil13" d="M53.89 12.74c0.38,-2.34 -0.59,-3.7 -2.93,-4.08l-16.1 -2.66c-2.35,-0.38 -3.72,0.59 -4.1,2.93l-4.32 26.2c-0.39,2.33 0.59,3.7 2.95,4.08l16.1 2.66c2.34,0.38 3.7,-0.59 4.08,-2.93l4.32 -26.2m-4.32 -2.62c2,0.33 2.83,1.54 2.48,3.64l-3.89 23.61c-0.34,2.11 -1.52,3 -3.52,2.67l-13.83 -2.28c-2,-0.33 -2.83,-1.55 -2.48,-3.66l3.89 -23.61c0.35,-2.1 1.52,-2.98 3.53,-2.65l13.82 2.28z"/>
       </g>
      </g>
     </g>
     <g>
      <g>
       <g>
        <path class="fil4" d="M53.89 12.74c0.38,-2.34 -0.59,-3.7 -2.93,-4.08l-16.1 -2.66c-2.35,-0.38 -3.72,0.59 -4.1,2.93l-4.32 26.2c-0.39,2.33 0.59,3.7 2.95,4.08l16.1 2.66c2.34,0.38 3.7,-0.59 4.08,-2.93l4.32 -26.2z"/>
       </g>
      </g>
     </g>
     <g>
      <g>
       <g>
        <path class="fil14" d="M43.57 20.38c0.13,-0.81 -0.04,-1.56 -0.52,-2.24 -0.49,-0.68 -1.13,-1.08 -1.94,-1.22 -0.82,-0.13 -1.57,0.04 -2.24,0.53 -0.68,0.49 -1.08,1.14 -1.22,1.95 -0.13,0.81 0.05,1.56 0.53,2.25 0.48,0.67 1.13,1.07 1.95,1.21 -0.98,-0.08 -2.03,0.45 -3.14,1.59 -1.24,1.25 -2,2.83 -2.29,4.75 -0.06,0.59 1.38,1.16 4.31,1.71 2.97,0.54 4.48,0.51 4.54,-0.09 0.18,-1.71 0.05,-3.26 -0.4,-4.65 -0.07,-0.23 -0.14,-0.45 -0.23,-0.67 -0.02,-0.04 -0.04,-0.08 -0.06,-0.13 -0.64,-1.48 -1.46,-2.3 -2.47,-2.47 0.71,0.05 1.36,-0.13 1.97,-0.56 0.67,-0.5 1.07,-1.16 1.21,-1.96z"/>
       </g>
      </g>
     </g>
    </g>
   </g>
  </g>
 </g>
</svg>
