<?xml version="1.0" encoding="UTF-8"?>
<!DOCTYPE svg PUBLIC "-//W3C//DTD SVG 1.1//EN" "http://www.w3.org/Graphics/SVG/1.1/DTD/svg11.dtd">
<!-- Creator: CorelDRAW -->
<svg xmlns="http://www.w3.org/2000/svg" xml:space="preserve" width="60px" height="60px" version="1.1" style="shape-rendering:geometricPrecision; text-rendering:geometricPrecision; image-rendering:optimizeQuality; fill-rule:evenodd; clip-rule:evenodd"
viewBox="0 0 60 60.08"
 xmlns:xlink="http://www.w3.org/1999/xlink"
 xmlns:xodm="http://www.corel.com/coreldraw/odm/2003">
 <defs>
  <style type="text/css">
   <![CDATA[
    .fil4 {fill:#FEFEFE}
    .fil7 {fill:#F9B72F}
    .fil3 {fill:#00D5FF}
    .fil5 {fill:#15FF00}
    .fil6 {fill:red}
    .fil1 {fill:#FEFEFE;fill-rule:nonzero}
    .fil0 {fill:#150A91;fill-rule:nonzero}
    .fil2 {fill:url(#id10);fill-rule:nonzero}
   ]]>
  </style>
        <mask id="id0">
  <linearGradient id="id1" gradientUnits="userSpaceOnUse" x1="29.91" y1="27.38" x2="29.91" y2="-5.26">
   <stop offset="0" style="stop-opacity:0; stop-color:white"/>
   <stop offset="0.631373" style="stop-opacity:0.501961; stop-color:white"/>
   <stop offset="1" style="stop-opacity:1; stop-color:white"/>
  </linearGradient>
         <rect style="fill:url(#id1)" x="0.43" y="0.43" width="59.14" height="59.22"/>
        </mask>
     <mask id="id2">
  <linearGradient id="id3" gradientUnits="userSpaceOnUse" x1="19.59" y1="24.12" x2="19.59" y2="12.1">
   <stop offset="0" style="stop-opacity:0; stop-color:white"/>
   <stop offset="0.188235" style="stop-opacity:0.501961; stop-color:white"/>
   <stop offset="1" style="stop-opacity:1; stop-color:white"/>
  </linearGradient>
      <rect style="fill:url(#id3)" x="11.07" y="11.18" width="17.4" height="17.4"/>
     </mask>
     <mask id="id4">
  <linearGradient id="id5" gradientUnits="userSpaceOnUse" x1="40.2" y1="25.63" x2="40.2" y2="12.64">
   <stop offset="0" style="stop-opacity:0; stop-color:white"/>
   <stop offset="0.231373" style="stop-opacity:0.501961; stop-color:white"/>
   <stop offset="1" style="stop-opacity:1; stop-color:white"/>
  </linearGradient>
      <rect style="fill:url(#id5)" x="32.02" y="12.49" width="16.36" height="14.78"/>
     </mask>
     <mask id="id6">
  <linearGradient id="id7" gradientUnits="userSpaceOnUse" x1="19.76" y1="41.68" x2="19.76" y2="31.34">
   <stop offset="0" style="stop-opacity:0; stop-color:white"/>
   <stop offset="0.458824" style="stop-opacity:0.501961; stop-color:white"/>
   <stop offset="1" style="stop-opacity:1; stop-color:white"/>
  </linearGradient>
      <rect style="fill:url(#id7)" x="11.28" y="32.61" width="16.98" height="15.4"/>
     </mask>
     <mask id="id8">
  <linearGradient id="id9" gradientUnits="userSpaceOnUse" x1="40.27" y1="41.25" x2="40.27" y2="32.66">
   <stop offset="0" style="stop-opacity:0; stop-color:white"/>
   <stop offset="0.321569" style="stop-opacity:0.501961; stop-color:white"/>
   <stop offset="1" style="stop-opacity:1; stop-color:white"/>
  </linearGradient>
      <rect style="fill:url(#id9)" x="31.49" y="31.48" width="17.41" height="17.41"/>
     </mask>
  <radialGradient id="id10" gradientUnits="userSpaceOnUse" gradientTransform="matrix(1.09501 -0 -0 1.09456 -3 -2)" cx="27" cy="26.44" r="28.57" fx="27" fy="26.44">
   <stop offset="0" style="stop-opacity:0; stop-color:black"/>
   <stop offset="0.701961" style="stop-opacity:0; stop-color:black"/>
   <stop offset="1" style="stop-opacity:0.25098; stop-color:black"/>
  </radialGradient>
 </defs>
 <g id="Camada_x0020_1">
  <metadata id="CorelCorpID_0Corel-Layer"/>
  <g id="_3089131112000">
   <g id="Back">
    <g>
     <g>
      <g>
       <path class="fil0" d="M60 30.08c0,-8.32 -2.95,-15.42 -8.84,-21.32 -1.37,-1.36 -2.79,-2.52 -4.27,-3.47 -4.94,-3.58 -10.57,-5.32 -16.89,-5.21 -0.84,-0.1 -1.68,-0.11 -2.53,0 -5.15,0.42 -9.79,2 -13.89,4.74 -1.69,1.15 -3.26,2.47 -4.74,3.94 -0.73,0.64 -1.37,1.32 -1.89,2.06 -4.63,5.47 -6.95,11.89 -6.95,19.26 0,8.21 2.95,15.26 8.84,21.16 5.79,5.79 12.84,8.73 21.16,8.84 8.21,-0.11 15.26,-3.05 21.16,-8.84 5.89,-5.9 8.84,-12.95 8.84,-21.16z"/>
      </g>
     </g>
    </g>
   </g>
   <g id="Back_0">
    <g>
     <g>
      <g>
       <path class="fil1" style="mask:url(#id0)" d="M59.12 30.08c0,-8.07 -2.86,-14.97 -8.58,-20.69 -1.33,-1.33 -2.71,-2.46 -4.14,-3.38 -4.8,-3.47 -10.27,-5.16 -16.4,-5.06 -0.82,-0.1 -1.64,-0.1 -2.45,0 -5.01,0.41 -9.51,1.95 -13.49,4.6 -1.64,1.13 -3.17,2.4 -4.6,3.84 -0.72,0.61 -1.33,1.27 -1.84,1.99 -4.5,5.31 -6.74,11.54 -6.74,18.7 0,7.97 2.86,14.82 8.58,20.54 5.62,5.62 12.47,8.48 20.54,8.58 7.97,-0.1 14.82,-2.96 20.54,-8.58 5.72,-5.72 8.58,-12.57 8.58,-20.54z"/>
      </g>
     </g>
    </g>
   </g>
   <g id="Shad">
    <g>
     <g>
      <g>
       <path class="fil2" d="M60 30.08c0,-8.32 -2.95,-15.42 -8.84,-21.32 -1.16,-1.15 -2.37,-2.15 -3.63,-3 -0.21,-0.21 -0.42,-0.36 -0.64,-0.47 -4.94,-3.58 -10.57,-5.32 -16.89,-5.21 -0.84,-0.1 -1.68,-0.11 -2.53,0 -5.15,0.42 -9.79,2 -13.89,4.74 -1.69,1.15 -3.26,2.47 -4.74,3.94 -0.73,0.64 -1.37,1.32 -1.89,2.06 -4.63,5.47 -6.95,11.89 -6.95,19.26 0,3.68 0.58,7.16 1.74,10.42 1.47,3.9 3.84,7.47 7.1,10.74 5.79,5.79 12.84,8.73 21.16,8.84 8.21,-0.11 15.26,-3.05 21.16,-8.84 5.89,-5.9 8.84,-12.95 8.84,-21.16z"/>
      </g>
     </g>
    </g>
   </g>
   <g>
    <rect class="fil3" x="11.99" y="12.1" width="15.56" height="15.56" rx="1.85" ry="1.85"/>
    <path class="fil4" style="mask:url(#id2)" d="M14.03 12.36l11.47 0c0.99,0 1.79,0.8 1.79,1.78l0 11.47c0,0.99 -0.8,1.79 -1.79,1.79l-11.47 0c-0.98,0 -1.78,-0.8 -1.78,-1.79l0 -11.47c0,-0.98 0.8,-1.78 1.78,-1.78z"/>
    <path class="fil5" d="M33.55 27.66l13.25 0c0.99,0 2.01,-0.56 2.01,-1.53 0,-0.94 -0.35,-1.38 -0.82,-2.19 -0.17,-0.3 -0.33,-0.58 -0.5,-0.88 -0.09,-0.16 -0.17,-0.29 -0.26,-0.45l-3.8 -6.65c-0.17,-0.31 -0.33,-0.59 -0.52,-0.9 -0.55,-0.94 -1.19,-2.42 -2.06,-2.81 -0.87,-0.4 -1.72,0.08 -2.2,0.82 -0.51,0.79 -2.19,3.82 -2.68,4.66 -0.2,0.34 -0.4,0.69 -0.59,1.04 -0.2,0.35 -0.39,0.7 -0.6,1.04 -0.1,0.16 -0.19,0.32 -0.28,0.49 -0.65,1.19 -1.44,2.46 -2.09,3.65 -0.41,0.76 -1.54,2.37 -0.13,3.34 0.28,0.19 0.81,0.37 1.27,0.37z"/>
    <path class="fil4" style="mask:url(#id4)" d="M33.91 27.24l12.53 0c0.94,0 1.91,-0.53 1.91,-1.44 0,-0.89 -0.33,-1.31 -0.78,-2.08 -0.16,-0.28 -0.31,-0.54 -0.47,-0.83 -0.08,-0.16 -0.16,-0.28 -0.25,-0.43l-3.6 -6.29c-0.16,-0.29 -0.31,-0.56 -0.48,-0.85 -0.53,-0.89 -1.13,-2.29 -1.95,-2.66 -0.83,-0.38 -1.63,0.07 -2.09,0.78 -0.48,0.75 -2.07,3.61 -2.53,4.4 -0.19,0.33 -0.38,0.66 -0.56,0.99 -0.19,0.33 -0.37,0.66 -0.57,0.98 -0.09,0.16 -0.18,0.3 -0.27,0.47 -0.61,1.12 -1.36,2.33 -1.97,3.45 -0.39,0.72 -1.46,2.24 -0.12,3.16 0.26,0.18 0.76,0.35 1.2,0.35z"/>
    <path class="fil6" d="M21.04 46.99c0.63,-0.52 1.19,-0.94 1.8,-1.51l0.86 -0.79c0.1,-0.1 0.18,-0.16 0.28,-0.25 1.39,-1.3 3.43,-3.62 4.09,-5.82 0.86,-2.82 -0.4,-4.99 -2.42,-5.81 -1.11,-0.45 -2.54,-0.58 -3.66,-0.09 -0.91,0.39 -1.83,1.26 -2.21,2.16 0,0 -0.01,-0.01 -0.02,-0.02l-0.43 -0.67c-1.24,-1.72 -3.57,-2.23 -5.54,-1.38 -1.9,0.82 -3.18,3.15 -2.33,5.89 0.38,1.21 1.28,2.58 2.03,3.47 0.6,0.7 1.21,1.34 1.85,2 0.09,0.1 0.18,0.18 0.29,0.27l0.56 0.53c0.13,0.11 0.16,0.13 0.3,0.27l0.87 0.75c0.39,0.36 0.8,0.67 1.19,1 0.21,0.17 0.4,0.32 0.6,0.49 0.17,0.15 0.43,0.38 0.62,0.48l1.27 -0.97z"/>
    <path class="fil4" style="mask:url(#id6)" d="M21.02 47.03c0.63,-0.51 1.18,-0.93 1.78,-1.49l0.85 -0.78c0.1,-0.1 0.18,-0.16 0.27,-0.25 1.37,-1.28 3.38,-3.57 4.04,-5.74 0.85,-2.78 -0.4,-4.92 -2.39,-5.73 -1.09,-0.45 -2.51,-0.57 -3.62,-0.09 -0.89,0.39 -1.8,1.24 -2.17,2.14 0,-0.01 -0.01,-0.02 -0.02,-0.03l-0.43 -0.66c-1.22,-1.7 -3.51,-2.2 -5.46,-1.36 -1.88,0.81 -3.13,3.1 -2.29,5.81 0.36,1.2 1.25,2.55 2,3.42 0.59,0.69 1.18,1.32 1.82,1.97 0.09,0.1 0.18,0.18 0.29,0.27l0.55 0.52c0.13,0.11 0.16,0.13 0.3,0.27l0.85 0.74c0.39,0.36 0.79,0.66 1.17,0.98 0.21,0.18 0.4,0.33 0.6,0.49 0.17,0.14 0.42,0.37 0.61,0.47l1.25 -0.95z"/>
    <rect class="fil7" x="32.42" y="32.4" width="15.56" height="15.56" rx="46.16" ry="46.16"/>
    <path class="fil4" style="mask:url(#id8)" d="M40.19 32.66l0 0c4.14,0 7.53,3.38 7.53,7.52l0 0c0,4.14 -3.39,7.53 -7.53,7.53l0 0c-4.14,0 -7.52,-3.39 -7.52,-7.53l0 0c0,-4.14 3.38,-7.52 7.52,-7.52z"/>
   </g>
  </g>
 </g>
</svg>
