
<svg xmlns="http://www.w3.org/2000/svg" version="1.1" xmlns:xlink="http://www.w3.org/1999/xlink" preserveAspectRatio="none" x="0px" y="0px" width="19px" height="19px" viewBox="0 0 19 19">
<defs>
<g id="Layer5_0_FILL">
<path fill="#A66019" stroke="none" d="
M 12.85 12.95
L 9.95 8.75 9.45 9.05 12.35 13.35 12.85 12.95 Z"/>

<path fill="#774009" stroke="none" d="
M 9.95 8.75
L 12.85 12.95 13.45 12.55 10.55 8.3 9.95 8.75 Z"/>
</g>

<g id="Layer4_0_FILL">
<path fill="#774009" stroke="none" d="
M 13.85 11.85
Q 13.6 11.6 13.1 11.6 12.8 11.55 12.55 11.7
L 16.65 18
Q 17 17.75 17.05 17.5 17.25 17.05 17 16.8
L 13.85 11.85 Z"/>

<path fill="#A66019" stroke="none" d="
M 12.2 11.85
Q 12.2 11.95 12.1 11.95 11.75 12.15 11.55 12.55 11.4 13 11.6 13.3
L 14.75 18.2
Q 15 18.5 15.45 18.55 15.9 18.5 16.25 18.25 16.35 18.3 16.4 18.15 16.6 18.1 16.65 18
L 12.55 11.7
Q 12.4 11.8 12.2 11.85 Z"/>
</g>

<g id="Layer3_0_FILL">
<path fill="#774009" stroke="none" d="
M 14 7.05
L 13.05 5.6
Q 12.65 5.7 12.35 5.85 9.1 7.2 6.45 9.7 6.1 9.95 5.9 10.2
L 6.9 11.8
Q 8.2 9.8 10 8.7 11.8 7.55 14 7.05 Z"/>

<path fill="#A66019" stroke="none" d="
M 13.05 5.6
L 10.75 2.05
Q 9.5 3.95 7.7 5.05 5.9 6.2 3.65 6.7
L 5.9 10.2
Q 6.1 9.95 6.45 9.7 9.1 7.2 12.35 5.85 12.65 5.7 13.05 5.6 Z"/>
</g>

<g id="Layer2_0_FILL">
<path fill="#FFFFFF" fill-opacity="0.24705882352941178" stroke="none" d="
M 12.75 13.85
Q 12.7 13.9 12.85 13.9 13 13.9 13.1 13.85 13.2 13.75 13.15 13.7 13.25 13.6 13.25 13.5
L 12.65 12.5
Q 12.55 12.4 12.4 12.45 12.3 12.45 12.25 12.5 12.15 12.55 12.05 12.7 11.95 12.75 12.05 12.85
L 12.75 13.85
M 9.55 4.85
Q 9.35 4.9 9.25 4.95
L 6.9 6.55
Q 6.75 6.55 6.7 6.65 6.65 6.9 6.8 7.05 6.85 7.15 7 7.25 7.2 7.25 7.3 7.2
L 9.7 5.6
Q 9.85 5.5 9.9 5.4 10 5.15 9.95 5.05 9.8 4.95 9.55 4.85 Z"/>
</g>

<g id="Layer1_0_FILL">
<path fill="#774009" stroke="none" d="
M 3.65 12
L 3.8 12.25
Q 4.35 12.8 4.95 13 5.75 13.2 6.25 12.8 6.95 12.4 7.1 11.65 7.25 10.85 6.85 10.35
L 6.25 9.45
Q 4.8 10.65 3.65 12
M 15.75 4.6
L 15.6 4.35
Q 13.75 4.8 12.15 5.55
L 12.75 6.5
Q 13.2 7.1 13.9 7.25 14.6 7.35 15.25 7 15.85 6.55 16.05 5.9 16.15 5.1 15.75 4.6 Z"/>

<path fill="#A66019" stroke="none" d="
M 3.7 6.45
Q 3.05 6.3 2.4 6.8 1.8 7.2 1.6 7.8 1.4 8.55 1.8 9.15
L 3.65 12
Q 4.8 10.65 6.25 9.45
L 4.8 7.15
Q 4.45 6.6 3.7 6.45
M 11.35 0.95
Q 10.7 1.35 10.45 2.05 10.4 2.8 10.8 3.4
L 12.15 5.55
Q 13.75 4.8 15.6 4.35
L 13.75 1.4
Q 13.35 0.9 12.7 0.65 11.9 0.45 11.35 0.95 Z"/>
</g>

<g id="Layer0_0_FILL">
<path fill="#FFFFFF" fill-opacity="0.24705882352941178" stroke="none" d="
M 2.4 7.9
Q 2.15 8.15 2.1 8.4 2 8.75 2.25 9
L 4.05 11.9
Q 4.25 12.15 4.45 12.2 4.85 12.35 5.1 12.1 5.3 11.95 5.35 11.65 5.5 11.35 5.3 11.1
L 3.45 8.15
Q 3.3 7.9 2.95 7.85 2.6 7.8 2.4 7.9
M 15.5 5.05
Q 15.55 4.75 15.4 4.55
L 13.5 1.6
Q 13.35 1.35 13 1.35 12.75 1.3 12.4 1.45 12.1 1.6 12.1 1.95 12 2.2 12.25 2.5
L 14.05 5.4
Q 14.25 5.65 14.55 5.65 14.85 5.7 15.15 5.6 15.45 5.45 15.5 5.05 Z"/>
</g>
</defs>

<g transform="matrix( 1, 0, 0, 1, 0,0) ">
<use xlink:href="#Layer5_0_FILL"/>
</g>

<g transform="matrix( 1, 0, 0, 1, 0,0) ">
<use xlink:href="#Layer4_0_FILL"/>
</g>

<g transform="matrix( 1, 0, 0, 1, 0,0) ">
<use xlink:href="#Layer3_0_FILL"/>
</g>

<g transform="matrix( 1, 0, 0, 1, 0,0) ">
<use xlink:href="#Layer2_0_FILL"/>
</g>

<g transform="matrix( 1, 0, 0, 1, 0,0) ">
<use xlink:href="#Layer1_0_FILL"/>
</g>

<g transform="matrix( 1, 0, 0, 1, 0,0) ">
<use xlink:href="#Layer0_0_FILL"/>
</g>
</svg>
