
<svg xmlns="http://www.w3.org/2000/svg" version="1.1" xmlns:xlink="http://www.w3.org/1999/xlink" preserveAspectRatio="none" x="0px" y="0px" width="19px" height="19px" viewBox="0 0 19 19">
<defs>
<g id="Extra_Symbols__Ignore_This_Folder__Duplicate_Items_Folder_ChatBubble2_0_Layer1_0_FILL">
<path fill="#0099FF" stroke="none" d="
M 15.3 -12.55
Q 15.3 -18.55 9.7 -22.9 4.2 -27.1 -3.7 -27.1 -4.55 -27.1 -5.7 -27 -12.15 -26.55 -17.1 -22.9 -22.7 -18.55 -22.7 -12.55 -22.7 -6.35 -17.1 -2.15 -15.5 -0.95 -13.85 0 -14.35 4.2 -19.2 8.3 -12.15 7.25 -7.2 2 -5.5 2.2 -3.7 2.2 4.2 2.2 9.7 -2.15 11.7 -3.6 13 -5.5 15.3 -8.65 15.3 -12.55 Z"/>
</g>

<g id="Extra_Symbols__Ignore_This_Folder___App_Icons_plus_0_Layer0_0_FILL">
<path fill="#00FF33" stroke="none" d="
M 23.8 -6.3
L 9.8 -6.3 9.8 -20.1 -0.55 -20.1 -0.55 -6.3 -4.5 -6.3
Q -9.3470703125 -6.302734375 -14.2 -6.3
L -14.2 4.05 -0.55 4.05 -0.55 17.9 9.8 17.9 9.8 4.05 23.8 4.05 23.8 -6.3 Z"/>
</g>

<path id="Extra_Symbols__Ignore_This_Folder__Duplicate_Items_Folder_ChatBubble2_0_Layer0_0_1_STROKES" stroke="#FFFFFF" stroke-opacity="0.45098039215686275" stroke-width="1" stroke-linejoin="round" stroke-linecap="round" fill="none" d="
M 9.05 -18.55
Q -3.9 -28.35 -16.6 -18.8"/>
</defs>

<g transform="matrix( -0.4128570556640625, 0, 0, 0.4128570556640625, 7.1,13.95) ">
<g transform="matrix( 1, 0, 0, 1, 0,0) ">
<use xlink:href="#Extra_Symbols__Ignore_This_Folder__Duplicate_Items_Folder_ChatBubble2_0_Layer1_0_FILL"/>
</g>

<g transform="matrix( 1, 0, 0, 1, 0,0) ">
<use xlink:href="#Extra_Symbols__Ignore_This_Folder__Duplicate_Items_Folder_ChatBubble2_0_Layer0_0_1_STROKES"/>
</g>
</g>

<g transform="matrix( 0.2117767333984375, 0, 0, 0.2117767333984375, 13.35,6.3) ">
<g transform="matrix( 1, 0, 0, 1, 0,0) ">
<use xlink:href="#Extra_Symbols__Ignore_This_Folder___App_Icons_plus_0_Layer0_0_FILL"/>
</g>
</g>
</svg>
