
<svg xmlns="http://www.w3.org/2000/svg" version="1.1" xmlns:xlink="http://www.w3.org/1999/xlink" preserveAspectRatio="none" x="0px" y="0px" width="19px" height="19px" viewBox="0 0 19 19">
<defs>
<linearGradient id="Gradient_1" gradientUnits="userSpaceOnUse" x1="0" y1="13.85" x2="32.6" y2="13.85" spreadMethod="pad">
<stop  offset="1.5686274509803921%" stop-color="#E8BD17"/>

<stop  offset="47.05882352941177%" stop-color="#FFEFCC"/>

<stop  offset="100%" stop-color="#E8BD17"/>
</linearGradient>

<radialGradient id="Gradient_2" gradientUnits="userSpaceOnUse" cx="0" cy="0" r="9.8" fx="0" fy="0" gradientTransform="matrix( 0.9999999999999999, 0, 0, 0.5255102040816326, 16.45,9.15) " spreadMethod="pad">
<stop  offset="0%" stop-color="#FFEFCC"/>

<stop  offset="100%" stop-color="#E8BD17"/>
</radialGradient>

<radialGradient id="Gradient_3" gradientUnits="userSpaceOnUse" cx="0" cy="0" r="16.90144686853762" fx="0" fy="0" gradientTransform="matrix( 0.8660501147536664, 0.49995719690305596, -0.4112073986362413, 0.7122171310911878, 0,0) " spreadMethod="pad">
<stop  offset="0%" stop-color="#FFFFFF"/>

<stop  offset="100%" stop-color="#FFFFFF" stop-opacity="0"/>
</radialGradient>

<radialGradient id="Gradient_4" gradientUnits="userSpaceOnUse" cx="0" cy="0" r="21.825000000000003" fx="0" fy="0" gradientTransform="matrix( 0.9999999999999999, 0, 0, 0.9999999999999999, 0,0) " spreadMethod="pad">
<stop  offset="0%" stop-color="#FFFFFF"/>

<stop  offset="100%" stop-color="#FFFFFF" stop-opacity="0"/>
</radialGradient>

<g id="icons_coin_0_Layer0_0_FILL">
<path fill="#000000" stroke="none" d="
M 33.1 7.65
Q 33.16875 4.214453125 28.05 1.8 23.2318359375 -0.4990234375 16.35 -0.5 9.4681640625 -0.4990234375 4.6 1.8 -0.3564453125 4.15390625 -0.4 7.5
L -0.5 12
Q -0.4990234375 12.2029296875 -0.35 12.35 -0.40703125 12.446875 -0.4 12.55 -0.3578125 15.8951171875 4.6 18.25 9.4681640625 20.5490234375 16.35 20.55 23.2318359375 20.5490234375 28.05 18.25 33.0578125 15.8951171875 33.1 12.55
L 33.1 7.65
M 32.1 7.65
L 32.1 7.75
Q 31.9984375 10.5642578125 27.65 12.6
L 27.6 12.6
Q 22.9681640625 14.8009765625 16.35 14.8 9.7318359375 14.8009765625 5.05 12.6 0.66796875 10.5140625 0.6 7.65
L 0.6 7.55
Q 0.7751953125 4.737109375 5.05 2.7 9.7318359375 0.4990234375 16.35 0.5 22.9681640625 0.4990234375 27.6 2.7 32.03203125 4.7859375 32.1 7.65
M 28.05 13.5
L 28.05 13.5
Q 30.853515625 12.187890625 32.1 10.55
L 32.1 12.5
Q 31.9427734375 15.3044921875 27.6 17.35 22.9681640625 19.5509765625 16.35 19.55 9.7318359375 19.5509765625 5.05 17.35 0.7572265625 15.3044921875 0.6 12.5 0.597265625 12.3267578125 0.45 12.2 0.498828125 12.1013671875 0.5 12
L 0.5 10.45
Q 1.7681640625 12.1458984375 4.6 13.5 9.4681640625 15.7990234375 16.35 15.8 23.2318359375 15.7990234375 28.05 13.5 Z"/>

<path fill="url(#Gradient_1)" stroke="none" d="
M 28.05 13.5
L 28.05 13.5
Q 23.2318359375 15.7990234375 16.35 15.8 9.4681640625 15.7990234375 4.6 13.5 1.7681640625 12.1458984375 0.5 10.45
L 0.5 12
Q 0.498828125 12.1013671875 0.45 12.2 0.597265625 12.3267578125 0.6 12.5 0.7572265625 15.3044921875 5.05 17.35 9.7318359375 19.5509765625 16.35 19.55 22.9681640625 19.5509765625 27.6 17.35 31.9427734375 15.3044921875 32.1 12.5
L 32.1 10.55
Q 30.853515625 12.187890625 28.05 13.5 Z"/>

<path fill="url(#Gradient_2)" stroke="none" d="
M 32.1 7.75
L 32.1 7.65
Q 32.03203125 4.7859375 27.6 2.7 22.9681640625 0.4990234375 16.35 0.5 9.7318359375 0.4990234375 5.05 2.7 0.7751953125 4.737109375 0.6 7.55
L 0.6 7.65
Q 0.66796875 10.5140625 5.05 12.6 9.7318359375 14.8009765625 16.35 14.8 22.9681640625 14.8009765625 27.6 12.6
L 27.65 12.6
Q 31.9984375 10.5642578125 32.1 7.75 Z"/>
</g>

<g id="Extra_Symbols__Ignore_This_Folder__Symbols_smilies_Shine2_0_Layer1_0_FILL">
<path fill="url(#Gradient_3)" stroke="none" d="
M 4.65 -1.85
L 2 -4.85 2 -24.25 -2 -24.25 -2 -4.85 -4.7 -1.85 -29.3 -1.8 -29.3 1.85 -4.7 1.85 -2 4.85 -2 28.9 2 28.9 2 4.85 4.7 1.85 4.65 1.85 29.05 1.85 29.05 -1.85 4.65 -1.85 Z"/>
</g>

<g id="Extra_Symbols__Ignore_This_Folder__Symbols_smilies_Shine2_0_Layer0_0_FILL">
<path fill="url(#Gradient_4)" stroke="none" d="
M 1.55 -3.65
Q 1.2 -3.8 1.15 -4.1 1.175 -4.111328125 1.15 -4.15
L 1.15 -24.25 -1.25 -24.25 -1.25 -4.15
Q -1.25 -3.95 -1.55 -3.7
L -3.6 -1.35
Q -3.8 -1.05 -4.05 -1.05
L -23.7 -1.05 -23.7 1.1 -4.05 1.1
Q -3.85 1.1 -3.6 1.4
L -1.75 3.65
Q -1.25 3.7 -1.25 4.15
L -1.25 24.25 1.15 24.25 1.15 4.15
Q 1.2 3.7 1.65 3.65
L 3.45 1.55
Q 3.45 1.1 3.95 1.1
L 24.25 1.1 24.25 -1.05 3.95 -1.05
Q 3.55 -1.25 3.5 -1.3
L 1.55 -3.65 Z"/>
</g>
</defs>

<g transform="matrix( 0.6063079833984375, 0, 0, 0.6063079833984375, 2.9,1.15) ">
<g transform="matrix( 0.5287933349609375, 0, 0, 0.529205322265625, -1.3,15.75) ">
<g transform="matrix( 1, 0, 0, 1, 0,0) ">
<use xlink:href="#icons_coin_0_Layer0_0_FILL"/>
</g>

<g transform="matrix( 0.6198577880859375, 0, 0, 0.62030029296875, 12.5,15.05) ">
<g transform="matrix( 1, 0, 0, 1, 0,0) ">
<use xlink:href="#Extra_Symbols__Ignore_This_Folder__Symbols_smilies_Shine2_0_Layer1_0_FILL"/>
</g>

<g transform="matrix( 1, 0, 0, 1, 0,0) ">
<use xlink:href="#Extra_Symbols__Ignore_This_Folder__Symbols_smilies_Shine2_0_Layer0_0_FILL"/>
</g>
</g>
</g>

<g transform="matrix( 0.5287933349609375, 0, 0, 0.529205322265625, 6.65,12.4) ">
<g transform="matrix( 1, 0, 0, 1, 0,0) ">
<use xlink:href="#icons_coin_0_Layer0_0_FILL"/>
</g>

<g transform="matrix( 0.6198577880859375, 0, 0, 0.62030029296875, 12.5,15.05) ">
<g transform="matrix( 1, 0, 0, 1, 0,0) ">
<use xlink:href="#Extra_Symbols__Ignore_This_Folder__Symbols_smilies_Shine2_0_Layer1_0_FILL"/>
</g>

<g transform="matrix( 1, 0, 0, 1, 0,0) ">
<use xlink:href="#Extra_Symbols__Ignore_This_Folder__Symbols_smilies_Shine2_0_Layer0_0_FILL"/>
</g>
</g>
</g>

<g transform="matrix( 0.5287933349609375, 0, 0, 0.529205322265625, -0.15,8.4) ">
<g transform="matrix( 1, 0, 0, 1, 0,0) ">
<use xlink:href="#icons_coin_0_Layer0_0_FILL"/>
</g>

<g transform="matrix( 0.6198577880859375, 0, 0, 0.62030029296875, 12.5,15.05) ">
<g transform="matrix( 1, 0, 0, 1, 0,0) ">
<use xlink:href="#Extra_Symbols__Ignore_This_Folder__Symbols_smilies_Shine2_0_Layer1_0_FILL"/>
</g>

<g transform="matrix( 1, 0, 0, 1, 0,0) ">
<use xlink:href="#Extra_Symbols__Ignore_This_Folder__Symbols_smilies_Shine2_0_Layer0_0_FILL"/>
</g>
</g>
</g>

<g transform="matrix( 0.5287933349609375, 0, 0, 0.529205322265625, 6.65,2.5) ">
<g transform="matrix( 1, 0, 0, 1, 0,0) ">
<use xlink:href="#icons_coin_0_Layer0_0_FILL"/>
</g>

<g transform="matrix( 0.6198577880859375, 0, 0, 0.62030029296875, 12.5,15.05) ">
<g transform="matrix( 1, 0, 0, 1, 0,0) ">
<use xlink:href="#Extra_Symbols__Ignore_This_Folder__Symbols_smilies_Shine2_0_Layer1_0_FILL"/>
</g>

<g transform="matrix( 1, 0, 0, 1, 0,0) ">
<use xlink:href="#Extra_Symbols__Ignore_This_Folder__Symbols_smilies_Shine2_0_Layer0_0_FILL"/>
</g>
</g>
</g>

<g transform="matrix( 0.5287933349609375, 0, 0, 0.529205322265625, 3.6,0.25) ">
<g transform="matrix( 1, 0, 0, 1, 0,0) ">
<use xlink:href="#icons_coin_0_Layer0_0_FILL"/>
</g>

<g transform="matrix( 0.6198577880859375, 0, 0, 0.62030029296875, 12.5,15.05) ">
<g transform="matrix( 1, 0, 0, 1, 0,0) ">
<use xlink:href="#Extra_Symbols__Ignore_This_Folder__Symbols_smilies_Shine2_0_Layer1_0_FILL"/>
</g>

<g transform="matrix( 1, 0, 0, 1, 0,0) ">
<use xlink:href="#Extra_Symbols__Ignore_This_Folder__Symbols_smilies_Shine2_0_Layer0_0_FILL"/>
</g>
</g>
</g>
</g>
</svg>
