
<svg xmlns="http://www.w3.org/2000/svg" version="1.1" xmlns:xlink="http://www.w3.org/1999/xlink" preserveAspectRatio="none" x="0px" y="0px" width="20px" height="20px" viewBox="0 0 20 20">
<defs>
<filter id="Filter_1" x="-50.03821825281719%" y="-49.94763404862529%" width="200.07643650563438%" height="199.89526809725058%" color-interpolation-filters="sRGB">
<feGaussianBlur in="SourceGraphic" stdDeviation="2,2" result="result1"/>
</filter>

<g id="Mask_2_MASK_0_FILL">
<path fill="#FFFFFF" stroke="none" d="
M 3.5 16.65
Q 6.25 19.4 10.1 19.4 13.95 19.4 16.65 16.65 19.4 13.95 19.4 10.1 19.4 6.25 16.65 3.5 13.95 0.8 10.1 0.8 6.25 0.8 3.5 3.5 0.8 6.25 0.8 10.1 0.8 13.95 3.5 16.65
M 13.75 6.45
Q 15.25 7.95 15.25 10.1 15.25 12.25 13.75 13.75 12.25 15.25 10.1 15.25 7.95 15.25 6.45 13.75 4.95 12.25 4.95 10.1 4.95 7.95 6.45 6.45 7.95 4.95 10.1 4.95 12.25 4.95 13.75 6.45 Z"/>
</g>

<g id="cyclewheel_0_Layer0_0_FILL">
<path fill="#1300FF" stroke="none" d="
M 9.1 12.9
Q 8.95 12.9 8.8 12.9 6.95 12.9 5.7 11.7
L 2 15.75
Q 4.85 18.5 8.85 18.5 8.95 18.5 9.1 18.5
L 9.1 12.9 Z"/>

<path fill="#01A2FF" stroke="none" d="
M 5.7 11.7
L 5.65 11.65
Q 4.35 10.35 4.35 8.55
L -1.15 8.65
Q -1.1 12.7 1.75 15.55 1.85 15.65 2 15.75
L 5.7 11.7 Z"/>

<path fill="#00FFA4" stroke="none" d="
M 5.65 5.4
L 5.7 5.4 1.8 1.35
Q 1.8 1.4 1.75 1.4 -1.15 4.35 -1.15 8.5 -1.15 8.6 -1.15 8.65
L 4.35 8.55 4.35 8.5
Q 4.35 6.7 5.65 5.4 Z"/>

<path fill="#FF0079" stroke="none" d="
M 13.2 8.75
Q 13.15 10.35 12.1 11.5
L 15.95 15.5
Q 18.8 12.65 18.85 8.65
L 13.2 8.75 Z"/>

<path fill="#CB00FF" stroke="none" d="
M 12.1 11.5
Q 12 11.6 11.95 11.65 10.7 12.8 9.1 12.9
L 9.1 18.5
Q 13.05 18.45 15.9 15.55 15.95 15.55 15.95 15.5
L 12.1 11.5 Z"/>

<path fill="#FF5500" stroke="none" d="
M 13.2 8.5
Q 13.2 8.6 13.2 8.75
L 18.85 8.65
Q 18.85 8.6 18.85 8.5 18.85 4.5 16.1 1.65
L 12.05 5.55
Q 13.2 6.75 13.2 8.5 Z"/>

<path fill="#ECFF01" stroke="none" d="
M 16.1 1.65
Q 16 1.5 15.9 1.4 13.05 -1.45 9.1 -1.5
L 8.9 4.1
Q 10.65 4.15 11.95 5.4 12 5.5 12.05 5.55
L 16.1 1.65 Z"/>

<path fill="#06FF01" stroke="none" d="
M 9.1 -1.5
Q 8.95 -1.5 8.85 -1.5 4.8 -1.5 1.8 1.35
L 5.7 5.4
Q 6.95 4.1 8.8 4.1 8.85 4.1 8.9 4.1
L 9.1 -1.5 Z"/>
</g>
</defs>

<mask id="Mask_Mask_1">
<g transform="matrix( 1, 0, 0, 1, 0,0) ">
<use xlink:href="#Mask_2_MASK_0_FILL"/>
</g>
</mask>

<g mask="url(#Mask_Mask_1)">
<g filter="url(#Filter_1)" transform="matrix( 1, 0, 0, 1, 0,0) ">
<g transform="matrix( 1.104644775390625, 0, 0, 1.104644775390625, 0.55,0.55) ">
<g transform="matrix( 1, 0, 0, 1, 0,0) ">
<use xlink:href="#cyclewheel_0_Layer0_0_FILL"/>
</g>
</g>
</g>
</g>
</svg>
