
<svg xmlns="http://www.w3.org/2000/svg" version="1.1" xmlns:xlink="http://www.w3.org/1999/xlink" preserveAspectRatio="none" x="0px" y="0px" width="19px" height="19px" viewBox="0 0 19 19">
<defs>
<g id="Layer1_0_FILL">
<path fill="#CCCCCC" stroke="none" d="
M 13.9 5.35
Q 13.3 4.7 13.3 3.8
L 15.4 1.75
Q 13.75 1.4 12.4 2.1 9.9 3.4 11.05 6.55
L 1.75 15.4
Q 1.35 15.85 1.4 16.6 1.5 17.25 2 17.6 2.079296875 17.6494140625 2.15 17.7
L 2.95 16.9
Q 2.824609375 16.8498046875 2.7 16.75 2.5 16.55 2.5 16.3 2.5 16 2.7 15.8 2.95 15.6 3.25 15.6 3.5 15.6 3.7 15.8 3.79921875 15.89921875 3.85 16
L 14.25 5.6
Q 14.0623046875 5.4986328125 13.9 5.35 Z"/>

<path fill="#AFAFAF" stroke="none" d="
M 17.65 4.05
L 15.6 6.1
Q 15.0185546875 5.9943359375 14.55 5.8 14.4078125 5.71875 14.25 5.6
L 3.85 16
Q 3.866015625 16.05 3.85 16.05 3.9 16.176953125 3.9 16.3 3.9 16.55 3.7 16.75 3.5 16.95 3.25 16.95 3.1173828125 16.95 3 16.9
L 2.95 16.9 2.15 17.7 2.15 17.7
Q 3.285546875 18.2716796875 4.4 17.25
L 12.15 9.2
Q 12.9 8.25 13.75 8.55 15.65 9.05 16.8 7.95 18.4 6.35 17.65 4.05 Z"/>
</g>

<g id="Layer0_0_FILL">
<path fill="#CCCCCC" stroke="none" d="
M 4.1 2.5
L 2.15 1.6 1.7 1.9 8.2 8.3 8.85 7.6 5.1 3.95 4.1 2.5 Z"/>

<path fill="#AFAFAF" stroke="none" d="
M 2.25 4.25
L 4.15 5.6 7.6 8.9 8.2 8.3 1.7 1.9 1.4 2.15 2.25 4.25 Z"/>

<path fill="#FE9900" stroke="none" d="
M 10.85 8.4
Q 10.65 7.8 10.35 7.35 9.55 6.7 8.85 7.6
L 8.2 8.3 7.6 8.9 7.1 9.35
Q 6.8 9.85 7.2 10.4 7.55 10.8 8.2 10.95
L 10.85 8.4 Z"/>

<path fill="#FEC207" stroke="none" d="
M 12.6 10.55
Q 11.2 9.35 10.9 8.55 10.9 8.45 10.85 8.4
L 8.2 10.95
Q 8.25 10.95 8.3 10.95 8.85 11 10.5 12.8
L 13.8 17.2
Q 14.65 18.3 16.3 18 17.6 17.55 17.85 16.1 18.05 14.7 16.25 13.45
L 12.6 10.55 Z"/>
</g>
</defs>

<g transform="matrix( 1, 0, 0, 1, 0,0) ">
<use xlink:href="#Layer1_0_FILL"/>
</g>

<g transform="matrix( 1, 0, 0, 1, 0,0) ">
<use xlink:href="#Layer0_0_FILL"/>
</g>
</svg>
