
<svg xmlns="http://www.w3.org/2000/svg" version="1.1" xmlns:xlink="http://www.w3.org/1999/xlink" preserveAspectRatio="none" x="0px" y="0px" width="19px" height="19px" viewBox="0 0 19 19">
<defs>
<radialGradient id="Gradient_1" gradientUnits="userSpaceOnUse" cx="0" cy="0" r="30.30000000000001" fx="0" fy="0" gradientTransform="matrix( 0.9999999999999997, 0, 0, 0.9999999999999997, -159.95,-50.25) " spreadMethod="pad">
<stop  offset="0%" stop-color="#FFFFFF"/>

<stop  offset="100%" stop-color="#CD0603"/>
</radialGradient>

<radialGradient id="Gradient_2" gradientUnits="userSpaceOnUse" cx="0" cy="0" r="236.10000000000002" fx="0" fy="0" gradientTransform="matrix( 1, 0, 0, 0.30537907666243114, -55,-53.95) " spreadMethod="pad">
<stop  offset="0%" stop-color="#FFFFFF"/>

<stop  offset="100%" stop-color="#000000"/>
</radialGradient>

<linearGradient id="Gradient_3" gradientUnits="userSpaceOnUse" x1="-114.25" y1="-82.15" x2="-83.94999999999999" y2="-64.65" spreadMethod="pad">
<stop  offset="0%" stop-color="#FFFFFF"/>

<stop  offset="45.88235294117647%" stop-color="#3C3C3C"/>

<stop  offset="100%" stop-color="#FFFFFF"/>
</linearGradient>

<linearGradient id="Gradient_4" gradientUnits="userSpaceOnUse" x1="-114.21249999999999" y1="-63.87500000000001" x2="-92.4875" y2="-76.42500000000001" spreadMethod="pad">
<stop  offset="0%" stop-color="#FFFFFF"/>

<stop  offset="100%" stop-color="#000000"/>
</linearGradient>

<radialGradient id="Gradient_5" gradientUnits="userSpaceOnUse" cx="0" cy="0" r="52.45" fx="0" fy="0" gradientTransform="matrix( 1, 0, 0, 1, 3.5,-42.3) " spreadMethod="pad">
<stop  offset="0%" stop-color="#FFFFFF"/>

<stop  offset="100%" stop-color="#CD0603"/>
</radialGradient>

<g id="Extra_Symbols__Ignore_This_Folder__Duplicate_Items_Folder_copy_Rocket_0_Layer1_0_FILL">
<path fill="url(#Gradient_1)" stroke="none" d="
M -145.3 -48.4
L -144.85 -49.2
Q -148.84609375 -68.9625 -144.85 -88.75 -160.9455078125 -80.1708984375 -176.55 -68.45 -161.1625 -56.894921875 -145.3 -48.4 Z"/>

<path fill="url(#Gradient_2)" stroke="none" d="
M -4.55 -106
Q -22.23125 -110.226953125 -39.45 -111.5 -94.55078125 -115.506640625 -144.85 -88.75 -148.84609375 -68.9625 -144.85 -49.2
L -145.25 -48.4
Q -108.309765625 -28.6349609375 -68.8 -25.5 -68.676171875 -25.48671875 -68.55 -25.5 -54.1666015625 -24.3494140625 -39.45 -25.45 -35.693359375 -25.698046875 -31.95 -26.15 -18.327734375 -27.61328125 -4.45 -30.95
L -4.55 -31.35
Q -9.3046875 -68.6625 -4.55 -106
M -99.15 -91
Q -91.8853515625 -90.980078125 -86.8 -85.9 -81.6494140625 -80.7439453125 -81.65 -73.5 -81.6494140625 -66.2103515625 -86.8 -61.15 -91.8853515625 -55.9744140625 -99.15 -56 -106.4064453125 -55.9744140625 -111.55 -61.15 -116.642578125 -66.2103515625 -116.65 -73.5 -116.642578125 -80.7439453125 -111.55 -85.9 -106.4064453125 -90.980078125 -99.15 -91 Z"/>

<path fill="url(#Gradient_3)" stroke="none" d="
M -86.8 -85.9
Q -91.8853515625 -90.980078125 -99.15 -91 -106.4064453125 -90.980078125 -111.55 -85.9 -116.642578125 -80.7439453125 -116.65 -73.5 -116.642578125 -66.2103515625 -111.55 -61.15 -106.4064453125 -55.9744140625 -99.15 -56 -91.8853515625 -55.9744140625 -86.8 -61.15 -81.6494140625 -66.2103515625 -81.65 -73.5 -81.6494140625 -80.7439453125 -86.8 -85.9
M -99.2 -86.15
Q -93.9564453125 -86.110546875 -90.3 -82.45 -86.6162109375 -78.7703125 -86.65 -73.6 -86.6162109375 -68.3564453125 -90.3 -64.7 -93.9564453125 -61.016015625 -99.2 -61.05 -104.3701171875 -61.016015625 -108.05 -64.7 -111.7103515625 -68.3564453125 -111.75 -73.6 -111.7103515625 -78.7703125 -108.05 -82.45 -104.3701171875 -86.110546875 -99.2 -86.15 Z"/>

<path fill="url(#Gradient_4)" stroke="none" d="
M -90.3 -82.45
Q -93.9564453125 -86.110546875 -99.2 -86.15 -104.3701171875 -86.110546875 -108.05 -82.45 -111.7103515625 -78.7703125 -111.75 -73.6 -111.7103515625 -68.3564453125 -108.05 -64.7 -104.3701171875 -61.016015625 -99.2 -61.05 -93.9564453125 -61.016015625 -90.3 -64.7 -86.6162109375 -68.3564453125 -86.65 -73.6 -86.6162109375 -78.7703125 -90.3 -82.45 Z"/>

<path fill="url(#Gradient_5)" stroke="none" d="
M 4.5 -33.3
Q -0.18359375 -68.45 4.5 -103.6 -0.03984375 -104.88203125 -4.55 -106 -9.3046875 -68.6625 -4.55 -31.35
L -4.45 -30.95
Q 0.0095703125 -32.0328125 4.5 -33.3 Z"/>

<path fill="#08AAD2" stroke="none" d="
M 4.5 -103.6
Q 22.453125 -121.90859375 54.5 -122.6 1.028125 -160.7927734375 -39.45 -111.5 -22.23125 -110.226953125 -4.55 -106 -0.03984375 -104.88203125 4.5 -103.6 Z"/>
</g>

<g id="Extra_Symbols__Ignore_This_Folder__Duplicate_Items_Folder_copy_Rocket_0_Layer0_0_FILL">
<path fill="#08AAD2" stroke="none" d="
M 52.5 -77.2
Q 25.606640625 -82.2544921875 2 -81.5 -2.5869140625 -81.34296875 -7.05 -81 -25.2861328125 -79.4560546875 -41.45 -74.3
L 2.5 -72.2
Q 20.453125 -77.0177734375 52.5 -77.2
M 53.5 -23.3
Q 21.453125 -23.99140625 3.5 -42.3 -18.4625 -35.43828125 -40.45 -34.4 -36.7228515625 -29.8873046875 -32.95 -26.15 4.9326171875 11.3896484375 53.5 -23.3 Z"/>
</g>

<g id="Layer1_0_FILL">
<path fill="#A8A8A8" stroke="none" d="
M 16.05 12.15
L 16.4 11.65
Q 15 12 13.85 12.7 14 12.75 14.1 12.85 14.45 13.2 14.45 13.7 14.45 14.2 14.1 14.55 13.75 14.9 13.25 14.9 12.8 14.9 12.45 14.55 12.25 14.35 12.15 14.1 11.1 15.35 10.6 17.1
L 10.75 17.25 11.7 16.55
Q 11.8 16.65 11.9 16.65 12.1 16.8 12.45 16.85
L 12.65 17.9 13.9 17.9 14.1 16.85
Q 14.35 16.85 14.55 16.7 14.7 16.65 14.9 16.55
L 15.85 17.25 16.75 16.3 16.05 15.35
Q 16.35 14.95 16.35 14.55
L 17.5 14.45 17.55 13.15 16.35 12.9
Q 16.35 12.5 16.05 12.15 Z"/>

<path fill="#E0E0E0" stroke="none" d="
M 11.9 10.8
Q 11.8 10.85 11.7 10.95
L 10.75 10.25 9.8 11.15 10.5 12.15
Q 10.2 12.5 10.25 12.9
L 9.05 13.15 9.05 14.45 10.25 14.55
Q 10.2 14.95 10.5 15.35
L 9.8 16.3 10.6 17.1
Q 11.1 15.35 12.15 14.1 12.05 13.95 12.05 13.7 12.05 13.2 12.45 12.85 12.8 12.5 13.25 12.5 13.6 12.5 13.85 12.7 15 12 16.4 11.65
L 16.75 11.15 15.85 10.25 14.9 10.95
Q 14.7 10.85 14.55 10.75 14.35 10.65 14.1 10.65
L 13.9 9.45 12.65 9.45 12.45 10.65
Q 12.1 10.7 11.9 10.8 Z"/>
</g>

<path id="Extra_Symbols__Ignore_This_Folder__Duplicate_Items_Folder_copy_Rocket_0_Layer1_0_1_STROKES" stroke="#000000" stroke-width="1" stroke-linejoin="round" stroke-linecap="round" fill="none" d="
M -39.45 -111.475
Q 1.028125 -160.7927734375 54.5 -122.6 22.453125 -121.90859375 4.5 -103.6 -0.18359375 -68.45 4.5 -33.3 0.0095703125 -32.0328125 -4.45 -30.95 -18.327734375 -27.61328125 -31.925 -26.125 -35.693359375 -25.698046875 -39.45 -25.425 -54.1666015625 -24.3494140625 -68.55 -25.475 -68.676171875 -25.48671875 -68.8 -25.5 -108.309765625 -28.6349609375 -145.225 -48.375 -145.2591796875 -48.393359375 -145.3 -48.4 -161.1625 -56.894921875 -176.55 -68.45 -160.9455078125 -80.1708984375 -144.85 -88.725 -94.55078125 -115.506640625 -39.45 -111.475 -22.23125 -110.226953125 -4.55 -105.975 -0.03984375 -104.88203125 4.5 -103.6
M -86.8 -85.9
Q -81.6494140625 -80.7439453125 -81.65 -73.475 -81.6494140625 -66.2103515625 -86.8 -61.125 -91.8853515625 -55.9744140625 -99.15 -55.975 -106.4064453125 -55.9744140625 -111.55 -61.125 -116.642578125 -66.2103515625 -116.65 -73.475 -116.642578125 -80.7439453125 -111.55 -85.9 -106.4064453125 -90.980078125 -99.15 -90.975 -91.8853515625 -90.980078125 -86.8 -85.9 Z
M -90.3 -82.45
Q -86.6162109375 -78.7703125 -86.625 -73.575 -86.6162109375 -68.3564453125 -90.3 -64.7 -93.9564453125 -61.016015625 -99.175 -61.025 -104.3701171875 -61.016015625 -108.05 -64.7 -111.7103515625 -68.3564453125 -111.725 -73.575 -111.7103515625 -78.7703125 -108.05 -82.45 -104.3701171875 -86.110546875 -99.175 -86.125 -93.9564453125 -86.110546875 -90.3 -82.45 Z
M -144.85 -88.725
Q -148.84609375 -68.9625 -144.85 -49.2
M -4.55 -105.975
Q -9.3046875 -68.6625 -4.55 -31.35"/>

<path id="Extra_Symbols__Ignore_This_Folder__Duplicate_Items_Folder_copy_Rocket_0_Layer0_0_1_STROKES" stroke="#000000" stroke-width="1" stroke-linejoin="round" stroke-linecap="round" fill="none" d="
M 3.5 -42.3
Q 21.453125 -23.99140625 53.5 -23.3 4.9326171875 11.3896484375 -32.925 -26.125 -36.7228515625 -29.8873046875 -40.425 -34.375
M 2.5 -72.2
Q 20.453125 -77.0177734375 52.5 -77.2 25.606640625 -82.2544921875 2 -81.5 -2.5869140625 -81.34296875 -7.05 -80.975 -25.2861328125 -79.4560546875 -41.45 -74.275
M -40.425 -34.375
Q -18.4625 -35.43828125 3.5 -42.3
M -41.45 -74.275
L 2.5 -72.2"/>
</defs>

<g id="Rocket" transform="matrix( 0, 0.0737152099609375, -0.0738067626953125, -0.0001068115234375, 4,13.85) ">
<g transform="matrix( 1, 0, 0, 1, 0,0) ">
<use xlink:href="#Extra_Symbols__Ignore_This_Folder__Duplicate_Items_Folder_copy_Rocket_0_Layer1_0_FILL"/>

<use xlink:href="#Extra_Symbols__Ignore_This_Folder__Duplicate_Items_Folder_copy_Rocket_0_Layer1_0_1_STROKES"/>
</g>

<g transform="matrix( 1, 0, 0, 1, 0,0) ">
<use xlink:href="#Extra_Symbols__Ignore_This_Folder__Duplicate_Items_Folder_copy_Rocket_0_Layer0_0_FILL"/>

<use xlink:href="#Extra_Symbols__Ignore_This_Folder__Duplicate_Items_Folder_copy_Rocket_0_Layer0_0_1_STROKES"/>
</g>
</g>

<g transform="matrix( 1, 0, 0, 1, 0,0) ">
<use xlink:href="#Layer1_0_FILL"/>
</g>
</svg>
