<?xml version="1.0" encoding="utf-8"?>
<!-- Generator: Adobe Illustrator 24.0.1, SVG Export Plug-In . SVG Version: 6.00 Build 0)  -->
<svg version="1.1" xmlns="http://www.w3.org/2000/svg" xmlns:xlink="http://www.w3.org/1999/xlink" x="0px" y="0px" width="22px"
	 height="22px" viewBox="0 0 22 22" style="enable-background:new 0 0 22 22;" xml:space="preserve">
<style type="text/css">
	.Sombra_x0020_paralela{fill:none;}
	.Resplandor_x0020_externo_x0020_5_x0020_pt_x002E_{fill:none;}
	.Neón_x0020_azul{fill:none;stroke:#8AACDA;stroke-width:7;stroke-linecap:round;stroke-linejoin:round;}
	.Resalte_x0020_cromado{fill:url(#SVGID_1_);stroke:#FFFFFF;stroke-width:0.3629;stroke-miterlimit:1;}
	.A_x0020_todo_x0020_ritmo_GS{fill:#FFDD00;}
	.Alyssa_GS{fill:#A6D0E4;}
	.st0{fill:#1877F2;}
	.st1{fill:#FFFFFF;}
</style>
<linearGradient id="SVGID_1_" gradientUnits="userSpaceOnUse" x1="0" y1="0" x2="6.123234e-17" y2="-1">
	<stop  offset="0" style="stop-color:#656565"/>
	<stop  offset="0.618" style="stop-color:#1B1B1B"/>
	<stop  offset="0.6292" style="stop-color:#545454"/>
	<stop  offset="0.9831" style="stop-color:#3E3E3E"/>
</linearGradient>
<g id="Capa_4">
	<circle class="st0" cx="11.109" cy="10.891" r="10.734"/>
</g>
<g id="Capa_1">
	<path class="st1" d="M13.941,7.365l2.086-0.052L16,4.438c-0.004-0.033-0.02-0.062-0.044-0.088
		c-0.081-0.016-0.157-0.037-0.236-0.056c-0.523-0.102-1.545-0.247-1.955-0.247c-0.443,0-0.891,0.016-1.359,0.109
		C9.363,4.765,9.188,7.375,9.188,7.375v3.462H6.625v3.038h2.563l0.005,7.576c1.906,0.453,3.933-0.013,3.933-0.013v-7.375h2.313
		l0.589-3.225h-2.964V8.479C13.071,7.506,13.941,7.365,13.941,7.365z"/>
</g>
<g id="Capa_3">
</g>
</svg>
