
<svg xmlns="http://www.w3.org/2000/svg" version="1.1" xmlns:xlink="http://www.w3.org/1999/xlink" preserveAspectRatio="none" x="0px" y="0px" width="19px" height="19px" viewBox="0 0 19 19">
<defs>
<g id="Layer2_0_FILL">
<path fill="#FFCC00" stroke="none" d="
M 12.75 7.7
L 9.5 1.75 2.05 15.4
Q 7.66640625 8.290234375 12.75 7.7 Z"/>

<path fill="#D7AC01" stroke="none" d="
M 2.05 15.4
L 1.25 16.9 17.75 16.9 12.75 7.7
Q 7.66640625 8.290234375 2.05 15.4 Z"/>
</g>

<g id="__0_Layer0_0_FILL">
<path fill="#000000" stroke="none" d="
M 0 10.7
L 2 10.7 2 8.85 0 8.85 0 10.7
M 0.05 0
L 0.05 3.1 0.55 7.7 1.45 7.7 1.95 3.1 1.95 0 0.05 0 Z"/>
</g>
</defs>

<g transform="matrix( 1, 0, 0, 1, 0,0) ">
<use xlink:href="#Layer2_0_FILL"/>
</g>

<g transform="matrix( 0.8074951171875, 0, 0, 0.8074951171875, 8.65,6.25) ">
<g transform="matrix( 1, 0, 0, 1, 0,0) ">
<use xlink:href="#__0_Layer0_0_FILL"/>
</g>
</g>
</svg>
