
<svg xmlns="http://www.w3.org/2000/svg" version="1.1" xmlns:xlink="http://www.w3.org/1999/xlink" preserveAspectRatio="none" x="0px" y="0px" width="19px" height="19px" viewBox="0 0 19 19">
<defs>
<radialGradient id="Gradient_1" gradientUnits="userSpaceOnUse" cx="0" cy="0" r="9.667964172978714" fx="0" fy="0" gradientTransform="matrix( 0.4835557844811113, -0.8753135457051132, 0.5145861022018243, 0.28185871929647666, 8.15,13.8) " spreadMethod="pad">
<stop  offset="0%" stop-color="#000000" stop-opacity="0.4117647058823529"/>

<stop  offset="100%" stop-color="#013198" stop-opacity="0"/>
</radialGradient>

<radialGradient id="Gradient_2" gradientUnits="userSpaceOnUse" cx="0" cy="0" r="5.021096120370531" fx="0" fy="0" gradientTransform="matrix( 0.7767228323269383, -0.6298425531369083, 0.4008088974507598, 0.4929202589767108, 6.9,5.15) " spreadMethod="pad">
<stop  offset="0%" stop-color="#000000" stop-opacity="0.4235294117647059"/>

<stop  offset="100%" stop-color="#013198" stop-opacity="0"/>
</radialGradient>

<g id="Extra_Symbols__Ignore_This_Folder___Chatter_ChatterB_0_Layer0_0_FILL">
<path fill="#009900" stroke="none" d="
M 8.3 3.4
Q 8.2974609375 1.993359375 7.3 1 6.3072265625 0.00390625 4.9 0 3.492578125 0.00390625 2.5 1 1.50234375 1.993359375 1.5 3.4 1.50234375 4.806640625 2.5 5.8 3.492578125 6.78359375 4.9 6.75 3.2388671875 6.9326171875 1.7 9.1 -0.062109375 11.6072265625 0 14.85 0.025 15.912890625 5.15 16 10.26640625 16.0830078125 10.2 15.05 10.011328125 11.7240234375 8.45 9.2 6.997265625 6.7763671875 5.15 6.75 6.40390625 6.6900390625 7.3 5.8 8.2974609375 4.806640625 8.3 3.4 Z"/>
</g>

<g id="Extra_Symbols__Ignore_This_Folder___App_Icons_friends_0_Layer1_0_FILL">
<path fill="url(#Gradient_1)" stroke="none" d="
M 5.45 7.3
L 5.4 7.3
Q 3.75 7.45 2.2 9.65 0.45 12.1 0.5 15.4 0.55 16.4 5.65 16.5 10.75 16.6 10.7 15.55 10.5 12.2 9 9.75 7.5 7.3 5.7 7.3 5.55 7.3 5.45 7.3
M 2.7 14.9
Q 3 10.65 5.4 9.1 3 10.65 2.7 14.9 Z"/>

<path fill="url(#Gradient_2)" stroke="none" d="
M 7.8 1.5
Q 6.8 0.5 5.4 0.5 4 0.5 3 1.5 2 2.5 2 3.9 2 5.3 3 6.3 4 7.3 5.4 7.3
L 5.45 7.3
Q 5.55 7.3 5.7 7.3 6.9 7.2 7.8 6.3 8.8 5.3 8.8 3.9 8.8 2.5 7.8 1.5
M 3.7 3.95
Q 3.9 2.65 5 2.1 3.9 2.65 3.7 3.95 Z"/>
</g>

<g id="cog_0_Layer0_0_FILL">
<path fill="#A8A8A8" stroke="none" d="
M 12.9 6.1
Q 12.9 5.4 12.35 4.8
L 13 3.9 12.95 3.9
Q 10.519921875 4.4998046875 8.55 5.7 8.5255859375 5.733984375 8.5 5.75 8.733203125 5.8431640625 8.85 5.95
L 8.9 6
Q 9.55 6.65 9.55 7.5 9.55 8.4 8.9 9 8.3 9.65 7.4 9.65 6.65 9.65 6 9 5.65 8.65 5.5 8.2 5.473828125 8.2318359375 5.45 8.25 3.6373046875 10.4931640625 2.75 13.5
L 3 13.8 4.7 12.55
Q 4.85 12.7 5.05 12.7 5.4 13 6 13.1
L 6.35 14.95 8.55 14.95 8.9 13.1
Q 9.35 13.1 9.7 12.8 10 12.7 10.35 12.55
L 12 13.8 13.6 12.1 12.35 10.45
Q 12.9 9.7 12.9 9
L 14.9 8.85 15 6.55 12.9 6.1 Z"/>

<path fill="#E0E0E0" stroke="none" d="
M 12 1.45
L 10.35 2.65
Q 10 2.5 9.7 2.3 9.35 2.15 8.9 2.15
L 8.55 0 6.35 0 6 2.15
Q 5.4 2.2 5.05 2.4 4.85 2.5 4.7 2.65
L 3 1.45 1.35 3 2.55 4.8
Q 2.05 5.4 2.15 6.1
L 0 6.55 0 8.85 2.15 9
Q 2.05 9.7 2.55 10.45
L 1.35 12.1 2.75 13.5
Q 3.6373046875 10.4931640625 5.45 8.25 5.473828125 8.2318359375 5.5 8.2 5.35 8.0125 5.3 7.7
L 5.3 7.5
Q 5.3 6.65 6 6 6.65 5.4 7.4 5.4
L 7.75 5.4
Q 8.1763671875 5.4982421875 8.5 5.75 8.5255859375 5.733984375 8.55 5.7 10.519921875 4.4998046875 12.95 3.9
L 13 3.9 13.6 3 12 1.45 Z"/>
</g>

<path id="Extra_Symbols__Ignore_This_Folder___App_Icons_friends_0_Layer1_0_1_STROKES" stroke="#000000" stroke-opacity="0.6509803921568628" stroke-width="0.05" stroke-linejoin="round" stroke-linecap="round" fill="none" d="
M 5.4 7.3
Q 4 7.3 3 6.3 2 5.3 2 3.9 2 2.5 3 1.5 4 0.5 5.4 0.5 6.8 0.5 7.8 1.5 8.8 2.5 8.8 3.9 8.8 5.3 7.8 6.3 6.9 7.2 5.7 7.3 7.5 7.3 9 9.75 10.5 12.2 10.7 15.55 10.75 16.6 5.65 16.5 0.55 16.4 0.5 15.4 0.45 12.1 2.2 9.65 3.75 7.45 5.4 7.3 Z"/>

<path id="Extra_Symbols__Ignore_This_Folder___App_Icons_friends_0_Layer1_0_2_STROKES" stroke="#FFFFFF" stroke-width="1" stroke-linejoin="round" stroke-linecap="round" fill="none" d="
M 3.7 3.95
Q 3.9 2.65 5 2.1
M 2.7 14.9
Q 3 10.65 5.4 9.1"/>

<path id="Extra_Symbols__Ignore_This_Folder___App_Icons_friends_0_Layer1_0_3_STROKES" stroke="#000000" stroke-width="0.05" stroke-linejoin="round" stroke-linecap="round" fill="none" d="
M 5.45 7.3
L 5.4 7.3"/>
</defs>

<g transform="matrix( 0.9902191162109375, 0, 0, 0.9902191162109375, 3.95,1.1) ">
<g id="col0" transform="matrix( 1, 0, 0, 1, 0.5,0.5) ">
<g transform="matrix( 1, 0, 0, 1, 0,0) ">
<use xlink:href="#Extra_Symbols__Ignore_This_Folder___Chatter_ChatterB_0_Layer0_0_FILL"/>
</g>
</g>

<g transform="matrix( 1, 0, 0, 1, 0,0) ">
<use xlink:href="#Extra_Symbols__Ignore_This_Folder___App_Icons_friends_0_Layer1_0_FILL"/>

<use xlink:href="#Extra_Symbols__Ignore_This_Folder___App_Icons_friends_0_Layer1_0_1_STROKES"/>

<use xlink:href="#Extra_Symbols__Ignore_This_Folder___App_Icons_friends_0_Layer1_0_2_STROKES"/>

<use xlink:href="#Extra_Symbols__Ignore_This_Folder___App_Icons_friends_0_Layer1_0_3_STROKES"/>
</g>
</g>

<g transform="matrix( 0.5360870361328125, 0, 0, 0.5360870361328125, 8.55,8.9) ">
<g transform="matrix( 1, 0, 0, 1, 0,0) ">
<use xlink:href="#cog_0_Layer0_0_FILL"/>
</g>
</g>
</svg>
