
<svg xmlns="http://www.w3.org/2000/svg" version="1.1" xmlns:xlink="http://www.w3.org/1999/xlink" preserveAspectRatio="none" x="0px" y="0px" width="19px" height="19px" viewBox="0 0 19 19">
<defs>
<g id="Layer0_0_FILL">
<path fill="#FFE272" stroke="none" d="
M 29.8 3.35
L 27.2 0.75
Q 25.75 -0.7 24.35 0.7
L 0.75 24.3
Q -0.7 25.75 0.75 27.2
L 3.35 29.8
Q 4.45 28.7 6.1 28.75 7.8 28.85 9 30.05 9.2 30.25 9.35 30.4
L 30.25 9.5
Q 30.05 9.4 29.85 9.2 28.65 8 28.55 6.3 28.5 4.65 29.6 3.55 29.7 3.45 29.8 3.35 Z"/>

<path fill="#FFCC00" stroke="none" d="
M 38 11.55
L 35.75 9.3
Q 35.65 9.4 35.55 9.5 34.45 10.6 32.7 10.45 31.3 10.45 30.25 9.5
L 9.35 30.4
Q 10.25 31.5 10.25 32.9 10.4 34.65 9.3 35.75
L 11.55 38
Q 12.95 39.4 14.4 37.95
L 38 14.35
Q 39.4 12.95 38 11.55 Z"/>
</g>
</defs>

<g transform="matrix( 0.4315185546875, 0, 0, 0.4315185546875, 1.15,1.15) ">
<g transform="matrix( 1, 0, 0, 1, 0,0) ">
<use xlink:href="#Layer0_0_FILL"/>
</g>
</g>
</svg>
