
<svg xmlns="http://www.w3.org/2000/svg" version="1.1" xmlns:xlink="http://www.w3.org/1999/xlink" preserveAspectRatio="none" x="0px" y="0px" width="19px" height="19px" viewBox="0 0 19 19">
<defs>
<g id="Layer0_0_FILL">
<path fill="#000000" stroke="none" d="
M 17.5 4
Q 17.7376953125 3.65 18.4 3.65
L 18.4 3.15 15.35 3.15 15.35 3.65
Q 16.1 3.65 16.6 4
L 14.1 11.2 11.45 4.05 11.45 4
Q 11.68125 3.6 12.45 3.6
L 12.45 3.1 7.05 3.1 7.05 3.6
Q 7.8052734375 3.6 8.05 4
L 8.1 4.1 9.25 7 7.4 11.55 4.55 4.1 4.55 4.1
Q 4.7458984375 3.63671875 5.55 3.65
L 5.55 3.15 0.6 3.15 0.7 3.75
Q 1.1919921875 3.7623046875 2 5.9 2.0416015625 5.9283203125 2.05 5.95
L 6.1 15.8 9.6 7.9 12.95 16 17.5 4 Z"/>
</g>
</defs>

<g transform="matrix( 1, 0, 0, 1, 0,0) ">
<use xlink:href="#Layer0_0_FILL"/>
</g>
</svg>
