
<svg xmlns="http://www.w3.org/2000/svg" version="1.1" xmlns:xlink="http://www.w3.org/1999/xlink" preserveAspectRatio="none" x="0px" y="0px" width="19px" height="19px" viewBox="0 0 19 19">
<defs>
<g id="hd1obj_0_Layer0_0_FILL">
<path fill="#FFCC99" stroke="none" d="
M 0 28.7
Q 2.7 27.95 5.1 26.7 15.15 21.75 20.45 9.75
L 20.45 -12.6
Q 0.9 -44.75 -20.45 -12.6
L -20.45 10.85
Q -14.15 22.85 0 28.7 Z"/>
</g>

<g id="head_0_Layer1_0_FILL">
<path fill="#C9A27B" fill-opacity="0.5450980392156862" stroke="none" d="
M 0 28.7
Q 2.7 27.95 5.1 26.7 -12.45 17.6 -20.45 2.5
L -20.45 10.85
Q -14.15 22.85 0 28.7 Z"/>
</g>

<g id="shine_0_Layer0_0_FILL">
<path fill="#FFFFFF" fill-opacity="0.45098039215686275" stroke="none" d="
M -14.7 -6.2
Q -11.4 -5.7 -8.1 -6.2
L -5.6 -7.85
Q -10.9 -6.95 -16.2 -7.85
L -14.7 -6.2
M 2.65 7.3
L 5.15 5.05
Q -0.15 6.3 -5.45 5.05
L -3.95 7.3
Q -0.65 8.4 2.65 7.3
M 7.15 -6.2
Q 10.45 -5.7 13.75 -6.2
L 16.25 -7.85
Q 10.95 -6.95 5.65 -7.85
L 7.15 -6.2 Z"/>
</g>

<g id="eyes_0_Layer0_0_FILL">
<path fill="#FFFFFF" stroke="none" d="
M -13.9 -3.35
Q -14.81015625 -3.126171875 -15.6 -2.75 -17.7 -1.6 -17.7 0 -17.7 1.6 -15.6 2.6 -14.81015625 3.0326171875 -13.9 3.3 -12.3904296875 3.75 -10.55 3.75 -7.55 3.75 -5.45 2.6 -3.35 1.6 -3.35 0 -3.35 -1.6 -5.45 -2.75 -7.55 -3.75 -10.55 -3.75 -12.3904296875 -3.75 -13.9 -3.35
M 10.6 -3.75
Q 7.6 -3.75 5.5 -2.75 3.4 -1.6 3.4 0 3.4 1.6 5.5 2.6 7.6 3.75 10.6 3.75 12.45 3.75 13.95 3.3 14.85 3.05 15.65 2.6 17.75 1.6 17.75 0 17.75 -1.6 15.65 -2.75 14.85 -3.15 13.95 -3.35 12.45 -3.75 10.6 -3.75 Z"/>
</g>

<g id="pupils_0_Layer0_0_FILL">
<path fill="#000000" stroke="none" d="
M -10.65 -2.35
Q -11.95 -2.35 -12.95 -1.7 -13.85 -0.95 -13.85 0 -13.85 0.95 -12.95 1.6 -11.95 2.35 -10.65 2.35 -9.35 2.35 -8.45 1.6 -7.45 0.95 -7.45 0 -7.45 -0.95 -8.45 -1.7 -9.35 -2.35 -10.65 -2.35
M 10.7 -2.35
Q 9.4 -2.35 8.4 -1.7 7.5 -0.95 7.5 0 7.5 0.95 8.4 1.6 9.4 2.35 10.7 2.35 12 2.35 12.9 1.6 13.9 0.95 13.9 0 13.9 -0.95 12.9 -1.7 12 -2.35 10.7 -2.35 Z"/>
</g>

<g id="hair1obj_0_Layer0_0_FILL">
<path fill="#0066FF" stroke="none" d="
M 49.05 13.15
L 45.35 4.7 40 7.5 35.6 0 30.6 6.1 25.1 0 20.8 7.5 15.35 4.7 11.65 13.15 6.35 13.15 6.35 22.05 1.55 22.05 3.85 31.15 0 31.15 4.25 38 2.05 44.55 7.85 54.15 9.75 49.45 12.65 32.4 25.9 26 23.6 31.65 34.4 26 31.4 33.95 44.35 26 41.05 33.8 51.05 29.1 50.95 49.45 52.85 54.15 58.65 44.55 56.45 38 60.75 31.15 56.95 31.15 59.15 22.05 54.35 22.05 54.35 13.15 49.05 13.15 Z"/>
</g>

<g id="hair1_0_Layer1_0_FILL">
<path fill="#FFFFFF" fill-opacity="0.2196078431372549" stroke="none" d="
M 4.55 3.5
L 1.55 11.45 14.5 3.5 11.2 11.3 21.2 6.6 21.1 26.95 23 31.65 24.25 29.6 24.1 2.25 18.85 2.5 20.1 -2.5 10.6 1.5 12.25 -3.5 -0.4 1.15 1.85 -4.35 -22.15 4 -20.65 8.75 -26.35 24.5 -22 31.65 -20.1 26.95 -17.2 9.9 -3.95 3.5 -6.25 9.15 4.55 3.5 Z"/>
</g>

<path id="head_0_Layer0_0_1_STROKES" stroke="#333333" stroke-width="1.5" stroke-linejoin="round" stroke-linecap="round" fill="none" d="
M 0 28.7
Q -14.15 22.85 -20.45 10.85
L -20.45 -12.6
Q 0.9 -44.75 20.45 -12.6
L 20.45 9.75
Q 15.15 21.75 5.1 26.7 2.7 27.95 0 28.7 Z"/>

<path id="mouth_0_Layer0_0_1_STROKES" stroke="#990000" stroke-width="1.5" stroke-linejoin="round" stroke-linecap="round" fill="none" d="
M -6.35 0
L 6.35 0"/>

<path id="eyes_0_Layer0_0_1_STROKES" stroke="#333333" stroke-width="1.5" stroke-linejoin="round" stroke-linecap="round" fill="none" d="
M 13.95 -3.35
Q 12.45 -3.75 10.6 -3.75 7.6 -3.75 5.5 -2.75 3.4 -1.6 3.4 0 3.4 1.6 5.5 2.6 7.6 3.75 10.6 3.75 12.45 3.75 13.95 3.3
M -13.9 -3.35
Q -12.3904296875 -3.75 -10.55 -3.75 -7.55 -3.75 -5.45 -2.75 -3.35 -1.6 -3.35 0 -3.35 1.6 -5.45 2.6 -7.55 3.75 -10.55 3.75 -12.3904296875 3.75 -13.9 3.3"/>

<path id="hair1_0_Layer0_0_1_STROKES" stroke="#333333" stroke-width="1.5" stroke-linejoin="round" stroke-linecap="round" fill="none" d="
M 10.15 -15
L 5.75 -22.5 0.75 -16.4 -4.75 -22.5 -9.05 -15 -14.5 -17.8 -18.2 -9.35 -23.5 -9.35 -23.5 -0.45 -28.3 -0.45 -26 8.65 -29.85 8.65 -25.6 15.5 -27.8 22.05 -22 31.65 -20.1 26.95 -17.2 9.9 -3.95 3.5 -6.25 9.15 4.55 3.5 1.55 11.45 14.5 3.5 11.2 11.3 21.2 6.6 21.1 26.95 23 31.65 28.8 22.05 26.6 15.5 30.9 8.65 27.1 8.65 29.3 -0.45 24.5 -0.45 24.5 -9.35 19.2 -9.35 15.5 -17.8 10.15 -15 Z"/>
</defs>

<g transform="matrix( 0.830047607421875, 0, 0, 0.830047607421875, 1.15,0.5) ">
<g transform="matrix( 0.3313140869140625, 0, 0, 0.3313140869140625, 10,12.25) ">
<g id="col0" transform="matrix( 1, 0, 0, 1, 0,0) ">
<g transform="matrix( 1, 0, 0, 1, 0,0) ">
<use xlink:href="#hd1obj_0_Layer0_0_FILL"/>
</g>
</g>

<g transform="matrix( 1, 0, 0, 1, 0,0) ">
<use xlink:href="#head_0_Layer1_0_FILL"/>
</g>

<g transform="matrix( 1, 0, 0, 1, 0,0) ">
<use xlink:href="#head_0_Layer0_0_1_STROKES"/>
</g>
</g>

<g transform="matrix( 0.3313140869140625, 0, 0, 0.3313140869140625, 10.95,17.1) ">
<g transform="matrix( 1, 0, 0, 1, 0,0) ">
<use xlink:href="#shine_0_Layer0_0_FILL"/>
</g>
</g>

<g transform="matrix( 0.3313140869140625, 0, 0, 0.3313140869140625, 11.1,18.2) ">
<g transform="matrix( 1, 0, 0, 1, 0,0) ">
<use xlink:href="#mouth_0_Layer0_0_1_STROKES"/>
</g>
</g>

<g transform="matrix( 0.3313140869140625, 0, 0, 0.3313140869140625, 10.5,12.65) ">
<g transform="matrix( 1, 0, 0, 1, 0,0) ">
<use xlink:href="#eyes_0_Layer0_0_FILL"/>

<use xlink:href="#eyes_0_Layer0_0_1_STROKES"/>
</g>
</g>

<g id="eyepos" transform="matrix( 0.3313140869140625, 0, 0, 0.3313140869140625, 11.6,12.6) ">
<g transform="matrix( 1, 0, 0, 1, 0,0) ">
<use xlink:href="#pupils_0_Layer0_0_FILL"/>
</g>
</g>

<g transform="matrix( 0.3313140869140625, 0, 0, 0.3313140869140625, 9.9,7.45) ">
<g id="col0_FL" transform="matrix( 1, 0, 0, 1, -29.85,-22.5) ">
<g transform="matrix( 1, 0, 0, 1, 0,0) ">
<use xlink:href="#hair1obj_0_Layer0_0_FILL"/>
</g>
</g>

<g transform="matrix( 1, 0, 0, 1, 0,0) ">
<use xlink:href="#hair1_0_Layer1_0_FILL"/>
</g>

<g transform="matrix( 1, 0, 0, 1, 0,0) ">
<use xlink:href="#hair1_0_Layer0_0_1_STROKES"/>
</g>
</g>
</g>
</svg>
