
<svg xmlns="http://www.w3.org/2000/svg" version="1.1" xmlns:xlink="http://www.w3.org/1999/xlink" preserveAspectRatio="none" x="0px" y="0px" width="21px" height="21px" viewBox="0 0 21 21">
<defs>
<g id="Symbol_56_0_Layer1_0_FILL">
<path fill="#FFFFFF" stroke="none" d="
M 3.7 9.8
Q 4.55 10.9 5.65 10.9 6.8 10.9 7.65 9.8 8.5 8.7 8.5 7.15 8.5 5.6 7.65 4.5 6.8 3.4 5.65 3.4 4.55 3.4 3.7 4.5 2.85 5.6 2.85 7.15 2.85 8.7 3.7 9.8
M 12.9 3.4
Q 11.8 3.4 10.95 4.5 10.1 5.6 10.1 7.15 10.1 8.7 10.95 9.8 11.8 10.9 12.9 10.9 14.05 10.9 14.9 9.8 15.75 8.7 15.75 7.15 15.75 5.6 14.9 4.5 14.05 3.4 12.9 3.4 Z"/>
</g>

<g id="Symbol_56_0_Layer0_0_FILL">
<path fill="#000000" stroke="none" d="
M 7.6 6
Q 7 5.4 6.2 5.4 5.4 5.4 4.85 6 4.25 6.55 4.25 7.4 4.25 8.25 4.85 8.85 5.4 9.4 6.2 9.4 7 9.4 7.6 8.85 8.15 8.25 8.15 7.4 8.15 6.55 7.6 6
M 13.75 6
Q 13.15 5.4 12.35 5.4 11.55 5.4 11 6 10.4 6.55 10.4 7.4 10.4 8.25 11 8.85 11.55 9.4 12.35 9.4 13.15 9.4 13.75 8.85 14.3 8.25 14.3 7.4 14.3 6.55 13.75 6 Z"/>
</g>

<path id="Symbol_56_0_Layer1_0_1_STROKES" stroke="#333333" stroke-width="1" stroke-linejoin="round" stroke-linecap="round" fill="none" d="
M 12.9 3.4
Q 14.05 3.4 14.9 4.5 15.75 5.6 15.75 7.15 15.75 8.7 14.9 9.8 14.05 10.9 12.9 10.9 11.8 10.9 10.95 9.8 10.1 8.7 10.1 7.15 10.1 5.6 10.95 4.5 11.8 3.4 12.9 3.4 Z
M 3.7 9.8
Q 2.85 8.7 2.85 7.15 2.85 5.6 3.7 4.5 4.55 3.4 5.65 3.4 6.8 3.4 7.65 4.5 8.5 5.6 8.5 7.15 8.5 8.7 7.65 9.8 6.8 10.9 5.65 10.9 4.55 10.9 3.7 9.8 Z"/>

<path id="Symbol_56_0_Layer1_0_2_STROKES" stroke="#560000" stroke-width="1.2" stroke-linejoin="round" stroke-linecap="round" fill="none" d="
M 4.25 13
Q 9.2 18.95 15.1 12.9"/>
</defs>

<g transform="matrix( 0.9261322021484375, 0, 0, 0.9261322021484375, 1.9,2.3) ">
<g transform="matrix( 1, 0, 0, 1, 0,0) ">
<use xlink:href="#Symbol_56_0_Layer1_0_FILL"/>

<use xlink:href="#Symbol_56_0_Layer1_0_1_STROKES"/>

<use xlink:href="#Symbol_56_0_Layer1_0_2_STROKES"/>
</g>

<g transform="matrix( 1, 0, 0, 1, 0,0) ">
<use xlink:href="#Symbol_56_0_Layer0_0_FILL"/>
</g>
</g>
</svg>
