
<svg xmlns="http://www.w3.org/2000/svg" version="1.1" xmlns:xlink="http://www.w3.org/1999/xlink" preserveAspectRatio="none" x="0px" y="0px" width="21px" height="21px" viewBox="0 0 21 21">
<defs>
<linearGradient id="Gradient_1" gradientUnits="userSpaceOnUse" x1="11.7" y1="17.45" x2="11.7" y2="5.249999999999999" spreadMethod="pad">
<stop  offset="0%" stop-color="#5F5F5F"/>

<stop  offset="53.333333333333336%" stop-color="#F9F9F9"/>
</linearGradient>

<linearGradient id="Gradient_2" gradientUnits="userSpaceOnUse" x1="13" y1="14.2" x2="13" y2="-3" spreadMethod="pad">
<stop  offset="0%" stop-color="#5F5F5F"/>

<stop  offset="53.333333333333336%" stop-color="#F9F9F9"/>
</linearGradient>

<filter id="Filter_1" x="-20%" y="-20%" width="140%" height="140%" color-interpolation-filters="sRGB">
<feColorMatrix in="SourceGraphic" type="matrix" values="1 0 0 0 0 0 1 0 0 0 0 0 1 0 0 0 0 0 0.4 0" result="result1"/>
</filter>

<g id="Symbol_2_0_Layer0_0_FILL">
<path fill="#FFFFFF" stroke="none" d="
M 0 22.7
L 23.4 22.7 23.4 3.55 19.85 0 3.55 0 0 3.55 0 22.7 Z"/>
</g>

<g id="Symbol_4_0_Layer0_0_FILL">
<path fill="url(#Gradient_1)" stroke="none" d="
M 0 22.7
L 23.4 22.7 23.4 3.55 19.85 0 3.55 0 0 3.55 0 22.7 Z"/>
</g>

<g id="Symbol_7_0_Layer0_0_FILL">
<path fill="#FF0000" stroke="none" d="
M 21.05 8.05
L 22.4 7.5
Q 24.45 6.2 24.2 4.15 23.35 1.5 21.95 0.4 17.1 -1 15.55 2.8 15 4.6 14 5.85
L 12.55 5.6 11.15 5.85
Q 10.15 4.6 9.6 2.8 8.05 -1 3.2 0.4 1.8 1.5 0.95 4.15 0.7 6.2 2.75 7.5
L 4.45 8.15
Q 1.4 10.05 0 14.95
L 2.85 14.35 4.35 17.2 8.35 8.35 9.55 8.25 9.55 28.35 15.6 28.35 15.6 8.2 16.8 8.35 20.8 17.2 22.3 14.35 25.15 14.95
Q 23.75 10.05 21.05 8.05
M 15.95 6.5
Q 16.7 5.95 17.05 4.75 19 2 22.2 3.05 22.1 7.4 15.95 6.5
M 2.95 3.05
Q 6.15 2 8.1 4.75 8.45 5.95 9.2 6.5 3.05 7.4 2.95 3.05 Z"/>
</g>

<g id="Symbol_9_0_Layer0_0_FILL">
<path fill="url(#Gradient_2)" stroke="none" d="
M 21.05 8.05
L 22.4 7.5
Q 24.45 6.2 24.2 4.15 23.35 1.5 21.95 0.4 17.1 -1 15.55 2.8 15 4.6 14 5.85
L 12.55 5.6 11.15 5.85
Q 10.15 4.6 9.6 2.8 8.05 -1 3.2 0.4 1.8 1.5 0.95 4.15 0.7 6.2 2.75 7.5
L 4.45 8.15
Q 1.4 10.05 0 14.95
L 2.85 14.35 4.35 17.2 8.35 8.35 9.55 8.25 9.55 28.35 15.6 28.35 15.6 8.2 16.8 8.35 20.8 17.2 22.3 14.35 25.15 14.95
Q 23.75 10.05 21.05 8.05
M 15.95 6.5
Q 16.7 5.95 17.05 4.75 19 2 22.2 3.05 22.1 7.4 15.95 6.5
M 8.1 4.75
Q 8.45 5.95 9.2 6.5 3.05 7.4 2.95 3.05 6.15 2 8.1 4.75 Z"/>
</g>

<path id="Symbol_12_0_Layer1_0_1_STROKES" stroke="#333333" stroke-opacity="0.8470588235294118" stroke-width="2" stroke-linejoin="round" stroke-linecap="round" fill="none" d="
M 11.55 -8.2
L 8 -11.75 -8.3 -11.75 -11.85 -8.2 11.55 -8.2 11.55 10.95 -11.85 10.95 -11.85 -8.2"/>

<path id="Symbol_11_0_Layer0_0_1_STROKES" stroke="#333333" stroke-opacity="0.45098039215686275" stroke-width="0.65" stroke-linejoin="round" stroke-linecap="round" fill="none" d="
M 14 5.85
Q 15 4.6 15.55 2.8 17.1 -1 21.95 0.4 23.35 1.5 24.2 4.15 24.45 6.2 22.4 7.5
L 21.05 8.05
Q 23.75 10.05 25.15 14.95
L 22.3 14.35 20.8 17.2 16.8 8.35 15.6 8.2 15.6 28.35 9.55 28.35 9.55 8.25 8.35 8.35 4.35 17.2 2.85 14.35 0 14.95
Q 1.4 10.05 4.45 8.15
L 2.75 7.5
Q 0.7 6.2 0.95 4.15 1.8 1.5 3.2 0.4 8.05 -1 9.6 2.8 10.15 4.6 11.15 5.85
L 12.55 5.6 14 5.85 14.25 5.95
Q 14.95 6.35 14.95 6.85
L 14.95 6.95
Q 14.9 7.4 14.25 7.7
L 13.95 7.85 15.6 8.2
M 9.55 8.25
L 11.65 8 10.85 7.7
Q 10.2 7.4 10.15 6.95
L 10.15 6.85
Q 10.15 6.35 10.85 5.95
L 11.15 5.85
M 13.95 7.85
L 12.55 8.1 11.65 8
M 15.95 6.5
Q 22.1 7.4 22.2 3.05 19 2 17.05 4.75 16.7 5.95 15.95 6.5 Z
M 2.95 3.05
Q 6.15 2 8.1 4.75 8.45 5.95 9.2 6.5 3.05 7.4 2.95 3.05 Z
M 8.35 8.35
L 4.45 8.15
M 21.05 8.05
L 16.8 8.35"/>
</defs>

<g transform="matrix( 0.620574951171875, 0, 0, 0.620574951171875, 10.9,12.75) ">
<g id="col0" transform="matrix( 1, 0, 0, 1, -11.85,-11.75) ">
<g transform="matrix( 1, 0, 0, 1, 0,0) ">
<use xlink:href="#Symbol_2_0_Layer0_0_FILL"/>
</g>
</g>

<g transform="matrix( 1, 0, 0, 1, -11.85,-11.75) ">
<g transform="matrix( 1, 0, 0, 1, 0,0) ">
<use filter="url(#Filter_1)" xlink:href="#Symbol_4_0_Layer0_0_FILL"/>
</g>
</g>

<g transform="matrix( 1, 0, 0, 1, 0,0) ">
<use xlink:href="#Symbol_12_0_Layer1_0_1_STROKES"/>
</g>

<g transform="matrix( 0.96221923828125, 0, 0, 1, -11.9,-18.15) ">
<g id="col1" transform="matrix( 1, 0, 0, 1, 0,0) ">
<g transform="matrix( 1, 0, 0, 1, 0,0) ">
<use xlink:href="#Symbol_7_0_Layer0_0_FILL"/>
</g>
</g>

<g transform="matrix( 1, 0, 0, 1, 0,0) ">
<g transform="matrix( 1, 0, 0, 1, 0,0) ">
<use filter="url(#Filter_1)" xlink:href="#Symbol_9_0_Layer0_0_FILL"/>
</g>
</g>

<g transform="matrix( 1, 0, 0, 1, 0,0) ">
<use xlink:href="#Symbol_11_0_Layer0_0_1_STROKES"/>
</g>
</g>
</g>
</svg>
