
<svg xmlns="http://www.w3.org/2000/svg" version="1.1" xmlns:xlink="http://www.w3.org/1999/xlink" preserveAspectRatio="none" x="0px" y="0px" width="19px" height="19px" viewBox="0 0 19 19">
<defs>
<g id="bag_0_Layer4_0_FILL">
<path fill="#E5BB00" stroke="none" d="
M 27.3 64.4
L 36.9 62.15 35.65 12.65 -11.35 12.65 -11.55 44.4 -13.35 62.4 27.3 64.4 Z"/>
</g>

<g id="bag_0_Layer3_0_FILL">
<path fill="#000000" fill-opacity="0.24705882352941178" stroke="none" d="
M 36.9 62.1
L 29.65 56.4 29.1 13.9 27.3 64.4 36.9 62.15 36.9 62.1 Z"/>
</g>

<g id="bag_0_Layer1_0_FILL">
<path fill="#000000" fill-opacity="0.6470588235294118" stroke="none" d="
M -1.65 22.8
Q -1.6 21.55 -2.45 20.6 -3.3 19.7 -4.55 19.65 -5.8 19.6 -6.7 20.45 -7.6 21.3 -7.65 22.55 -7.7 23.8 -6.9 24.7 -6 25.6 -4.75 25.65 -3.5 25.7 -2.65 24.85 -1.7 24.05 -1.65 22.8
M 25 23.8
Q 25.05 22.55 24.15 21.65 23.3 20.75 22.05 20.7 20.8 20.65 19.9 21.45 19 22.35 18.95 23.6 18.9 24.85 19.7 25.7 20.6 26.65 21.85 26.7 23.1 26.75 23.95 25.9 24.95 25.05 25 23.8 Z"/>
</g>

<path id="bag_0_Layer5_0_1_STROKES" stroke="#FFFFFF" stroke-width="2.5" stroke-linejoin="round" stroke-linecap="round" fill="none" d="
M 22.05 21.35
L 22.05 13.45
M 25.75 14
Q 25.95 8.1 22.25 3.8 18.5 -0.55 13 -0.75 7.35 -1 3.2 3.05 -0.85 7.05 -1.05 12.95
M -4.75 13.45
L -4.75 21.35"/>

<path id="bag_0_Layer2_0_1_STROKES" stroke="#333333" stroke-opacity="0.6470588235294118" stroke-width="1" stroke-linejoin="round" stroke-linecap="round" fill="none" d="
M 29.15 12.65
L 35.65 12.65 36.9 62.15 27.3 64.4 -13.35 62.4 -11.55 44.4 -11.35 12.65 29.15 12.65 27.3 64.4"/>

<path id="bag_0_Layer0_0_1_STROKES" stroke="#FFFFFF" stroke-width="2.5" stroke-linejoin="round" stroke-linecap="butt" fill="none" d="
M 22.05 26.6
L 21.75 34.5
Q 21.55 40.35 17.5 44.35 13.4 48.4 7.9 48.2 2.25 47.95 -1.55 43.6 -5.25 39.3 -5.05 33.45
L -4.75 25.55"/>
</defs>

<g transform="matrix( 0.274627685546875, 0, 0, 0.274627685546875, 6.25,0.75) ">
<g transform="matrix( 1, 0, 0, 1, 0,0) ">
<use xlink:href="#bag_0_Layer5_0_1_STROKES"/>
</g>

<g transform="matrix( 1, 0, 0, 1, 0,0) ">
<use xlink:href="#bag_0_Layer4_0_FILL"/>
</g>

<g transform="matrix( 1, 0, 0, 1, 0,0) ">
<use xlink:href="#bag_0_Layer3_0_FILL"/>
</g>

<g transform="matrix( 1, 0, 0, 1, 0,0) ">
<use xlink:href="#bag_0_Layer2_0_1_STROKES"/>
</g>

<g transform="matrix( 1, 0, 0, 1, 0,0) ">
<use xlink:href="#bag_0_Layer1_0_FILL"/>
</g>

<g transform="matrix( 1, 0, 0, 1, 0,0) ">
<use xlink:href="#bag_0_Layer0_0_1_STROKES"/>
</g>
</g>
</svg>
