
<svg xmlns="http://www.w3.org/2000/svg" version="1.1" xmlns:xlink="http://www.w3.org/1999/xlink" preserveAspectRatio="none" x="0px" y="0px" width="66px" height="66px" viewBox="0 0 66 66">
<defs>
<linearGradient id="Gradient_1" gradientUnits="userSpaceOnUse" x1="24.550000000000004" y1="41.35" x2="49.85" y2="16.049999999999997" spreadMethod="pad">
<stop  offset="0%" stop-color="#F39F41"/>

<stop  offset="100%" stop-color="#F0AC5F"/>

<stop  offset="100%" stop-color="#FFFFFF"/>
</linearGradient>

<g id="Layer0_0_FILL">
<path fill="#442D0D" stroke="none" d="
M 44.3 52.6
Q 43.7 51.9 42.75 51.9 42.1 51.9 41.55 52.3 40.9 52.8 40.8 53.75 40.65 54.8 41.35 55.5 42.2 56.35 43.4 55.95 44.6 55.55 44.75 54.35 44.9 53.3 44.3 52.6
M 29.25 45.65
Q 28.8 45.45 27.45 45.35
L 26.1 45.2
Q 24.5 45.3 23.45 46.55 22.7 47.5 22.3 49.5 22 51.3 22.1 52.25 22.25 53.85 23.25 54.75 23.75 55.3 24.95 55.8 27.6 57.05 29.45 56.55 31.15 56.1 32.1 54.4 32.9 52.85 32.75 51 32.5 48.4 30.65 46.6 30 45.95 29.25 45.65
M 34.55 29.1
Q 33.45 29.2 32.9 29.15
L 31.65 29.1
Q 30.75 29.15 29.9 29.7 29.05 30.25 28.55 31.1 27.65 32.8 28.3 34.85 29.05 36.95 31 37.9 33.1 38.85 35.15 38.1 35.85 37.8 36.15 37.55 36.45 37.3 36.95 36.7 38.1 35.35 38.3 34.45 38.45 33.9 38.35 32.8
L 38.05 31.6
Q 37.7 30.55 36.7 29.85 35.7 29.15 34.55 29.1
M 12.2 36.45
Q 11.2 36.55 10.6 36.85 9.2 37.45 8.75 39.2 8.4 40.6 9.1 42.25 10.15 44.5 12.4 45.2 14.75 45.95 16.7 44.4 17.6 43.65 17.95 42.5 18.35 41.35 18.05 40.3 17.8 39.3 17.1 38.5 16.7 37.9 16.2 37.5 14.6 36.3 12.2 36.45
M 21.9 23.45
Q 21.75 22 20.35 20.75 19.3 19.85 17.9 19.55 16.5 19.25 15.15 19.65 14.25 19.9 13.55 20.5 13 21 12.7 21.55 12.45 22.1 12.35 22.8 12.05 25.1 13.65 26.7 15.3 28.35 17.5 28.1 19.75 27.85 21.1 26.05 22 24.85 21.9 23.45
M 24.9 10.6
Q 25 11.75 25.95 12.25 26.6 12.6 27.35 12.45 28.1 12.3 28.5 11.75 28.95 11.15 28.9 10.4 28.85 9.65 28.35 9.1 27.85 8.6 27.1 8.55 26.35 8.45 25.75 8.85 24.8 9.55 24.9 10.6
M 59.25 42.75
Q 59.15 41.6 58.15 41.1 57.8 40.9 57 40.8 55.25 40.8 54.65 42.05 54.5 42.55 54.55 42.95 54.55 43.45 54.8 43.95 55.4 44.9 56.95 44.9 57.7 44.9 58.4 44.5 59.35 43.8 59.25 42.75
M 44.15 34.45
Q 43.2 35.1 42.7 36.3 41.95 38.05 42.4 39.85 42.85 41.7 44.3 42.9 45 43.4 45.6 43.6 46.25 43.8 47.15 43.8 48.75 43.7 49.7 43.3 50.95 42.85 51.75 41.75 52.45 40.6 52.3 39 52.1 37.7 51.2 36.4 50.35 35.2 49.3 34.75
L 47.8 34.3
Q 46.9 34 46.45 33.95 45.2 33.7 44.15 34.45
M 43.75 22.2
Q 45 20.7 44.7 19 44.5 17.55 43.1 16.4 42.5 15.85 41.8 15.6 41.7 15.6 41.6 15.55 41.35 15.5 39.95 15.35
L 38.75 15.3
Q 37 15.55 36.15 17.15 35.4 18.6 35.8 20.25 35.8 20.3 35.85 20.4 35.95 20.95 36.25 21.45 36.45 21.85 36.8 22.2 37.1 22.65 37.75 23.1 39.15 24.1 40.9 23.85 42.55 23.55 43.75 22.2 Z"/>
</g>

<g id="Layer0_0_MEMBER_0_MEMBER_0_FILL">
<path fill="#E09143" stroke="none" d="
M 48.75 20.7
Q 47.6 17.95 50.55 16.1 50.85 13.85 49.75 12.85 47.85 10.95 44.95 13.2 39.85 13.2 43.1 6.5 39 5.6 39 2.7 33.55 0.9 32.05 2.25 30.5 3.55 27.65 3.2 19.05 1.75 16.65 6.75 15.85 9.5 11.35 11.35 7.35 13 6.1 19.1 2.25 21.35 3.45 26.3 5.4 29.75 3.25 31.7 -0.15 37.55 4.5 41.9
L 4.5 42.2
Q 3.2 44.45 4.1 48.3 5.05 52.45 9.1 53.85 13.1 55.25 14.8 58.65 16.45 62 23.3 63.3 35.9 65.95 40.7 63.1 44.85 60.3 48.6 60.7 53.25 61.05 55.15 56.15 57.05 51.25 60.4 47.3 63.7 43.3 62.1 38.9 61.55 35.4 63.45 32.85 66.1 27.5 58.65 26.6 51.4 27.05 48.75 20.7
M 44.7 19
Q 45 20.7 43.75 22.2 42.55 23.55 40.9 23.85 39.15 24.1 37.75 23.1 37.1 22.65 36.8 22.2 36.45 21.85 36.25 21.45 35.95 20.95 35.85 20.4 35.8 20.3 35.8 20.25 35.4 18.6 36.15 17.15 37 15.55 38.75 15.3
L 39.95 15.35
Q 41.35 15.5 41.6 15.55 41.7 15.6 41.8 15.6 42.5 15.85 43.1 16.4 44.5 17.55 44.7 19
M 42.7 36.3
Q 43.2 35.1 44.15 34.45 45.2 33.7 46.45 33.95 46.9 34 47.8 34.3
L 49.3 34.75
Q 50.35 35.2 51.2 36.4 52.1 37.7 52.3 39 52.45 40.6 51.75 41.75 50.95 42.85 49.7 43.3 48.75 43.7 47.15 43.8 46.25 43.8 45.6 43.6 45 43.4 44.3 42.9 42.85 41.7 42.4 39.85 41.95 38.05 42.7 36.3
M 58.15 41.1
Q 59.15 41.6 59.25 42.75 59.35 43.8 58.4 44.5 57.7 44.9 56.95 44.9 55.4 44.9 54.8 43.95 54.55 43.45 54.55 42.95 54.5 42.55 54.65 42.05 55.25 40.8 57 40.8 57.8 40.9 58.15 41.1
M 25.95 12.25
Q 25 11.75 24.9 10.6 24.8 9.55 25.75 8.85 26.35 8.45 27.1 8.55 27.85 8.6 28.35 9.1 28.85 9.65 28.9 10.4 28.95 11.15 28.5 11.75 28.1 12.3 27.35 12.45 26.6 12.6 25.95 12.25
M 20.35 20.75
Q 21.75 22 21.9 23.45 22 24.85 21.1 26.05 19.75 27.85 17.5 28.1 15.3 28.35 13.65 26.7 12.05 25.1 12.35 22.8 12.45 22.1 12.7 21.55 13 21 13.55 20.5 14.25 19.9 15.15 19.65 16.5 19.25 17.9 19.55 19.3 19.85 20.35 20.75
M 10.6 36.85
Q 11.2 36.55 12.2 36.45 14.6 36.3 16.2 37.5 16.7 37.9 17.1 38.5 17.8 39.3 18.05 40.3 18.35 41.35 17.95 42.5 17.6 43.65 16.7 44.4 14.75 45.95 12.4 45.2 10.15 44.5 9.1 42.25 8.4 40.6 8.75 39.2 9.2 37.45 10.6 36.85
M 32.9 29.15
Q 33.45 29.2 34.55 29.1 35.7 29.15 36.7 29.85 37.7 30.55 38.05 31.6
L 38.35 32.8
Q 38.45 33.9 38.3 34.45 38.1 35.35 36.95 36.7 36.45 37.3 36.15 37.55 35.85 37.8 35.15 38.1 33.1 38.85 31 37.9 29.05 36.95 28.3 34.85 27.65 32.8 28.55 31.1 29.05 30.25 29.9 29.7 30.75 29.15 31.65 29.1
L 32.9 29.15
M 27.45 45.35
Q 28.8 45.45 29.25 45.65 30 45.95 30.65 46.6 32.5 48.4 32.75 51 32.9 52.85 32.1 54.4 31.15 56.1 29.45 56.55 27.6 57.05 24.95 55.8 23.75 55.3 23.25 54.75 22.25 53.85 22.1 52.25 22 51.3 22.3 49.5 22.7 47.5 23.45 46.55 24.5 45.3 26.1 45.2
L 27.45 45.35
M 42.75 51.9
Q 43.7 51.9 44.3 52.6 44.9 53.3 44.75 54.35 44.6 55.55 43.4 55.95 42.2 56.35 41.35 55.5 40.65 54.8 40.8 53.75 40.9 52.8 41.55 52.3 42.1 51.9 42.75 51.9 Z"/>
</g>

<g id="Layer0_0_MEMBER_0_MEMBER_1_FILL">
<path fill="url(#Gradient_1)" stroke="none" d="
M 50.55 16.1
Q 50.85 13.85 49.75 12.85 47.85 10.95 44.95 13.2 39.85 13.2 43.1 6.5 39 5.6 39 2.7 33.55 0.9 32.05 2.25 30.5 3.55 27.65 3.2 19.05 1.75 16.65 6.75 15.85 9.5 11.35 11.35 7.35 13 6.1 19.1 2.25 21.35 3.45 26.3 5.4 29.75 3.25 31.7 -0.15 37.55 4.5 41.9
L 4.5 42.2
Q 3.2 44.45 4.1 48.3 5.05 52.45 9.1 53.85 13.1 55.25 14.8 58.65 16.45 62 23.3 63.3 35.9 65.95 40.7 63.1 44.85 60.3 48.6 60.7 53.25 61.05 55.15 56.15 57.05 51.25 60.4 47.3 63.7 43.3 62.1 38.9 61.55 35.4 63.45 32.85 66.1 27.5 58.65 26.6 51.4 27.05 48.75 20.7 47.6 17.95 50.55 16.1
M 41.6 15.55
Q 41.7 15.6 41.8 15.6 42.5 15.85 43.1 16.4 44.5 17.55 44.7 19 45 20.7 43.75 22.2 42.55 23.55 40.9 23.85 39.15 24.1 37.75 23.1 37.1 22.65 36.8 22.2 36.45 21.85 36.25 21.45 35.95 20.95 35.85 20.4 35.8 20.3 35.8 20.25 35.4 18.6 36.15 17.15 37 15.55 38.75 15.3
L 39.95 15.35
Q 41.35 15.5 41.6 15.55
M 44.15 34.45
Q 45.2 33.7 46.45 33.95 46.9 34 47.8 34.3
L 49.3 34.75
Q 50.35 35.2 51.2 36.4 52.1 37.7 52.3 39 52.45 40.6 51.75 41.75 50.95 42.85 49.7 43.3 48.75 43.7 47.15 43.8 46.25 43.8 45.6 43.6 45 43.4 44.3 42.9 42.85 41.7 42.4 39.85 41.95 38.05 42.7 36.3 43.2 35.1 44.15 34.45
M 57 40.8
Q 57.8 40.9 58.15 41.1 59.15 41.6 59.25 42.75 59.35 43.8 58.4 44.5 57.7 44.9 56.95 44.9 55.4 44.9 54.8 43.95 54.55 43.45 54.55 42.95 54.5 42.55 54.65 42.05 55.25 40.8 57 40.8
M 25.95 12.25
Q 25 11.75 24.9 10.6 24.8 9.55 25.75 8.85 26.35 8.45 27.1 8.55 27.85 8.6 28.35 9.1 28.85 9.65 28.9 10.4 28.95 11.15 28.5 11.75 28.1 12.3 27.35 12.45 26.6 12.6 25.95 12.25
M 20.35 20.75
Q 21.75 22 21.9 23.45 22 24.85 21.1 26.05 19.75 27.85 17.5 28.1 15.3 28.35 13.65 26.7 12.05 25.1 12.35 22.8 12.45 22.1 12.7 21.55 13 21 13.55 20.5 14.25 19.9 15.15 19.65 16.5 19.25 17.9 19.55 19.3 19.85 20.35 20.75
M 10.6 36.85
Q 11.2 36.55 12.2 36.45 14.6 36.3 16.2 37.5 16.7 37.9 17.1 38.5 17.8 39.3 18.05 40.3 18.35 41.35 17.95 42.5 17.6 43.65 16.7 44.4 14.75 45.95 12.4 45.2 10.15 44.5 9.1 42.25 8.4 40.6 8.75 39.2 9.2 37.45 10.6 36.85
M 36.7 29.85
Q 37.7 30.55 38.05 31.6
L 38.35 32.8
Q 38.45 33.9 38.3 34.45 38.1 35.35 36.95 36.7 36.45 37.3 36.15 37.55 35.85 37.8 35.15 38.1 33.1 38.85 31 37.9 29.05 36.95 28.3 34.85 27.65 32.8 28.55 31.1 29.05 30.25 29.9 29.7 30.75 29.15 31.65 29.1
L 32.9 29.15
Q 33.45 29.2 34.55 29.1 35.7 29.15 36.7 29.85
M 23.45 46.55
Q 24.5 45.3 26.1 45.2
L 27.45 45.35
Q 28.8 45.45 29.25 45.65 30 45.95 30.65 46.6 32.5 48.4 32.75 51 32.9 52.85 32.1 54.4 31.15 56.1 29.45 56.55 27.6 57.05 24.95 55.8 23.75 55.3 23.25 54.75 22.25 53.85 22.1 52.25 22 51.3 22.3 49.5 22.7 47.5 23.45 46.55
M 44.3 52.6
Q 44.9 53.3 44.75 54.35 44.6 55.55 43.4 55.95 42.2 56.35 41.35 55.5 40.65 54.8 40.8 53.75 40.9 52.8 41.55 52.3 42.1 51.9 42.75 51.9 43.7 51.9 44.3 52.6 Z"/>
</g>

<g id="Layer0_0_MEMBER_1_FILL">
<path fill="#40260B" fill-opacity="0.24705882352941178" stroke="none" d="
M 1080.2 449.9
Q 1076.2091796875 451.559375 1074.95 457.65 1071.11953125 459.8755859375 1072.3 464.85 1074.2322265625 468.290625 1072.1 470.25 1068.7123046875 476.0841796875 1073.3 480.4
L 1073.35 480.7
Q 1072.06953125 482.999609375 1072.95 486.85 1073.90078125 490.999609375 1077.9 492.4 1081.93046875 493.7939453125 1083.6 497.15 1085.3248046875 500.5494140625 1092.15 501.85 1104.7322265625 504.5078125 1109.55 501.65 1113.698828125 498.859375 1117.45 499.25 1122.114453125 499.6224609375 1124 494.7 1124.2982421875 493.9265625 1124.6 493.15 1122.007421875 493.605859375 1119.2 495.5 1114.4 498.35 1101.8 495.7 1094.95 494.4 1093.3 491.05 1091.6 487.65 1087.6 486.25 1083.55 484.85 1082.6 480.7 1081.7 476.85 1083 474.6
L 1083 474.3
Q 1078.35 469.95 1081.75 464.1 1083.9 462.15 1081.95 458.7 1080.75 453.75 1084.6 451.5 1085.85 445.4 1089.85 443.75 1092.32578125 442.7322265625 1093.65 441.45 1087.4853515625 441.1806640625 1085.5 445.3 1084.713671875 448.065234375 1080.2 449.9 Z"/>
</g>

<path id="Layer0_0_MEMBER_1_1_STROKES" stroke="#40260B" stroke-opacity="0.4980392156862745" stroke-width="2.5" stroke-linejoin="round" stroke-linecap="round" fill="none" d="
M 1124.625 493.175
Q 1126.418359375 489.16328125 1129.225 485.825 1132.5466796875 481.8587890625 1130.95 477.45 1130.399609375 473.9537109375 1132.3 471.4 1134.9478515625 466.05078125 1127.5 465.15 1120.242578125 465.5990234375 1117.6 459.25 1116.46796875 456.5158203125 1119.4 454.65 1119.67578125 452.4083984375 1118.6 451.4 1116.7240234375 449.5111328125 1113.8 451.75 1108.707421875 451.7736328125 1111.95 445.05 1107.8576171875 444.1296875 1107.825 441.25 1102.3935546875 439.4259765625 1100.875 440.775 1099.353125 442.122265625 1096.5 441.75 1094.99609375 441.4974609375 1093.675 441.45
M 1124.625 493.175
Q 1124.2982421875 493.9265625 1124 494.7 1122.114453125 499.6224609375 1117.45 499.25 1113.698828125 498.859375 1109.55 501.65 1104.7322265625 504.5078125 1092.15 501.85 1085.3248046875 500.5494140625 1083.625 497.175 1081.93046875 493.7939453125 1077.925 492.4 1073.90078125 490.999609375 1072.95 486.85 1072.06953125 482.999609375 1073.35 480.725
L 1073.325 480.425
Q 1068.7123046875 476.0841796875 1072.1 470.25 1074.2322265625 468.290625 1072.3 464.85 1071.11953125 459.8755859375 1074.95 457.65 1076.2091796875 451.559375 1080.2 449.9 1084.713671875 448.065234375 1085.5 445.3 1087.4853515625 441.1806640625 1093.675 441.45"/>
</defs>

<g transform="matrix( 1, 0, 0, 1, 0,0) ">
<use xlink:href="#Layer0_0_FILL"/>
</g>

<g transform="matrix( 1, 0, 0, 1, 0,0) ">
<use xlink:href="#Layer0_0_MEMBER_0_MEMBER_0_FILL"/>
</g>

<g transform="matrix( 1, 0, 0, 1, 0,0) ">
<use xlink:href="#Layer0_0_MEMBER_0_MEMBER_1_FILL"/>
</g>

<g transform="matrix( 1, 0, 0, 1, -1068.85,-438.55) ">
<use xlink:href="#Layer0_0_MEMBER_1_FILL"/>

<use xlink:href="#Layer0_0_MEMBER_1_1_STROKES"/>
</g>
</svg>
