
<svg xmlns="http://www.w3.org/2000/svg" version="1.1" xmlns:xlink="http://www.w3.org/1999/xlink" preserveAspectRatio="none" x="0px" y="0px" width="200px" height="200px" viewBox="0 0 200 200">
<defs>
<path id="Layer1_0_1_STROKES" stroke="#000000" stroke-width="23" stroke-linejoin="round" stroke-linecap="round" fill="none" d="
M 93.05 146.25
L 71.2 168.1
Q 63.55 175.4 52.75 175.45 41.6 175.45 33.7 167.55
L 33.65 167.5
Q 25.75 159.6 25.75 148.45 25.75 137.3 33.65 129.4
L 73.1 89.95
Q 81 82.1 92.15 82.05 103.3 82.05 111.15 89.95"/>

<path id="Layer0_0_1_STROKES" stroke="#000000" stroke-width="23" stroke-linejoin="round" stroke-linecap="round" fill="none" d="
M 107.15 55.85
L 128.85 34.2
Q 136.6 26.75 147.45 26.75 158.65 26.7 166.55 34.55
L 166.6 34.65
Q 174.5 42.5 174.45 53.75 174.45 64.9 166.6 72.8
L 127.15 112.2
Q 119.25 120.05 108.1 120.05 96.95 120.05 89.05 112.2"/>
</defs>

<g transform="matrix( 1, 0, 0, 1, 0,0) ">
<use xlink:href="#Layer1_0_1_STROKES"/>
</g>

<g transform="matrix( 1, 0, 0, 1, 0,0) ">
<use xlink:href="#Layer0_0_1_STROKES"/>
</g>
</svg>
