
<svg xmlns="http://www.w3.org/2000/svg" version="1.1" xmlns:xlink="http://www.w3.org/1999/xlink" preserveAspectRatio="none" x="0px" y="0px" width="19px" height="19px" viewBox="0 0 19 19">
<defs>
<g id="Layer0_0_FILL">
<path fill="#000000" fill-opacity="0.996078431372549" stroke="none" d="
M 12.5 4.7
Q 12.25 4.6 11.95 4.55 10.3 4.5 8.6 4.5 7.55 4.5 6.55 4.45 3.55 4.3 3.15 6.65 3.15 9.45 3.1 12.2 3.1 14.15 3.25 15.95 3.3 16.1 3.35 16.3 3.9 17.5 5.35 17.8 8.1 17.8 10.85 17.8 11.35 17.8 11.75 17.8 13.05 17.55 13.6 16.6 13.8 16.25 13.85 15.8 14 14.45 14 12.95 13.95 10.15 13.95 7.4 14 5.3 12.5 4.7
M 16.2 3.6
Q 16 2.95 15.5 2.55 15 2.15 14.25 2 13.4 2 12.55 2 9.8 2 7 2
L 7 2.05
Q 6.6 2.1 6.5 2.45 6.55 3.45 7.8 3.3 8.15 3.25 8.5 3.25 11.3 3.25 14.05 3.3 14.5 3.3 14.75 3.5 15.35 4.1 15.25 5.45 15.2 6.15 15.2 6.85 15.2 9.6 15.15 12.4 15.15 13.3 15.3 14.05 15.35 14.3 15.65 14.35 16.35 14.45 16.4 13.8 16.45 12.4 16.45 11.05 16.45 8.25 16.45 5.45 16.5 4.4 16.2 3.6 Z"/>
</g>
</defs>

<g transform="matrix( 1, 0, 0, 1, 0,0) ">
<use xlink:href="#Layer0_0_FILL"/>
</g>
</svg>
