<?xml version="1.0" encoding="utf-8"?>
<!-- Generator: Adobe Illustrator 25.1.0, SVG Export Plug-In . SVG Version: 6.00 Build 0)  -->
<svg version="1.1" id="Camada_1" xmlns="http://www.w3.org/2000/svg" xmlns:xlink="http://www.w3.org/1999/xlink" x="0px" y="0px"
	 viewBox="0 0 19 19" style="enable-background:new 0 0 19 19;" xml:space="preserve">
<style type="text/css">
	.st0{fill:#03AFD5;}
	.st1{opacity:0.42;}
	.st2{fill:#66AFD5;}
	.st3{fill:#FFD52D;}
</style>
<g transform="matrix( 1, 0, 0, 1, 0,0) ">
	<g id="Back" transform="matrix( 1, 0, 0, 1, -9.2,-9.3) ">
		<g transform="matrix( 1, 0, 0, 1, 0,0) ">
			<g>
				<g id="Symbol_7_0_Layer0_0_FILL">
					<path class="st0" d="M22.5,14.8l-1-0.8c-1.1-0.8-2.4-1.2-3.9-1.2H17c-1.2,0.1-2.3,0.5-3.2,1.1l-1.1,0.9l-0.4,0.5
						c-1.1,1.3-1.6,2.7-1.6,4.4c0,1.9,0.7,3.5,2,4.9c1.3,1.3,3,2,4.9,2s3.5-0.7,4.9-2c1.4-1.4,2-3,2-4.9
						C24.5,17.8,23.9,16.2,22.5,14.8z"/>
				</g>
			</g>
		</g>
		<g id="Back_1_" transform="matrix( 1, 0, 0, 1, -9.2,-9.3) " class="st1">
			<g transform="matrix( 1, 0, 0, 1, 0,0) ">
				<g>
					<g id="Symbol_7_0_Layer0_0_FILL_1_">
						<path class="st2" d="M28.7,31.5c-1.1,1.3-8.8-4.2-8.8-2.5c0,1.9,0.7,3.5,2,4.9c1.3,1.3,3,2,4.9,2s3.5-0.7,4.9-2
							c1.4-1.4,2-3,2-4.9s-0.7-3.6-2-4.9l-1-0.8c-1.1-0.8-2.4-1.2-3.9-1.2h-0.6"/>
					</g>
				</g>
			</g>
		</g>
	</g>
</g>
<path id="Capa_2" class="st3" d="M13.5,5.3l1.7,2.9l3.2,0.6l-2.2,2.5l0.4,3.3l-2.9-1.2l-3.1,1.4l0.5-3.3L8.7,9l3.3-0.7L13.5,5.3z"/>
</svg>
