<?xml version="1.0" encoding="utf-8"?>
<!-- Generator: Adobe Illustrator 25.1.0, SVG Export Plug-In . SVG Version: 6.00 Build 0)  -->
<svg version="1.1" id="Camada_1" xmlns="http://www.w3.org/2000/svg" xmlns:xlink="http://www.w3.org/1999/xlink" x="0px" y="0px"
	 viewBox="0 0 19 19" style="enable-background:new 0 0 19 19;" xml:space="preserve">
<style type="text/css">
	.st0{fill:#D00912;}
	.st1{fill:#9A0912;fill-opacity:0.1765;}
	.st2{fill:#480912;fill-opacity:0.6;}
	.st3{fill:#FFFFFF;}
</style>
<g transform="matrix( 1, 0, 0, 1, 9.2,9.25) ">
	<g transform="matrix( 1, 0, 0, 1, 0,0) ">
		<g>
			<g id="Symbol_11_0_Layer3_0_FILL">
				<path class="st0" d="M-0.5-9.3c-1.6,0.1-3.1,0.6-4.4,1.5l-1.5,1.2L-7-5.9c-1.5,1.7-2.2,3.8-2.2,6.1c0,2.6,0.9,4.8,2.8,6.7
					c0,0,0.1,0.1,0.2,0.2c1.3,1.2,2.7,2,4.3,2.4c0.7,0.2,1.4,0.2,2.2,0.2c0.7,0,1.5-0.1,2.2-0.2C4.2,9.1,5.7,8.3,7,6.9
					c1.9-1.9,2.8-4.1,2.8-6.7c0-2.1-0.6-4-1.9-5.7C7.7-5.8,7.4-6.1,7-6.5L5.7-7.6C4.1-8.7,2.3-9.3,0.3-9.3H-0.5z"/>
			</g>
		</g>
	</g>
	<g transform="matrix( 1, 0, 0, 1, 0,0) ">
		<g>
			<g id="Symbol_11_0_Layer2_0_FILL">
				<path class="st1" d="M7.9-5.4C7.7-5.8,7.4-6.1,7-6.5C8.6,6.8,3.5,10.3-8.4,4.1c0.5,1,1.1,2,2,2.8c0,0,0.1,0.1,0.2,0.2
					c1.3,1.2,2.7,2,4.4,2.4c0.7,0.2,1.4,0.2,2.2,0.2c0.7,0,1.4-0.1,2.2-0.2C4.2,9.1,5.7,8.2,7,6.9c1.9-1.9,2.8-4.1,2.8-6.7
					C9.8-1.9,9.2-3.8,7.9-5.4z"/>
			</g>
		</g>
	</g>
	<g transform="matrix( 1, 0, 0, 1, 0,0) ">
		<g>
			<g id="Symbol_11_0_Layer1_0_FILL">
				<path class="st2" d="M-2.8-1.3V4L6,0.3L-2.8-1.3z"/>
			</g>
		</g>
	</g>
	<g transform="matrix( 1, 0, 0, 1, 0,0) ">
		<g>
			<g id="Symbol_11_0_Layer0_0_FILL">
				<path class="st3" d="M-2.2,2.8l7.2-3.2l-7.2-2.2V2.8z"/>
			</g>
		</g>
	</g>
</g>
</svg>
