<?xml version="1.0" encoding="utf-8"?>
<!-- Generator: Adobe Illustrator 25.1.0, SVG Export Plug-In . SVG Version: 6.00 Build 0)  -->
<svg version="1.1" id="Camada_1" xmlns="http://www.w3.org/2000/svg" xmlns:xlink="http://www.w3.org/1999/xlink" x="0px" y="0px"
	 viewBox="0 0 19 19" style="enable-background:new 0 0 19 19;" xml:space="preserve">
<style type="text/css">
	.st0{opacity:0.9;}
	.st1{fill:#FF9900;}
	.st2{fill:url(#SVGID_1_);}
	.st3{fill:url(#SVGID_2_);}
	.st4{fill:none;stroke:#000000;stroke-width:5.000000e-02;stroke-linecap:round;stroke-linejoin:round;stroke-opacity:0.651;}
	.st5{fill:none;stroke:#FFFFFF;stroke-linecap:round;stroke-linejoin:round;}
	.st6{fill:none;stroke:#000000;stroke-width:5.000000e-02;stroke-linecap:round;stroke-linejoin:round;}
</style>
<g id="col0" transform="matrix( 1, 0, 0, 1, 30.5,0.5) " class="st0">
	<g transform="matrix( 1, 0, 0, 1, 0,0) ">
		<g>
			<g id="ChatterB_0_Layer0_0_FILL">
				<path class="st1" d="M-17.7,4.4c0-0.9-0.3-1.7-1-2.4c-0.7-0.7-1.5-1-2.4-1c-0.9,0-1.7,0.3-2.4,1c-0.7,0.7-1,1.5-1,2.4
					c0,0.9,0.3,1.7,1,2.4c0.7,0.7,1.5,1,2.4,0.9c-1.1,0.1-2.2,0.9-3.2,2.4c-1.2,1.7-1.7,3.6-1.7,5.8c0,0.7,1.7,1.1,5.1,1.1
					c3.4,0.1,5.1-0.3,5.1-0.9c-0.1-2.2-0.7-4.2-1.8-5.9c-1-1.6-2.1-2.4-3.3-2.5c0.8,0,1.6-0.4,2.1-0.9C-18,6.1-17.7,5.3-17.7,4.4z"
					/>
			</g>
		</g>
	</g>
</g>
<g transform="matrix( 1, 0, 0, 1, 0,0) " class="st0">
	<g>
		<g id="Layer1_0_FILL">
			
				<radialGradient id="SVGID_1_" cx="-523.4772" cy="-299.5402" r="9.668" gradientTransform="matrix(0.4836 -0.8753 -0.5146 -0.2819 111.144 -527.8403)" gradientUnits="userSpaceOnUse">
				<stop  offset="0" style="stop-color:#000000;stop-opacity:0.4118"/>
				<stop  offset="1" style="stop-color:#013198;stop-opacity:0"/>
			</radialGradient>
			<path class="st2" d="M9.4,8.3c-1.1,0.1-2.2,0.9-3.2,2.3c-1.2,1.6-1.7,3.6-1.7,5.7c0,0.7,1.8,1,5.2,1.1c3.4,0.1,5.1-0.2,5-0.9
				c-0.1-2.2-0.7-4.2-1.7-5.8s-2.1-2.4-3.3-2.4C9.6,8.3,9.5,8.3,9.4,8.3L9.4,8.3 M6.7,15.9c0.2-2.8,1.1-4.8,2.7-5.8
				C7.8,11.1,6.9,13.1,6.7,15.9z"/>
			
				<radialGradient id="SVGID_2_" cx="-344.641" cy="-332.5592" r="5.0211" gradientTransform="matrix(0.7767 -0.6298 -0.4008 -0.4929 145.3006 -374.8504)" gradientUnits="userSpaceOnUse">
				<stop  offset="0" style="stop-color:#000000;stop-opacity:0.4235"/>
				<stop  offset="1" style="stop-color:#013198;stop-opacity:0"/>
			</radialGradient>
			<path class="st3" d="M12.8,4.9c0-0.9-0.3-1.7-1-2.4c-0.7-0.7-1.5-1-2.4-1c-0.9,0-1.7,0.3-2.4,1S6,4,6,4.9s0.3,1.7,1,2.4
				s1.5,1,2.4,1h0c0.1,0,0.2,0,0.2,0c0.8-0.1,1.5-0.4,2.1-1C12.5,6.6,12.8,5.8,12.8,4.9 M7.7,4.9C7.8,4.1,8.3,3.5,9,3.1
				C8.3,3.5,7.8,4.1,7.7,4.9z"/>
		</g>
	</g>
	<g>
		<path id="Layer1_0_1_STROKES" class="st4" d="M9.4,8.3C8.5,8.3,7.7,8,7,7.3S6,5.8,6,4.9s0.3-1.7,1-2.4s1.5-1,2.4-1
			c0.9,0,1.7,0.3,2.4,1c0.7,0.7,1,1.5,1,2.4s-0.3,1.7-1,2.4c-0.6,0.6-1.3,0.9-2.1,1c1.2,0,2.3,0.8,3.3,2.4s1.6,3.6,1.7,5.8
			c0,0.7-1.7,1-5,0.9c-3.4-0.1-5.1-0.4-5.2-1.1c0-2.2,0.5-4.1,1.7-5.7C7.2,9.2,8.3,8.4,9.4,8.3z"/>
	</g>
	<g>
		<path id="Layer1_0_2_STROKES" class="st5" d="M7.7,4.9C7.8,4.1,8.3,3.5,9,3.1 M6.7,15.9c0.2-2.8,1.1-4.8,2.7-5.8"/>
	</g>
	<g>
		<path id="Layer1_0_3_STROKES" class="st6" d="M9.5,8.3L9.5,8.3"/>
	</g>
</g>
</svg>
