
<svg xmlns="http://www.w3.org/2000/svg" version="1.1" xmlns:xlink="http://www.w3.org/1999/xlink" preserveAspectRatio="none" x="0px" y="0px" width="19px" height="19px" viewBox="0 0 19 19">
<defs>
<radialGradient id="Gradient_1" gradientUnits="userSpaceOnUse" cx="0" cy="0" r="253.10000000000002" fx="0" fy="0" gradientTransform="matrix( 1, 0, 0, 1, 119.55,60.95) " spreadMethod="pad">
<stop  offset="0%" stop-color="#FFFFFF"/>

<stop  offset="22.745098039215687%" stop-color="#818181"/>

<stop  offset="89.80392156862744%" stop-color="#000400"/>
</radialGradient>

<radialGradient id="Gradient_2" gradientUnits="userSpaceOnUse" cx="0" cy="0" r="117.28750000000001" fx="0" fy="0" gradientTransform="matrix( 0.9999999999999999, 0, 0, 0.9999999999999999, -16,-34) " spreadMethod="pad">
<stop  offset="0%" stop-color="#FFFFFF"/>

<stop  offset="100%" stop-color="#C8C8C8"/>
</radialGradient>

<radialGradient id="Gradient_3" gradientUnits="userSpaceOnUse" cx="0" cy="0" r="12.621856044179875" fx="0" fy="0" gradientTransform="matrix( 0.7071067811865476, -0.7071067811865476, 0.23669260602742978, 0.23669260602742978, 5.85,5.85) " spreadMethod="pad">
<stop  offset="0%" stop-color="#FFFFFF"/>

<stop  offset="80.7843137254902%" stop-color="#A8000C"/>
</radialGradient>

<radialGradient id="Gradient_4" gradientUnits="userSpaceOnUse" cx="0" cy="0" r="39.89850012845095" fx="0" fy="0" gradientTransform="matrix( 0.7071067811865476, -0.7071067811865476, 0.10182087013098269, 0.10182087013098269, 25.1,25.3) " spreadMethod="pad">
<stop  offset="0%" stop-color="#5E0000"/>

<stop  offset="80.7843137254902%" stop-color="#A8000C"/>
</radialGradient>
</defs>

<g id="Layer_1">
<g transform="matrix( 1, 0, 0, 1, 0,0) ">
<g id="Layer_6">
<g transform="matrix( 0.0583343505859375, 0, 0, 0.0583343505859375, 9.5,11.15) ">
<g id="Layer_12">
<g transform="matrix( 1, 0, 0, 1, -200,-200) ">
<g id="Layer_1">
<g transform="matrix( 1, 0, 0, 1, 0,0) ">
<g>
<g>
<path fill="url(#Gradient_1)" stroke="none" d="
M 315.15 56.35
Q 267.45 8.65 200 8.65 132.55 8.65 84.85 56.35 37.15 104.05 37.15 171.5 37.15 238.95 84.85 286.65 132.55 334.35 200 334.35 267.45 334.35 315.15 286.65 362.85 238.95 362.85 171.5 362.85 104.05 315.15 56.35 Z"/>
</g>
</g>

<g>
<path stroke="#000000" stroke-width="1" stroke-linejoin="round" stroke-linecap="round" fill="none" d="
M 315.15 56.35
Q 362.85 104.05 362.85 171.5 362.85 238.95 315.15 286.65 267.45 334.35 200 334.35 132.55 334.35 84.85 286.65 37.15 238.95 37.15 171.5 37.15 104.05 84.85 56.35 132.55 8.65 200 8.65 267.45 8.65 315.15 56.35 Z"/>
</g>
</g>
</g>
</g>
</g>

<g id="Layer_13"/>

<g id="Layer_15">
<g transform="matrix( 1, 0, 0, 1, 0,-28) ">
<g id="Layer_1">
<g transform="matrix( 1, 0, 0, 1, 0,0) ">
<g>
<g>
<path fill="url(#Gradient_2)" stroke="none" d="
M 57.6 -57.55
Q 33.75 -81.4 0 -81.4 -33.7 -81.4 -57.55 -57.55 -81.4 -33.7 -81.4 0 -81.4 33.75 -57.55 57.6 -33.7 81.45 0 81.45 33.75 81.45 57.6 57.6 81.45 33.75 81.45 0 81.45 -33.7 57.6 -57.55 Z"/>
</g>
</g>

<g>
<path stroke="#000000" stroke-width="3" stroke-linejoin="round" stroke-linecap="round" fill="none" d="
M 57.6 -57.55
Q 81.45 -33.7 81.45 0 81.45 33.75 57.6 57.6 33.75 81.45 0 81.45 -33.7 81.45 -57.55 57.6 -81.4 33.75 -81.4 0 -81.4 -33.7 -57.55 -57.55 -33.7 -81.4 0 -81.4 33.75 -81.4 57.6 -57.55 Z"/>
</g>
</g>
</g>
</g>
</g>

<g id="Layer_14">
<g transform="matrix( 1, 0, 0, 1, -50,-85.1) ">
<g id="Layer_1">
<g transform="matrix( 1, 0, 0, 1, 0,0) ">
<clipPath id="Mask_Mask_1">
<rect x="25.2" y="-1.95" width="123.5" height="218.5" fill="#FFFFFF" stroke="none"/>
</clipPath>

<text clip-path="url(#Mask_Mask_1)" writing-mode="lr"><tspan x="27.2" y="86.95" baseline-shift="0%" font-family="Arial Bold" font-weight="bold" font-size="96" fill="#000000" xml:space="preserve">8</tspan></text>
</g>
</g>
</g>
</g>
</g>
</g>

<g id="Layer_1"/>
</g>

<g transform="matrix( 0.2902069091796875, 0, 0, 0.2902069091796875, 10,10) ">
<g id="Layer_1">
<g transform="matrix( 1, 0, 0, 1, 0,0) ">
<g>
<g>
<path fill="#FFFFFF" stroke="none" d="
M 16.05 4
Q 15.7560546875 4 15.45 4 10.7 4 7.35 7.35 4 10.7 4 15.45 4 15.7560546875 4 16.05 4.1640625 19.262890625 5.9 21.8
L 21.8 5.9
Q 19.26015625 4.162109375 16.05 4
M 26.8 13.9
Q 26.4486328125 11.0408203125 24.75 8.75
L 8.75 24.75
Q 9.48203125 25.2927734375 10.25 25.7 10.5701171875 25.851953125 10.85 25.95 10.9408203125 26.004296875 11 26 12.6466796875 26.733984375 14.5 26.85 14.9830078125 26.9 15.45 26.9 20.2 26.9 23.55 23.55 26.9 20.2 26.9 15.45 26.9 14.6552734375 26.8 13.9 Z"/>

<path fill="url(#Gradient_3)" stroke="none" d="
M 17.7 0.15
Q 16.6423828125 0 15.5 0 9.1 0 4.55 4.55 0 9.1 0 15.5 0 16.642578125 0.15 17.7 0.7474609375 17.551953125 1.4 17.3 2.7099609375 16.788671875 4 16.05 4 15.7560546875 4 15.45 4 10.7 7.35 7.35 10.7 4 15.45 4 15.7560546875 4 16.05 4 16.7873046875 2.6974609375 17.3 1.35 17.54765625 0.7353515625 17.7 0.15 Z"/>

<path fill="url(#Gradient_4)" stroke="none" d="
M 26.8 13.9
Q 26.9 14.6552734375 26.9 15.45 26.9 20.2 23.55 23.55 20.2 26.9 15.45 26.9 14.9830078125 26.9 14.5 26.85 14.1466796875 27.6326171875 13.85 28.4 13.3345703125 29.721875 13.1 30.8 14.278515625 31 15.5 31 21.9 31 26.45 26.45 31 21.9 31 15.5 31 13.7544921875 30.65 12.15 30.21953125 12.2931640625 29.75 12.45 28.2740234375 13.0470703125 26.8 13.9 Z"/>

<path fill="#A8000C" stroke="none" d="
M 24.75 8.75
Q 26.4486328125 11.0408203125 26.8 13.9 28.2740234375 13.0470703125 29.75 12.45 30.21953125 12.2931640625 30.65 12.15 29.76015625 7.86015625 26.45 4.55 22.7115234375 0.8115234375 17.7 0.15 17.54765625 0.7353515625 17.3 1.35 16.7873046875 2.6974609375 16.05 4 19.26015625 4.162109375 21.8 5.9
L 5.9 21.8
Q 4.1640625 19.262890625 4 16.05 2.7099609375 16.788671875 1.4 17.3 0.7474609375 17.551953125 0.15 17.7 0.8138671875 22.7138671875 4.55 26.45 5.0779296875 26.9779296875 5.6 27.45 5.6798828125 27.49609375 5.7 27.55 9.00234375 30.2404296875 13.1 30.8 13.3345703125 29.721875 13.85 28.4 14.1466796875 27.6326171875 14.5 26.85 12.6466796875 26.733984375 11 26 10.9408203125 26.004296875 10.85 25.95 10.5701171875 25.851953125 10.25 25.7 9.48203125 25.2927734375 8.75 24.75
L 24.75 8.75 Z"/>
</g>
</g>
</g>
</g>
</g>
</g>
</svg>
