
<svg xmlns="http://www.w3.org/2000/svg" version="1.1" xmlns:xlink="http://www.w3.org/1999/xlink" preserveAspectRatio="none" x="0px" y="0px" width="40px" height="40px" viewBox="0 0 40 40">
<defs>
<g id="Mobile_Icon_Symbols_actMarry_0_Layer0_0_FILL">
<path fill="#C20303" stroke="none" d="
M 0.95 10.4
Q 2.4 10.95 4 11.7 17.45 -5.3 10.05 -9.95 10 3.1 0.95 10.4 Z"/>

<path fill="#FF0000" stroke="none" d="
M 10.05 -9.95
Q 7.9 -11.35 3.9 -11.7 -0.55 -11.15 -0.85 -6.9 -4.05 -10.6 -8.25 -8.35 -20.5 1 0.95 10.4 10 3.1 10.05 -9.95
M 0.95 -7.45
Q 4 -11.35 8.6 -9.1 4 -11.35 0.95 -7.45
M -10.55 -4.35
Q -7.5 -9.15 -2.95 -6.8 -7.5 -9.15 -10.55 -4.35 Z"/>
</g>

<path id="Mobile_Icon_Symbols_actMarry_0_Layer0_0_1_STROKES" stroke="#333333" stroke-opacity="0.45098039215686275" stroke-width="1" stroke-linejoin="round" stroke-linecap="round" fill="none" d="
M 0.95 10.4
Q -20.5 1 -8.25 -8.35 -4.05 -10.6 -0.85 -6.9 -0.55 -11.15 3.9 -11.7 7.9 -11.35 10.05 -9.95 17.45 -5.3 4 11.7 2.4 10.95 0.95 10.4 Z"/>

<path id="Mobile_Icon_Symbols_actMarry_0_Layer0_0_2_STROKES" stroke="#FFFFFF" stroke-opacity="0.6509803921568628" stroke-width="1" stroke-linejoin="round" stroke-linecap="round" fill="none" d="
M 0.95 -7.45
Q 4 -11.35 8.6 -9.1
M -10.55 -4.35
Q -7.5 -9.15 -2.95 -6.8"/>
</defs>

<g transform="matrix( 1, 0, 0, 1, 19.3,22) ">
<g transform="matrix( 1, 0, 0, 1, 0,0) ">
<use xlink:href="#Mobile_Icon_Symbols_actMarry_0_Layer0_0_FILL"/>

<use xlink:href="#Mobile_Icon_Symbols_actMarry_0_Layer0_0_1_STROKES"/>

<use xlink:href="#Mobile_Icon_Symbols_actMarry_0_Layer0_0_2_STROKES"/>
</g>
</g>
</svg>
