
<svg xmlns="http://www.w3.org/2000/svg" version="1.1" xmlns:xlink="http://www.w3.org/1999/xlink" preserveAspectRatio="none" x="0px" y="0px" width="40px" height="40px" viewBox="0 0 40 40">
<defs>
<g id="Layer0_0_FILL">
<path fill="#FFFFFF" stroke="none" d="
M 20.9 23.5
Q 20.9 24.2 21.45 24.7
L 24.25 27.5 21.4 30.45
Q 20.85 30.95 20.85 31.65 20.85 32.35 21.4 32.9 21.95 33.45 22.6 33.45 23.35 33.45 23.85 32.9
L 26.8 30 28.5 31.75 28.55 31.75 28.55 31.8 29.65 32.9
Q 30.2 33.45 30.85 33.45 31.6 33.45 32.15 32.9 32.65 32.35 32.65 31.65 32.65 30.95 32.15 30.45
L 29.2 27.5 32.1 24.7
Q 32.6 24.2 32.6 23.5 32.6 22.8 32.05 22.25 31.5 21.7 30.8 21.7 30.1 21.7 29.6 22.2
L 26.8 25.05 23.9 22.2
Q 23.65 21.95 23.4 21.9 23.1 21.7 22.75 21.7 22 21.7 21.45 22.25 20.9 22.8 20.9 23.5 Z"/>
</g>

<path id="Layer0_0_1_STROKES" stroke="#FFFFFF" stroke-width="1" stroke-linejoin="round" stroke-linecap="round" fill="none" d="
M 28.25 34.3
Q 28.3 36.15 19.95 35.95 11.55 35.8 11.5 34.1 11.4 28.5 14.25 24.35 16.8 20.6 19.5 20.3 17.2 20.3 15.6 18.6 13.95 16.9 13.95 14.55 13.95 12.15 15.6 10.45 17.2 8.75 19.5 8.75 21.85 8.75 23.4 10.45 25.05 12.15 25.05 14.55 25.05 16.9 23.4 18.6 21.95 20.2 20 20.3
M 16.75 14.6
Q 17.05 12.4 18.9 11.45
M 15.1 33.2
Q 15.6 26.05 19.5 23.4"/>
</defs>

<g transform="matrix( 1, 0, 0, 1, 0,0) ">
<use xlink:href="#Layer0_0_FILL"/>

<use xlink:href="#Layer0_0_1_STROKES"/>
</g>
</svg>
