
<svg xmlns="http://www.w3.org/2000/svg" version="1.1" xmlns:xlink="http://www.w3.org/1999/xlink" preserveAspectRatio="none" x="0px" y="0px" width="19px" height="19px" viewBox="0 0 19 19">
<defs>
<g id="icons_plus2_0_Layer0_0_FILL">
<path fill="#000000" stroke="none" d="
M 6.3 3.65
L 6.3 0
Q 5.025 0 3.7 0
L 3.7 3.6 0 3.6
Q 0 4.9125 0 6.2
L 3.65 6.2 3.65 9.9
Q 4.9625 9.9 6.25 9.9
L 6.3 6.3 10 6.3
Q 10 4.9875 10 3.65
L 6.3 3.65 Z"/>
</g>

<path id="icons_plus3_0_Layer0_0_1_STROKES" stroke="#333333" stroke-width="1" stroke-linejoin="round" stroke-linecap="round" fill="none" d="
M 6.325 3.675
L 10 3.675
Q 10 4.9875 10 6.3
L 6.325 6.3 6.275 9.9
Q 4.9625 9.9 3.65 9.9
L 3.65 6.225 0 6.225
Q 0 4.9125 0 3.6
L 3.725 3.6 3.725 0
Q 5.025 0 6.325 0
L 6.325 3.675 Z"/>
</defs>

<g transform="matrix( 1, 0, 0, 1, -1.25,-10.55) ">
<g id="BFF" transform="matrix( 1.1999969482421875, 0, 0, 1.2020263671875, 5,14.1) ">
<g id="plus2" transform="matrix( 1, 0, 0, 1, 0,0) ">
<g transform="matrix( 1, 0, 0, 1, 0,0) ">
<use xlink:href="#icons_plus2_0_Layer0_0_FILL"/>
</g>
</g>

<g id="plus3" transform="matrix( 1, 0, 0, 1, 0,0) ">
<g transform="matrix( 1, 0, 0, 1, 0,0) ">
<use xlink:href="#icons_plus3_0_Layer0_0_1_STROKES"/>
</g>
</g>
</g>
</g>
</svg>
