
<svg xmlns="http://www.w3.org/2000/svg" version="1.1" xmlns:xlink="http://www.w3.org/1999/xlink" preserveAspectRatio="none" x="0px" y="0px" width="25px" height="25px" viewBox="0 0 25 25">
<defs>
<linearGradient id="Gradient_1" gradientUnits="userSpaceOnUse" x1="6.212499999999999" y1="15.8" x2="18.6875" y2="15.8" spreadMethod="pad">
<stop  offset="0.39215686274509803%" stop-color="#555555"/>

<stop  offset="22.352941176470587%" stop-color="#FFFFFF"/>

<stop  offset="29.019607843137255%" stop-color="#FFFFFF"/>

<stop  offset="100%" stop-color="#373737"/>
</linearGradient>

<radialGradient id="Gradient_2" gradientUnits="userSpaceOnUse" cx="0" cy="0" r="10.037500000000003" fx="0" fy="0" gradientTransform="matrix( 0.9999999999999998, 0, 0, 1.001245330012453, 9.85,6.15) " spreadMethod="pad">
<stop  offset="16.470588235294116%" stop-color="#FFFFFF"/>

<stop  offset="100%" stop-color="#444444"/>
</radialGradient>

<linearGradient id="Gradient_3" gradientUnits="userSpaceOnUse" x1="1.9500000000000002" y1="3.9375" x2="-0.7500000000000001" y2="3.8625" spreadMethod="pad">
<stop  offset="0%" stop-color="#FFFFFF"/>

<stop  offset="100%" stop-color="#000000"/>
</linearGradient>

<linearGradient id="Gradient_4" gradientUnits="userSpaceOnUse" x1="9.7375" y1="2.375" x2="7.5625" y2="-0.27500000000000013" spreadMethod="pad">
<stop  offset="0.39215686274509803%" stop-color="#404040"/>

<stop  offset="38.03921568627451%" stop-color="#FFFFFF"/>

<stop  offset="100%" stop-color="#2F2F2F"/>
</linearGradient>
</defs>

<g id="Layer_8">
<g transform="matrix( 1, 0, 0, 1, 0,0) ">
<g>
<g>
<path fill="url(#Gradient_1)" stroke="none" d="
M 17.45 9.55
Q 15.35 10.3 12.35 10.3 9.4 10.3 7.3 9.55
L 6.3 9.15 6.3 20.25
Q 6.2 20.35 6.25 20.55 6.2 21.35 8.05 21.95 9.85 22.6 12.4 22.6
L 16.75 21.95
Q 18.45 21.4 18.55 20.55
L 18.7 9.05 17.45 9.55 Z"/>

<path fill="url(#Gradient_2)" stroke="none" d="
M 19.5 5.5
Q 16.95 3.45 14.45 2.9 12.5 2.45 10.6 2.9 7.95 3.5 5.3 5.75
L 5.2 7.9
Q 5.2 8.6 6.3 9.15
L 7.3 9.55
Q 9.4 10.3 12.35 10.3 15.35 10.3 17.45 9.55
L 18.7 9.05
Q 19.5 8.55 19.55 7.95
L 19.5 5.5 Z"/>
</g>
</g>
</g>
</g>

<g id="Layer_7"/>

<g id="Layer_6">
<g transform="matrix( 1.0627288818359375, 0, 0, 1.06329345703125, 7.55,11.4) ">
<g id="Layer_1">
<g transform="matrix( 1, 0, 0, 1, 0,0) ">
<g>
<g>
<path fill="url(#Gradient_3)" stroke="none" d="
M 0.85 0
Q 0.4 0 0.1 0.3 -0.1 7.9 0.1 8.1 0.4 8.4 0.85 8.4 1.3 8.4 1.6 8.1 1.8 7.9 1.6 0.3 1.3 0 0.85 0 Z"/>
</g>
</g>
</g>
</g>
</g>
</g>

<g id="Layer_5">
<g transform="matrix( 1.0627288818359375, 0, 0, 1.06329345703125, 15.6,11.2) ">
<g id="Layer_1">
<g transform="matrix( 1, 0, 0, 1, 0,0) ">
<g>
<g>
<path fill="url(#Gradient_3)" stroke="none" d="
M 0.85 0
Q 0.4 0 0.1 0.3 -0.1 7.9 0.1 8.1 0.4 8.4 0.85 8.4 1.3 8.4 1.6 8.1 1.8 7.9 1.6 0.3 1.3 0 0.85 0 Z"/>
</g>
</g>
</g>
</g>
</g>
</g>

<g id="Layer_4">
<g transform="matrix( 1.0627288818359375, 0, 0, 1.06329345703125, 12.95,11.95) ">
<g id="Layer_1">
<g transform="matrix( 1, 0, 0, 1, 0,0) ">
<g>
<g>
<path fill="url(#Gradient_3)" stroke="none" d="
M 0.85 0
Q 0.4 0 0.1 0.3 -0.1 7.9 0.1 8.1 0.4 8.4 0.85 8.4 1.3 8.4 1.6 8.1 1.8 7.9 1.6 0.3 1.3 0 0.85 0 Z"/>
</g>
</g>
</g>
</g>
</g>
</g>

<g id="Layer_3">
<g transform="matrix( 1.0627288818359375, 0, 0, 1.06329345703125, 10.2,12) ">
<g id="Layer_1">
<g transform="matrix( 1, 0, 0, 1, 0,0) ">
<g>
<g>
<path fill="url(#Gradient_3)" stroke="none" d="
M 0.85 0
Q 0.4 0 0.1 0.3 -0.1 7.9 0.1 8.1 0.4 8.4 0.85 8.4 1.3 8.4 1.6 8.1 1.8 7.9 1.6 0.3 1.3 0 0.85 0 Z"/>
</g>
</g>
</g>
</g>
</g>
</g>

<g id="Layer_2">
<g transform="matrix( 1, 0, 0, 1, 3.15,3.25) ">
<g id="Layer_3">
<g transform="matrix( 1, 0, 0, 1, 0,0) ">
<g>
<path stroke="#999999" stroke-width="1" stroke-linejoin="round" stroke-linecap="round" fill="none" d="
M 16.15 2.4
Q 16.05 3.35 14.15 3.95
L 9.4 4.7 4.55 3.95
Q 2.6 3.3 2.6 2.4"/>
</g>
</g>
</g>

<g id="Layer_2">
<g transform="matrix( 1, 0, 0, 1, 0,0) ">
<g>
<path stroke="#333333" stroke-width="1" stroke-linejoin="round" stroke-linecap="round" fill="none" d="
M 15.55 5.8
Q 16.35 5.3 16.4 4.7
L 16.35 2.25
Q 9.15 -3.5 2.15 2.5
L 2.05 4.65
Q 2.05 5.35 3.15 5.9
L 4.15 6.3
Q 6.25 7.05 9.2 7.05 12.2 7.05 14.3 6.3
L 15.55 5.8 15.4 17.3
Q 15.3 18.15 13.6 18.7 11.5048828125 19.4248046875 9.25 19.35 6.7 19.35 4.9 18.7 3.405078125 18.215234375 3.15 17.6
L 3.15 5.9"/>
</g>
</g>
</g>

<g id="Layer_1">
<g transform="matrix( 1, 0, 0, 1, 0,0) ">
<g>
<g>
<path fill="url(#Gradient_4)" stroke="none" d="
M 7.9 -0.85
Q 8.4 -0.65 7.6 -0.7
L 9.9 0.15
Q 10.8 0.7 10.85 2.15
L 12.25 1.25
Q 12.3 -0.2 11.75 -0.75
L 10.4 -1.45 9.6 -1.65 7.9 -0.85 Z"/>
</g>
</g>

<g>
<path stroke="#333333" stroke-width="1" stroke-linejoin="round" stroke-linecap="round" fill="none" d="
M 7.6 -0.7
L 9.9 0.15
Q 10.8 0.7 10.85 2.15
L 12.25 1.25
Q 12.3 -0.2 11.75 -0.75
L 10.4 -1.45 9.6 -1.65 7.9 -0.85
Q 8.4 -0.65 7.6 -0.7
L 7.9 -0.85 7.6 -0.85 7.5 -0.8
Q 6.95 -0.65 7 0.4
L 7.7 -0.1"/>
</g>
</g>
</g>
</g>
</g>

<g id="Layer_1"/>
</svg>
