<?xml version="1.0" encoding="UTF-8" standalone="no"?>
<svg
   xmlns:dc="http://purl.org/dc/elements/1.1/"
   xmlns:cc="http://creativecommons.org/ns#"
   xmlns:rdf="http://www.w3.org/1999/02/22-rdf-syntax-ns#"
   xmlns:svg="http://www.w3.org/2000/svg"
   xmlns="http://www.w3.org/2000/svg"
   xmlns:xlink="http://www.w3.org/1999/xlink"
   xmlns:sodipodi="http://sodipodi.sourceforge.net/DTD/sodipodi-0.dtd"
   xmlns:inkscape="http://www.inkscape.org/namespaces/inkscape"
   inkscape:version="0.92.4 (5da689c313, 2019-01-14)"
   sodipodi:docname="bubble.svg"
   id="svg6155"
   version="1.1"
   height="19"
   width="19"
   preserveAspectRatio="none">
  <metadata
     id="metadata6159">
    <rdf:RDF>
      <cc:Work
         rdf:about="">
        <dc:format>image/svg+xml</dc:format>
        <dc:type
           rdf:resource="http://purl.org/dc/dcmitype/StillImage" />
        <dc:title />
      </cc:Work>
    </rdf:RDF>
  </metadata>
  <sodipodi:namedview
     pagecolor="#ffffff"
     bordercolor="#666666"
     borderopacity="1"
     objecttolerance="10"
     gridtolerance="10"
     guidetolerance="10"
     inkscape:pageopacity="0"
     inkscape:pageshadow="2"
     inkscape:window-width="1920"
     inkscape:window-height="1017"
     id="namedview6157"
     showgrid="false"
     inkscape:zoom="45.254834"
     inkscape:cx="4.2053753"
     inkscape:cy="8.0257352"
     inkscape:window-x="-8"
     inkscape:window-y="-8"
     inkscape:window-maximized="1"
     inkscape:current-layer="svg6155" />
  <defs
     id="defs6149">
    <path
       d="M1.35 12.375q1.898-1.448 2.075-2.925-.645-.305-1.225-.7Q0 7.249 0 5.1q0-2.136 2.2-3.625 2.2-1.497 5.3-1.5 3.1.003 5.3 1.5Q15 2.964 15 5.1q0 2.149-2.2 3.65-2.2 1.497-5.3 1.5-.742 0-1.425-.075-1.987 1.837-4.725 2.2z"
       fill="none"
       stroke-opacity="1"
       stroke-linecap="round"
       stroke-linejoin="round"
       stroke="#000000"
       id="b" />
    <path
       id="a"
       d="M12.8 8.75Q15 7.249 15 5.1q0-2.136-2.2-3.65-2.2-1.472-5.3-1.5-3.1.028-5.3 1.5Q0 2.964 0 5.1q0 2.149 2.2 3.65.58.395 1.2.7-.152 1.477-2.05 2.9 2.738-.338 4.7-2.2.708.1 1.45.1 3.1-.003 5.3-1.5z"
       fill="#33cc33" />
  </defs>
  <use
     xlink:href="#a"
     transform="matrix(1.13332 0 0 1.26613 1 2)"
     id="use6153"
     style="stroke:#4b4b4b;stroke-opacity:1;font-variant-east_asian:normal;opacity:1;vector-effect:none;fill:none;fill-opacity:1;stroke-width:1.6696082;stroke-linecap:butt;stroke-linejoin:round;stroke-miterlimit:4;stroke-dasharray:none;stroke-dashoffset:0" />
  <use
     xlink:href="#a"
     transform="matrix(1.13332,0,0,1.26613,1,2)"
     id="use6153-9"
     style="opacity:1;vector-effect:none;fill:#000000;fill-opacity:1;stroke:none;stroke-width:1;stroke-linecap:butt;stroke-linejoin:miter;stroke-miterlimit:4;stroke-dasharray:none;stroke-dashoffset:0;stroke-opacity:1"
     x="0"
     y="0"
     width="100%"
     height="100%" />
</svg>
