
<svg xmlns="http://www.w3.org/2000/svg" version="1.1" xmlns:xlink="http://www.w3.org/1999/xlink" preserveAspectRatio="none" x="0px" y="0px" width="40px" height="40px" viewBox="0 0 40 40">
<defs>
<g id="getxats_0_Layer0_0_FILL">
<path fill="#FFFFFF" stroke="none" d="
M 29.95 26.5
Q 29.7 26.1 29.15 25.95 28.7 25.7 28 25.7 27.5 25.7 27.15 25.9 26.75 25.95 26.5 26.1 26.2 26.35 26.05 26.65 25.9 27.05 25.9 27.45 25.9 27.85 26.05 28.2 26.25 28.55 26.65 28.75 27.15 28.9 28.2 29.25 29 29.4 29.15 29.55 29.45 29.7 29.45 30.1 29.45 30.4 29.15 30.7 28.85 30.95 28.15 30.95 27.5 30.95 27.15 30.65 26.75 30.3 26.65 29.8
L 25.65 29.95
Q 25.9 30.85 26.45 31.35 27.05 31.8 28.15 31.8 28.85 31.8 29.4 31.55 29.95 31.35 30.25 30.85 30.5 30.4 30.5 29.95 30.5 29.45 30.25 29.1 30 28.75 29.65 28.6 29.25 28.45 28.15 28.15 27.45 28 27.3 27.9 27.05 27.75 26.9 27.6 26.8 27.5 26.8 27.3 26.8 26.95 27.05 26.75 27.35 26.6 28.05 26.6 28.6 26.6 28.9 26.8 29.25 27.05 29.3 27.5
L 30.25 27.35
Q 30.15 26.8 29.95 26.5
M 14.5 25.9
L 13.3 25.9 12.3 27.2
Q 12.05 27.5 11.85 27.9 11.7 27.6 11.45 27.2
L 10.6 25.9 9.35 25.9 11.3 28.6 9.2 31.65 10.35 31.65 11.9 29.4 13.4 31.65 14.65 31.65 12.45 28.6 14.5 25.9
M 18.4 26.6
Q 19.15 26.6 19.5 26.9 19.8 27.15 19.8 27.75
L 19.8 28
Q 19.25 28.15 18 28.3 17.45 28.35 17.15 28.45 16.75 28.6 16.45 28.75 16.15 29 15.95 29.4 15.75 29.7 15.75 30.1 15.75 30.85 16.3 31.35 16.75 31.8 17.75 31.8 18.3 31.8 18.85 31.55 19.35 31.4 19.85 30.95 19.95 31.35 20.05 31.65
L 21.1 31.65
Q 20.9 31.35 20.8 30.95 20.8 30.55 20.8 29.25
L 20.8 27.9
Q 20.8 27.3 20.75 27.05 20.65 26.6 20.4 26.35 20.2 26.1 19.7 25.9 19.25 25.7 18.55 25.7 17.75 25.7 17.2 25.95 16.7 26.1 16.35 26.5 16.05 26.9 15.9 27.5
L 16.9 27.65
Q 17.05 27.05 17.4 26.8 17.7 26.6 18.4 26.6
M 16.85 30.1
Q 16.85 29.85 16.9 29.6 17.05 29.4 17.3 29.3 17.6 29.25 18.15 29.15 19.25 29 19.8 28.75
L 19.8 29.1
Q 19.8 29.8 19.65 30.1 19.4 30.5 19 30.8 18.55 31.05 18 31.05 17.4 31.05 17.05 30.7 16.85 30.5 16.85 30.1
M 19.25 15.9
L 18.4 15.9 18.4 16.6
Q 17.7 15.75 16.7 15.75 15.9 15.75 15.35 16.15 14.75 16.5 14.4 17.2 14.2 17.9 14.2 18.8 14.2 19.95 14.8 20.8 15.45 21.65 16.7 21.65 17.6 21.65 18.25 20.9 18.25 21.9 18.15 22.15 18.1 22.7 17.7 22.9 17.3 23.2 16.6 23.2 15.95 23.2 15.65 22.9 15.35 22.75 15.25 22.3
L 14.35 22.15
Q 14.35 23.05 14.95 23.55 15.6 24 16.7 24 17.55 24 18.1 23.7 18.7 23.4 19 22.85 19.25 22.2 19.25 20.9
L 19.25 15.9
M 16.75 16.6
Q 17.4 16.6 17.85 17.05 18.3 17.6 18.3 18.7 18.3 19.8 17.85 20.35 17.45 20.9 16.75 20.9 16.05 20.9 15.6 20.35 15.2 19.8 15.2 18.7 15.2 17.6 15.6 17.05 16.05 16.6 16.75 16.6
M 23.45 23.85
L 22.55 24.4 22.55 25.9 21.8 25.9 21.8 26.65 22.55 26.65 22.55 29.95
Q 22.55 30.85 22.6 31.1 22.75 31.4 23.05 31.55 23.3 31.75 23.85 31.75 24.15 31.75 24.65 31.65
L 24.5 30.8
Q 24.25 30.8 24 30.8 23.85 30.8 23.7 30.7 23.6 30.65 23.55 30.55 23.45 30.4 23.45 30
L 23.45 26.65 24.5 26.65 24.5 25.9 23.45 25.9 23.45 23.85
M 23.7 15.75
Q 22.55 15.75 21.75 16.6 20.95 17.35 20.95 18.85 20.95 20.25 21.75 21.05 22.45 21.8 23.8 21.8 24.8 21.8 25.4 21.25 26.05 20.8 26.25 19.95
L 25.25 19.8
Q 25 20.4 24.7 20.75 24.3 20.95 23.8 20.95 23 20.95 22.55 20.5 22.05 19.95 22 19
L 26.35 19
Q 26.35 18.85 26.35 18.8 26.35 17.3 25.55 16.5 24.85 15.75 23.7 15.75
M 22.6 17
Q 23 16.6 23.7 16.6 24.5 16.6 24.95 17.15 25.25 17.45 25.25 18.25
L 22.05 18.25
Q 22.15 17.45 22.6 17
M 27.05 16.65
L 27.75 16.65 27.75 19.95
Q 27.75 20.9 27.85 21.1 28 21.45 28.3 21.6 28.55 21.75 29.1 21.75 29.4 21.75 29.85 21.65
L 29.7 20.8
Q 29.45 20.8 29.25 20.8 29.1 20.8 28.9 20.75 28.85 20.65 28.75 20.55 28.7 20.4 28.7 20.05
L 28.7 16.65 29.7 16.65 29.7 15.9 28.7 15.9 28.7 13.85 27.75 14.4 27.75 15.9 27.05 15.9 27.05 16.65 Z"/>
</g>

<path id="getxats_0_Layer0_0_1_STROKES" stroke="#FFFFFF" stroke-width="1" stroke-linejoin="round" stroke-linecap="round" fill="none" d="
M 6.15 20.25
L 6.15 29.6
Q 6.2 34.25 10.5 34.25
L 29.95 34.25
Q 34.25 34.15 34.25 29.45
L 34.25 15.6
Q 34.25 10.8 29.95 10.8
L 15.9 10.8
M 15.2 6.55
L 11.55 10.35 13.8 15.2 9.05 12.95 5.2 16.6 5.9 11.3 1.15 8.7 6.45 7.8 7.4 2.55 9.95 7.25 15.2 6.55 Z"/>
</defs>

<g transform="matrix( 1, 0, 0, 1, 0,0) ">
<g transform="matrix( 1, 0, 0, 1, 0,0) ">
<use xlink:href="#getxats_0_Layer0_0_FILL"/>

<use xlink:href="#getxats_0_Layer0_0_1_STROKES"/>
</g>
</g>
</svg>
