<?xml version="1.0" encoding="utf-8"?>
<!-- Generator: Adobe Illustrator 25.1.0, SVG Export Plug-In . SVG Version: 6.00 Build 0)  -->
<svg version="1.1" id="Camada_1" xmlns="http://www.w3.org/2000/svg" xmlns:xlink="http://www.w3.org/1999/xlink" x="0px" y="0px"
	 viewBox="0 0 19 19" style="enable-background:new 0 0 19 19;" xml:space="preserve">
<style type="text/css">
	.st0{fill:#FFFFFF;}
	.st1{fill:none;stroke:#000000;stroke-width:6.333300e-02;stroke-linecap:round;stroke-linejoin:round;stroke-miterlimit:5.0666;}
	
		.st2{fill:none;stroke:#CCCCCC;stroke-width:1.0002;stroke-linecap:round;stroke-linejoin:round;stroke-miterlimit:4.001;stroke-opacity:0.6471;}
	.st3{fill:none;stroke:#999999;stroke-width:1.0002;stroke-linecap:round;stroke-linejoin:round;stroke-miterlimit:4.001;}
	.st4{fill:none;stroke:#FFFFFF;stroke-width:1.0002;stroke-linecap:round;stroke-linejoin:round;stroke-miterlimit:4.001;}
</style>
<path class="st0" d="M16.2,12.5c1.9-1.3,2.8-2.8,2.8-4.6c0-1.8-0.9-3.3-2.8-4.6C14.4,2,12.1,1.4,9.5,1.4C6.9,1.4,4.6,2,2.8,3.3
	C0.9,4.6,0,6.1,0,7.9c0,1.8,0.9,3.4,2.8,4.6c0.5,0.3,1,0.6,1.5,0.9c-0.1,1.2-1,2.5-2.6,3.7c2.3-0.3,4.3-1.2,6-2.8
	c0.6,0.1,1.2,0.1,1.8,0.1C12.1,14.4,14.4,13.8,16.2,12.5L16.2,12.5z"/>
<path class="st1" d="M1.7,17.1c1.6-1.2,2.5-2.5,2.6-3.7c-0.5-0.3-1.1-0.6-1.6-0.9C0.9,11.3,0,9.7,0,7.9c0-1.8,0.9-3.3,2.8-4.6
	c1.9-1.3,4.1-1.9,6.7-1.9c2.6,0,4.9,0.6,6.7,1.9C18.1,4.6,19,6.1,19,7.9c0,1.5-0.6,2.8-1.9,3.9c-0.3,0.2-0.6,0.5-0.9,0.7
	c-1.9,1.3-4.1,1.9-6.7,1.9c-0.6,0-1.2,0-1.8-0.1C6,15.9,4,16.8,1.7,17.1z"/>
<g transform="matrix( 1, 0, 0, 1, 0,0) ">
	<g>
		<path id="C_pia_de_Symbol_11_2_0_Layer1_0_1_STROKES_1_" class="st2" d="M3.3,2l14.2,15.5"/>
	</g>
</g>
<g transform="matrix( 1, 0, 0, 1, 0,0) ">
	<g>
		<path id="C_pia_de_Symbol_11_2_0_Layer0_0_1_STROKES_1_" class="st3" d="M17.7,16.9L17.7,16.9"/>
	</g>
	<g>
		<path id="C_pia_de_Symbol_11_2_0_Layer0_0_2_STROKES_1_" class="st4" d="M17.7,16.9L3.6,1.4L4,1l14.1,15.4L17.7,16.9"/>
	</g>
</g>
</svg>
