
<svg xmlns="http://www.w3.org/2000/svg" version="1.1" xmlns:xlink="http://www.w3.org/1999/xlink" preserveAspectRatio="none" x="0px" y="0px" width="40px" height="40px" viewBox="0 0 40 40">
<defs>
<g id="Layer0_0_FILL">
<path fill="#62FF62" stroke="none" d="
M 16.1 28.5
Q 16.45 29.55 16.6 30.75 27.65 26.95 29.55 17.1 25.1 26.15 16.1 28.5
M 2.35 34.4
L 14.9 25.85
Q 13.85 24.25 12.3 23.55
L 1.05 31.1
Q 1.15 32.8 2.35 34.4
M 29.2 3.15
L 38.6 10.6
Q 39.15 4.05 31.5 0.75 30.4 1.8 29.2 3.15 Z"/>

<path fill="#00CC00" stroke="none" d="
M 38.6 10.6
L 29.2 3.15
Q 25.5 7.2 23.6 12.5
L 29.55 17.1
Q 27.65 26.95 16.6 30.75 16.45 29.55 16.1 28.5 15.7 26.95 14.9 25.85
L 2.35 34.4
Q 3.9 36.45 7 38.25 14.5 40.55 24.3 32.15 35.7 22.2 38.6 10.6 Z"/>
</g>

<g id="Layer0_0_STROKES_1_FILL">
<path fill="#333333" fill-opacity="0.5607843137254902" stroke="none" d="
M 34.6 1.8
Q 34.5603515625 1.7986328125 34.5 1.75 33.2931640625 0.959765625 31.7 0.3 31.553515625 0.2326171875 31.4 0.25 31.256640625 0.2748046875 31.15 0.35 30.1876953125 1.2986328125 29.15 2.4 29.1365234375 2.4669921875 29.1 2.5 28.975390625 2.584375 28.9 2.7 28.8828125 2.7615234375 28.85 2.8
L 28.8 2.8
Q 26.8955078125 4.8962890625 25.4 7.4 25.386328125 7.466015625 25.35 7.5 25.3455078125 7.56484375 25.3 7.6 24.0470703125 9.835546875 23.1 12.3 23.070703125 12.4861328125 23.1 12.65 23.169140625 12.8064453125 23.3 12.9
L 24 13.4 24.05 13.4
Q 24.1048828125 13.53046875 24.2 13.6
L 28.95 17.2
Q 27.667578125 19.6150390625 26.1 21.6 26.0763671875 21.62890625 26.05 21.65 25.9837890625 21.701953125 25.9 21.75 23.96875 24.0654296875 21.5 25.6 21.4927734375 25.646484375 21.45 25.65 21.3931640625 25.6875 21.3 25.7 19.0884765625 27.1189453125 16.45 27.9 16.03984375 26.59765625 15.35 25.6 15.3 25.525 15.25 25.4 15.175 25.2849609375 15.05 25.2 15.0234375 25.18125 15 25.15 13.9681640625 23.7435546875 12.5 23.1 12.380078125 23.0421875 12.25 23.05 12.126171875 23.069140625 12 23.15
L 9.35 24.95
Q 9.2701171875 24.9615234375 9.15 25
L 4.15 28.4
Q 4.1396484375 28.4486328125 4.1 28.45 4.040234375 28.5017578125 3.95 28.55
L 0.75 30.7
Q 0.663671875 30.7662109375 0.6 30.85 0.543359375 30.993359375 0.55 31.1 0.597265625 32.3900390625 1.25 33.6 1.2849609375 33.66015625 1.3 33.7 1.348046875 33.753515625 1.35 33.8 1.6357421875 34.2765625 1.95 34.7 3.2916015625 36.518359375 5.7 38.05 5.8048828125 38.1279296875 5.9 38.15
L 5.9 38.15
Q 6.325 38.425 6.7 38.65 6.783984375 38.70703125 6.85 38.7 9.4060546875 39.5125 12.25 39.1
L 12.3 39.1
Q 12.3865234375 39.11171875 12.45 39.1 15.1970703125 38.63984375 18.15 37.1 18.223828125 37.073828125 18.25 37.05 18.3203125 37.027734375 18.35 37 20.7615234375 35.73125 23.3 33.7 23.3888671875 33.627734375 23.45 33.5 23.48359375 33.5095703125 23.5 33.45 24.075 33.025390625 24.6 32.5 26.438671875 30.9626953125 28 29.35 28.0529296875 29.29765625 28.05 29.25 28.14765625 29.203515625 28.2 29.15 30.477734375 26.8251953125 32.25 24.45
L 32.25 24.4
Q 32.3802734375 24.3451171875 32.45 24.25 34.327734375 21.7755859375 35.75 19.2 35.783203125 19.130078125 35.8 19.05 35.8255859375 19.0201171875 35.85 18.95 37.3158203125 16.23828125 38.25 13.4
L 38.25 13.35
Q 38.3435546875 13.2970703125 38.35 13.2 38.7759765625 11.987890625 39.05 10.7 39.089453125 10.6861328125 39.1 10.65 39.3119140625 8.640625 38.7 6.95 38.6984375 6.868359375 38.65 6.8 38.6564453125 6.7150390625 38.6 6.6 37.6251953125 3.89140625 34.7 1.9 34.6599609375 1.8517578125 34.6 1.8
M 33.95 2.6
Q 34.0703125 2.6884765625 34.15 2.7 36.7748046875 4.5083984375 37.65 6.95 37.703515625 7.0435546875 37.75 7.1 37.7458984375 7.185546875 37.75 7.25 38.287890625 8.771875 38.1 10.55
L 38.1 10.45
Q 37.8240234375 11.7119140625 37.4 12.9
L 37.4 12.9
Q 37.356640625 13.0029296875 37.3 13.1 36.383984375 15.86171875 34.95 18.5 34.928515625 18.5673828125 34.9 18.6 34.87890625 18.6501953125 34.85 18.7 33.4720703125 21.22421875 31.65 23.65
L 31.6 23.7
Q 31.5193359375 23.755078125 31.45 23.85 29.7220703125 26.174609375 27.5 28.45 27.446875 28.50234375 27.4 28.55 27.35234375 28.5962890625 27.3 28.65 25.7611328125 30.237109375 23.95 31.75 23.425 32.2744140625 22.85 32.7 22.801953125 32.78359375 22.75 32.85 22.72890625 32.8763671875 22.7 32.9 20.23828125 34.8685546875 17.9 36.1 17.8767578125 36.1259765625 17.8 36.15 17.7802734375 36.1720703125 17.7 36.2 14.9029296875 37.66015625 12.3 38.1
L 12.3 38.1
Q 12.213671875 38.08828125 12.1 38.1 9.54140625 38.4802734375 7.2 37.8 6.855078125 37.5625 6.45 37.3 6.4052734375 37.283984375 6.3 37.25 6.3052734375 37.2451171875 6.25 37.2 4.008203125 35.78125 2.75 34.1 2.4642578125 33.723046875 2.2 33.3 2.2123046875 33.2783203125 2.2 33.25 2.187109375 33.1779296875 2.15 33.1 1.6712890625 32.234375 1.55 31.3
L 4.5 29.35
Q 4.6298828125 29.3384765625 4.7 29.25
L 9.7 25.85
Q 9.76015625 25.8513671875 9.8 25.8 9.8599609375 25.7982421875 9.9 25.75
L 12.3 24.1
Q 13.415625 24.6716796875 14.2 25.75 14.2671875 25.8423828125 14.35 25.9 14.4046875 25.9841796875 14.45 26.05 14.47265625 26.1138671875 14.5 26.15 15.2099609375 27.125 15.6 28.45 15.59453125 28.5619140625 15.6 28.65 15.9580078125 29.653125 16.1 30.8 16.13125 31.013671875 16.3 31.15 16.4544921875 31.2767578125 16.65 31.25 16.863671875 31.2189453125 17 31.05 17.1265625 30.8955078125 17.1 30.7 16.9759765625 29.71796875 16.7 28.8 19.5166015625 28.0298828125 21.85 26.55
L 21.9 26.55
Q 21.99765625 26.526171875 22.05 26.45 24.6314453125 24.834375 26.65 22.4 26.709765625 22.38359375 26.7 22.35 26.8279296875 22.288671875 26.9 22.2 28.628125 20.0169921875 30 17.3 30.0748046875 17.1814453125 30.05 17 30.019140625 16.8650390625 29.9 16.75
L 29.8 16.65
Q 29.752734375 16.6015625 29.7 16.55 29.647265625 16.47109375 29.55 16.4
L 24.8 12.8 24.75 12.75
Q 24.6947265625 12.6689453125 24.6 12.6
L 24.2 12.3
Q 25.043359375 10.1041015625 26.15 8.1 26.2138671875 8.033203125 26.2 7.95 26.2546875 7.9345703125 26.25 7.9 27.7041015625 5.50390625 29.55 3.5
L 29.55 3.5
Q 29.7171875 3.33828125 29.8 3.15 29.86875 3.1380859375 29.9 3.05 30.7923828125 2.1314453125 31.6 1.35 32.9333984375 1.925 33.95 2.6 Z"/>
</g>
</defs>

<g transform="matrix( 1, 0, 0, 1, 0,0) ">
<use xlink:href="#Layer0_0_FILL"/>

<use xlink:href="#Layer0_0_STROKES_1_FILL"/>
</g>
</svg>
