
<svg xmlns="http://www.w3.org/2000/svg" version="1.1" xmlns:xlink="http://www.w3.org/1999/xlink" preserveAspectRatio="none" x="0px" y="0px" width="40px" height="40px" viewBox="0 0 40 40">
<defs>
<g id="Layer0_0_FILL">
<path fill="#FFFFFF" stroke="none" d="
M 13.25 20.1
L 11.15 17.35
Q 6.2 19.55 9.9 25.8 11.85 28.8 15.8 29.85 17.3 30.3 18.4 30.35
L 18.55 30.35
Q 11.65 25.15 13.25 20.1
M 21.75 15.5
L 25.75 17.85
Q 25.95 14.35 29.9 12.85 25.45 11.9 21.75 15.5 Z"/>
</g>

<g id="Layer0_0_STROKES_1_FILL">
<path fill="#FFFFFF" stroke="none" d="
M 7.95 16.85
Q 8.7453125 16.1158203125 9.6 15.35
L 9.65 15.3
Q 11.6947265625 14.27734375 13.1 14.35 13.21640625 14.3556640625 13.3 14.3 13.34609375 14.3453125 13.4 14.35 14.9275390625 14.5078125 16.4 16.2 16.5650390625 16.3828125 16.75 16.4 16.9744140625 16.412890625 17.1 16.25 17.2833984375 16.1349609375 17.3 15.9 17.3126953125 15.726171875 17.15 15.55 15.3724609375 13.491796875 13.5 13.35 13.394921875 13.3435546875 13.3 13.35 13.2416015625 13.3552734375 13.15 13.35 11.519921875 13.2234375 9.15 14.45 9.1220703125 14.4828125 9.05 14.5 8.1119140625 15.325 7.25 16.1 7.195703125 16.177734375 7.15 16.25 4.39921875 18.994921875 4.15 21.75 4.1451171875 21.8275390625 4.15 21.9 4.153125 21.9357421875 4.15 21.95 3.9693359375 24.7541015625 6.4 27.5 6.480078125 27.5869140625 6.55 27.6 6.57578125 27.6921875 6.6 27.75 8.311328125 29.58828125 11.15 31.4 11.2671875 31.4861328125 11.35 31.5
L 11.4 31.5
Q 13.609765625 32.8875 16.45 34.3 16.5236328125 34.32421875 16.55 34.35 16.618359375 34.3736328125 16.65 34.4 17.837109375 34.95 19.1 35.5 20.5615234375 36.1623046875 22.3 36.85 22.5126953125 36.941796875 22.7 36.85 22.894140625 36.7673828125 22.95 36.55 23.0421875 36.387109375 22.95 36.2 22.867578125 36.00625 22.65 35.9 20.93828125 35.2375 19.5 34.6 18.2626953125 34.05 17.1 33.5 17.0712890625 33.475 17 33.45 16.975390625 33.426953125 16.9 33.4 14.090234375 32.0125 11.9 30.65 11.8470703125 30.6439453125 11.8 30.6 11.761328125 30.59921875 11.7 30.55 8.9884765625 28.8115234375 7.35 27.05 7.308984375 26.98203125 7.2 26.95 7.205859375 26.9087890625 7.15 26.85 5.03046875 24.445703125 5.15 22 5.15390625 21.9609375 5.15 21.9
L 5.15 21.85
Q 5.40078125 19.4048828125 7.85 16.95
L 7.85 16.9
Q 7.9091796875 16.909765625 7.95 16.85
M 31.55 10.95
Q 31.2890625 10.8123046875 30.95 10.65 30.8921875 10.60859375 30.8 10.6 30.7515625 10.5408203125 30.65 10.5 28.4626953125 9.4130859375 24.8 9.05 24.739453125 9.0416015625 24.65 9.05 22.9046875 9.3189453125 21.7 10.05 21.6982421875 10.0927734375 21.65 10.1 21.5830078125 10.137890625 21.5 10.2 21.12265625 10.4724609375 20.8 10.8 20.7134765625 10.8857421875 20.65 11
L 19.05 16 19.05 16
Q 19.00625 16.1033203125 18.95 16.2
L 17.55 20.4
Q 17.5138671875 20.5779296875 17.6 20.75 17.687890625 20.941015625 17.85 21
L 19.3 21.6
Q 19.3634765625 21.638671875 19.4 21.65 19.4466796875 21.676953125 19.5 21.7
L 23.05 23.25 22.65 24.45 22.65 24.45
Q 22.609375 24.5421875 22.55 24.6
L 20.75 29.6
Q 20.7294921875 29.7478515625 20.75 29.85 20.7703125 30.000390625 20.85 30.1
L 21.25 30.6
Q 21.31484375 30.6798828125 21.4 30.7 21.4263671875 30.7927734375 21.45 30.85
L 24.85 34.5
Q 24.978515625 34.5998046875 25.1 34.6 25.2767578125 34.6685546875 25.4 34.6 25.5630859375 34.572265625 25.65 34.45 26.112890625 33.8375 26.5 33.2
L 26.55 33.2
Q 26.634375 33.13984375 26.7 33.05 28.6638671875 30.43671875 30.15 28.1 30.228125 28.0451171875 30.25 27.95
L 30.25 27.9
Q 32.1431640625 24.9345703125 33.2 22.4 33.217578125 22.36171875 33.2 22.3 33.2728515625 22.2701171875 33.3 22.2 34.8150390625 18.55625 34.55 15.95 34.5453125 15.8966796875 34.5 15.85 34.5650390625 15.7435546875 34.55 15.6 34.1734375 12.649609375 31.55 10.95
L 31.55 10.95
M 30.5 11.55
Q 30.8109375 11.6875 31.05 11.8
L 31 11.8
Q 33.2263671875 13.250390625 33.55 15.75 33.55703125 15.8203125 33.55 15.85 33.5435546875 15.95078125 33.55 16.05 33.7849609375 18.4435546875 32.4 21.8 32.3896484375 21.8263671875 32.35 21.85 32.33046875 21.915625 32.3 22 31.2568359375 24.4650390625 29.4 27.35 29.383984375 27.44453125 29.35 27.5 29.3451171875 27.5447265625 29.3 27.55 27.8361328125 29.86328125 25.9 32.45 25.88203125 32.473828125 25.85 32.5 25.7525390625 32.558984375 25.65 32.65 25.45078125 33.0146484375 25.2 33.35
L 22.2 30.15
Q 22.1611328125 30.0841796875 22.05 30.05 22.069140625 30.0232421875 22.05 30
L 21.8 29.7 23.5 24.95
Q 23.53671875 24.941796875 23.55 24.9 23.5962890625 24.839453125 23.6 24.75
L 24.15 23.15
Q 24.230078125 22.9716796875 24.15 22.8 24.07265625 22.627734375 23.9 22.55
L 19.9 20.8
Q 19.862109375 20.78125 19.8 20.75 19.7603515625 20.7109375 19.65 20.65
L 18.65 20.25 19.9 16.5 19.9 16.45
Q 19.99375 16.396875 20 16.3
L 21.6 11.4
Q 21.8279296875 11.191796875 22.1 11 22.1904296875 10.980859375 22.25 10.9 23.27890625 10.2912109375 24.75 10.05
L 24.8 10.05
Q 28.17890625 10.407421875 30.2 11.4 30.3080078125 11.44140625 30.4 11.45 30.4484375 11.508984375 30.5 11.55 Z"/>
</g>
</defs>

<g transform="matrix( 1, 0, 0, 1, 0,0) ">
<use xlink:href="#Layer0_0_FILL"/>

<use xlink:href="#Layer0_0_STROKES_1_FILL"/>
</g>
</svg>
