<?xml version="1.0" encoding="utf-8"?>
<!-- Generator: Adobe Illustrator 25.1.0, SVG Export Plug-In . SVG Version: 6.00 Build 0)  -->
<svg version="1.1" id="Camada_1" xmlns="http://www.w3.org/2000/svg" xmlns:xlink="http://www.w3.org/1999/xlink" x="0px" y="0px"
	 viewBox="0 0 19 19" style="enable-background:new 0 0 19 19;" xml:space="preserve">
<style type="text/css">
	.st0{fill:#03AFD5;}
	.st1{opacity:0.42;}
	.st2{fill:#66AFD5;}
</style>
<g transform="matrix( 1, 0, 0, 1, 0,0) ">
	<g id="Back" transform="matrix( 1, 0, 0, 1, -9.2,-9.3) ">
		<g transform="matrix( 1, 0, 0, 1, 0,0) ">
			<g>
				<g id="Symbol_7_0_Layer0_0_FILL">
					<path class="st0" d="M23.7,14.7l-1-0.8c-1.1-0.8-2.4-1.2-3.9-1.2h-0.6c-1.2,0.1-2.3,0.5-3.2,1.1L14,14.7l-0.4,0.5
						c-1.1,1.3-1.6,2.7-1.6,4.4c0,1.9,0.7,3.5,2,4.9c1.3,1.3,3,2,4.9,2c1.9,0,3.5-0.7,4.9-2c1.4-1.4,2-3,2-4.9
						C25.8,17.6,25.1,16,23.7,14.7z"/>
				</g>
			</g>
		</g>
		<g id="Back_1_" transform="matrix( 1, 0, 0, 1, -9.2,-9.3) " class="st1">
			<g transform="matrix( 1, 0, 0, 1, 0,0) ">
				<g>
					<g id="Symbol_7_0_Layer0_0_FILL_1_">
						<path class="st2" d="M29.9,31.3c-1.1,1.3-8.8-4.2-8.8-2.5c0,1.9,0.7,3.5,2,4.9c1.3,1.3,3,2,4.9,2c1.9,0,3.5-0.7,4.9-2
							c1.4-1.4,2-3,2-4.9c0-1.9-0.7-3.6-2-4.9l-1-0.8c-1.1-0.8-2.4-1.2-3.9-1.2h-0.6"/>
					</g>
				</g>
			</g>
		</g>
	</g>
</g>
</svg>
