
<svg xmlns="http://www.w3.org/2000/svg" version="1.1" xmlns:xlink="http://www.w3.org/1999/xlink" preserveAspectRatio="none" x="0px" y="0px" width="40px" height="40px" viewBox="0 0 40 40">
<defs>
<g id="_App_Icons_favoritepower_0_Layer0_0_FILL">
<path fill="#FFFFFF" stroke="none" d="
M 3.95 4.3
Q 0.45 5.9 3.1 10.3 5.05 13.1 9.1 13.5 4.2 9.85 5.35 6.3
L 3.95 4.3
M 10.4 4.05
L 13.2 5.7
Q 13.35 3.25 16.1 2.2 13 1.55 10.4 4.05 Z"/>
</g>

<g id="_App_Icons_favoritepower_0_Layer0_0_STROKES_1_FILL">
<path fill="#000000" stroke="none" d="
M 12.55 -0.5
Q 12.4875 -0.5060546875 12.4 -0.5 10.019140625 -0.1642578125 9 1.4 8.9640625 1.516796875 8.95 1.6
L 8.9 1.65
Q 8.6857421875 2.058984375 8.55 2.55 7.028125 1.1970703125 5.25 1.4 5.1890625 1.40546875 5.1 1.4 5.0234375 1.383203125 4.9 1.4 4.0392578125 1.561328125 3.1 2.05 3.0861328125 2.0724609375 3.05 2.1 0.837109375 3.7841796875 0 5.45 -0.030859375 5.536328125 -0.05 5.6 -0.0763671875 5.6447265625 -0.1 5.7 -1.405078125 8.666796875 1.25 11.6 1.3369140625 11.694140625 1.4 11.7 1.4458984375 11.797265625 1.5 11.85 3.18203125 13.5384765625 6.3 15.25 6.3583984375 15.3087890625 6.4 15.3 6.4654296875 15.36796875 6.5 15.4 8.1357421875 16.25 10.1 17.1
L 10.1 17.1
Q 10.874609375 17.4248046875 11.75 17.75 11.8068359375 17.786328125 11.85 17.8 11.8779296875 17.8248046875 11.9 17.85 12.125 17.95 12.3 18.05 12.48125 18.1345703125 12.65 18.1 12.831640625 18.05 12.95 17.9 14.9658203125 15.3232421875 16.3 13.1
L 16.3 13.05
Q 16.4486328125 13.0318359375 16.5 12.9 18.620703125 9.590234375 19.2 7.1 19.2421875 7.0615234375 19.25 7 19.300390625 6.92421875 19.3 6.8 20.3283203125 2.68515625 17.35 0.85 17.325390625 0.84765625 17.25 0.8 16.44296875 0.28203125 15.25 -0.05 15.211328125 -0.0421875 15.15 -0.05 15.07421875 -0.1005859375 14.95 -0.15 13.8916015625 -0.390234375 12.55 -0.5
M 16.7 1.6
Q 16.7603515625 1.6837890625 16.8 1.7 19.1716796875 3.2146484375 18.35 6.55 18.3578125 6.6388671875 18.35 6.7 18.2998046875 6.7755859375 18.25 6.85 17.6791015625 9.2095703125 15.65 12.35 15.6603515625 12.399609375 15.65 12.4 15.5427734375 12.4853515625 15.45 12.6 14.2228515625 14.632421875 12.4 16.95
L 12.35 16.95
Q 12.319140625 16.921875 12.25 16.9 12.20234375 16.857421875 12.1 16.8 11.2251953125 16.475 10.45 16.15
L 10.5 16.2
Q 8.5642578125 15.35 6.95 14.5 6.911328125 14.4677734375 6.85 14.45 6.8244140625 14.4392578125 6.8 14.4 3.8177734375 12.7615234375 2.2 11.15 2.14921875 11.098046875 2.1 11.05 2.0638671875 11.0173828125 2 10.95 -0.1951171875 8.5330078125 0.8 6.1 0.81796875 6.06328125 0.8 6 0.8697265625 5.9814453125 0.9 5.9 1.6486328125 4.4431640625 3.55 2.95 4.3607421875 2.538671875 5.1 2.4 5.1337890625 2.391796875 5.15 2.35 5.2525390625 2.40625 5.35 2.4 7.0603515625 2.25 8.45 3.9 8.6017578125 4.081640625 8.8 4.1 9.01015625 4.1126953125 9.15 3.95 9.331640625 3.8490234375 9.35 3.65 9.432421875 2.7681640625 9.75 2.15 9.805859375 2.096875 9.8 2.05 9.85078125 2.0115234375 9.85 1.95 10.6716796875 0.7771484375 12.5 0.5 13.742578125 0.5982421875 14.7 0.8 14.788671875 0.8419921875 14.85 0.85 14.9251953125 0.9 15 0.9 16.00859375 1.17890625 16.7 1.6 Z"/>
</g>
</defs>

<g transform="matrix( 1.534027099609375, 0, 0, 1.534027099609375, 5.35,7.5) ">
<g transform="matrix( 1, 0, 0, 1, 0,0) ">
<use xlink:href="#_App_Icons_favoritepower_0_Layer0_0_FILL"/>

<use xlink:href="#_App_Icons_favoritepower_0_Layer0_0_STROKES_1_FILL"/>
</g>
</g>
</svg>
