
<svg xmlns="http://www.w3.org/2000/svg" version="1.1" xmlns:xlink="http://www.w3.org/1999/xlink" preserveAspectRatio="none" x="0px" y="0px" width="40px" height="40px" viewBox="0 0 40 40">
<defs>
<g id="_App_Icons_featured_0_Layer2_0_FILL">
<path fill="#FF9900" stroke="none" d="
M 3.2 -17.1
L 1.25 -12.75 -2.6 -15.7 -3.1 -10.9 -7.6 -12.5 -6.65 -7.8 -11.45 -8 -9.1 -3.75 -13.7 -2.35 -10.15 0.85 -14.1 3.6 -9.7 5.55 -12.7 9.35 -7.9 9.9 -9.5 14.4 -4.8 13.4 -4.9 18.15 -0.75 15.8 0.65 20.45 3.85 16.85 6.6 20.9 8.55 16.5 12.35 19.4 12.9 14.6 17.4 16.2 16.45 11.5 21.25 11.7 18.9 7.45 23.45 6.15 19.95 2.85 23.9 0.2 19.5 -1.75 22.4 -5.6 17.6 -6.1 19.2 -10.7 14.5 -9.65 14.7 -14.45 10.45 -12.1 9.15 -16.7 5.95 -13.15 3.2 -17.1 Z"/>
</g>

<g id="_App_Icons_featured_0_Layer0_0_FILL">
<path fill="#FFFFFF" fill-opacity="0.45098039215686275" stroke="none" d="
M 3.2 -17.1
L 1.25 -12.75 -2.6 -15.7 -3.1 -10.9 -7.6 -12.5 -6.65 -7.8 -10.55 -7.9
Q 3.3 3.3 20.05 7.15
L 23.45 6.15 19.95 2.85 23.9 0.2 19.5 -1.75 22.4 -5.6 17.6 -6.1 19.2 -10.7 14.5 -9.65 14.7 -14.45 10.45 -12.1 9.15 -16.7 5.95 -13.15 3.2 -17.1 Z"/>
</g>

<path id="_App_Icons_featured_0_Layer1_0_1_STROKES" stroke="#AF6000" stroke-opacity="0.5607843137254902" stroke-width="1" stroke-linejoin="round" stroke-linecap="round" fill="none" d="
M 9.15 -16.7
L 10.45 -12.1 14.7 -14.45 14.5 -9.65 19.2 -10.7 17.6 -6.1 22.4 -5.6 19.5 -1.75 23.9 0.2 19.95 2.85 23.45 6.15 18.9 7.45 21.25 11.7 16.45 11.5 17.4 16.2 12.9 14.6 12.35 19.4 8.55 16.5 6.6 20.9 3.85 16.85 0.65 20.45 -0.75 15.8 -4.9 18.15 -4.8 13.4 -9.5 14.4 -7.9 9.9 -12.7 9.35 -9.7 5.55 -14.1 3.6 -10.15 0.85 -13.7 -2.35 -9.1 -3.75 -11.45 -8 -6.65 -7.8 -7.6 -12.5 -3.1 -10.9 -2.6 -15.7 1.25 -12.75 3.2 -17.1 5.95 -13.15 9.15 -16.7 Z"/>
</defs>

<g transform="matrix( 1, 0, 0, 1, 15.25,18.15) ">
<g transform="matrix( 1, 0, 0, 1, 0,0) ">
<use xlink:href="#_App_Icons_featured_0_Layer2_0_FILL"/>
</g>

<g transform="matrix( 1, 0, 0, 1, 0,0) ">
<use xlink:href="#_App_Icons_featured_0_Layer1_0_1_STROKES"/>
</g>

<g transform="matrix( 1, 0, 0, 1, 0,0) ">
<use xlink:href="#_App_Icons_featured_0_Layer0_0_FILL"/>
</g>
</g>
</svg>
