
<svg xmlns="http://www.w3.org/2000/svg" version="1.1" xmlns:xlink="http://www.w3.org/1999/xlink" preserveAspectRatio="none" x="0px" y="0px" width="40px" height="40px" viewBox="0 0 40 40">
<defs>
<g id="Layer0_0_FILL">
<path fill="#CBCBCB" stroke="none" d="
M 83.15 41.95
Q 82.95 41.75 82.8 41.55 45.6 62.75 5.6 100.85 8.55 102.7 13 102.7 21.85 102.55 47.6 77.3 51.05 73.9 68.65 73.8 70.2 73.8 71.9 73.8 73.4 73.8 74.85 73.8 92.45 73.9 95.9 77.3 121.65 102.55 130.5 102.7 144.75 102.75 143.4 83.7 137.7 42.35 128.85 21.4 111.15 26.65 92.8 36.1 93.05 36.9 93.05 37.85 93.05 40.25 91.35 41.95 89.65 43.65 87.25 43.65 84.85 43.65 83.15 41.95
M 96.9 46.8
Q 98.6 45.1 101 45.1 103.4 45.1 105.1 46.8 106.8 48.5 106.8 50.9 106.8 53.3 105.1 55 103.4 56.7 101 56.7 98.6 56.7 96.9 55 95.2 53.3 95.2 50.9 95.2 48.5 96.9 46.8
M 119 41.95
Q 117.3 43.65 114.9 43.65 112.5 43.65 110.8 41.95 109.1 40.25 109.1 37.85 109.1 35.45 110.8 33.75 112.5 32.05 114.9 32.05 117.3 32.05 119 33.75 120.7 35.45 120.7 37.85 120.7 40.25 119 41.95 Z"/>

<path fill="#0033FF" stroke="none" d="
M 114.9 43.65
Q 117.3 43.65 119 41.95 120.7 40.25 120.7 37.85 120.7 35.45 119 33.75 117.3 32.05 114.9 32.05 112.5 32.05 110.8 33.75 109.1 35.45 109.1 37.85 109.1 40.25 110.8 41.95 112.5 43.65 114.9 43.65 Z"/>

<path fill="#009900" stroke="none" d="
M 101 45.1
Q 98.6 45.1 96.9 46.8 95.2 48.5 95.2 50.9 95.2 53.3 96.9 55 98.6 56.7 101 56.7 103.4 56.7 105.1 55 106.8 53.3 106.8 50.9 106.8 48.5 105.1 46.8 103.4 45.1 101 45.1 Z"/>

<path fill="#990000" stroke="none" d="
M 92.8 36.1
Q 92.4 34.8 91.35 33.75 89.65 32.05 87.25 32.05 84.85 32.05 83.15 33.75 81.45 35.45 81.45 37.85 81.45 39.95 82.8 41.55 82.95 41.75 83.15 41.95 84.85 43.65 87.25 43.65 89.65 43.65 91.35 41.95 93.05 40.25 93.05 37.85 93.05 36.9 92.8 36.1 Z"/>

<path fill="#FFFFFF" stroke="none" d="
M 91.35 33.75
Q 92.4 34.8 92.8 36.1 111.15 26.65 128.85 21.4 122.35 6.1 114.15 1.7 104.15 -2.85 89.6 4.85 81.4 8.5 72 7.95 62.1 8.5 53.9 4.85 39.35 -2.85 29.35 1.7 9.95 12.15 0.1 83.7 -0.85 96.8 5.6 100.85 45.6 62.75 82.8 41.55 81.45 39.95 81.45 37.85 81.45 35.45 83.15 33.75 84.85 32.05 87.25 32.05 89.65 32.05 91.35 33.75
M 105.1 19.75
Q 106.8 21.45 106.8 23.85 106.8 26.25 105.1 27.95 103.4 29.65 101 29.65 98.6 29.65 96.9 27.95 95.2 26.25 95.2 23.85 95.2 21.45 96.9 19.75 98.6 18.05 101 18.05 103.4 18.05 105.1 19.75
M 43.1 18.2
Q 51.4 18.2 57.25 24.05 63.1 29.9 63.1 38.2 63.1 46.5 57.25 52.35 51.4 58.2 43.1 58.2 34.8 58.2 28.95 52.35 23.1 46.5 23.1 38.2 23.1 29.9 28.95 24.05 34.8 18.2 43.1 18.2 Z"/>

<path fill="#666666" stroke="none" d="
M 57.25 24.05
Q 51.4 18.2 43.1 18.2 34.8 18.2 28.95 24.05 23.1 29.9 23.1 38.2 23.1 46.5 28.95 52.35 34.8 58.2 43.1 58.2 51.4 58.2 57.25 52.35 63.1 46.5 63.1 38.2 63.1 29.9 57.25 24.05
M 56.9 38.2
Q 56.9 43.95 52.85 48 48.85 52.05 43.1 52.05 37.35 52.05 33.35 48 29.3 43.95 29.3 38.2 29.3 32.5 33.35 28.45 37.35 24.4 43.1 24.4 48.85 24.4 52.85 28.45 56.9 32.5 56.9 38.2 Z"/>

<path fill="#999999" stroke="none" d="
M 52.85 48
Q 56.9 43.95 56.9 38.2 56.9 32.5 52.85 28.45 48.85 24.4 43.1 24.4 37.35 24.4 33.35 28.45 29.3 32.5 29.3 38.2 29.3 43.95 33.35 48 37.35 52.05 43.1 52.05 48.85 52.05 52.85 48 Z"/>

<path fill="#FFCC00" stroke="none" d="
M 106.8 23.85
Q 106.8 21.45 105.1 19.75 103.4 18.05 101 18.05 98.6 18.05 96.9 19.75 95.2 21.45 95.2 23.85 95.2 26.25 96.9 27.95 98.6 29.65 101 29.65 103.4 29.65 105.1 27.95 106.8 26.25 106.8 23.85 Z"/>
</g>

<path id="Layer0_0_1_STROKES" stroke="#333333" stroke-width="1" stroke-linejoin="round" stroke-linecap="round" fill="none" d="
M 106.8 23.85
Q 106.8 26.25 105.1 27.95 103.4 29.65 101 29.65 98.6 29.65 96.9 27.95 95.2 26.25 95.2 23.85 95.2 21.45 96.9 19.75 98.6 18.05 101 18.05 103.4 18.05 105.1 19.75 106.8 21.45 106.8 23.85 Z
M 82.8 41.55
Q 81.45 39.95 81.45 37.85 81.45 35.45 83.15 33.75 84.85 32.05 87.25 32.05 89.65 32.05 91.35 33.75 92.4 34.8 92.8 36.1
M 128.85 21.4
Q 122.35 6.1 114.15 1.7 104.15 -2.85 89.6 4.85 81.4 8.5 72 7.95 62.1 8.5 53.9 4.85 39.35 -2.85 29.35 1.7 9.95 12.15 0.1 83.7 -0.85 96.8 5.6 100.85
M 82.8 41.55
Q 82.95 41.75 83.15 41.95 84.85 43.65 87.25 43.65 89.65 43.65 91.35 41.95 93.05 40.25 93.05 37.85 93.05 36.9 92.8 36.1
M 101 45.1
Q 103.4 45.1 105.1 46.8 106.8 48.5 106.8 50.9 106.8 53.3 105.1 55 103.4 56.7 101 56.7 98.6 56.7 96.9 55 95.2 53.3 95.2 50.9 95.2 48.5 96.9 46.8 98.6 45.1 101 45.1 Z
M 114.9 43.65
Q 112.5 43.65 110.8 41.95 109.1 40.25 109.1 37.85 109.1 35.45 110.8 33.75 112.5 32.05 114.9 32.05 117.3 32.05 119 33.75 120.7 35.45 120.7 37.85 120.7 40.25 119 41.95 117.3 43.65 114.9 43.65 Z
M 128.85 21.4
Q 137.7 42.35 143.4 83.7 144.75 102.75 130.5 102.7 121.65 102.55 95.9 77.3 92.45 73.9 74.85 73.8 73.4 73.8 71.9 73.8 70.2 73.8 68.65 73.8 51.05 73.9 47.6 77.3 21.85 102.55 13 102.7 8.55 102.7 5.6 100.85
M 57.25 24.05
Q 63.1 29.9 63.1 38.2 63.1 46.5 57.25 52.35 51.4 58.2 43.1 58.2 34.8 58.2 28.95 52.35 23.1 46.5 23.1 38.2 23.1 29.9 28.95 24.05 34.8 18.2 43.1 18.2 51.4 18.2 57.25 24.05 Z"/>
</defs>

<g transform="matrix( 1, 0, 0, 1, 0,0) ">
<use xlink:href="#Layer0_0_FILL"/>

<use xlink:href="#Layer0_0_1_STROKES"/>
</g>
</svg>
