
<svg xmlns="http://www.w3.org/2000/svg" version="1.1" xmlns:xlink="http://www.w3.org/1999/xlink" preserveAspectRatio="none" x="0px" y="0px" width="21px" height="21px" viewBox="0 0 21 21">
<defs>
<linearGradient id="Gradient_1" gradientUnits="userSpaceOnUse" x1="11.7" y1="17.45" x2="11.7" y2="5.249999999999999" spreadMethod="pad">
<stop  offset="0%" stop-color="#5F5F5F"/>

<stop  offset="53.333333333333336%" stop-color="#F9F9F9"/>
</linearGradient>

<linearGradient id="Gradient_2" gradientUnits="userSpaceOnUse" x1="13" y1="14.2" x2="13" y2="-3" spreadMethod="pad">
<stop  offset="0%" stop-color="#5F5F5F"/>

<stop  offset="53.333333333333336%" stop-color="#F9F9F9"/>
</linearGradient>

<filter id="Filter_1" x="-20%" y="-20%" width="140%" height="140%" color-interpolation-filters="sRGB">
<feColorMatrix in="SourceGraphic" type="matrix" values="1 0 0 0 0 0 1 0 0 0 0 0 1 0 0 0 0 0 0.4 0" result="result1"/>
</filter>

<g id="Symbol_2_0_Layer0_0_FILL">
<path fill="#FFFFFF" stroke="none" d="
M 0 22.7
L 23.4 22.7 23.4 3.55 19.85 0 3.55 0 0 3.55 0 22.7 Z"/>
</g>

<g id="Symbol_4_0_Layer0_0_FILL">
<path fill="url(#Gradient_1)" stroke="none" d="
M 0 22.7
L 23.4 22.7 23.4 3.55 19.85 0 3.55 0 0 3.55 0 22.7 Z"/>
</g>

<g id="Symbol_7_0_Layer0_0_FILL">
<path fill="#333333" stroke="none" d="
M 21.05 8.05
L 22.4 7.5
Q 24.45 6.2 24.2 4.15 23.35 1.5 21.95 0.4 17.1 -1 15.55 2.8 15 4.6 14 5.85
L 12.55 5.6 11.15 5.85
Q 10.15 4.6 9.6 2.8 8.05 -1 3.2 0.4 1.8 1.5 0.95 4.15 0.7 6.2 2.75 7.5
L 4.45 8.15
Q 1.4 10.05 0 14.95
L 2.85 14.35 4.35 17.2 8.35 8.35 9.55 8.25 9.55 28.35 15.6 28.35 15.6 8.2 16.8 8.35 20.8 17.2 22.3 14.35 25.15 14.95
Q 23.75 10.05 21.05 8.05
M 15.95 6.5
Q 16.7 5.95 17.05 4.75 19 2 22.2 3.05 22.1 7.4 15.95 6.5
M 2.95 3.05
Q 6.15 2 8.1 4.75 8.45 5.95 9.2 6.5 3.05 7.4 2.95 3.05 Z"/>
</g>

<g id="Symbol_9_0_Layer0_0_FILL">
<path fill="url(#Gradient_2)" stroke="none" d="
M 21.05 8.05
L 22.4 7.5
Q 24.45 6.2 24.2 4.15 23.35 1.5 21.95 0.4 17.1 -1 15.55 2.8 15 4.6 14 5.85
L 12.55 5.6 11.15 5.85
Q 10.15 4.6 9.6 2.8 8.05 -1 3.2 0.4 1.8 1.5 0.95 4.15 0.7 6.2 2.75 7.5
L 4.45 8.15
Q 1.4 10.05 0 14.95
L 2.85 14.35 4.35 17.2 8.35 8.35 9.55 8.25 9.55 28.35 15.6 28.35 15.6 8.2 16.8 8.35 20.8 17.2 22.3 14.35 25.15 14.95
Q 23.75 10.05 21.05 8.05
M 15.95 6.5
Q 16.7 5.95 17.05 4.75 19 2 22.2 3.05 22.1 7.4 15.95 6.5
M 8.1 4.75
Q 8.45 5.95 9.2 6.5 3.05 7.4 2.95 3.05 6.15 2 8.1 4.75 Z"/>
</g>

<g id="XB_0_Layer4_0_FILL">
<path fill="#FFFFFF" fill-opacity="0.6588235294117647" stroke="none" d="
M 8.95 26.95
Q 15.9 29.15 21.8 25.9
L 15.35 19.95 8.95 26.95
M 10.7 15.8
L 0.7 6.6
Q -1.85 10.65 -1.75 15.65
L -1.75 16.55
Q -1.5 21.9 1.5 25.9
L 10.7 15.8
M 26.6 21.6
Q 29.1 15.3 24.45 9.95
L 19.6 15.3 26.6 21.6
M 22.5 -0.6
Q 19.05 -2.05 14.95 -1.85
L 12.6 -1.6
Q 8.2 -0.8 4.85 1.95
L 14.95 11.05 24.55 0.45
Q 23.5 -0.1 22.5 -0.6 Z"/>

<path fill="#CCCCCC" fill-opacity="0.8" stroke="none" d="
M 8.95 26.95
L 5.95 30.35
Q 6.8 30.9 7.8 31.4 10.65 32.85 13.95 33.05
L 16.4 33.1
Q 21.9 32.8 26.05 29.65
L 21.8 25.9
Q 15.9 29.15 8.95 26.95
M 33.05 14.75
L 32.95 13.35
Q 32.65 10.45 31.5 7.9
L 29.25 4.65 24.45 9.95
Q 29.1 15.3 26.6 21.6
L 30.35 25.05
Q 33.3 20.5 33.05 14.75 Z"/>
</g>

<g id="XB_0_Layer3_0_FILL">
<path fill="#FF0000" fill-opacity="0.9921568627450981" stroke="none" d="
M 14.8 -8.1
Q 14.6 -8.1 14.5 -8.1 13.5 -8 12.65 -7.95 4.05 -6.95 -1.95 -0.35 -8.5 7 -8.1 16.8
L -7.75 20.15
Q -6.75 25.65 -3.25 30.05 -2 31.7 -0.4 33.2 4.9 38 11.55 39.05 12.8 39.3 14.15 39.35 15.45 39.45 16.75 39.45 16.9 39.4 17 39.4
L 20.35 38.95
Q 27.95 37.65 33.4 31.6
L 35.05 29.65
Q 38.5 25.1 39.4 19.6 39.5 18.8 39.6 18.1
L 39.65 14.55
Q 39.2 4.7 31.8 -2 30.4 -3.2 29 -4.2 22.65 -8.45 14.8 -8.1
M 12.6 -1.6
L 14.95 -1.85
Q 19.05 -2.05 22.5 -0.6 23.5 -0.1 24.55 0.45
L 14.95 11.05 4.85 1.95
Q 8.2 -0.8 12.6 -1.6
M 32.95 13.35
L 33.05 14.75
Q 33.3 20.5 30.35 25.05
L 19.6 15.3 29.25 4.65 31.5 7.9
Q 32.65 10.45 32.95 13.35
M 0.7 6.6
L 10.7 15.8 1.5 25.9
Q 1.3 25.6 1.15 25.35 -1.5 21.5 -1.75 16.55
L -1.75 15.65
Q -1.85 10.65 0.7 6.6
M 16.4 33.1
L 13.95 33.05
Q 10.65 32.85 7.8 31.4 6.8 30.9 5.95 30.35
L 15.35 19.95 26.05 29.65
Q 21.9 32.8 16.4 33.1 Z"/>
</g>

<path id="Symbol_12_0_Layer1_0_1_STROKES" stroke="#333333" stroke-opacity="0.8470588235294118" stroke-width="2" stroke-linejoin="round" stroke-linecap="round" fill="none" d="
M 11.55 -8.2
L 8 -11.75 -8.3 -11.75 -11.85 -8.2 11.55 -8.2 11.55 10.95 -11.85 10.95 -11.85 -8.2"/>

<path id="Symbol_11_0_Layer0_0_1_STROKES" stroke="#333333" stroke-opacity="0.45098039215686275" stroke-width="0.65" stroke-linejoin="round" stroke-linecap="round" fill="none" d="
M 14 5.85
Q 15 4.6 15.55 2.8 17.1 -1 21.95 0.4 23.35 1.5 24.2 4.15 24.45 6.2 22.4 7.5
L 21.05 8.05
Q 23.75 10.05 25.15 14.95
L 22.3 14.35 20.8 17.2 16.8 8.35 15.6 8.2 15.6 28.35 9.55 28.35 9.55 8.25 8.35 8.35 4.35 17.2 2.85 14.35 0 14.95
Q 1.4 10.05 4.45 8.15
L 2.75 7.5
Q 0.7 6.2 0.95 4.15 1.8 1.5 3.2 0.4 8.05 -1 9.6 2.8 10.15 4.6 11.15 5.85
L 12.55 5.6 14 5.85 14.25 5.95
Q 14.95 6.35 14.95 6.85
L 14.95 6.95
Q 14.9 7.4 14.25 7.7
L 13.95 7.85 15.6 8.2
M 9.55 8.25
L 11.65 8 10.85 7.7
Q 10.2 7.4 10.15 6.95
L 10.15 6.85
Q 10.15 6.35 10.85 5.95
L 11.15 5.85
M 13.95 7.85
L 12.55 8.1 11.65 8
M 15.95 6.5
Q 22.1 7.4 22.2 3.05 19 2 17.05 4.75 16.7 5.95 15.95 6.5 Z
M 2.95 3.05
Q 6.15 2 8.1 4.75 8.45 5.95 9.2 6.5 3.05 7.4 2.95 3.05 Z
M 8.35 8.35
L 4.45 8.15
M 21.05 8.05
L 16.8 8.35"/>
</defs>

<g transform="matrix( 0.620574951171875, 0, 0, 0.620574951171875, 10.5,12.1) ">
<g id="col0" transform="matrix( 1, 0, 0, 1, -11.85,-11.75) ">
<g transform="matrix( 1, 0, 0, 1, 0,0) ">
<use xlink:href="#Symbol_2_0_Layer0_0_FILL"/>
</g>
</g>

<g transform="matrix( 1, 0, 0, 1, -11.85,-11.75) ">
<g transform="matrix( 1, 0, 0, 1, 0,0) ">
<use filter="url(#Filter_1)" xlink:href="#Symbol_4_0_Layer0_0_FILL"/>
</g>
</g>

<g transform="matrix( 1, 0, 0, 1, 0,0) ">
<use xlink:href="#Symbol_12_0_Layer1_0_1_STROKES"/>
</g>

<g transform="matrix( 0.96221923828125, 0, 0, 1, -11.9,-18.15) ">
<g id="col1" transform="matrix( 1, 0, 0, 1, 0,0) ">
<g transform="matrix( 1, 0, 0, 1, 0,0) ">
<use xlink:href="#Symbol_7_0_Layer0_0_FILL"/>
</g>
</g>

<g transform="matrix( 1, 0, 0, 1, 0,0) ">
<g transform="matrix( 1, 0, 0, 1, 0,0) ">
<use filter="url(#Filter_1)" xlink:href="#Symbol_9_0_Layer0_0_FILL"/>
</g>
</g>

<g transform="matrix( 1, 0, 0, 1, 0,0) ">
<use xlink:href="#Symbol_11_0_Layer0_0_1_STROKES"/>
</g>
</g>
</g>

<g transform="matrix( 0.0479736328125, 0.0233306884765625, -0.0233306884765625, 0.0479736328125, 16,7.95) ">
<g transform="matrix( 3.95050048828125, -1.7744140625, 1.7744140625, 3.95050048828125, -38.65,97.85) ">
<g transform="matrix( 1, 0, 0, 1, 0,0) ">
<use xlink:href="#XB_0_Layer4_0_FILL"/>
</g>

<g transform="matrix( 1, 0, 0, 1, 0,0) ">
<use xlink:href="#XB_0_Layer3_0_FILL"/>
</g>
</g>
</g>
</svg>
