
<svg xmlns="http://www.w3.org/2000/svg" version="1.1" xmlns:xlink="http://www.w3.org/1999/xlink" preserveAspectRatio="none" x="0px" y="0px" width="21px" height="21px" viewBox="0 0 21 21">
<defs>
<linearGradient id="Gradient_1" gradientUnits="userSpaceOnUse" x1="11.7" y1="17.45" x2="11.7" y2="5.249999999999999" spreadMethod="pad">
<stop  offset="0%" stop-color="#5F5F5F"/>

<stop  offset="53.333333333333336%" stop-color="#F9F9F9"/>
</linearGradient>

<linearGradient id="Gradient_2" gradientUnits="userSpaceOnUse" x1="13" y1="14.2" x2="13" y2="-3" spreadMethod="pad">
<stop  offset="0%" stop-color="#5F5F5F"/>

<stop  offset="53.333333333333336%" stop-color="#F9F9F9"/>
</linearGradient>

<linearGradient id="Gradient_3" gradientUnits="userSpaceOnUse" x1="-8.881784197001252e-16" y1="9.1" x2="9.2" y2="9.1" spreadMethod="pad">
<stop  offset="6.2745098039215685%" stop-color="#FFFFFF" stop-opacity="0.8470588235294118"/>

<stop  offset="37.64705882352941%" stop-color="#FF9900"/>
</linearGradient>

<filter id="Filter_1" x="-20%" y="-20%" width="140%" height="140%" color-interpolation-filters="sRGB">
<feColorMatrix in="SourceGraphic" type="matrix" values="1 0 0 0 0 0 1 0 0 0 0 0 1 0 0 0 0 0 0.4 0" result="result1"/>
</filter>

<filter id="Filter_2" x="-20%" y="-20%" width="140%" height="140%" color-interpolation-filters="sRGB">
<feColorMatrix in="SourceGraphic" type="matrix" values="1 0 0 0 0 0 1 0 0 0 0 0 1 0 0 0 0 0 0 0" result="result1"/>
</filter>

<g id="Symbol_2_0_Layer0_0_FILL">
<path fill="#FFFFFF" stroke="none" d="
M 0 22.7
L 23.4 22.7 23.4 3.55 19.85 0 3.55 0 0 3.55 0 22.7 Z"/>
</g>

<g id="Symbol_4_0_Layer0_0_FILL">
<path fill="url(#Gradient_1)" stroke="none" d="
M 0 22.7
L 23.4 22.7 23.4 3.55 19.85 0 3.55 0 0 3.55 0 22.7 Z"/>
</g>

<g id="Symbol_7_0_Layer0_0_FILL">
<path fill="#FF0000" stroke="none" d="
M 24.2 4.15
Q 23.35 1.5 21.95 0.4 17.1 -1 15.55 2.8 15 4.6 14 5.85
L 12.55 5.6 11.15 5.85
Q 10.15 4.6 9.6 2.8 8.05 -1 3.2 0.4 1.8 1.5 0.95 4.15 0.7 6.2 2.75 7.5
L 4.45 8.15
Q 3.95234375 8.4599609375 3.5 8.85
L 8.1 8.85 8.35 8.35 9.55 8.25 9.55 28.35 15.6 28.35 15.6 8.2 16.8 8.35 16.8 8.4 21.45 8.4
Q 21.2728515625 8.2150390625 21.05 8.05
L 22.4 7.5
Q 24.45 6.2 24.2 4.15
M 15.95 6.5
Q 16.7 5.95 17.05 4.75 19 2 22.2 3.05 22.1 7.4 15.95 6.5
M 2.95 3.05
Q 6.15 2 8.1 4.75 8.45 5.95 9.2 6.5 3.05 7.4 2.95 3.05 Z"/>
</g>

<g id="Symbol_9_0_Layer0_0_FILL">
<path fill="url(#Gradient_2)" stroke="none" d="
M 24.2 4.15
Q 23.35 1.5 21.95 0.4 17.1 -1 15.55 2.8 15 4.6 14 5.85
L 12.55 5.6 11.15 5.85
Q 10.15 4.6 9.6 2.8 8.05 -1 3.2 0.4 1.8 1.5 0.95 4.15 0.7 6.2 2.75 7.5
L 4.45 8.15
Q 4.08359375 8.3783203125 3.75 8.65
L 8.2 8.65 8.35 8.35 9.55 8.25 9.55 28.35 15.6 28.35 15.6 8.2 16.8 8.35 16.9 8.65 21.75 8.65
Q 21.4185546875 8.323046875 21.05 8.05
L 22.4 7.5
Q 24.45 6.2 24.2 4.15
M 15.95 6.5
Q 16.7 5.95 17.05 4.75 19 2 22.2 3.05 22.1 7.4 15.95 6.5
M 8.1 4.75
Q 8.45 5.95 9.2 6.5 3.05 7.4 2.95 3.05 6.15 2 8.1 4.75 Z"/>
</g>

<g id="Symbol_80_copy_0_Layer1_0_FILL">
<path fill="url(#Gradient_3)" stroke="none" d="
M 0 12
L 9.2 12 9.2 6.25 0 6.25 0 12 Z"/>
</g>

<g id="Symbol_82_0_Layer0_0_FILL">
<path fill="#00FF00" stroke="none" d="
M 8.2 0
L 0 0 0 4.75 8.2 4.75 8.2 0 Z"/>
</g>

<path id="Symbol_12_0_Layer1_0_1_STROKES" stroke="#333333" stroke-opacity="0.8470588235294118" stroke-width="2" stroke-linejoin="round" stroke-linecap="round" fill="none" d="
M 11.55 -8.2
L 8 -11.75 -8.3 -11.75 -11.85 -8.2 11.55 -8.2 11.55 10.95 -11.85 10.95 -11.85 -8.2"/>

<path id="Symbol_11_0_Layer1_0_1_STROKES" stroke="#333333" stroke-opacity="0.45098039215686275" stroke-width="0.65" stroke-linejoin="round" stroke-linecap="round" fill="none" d="
M 9.55 28.05
L 9.55 8.25 8.35 8.35 4.45 8.15 2.75 7.5
Q 0.9822265625 6.37890625 0.925 4.7 0.915625 4.4322265625 0.95 4.15 0.9662109375 4.099609375 0.975 4.05 1.8265625 1.4791015625 3.2 0.4 8.05 -1 9.6 2.8 9.80234375 3.4623046875 10.075 4.05 10.223046875 4.3875 10.4 4.7 10.7291015625 5.3240234375 11.15 5.85
L 12.55 5.6 14 5.85
Q 15 4.6 15.55 2.8 17.1 -1 21.95 0.4 23.35 1.5 24.2 4.15 24.45 6.2 22.4 7.5
L 21.05 8.05 16.8 8.35 15.6 8.2 15.6 28.1
M 14 5.85
L 14.25 5.95
Q 14.95 6.35 14.95 6.85
L 14.95 6.95
Q 14.9 7.4 14.25 7.7
L 13.95 7.85 15.6 8.2
M 9.55 8.25
L 11.65 8 10.85 7.7
Q 10.2 7.4 10.15 6.95
L 10.15 6.85
Q 10.15 6.35 10.85 5.95
L 11.15 5.85
M 13.95 7.85
L 12.55 8.1 11.65 8
M 15.95 6.5
Q 22.1 7.4 22.45 2.9 19 2 17.05 4.75 16.7 5.95 15.95 6.5 Z
M 2.95 3.05
Q 5.698828125 2.148046875 7.525 4.05 7.80546875 4.3419921875 8.075 4.7 8.08203125 4.7248046875 8.1 4.75 8.45 5.95 9.2 6.5 4.3939453125 7.2033203125 3.3 4.7 3.1544921875 4.3984375 3.075 4.05 2.9625 3.590625 2.95 3.05 Z"/>

<path id="Symbol_80_copy_0_Layer2_0_1_STROKES" stroke="#666666" stroke-width="2" stroke-linejoin="round" stroke-linecap="round" fill="none" d="
M 0.9 7.55
L 1.05 6.85
M 4.55 0.45
Q 5.15 0.3 5.9 0.5 7.35 0.85 8.1 2.2 8.85 3.45 8.5 5
L 7.95 7.35"/>

<path id="Symbol_80_copy_0_Layer0_0_1_STROKES" stroke="#FF9900" stroke-width="1" stroke-linejoin="round" stroke-linecap="round" fill="none" d="
M 0 9.15
L 9.2 9.15"/>

<path id="Symbol_80_copy_0_Layer0_0_2_STROKES" stroke="#FFFFFF" stroke-opacity="0.6470588235294118" stroke-width="1" stroke-linejoin="round" stroke-linecap="round" fill="none" d="
M 4.3 0.05
Q 5.1 -0.1 5.95 0.1"/>

<path id="Symbol_84_copy_0_Layer0_0_1_STROKES" stroke="#333333" stroke-opacity="0.7490196078431373" stroke-width="1" stroke-linejoin="round" stroke-linecap="round" fill="none" d="
M 9.2 6.25
L 9.2 12 0 12 0 6.25 9.2 6.25 Z"/>
</defs>

<g transform="matrix( 0.620574951171875, 0, 0, 0.620574951171875, 10.5,12.6) ">
<g id="col0" transform="matrix( 1, 0, 0, 1, -11.85,-11.75) ">
<g transform="matrix( 1, 0, 0, 1, 0,0) ">
<use xlink:href="#Symbol_2_0_Layer0_0_FILL"/>
</g>
</g>

<g transform="matrix( 1, 0, 0, 1, -11.85,-11.75) ">
<g transform="matrix( 1, 0, 0, 1, 0,0) ">
<use filter="url(#Filter_1)" xlink:href="#Symbol_4_0_Layer0_0_FILL"/>
</g>
</g>

<g transform="matrix( 1, 0, 0, 1, 0,0) ">
<use xlink:href="#Symbol_12_0_Layer1_0_1_STROKES"/>
</g>

<g transform="matrix( 0.96221923828125, 0, 0, 1, -11.9,-18.15) ">
<g id="col1" transform="matrix( 1, 0, 0, 1, 0,0) ">
<g transform="matrix( 1, 0, 0, 1, 0,0) ">
<use xlink:href="#Symbol_7_0_Layer0_0_FILL"/>
</g>
</g>

<g transform="matrix( 1, 0, 0, 1, 0,0) ">
<g transform="matrix( 1, 0, 0, 1, 0,0) ">
<use filter="url(#Filter_1)" xlink:href="#Symbol_9_0_Layer0_0_FILL"/>
</g>
</g>

<g transform="matrix( 1, 0, 0, 1, 0,0) ">
<use xlink:href="#Symbol_11_0_Layer1_0_1_STROKES"/>
</g>
</g>
</g>

<g transform="matrix( 0.90380859375, -0.000244140625, 0.000244140625, 0.90380859375, 12.25,9.7) ">
<g transform="matrix( 1, 0, 0, 1, 0,0) ">
<g transform="matrix( 1, 0, 0, 1, 0,0) ">
<use xlink:href="#Symbol_80_copy_0_Layer2_0_1_STROKES"/>
</g>

<g transform="matrix( 1, 0, 0, 1, 0,0) ">
<use xlink:href="#Symbol_80_copy_0_Layer1_0_FILL"/>
</g>

<g transform="matrix( 1, 0, 0, 1, 0,0) ">
<use xlink:href="#Symbol_80_copy_0_Layer0_0_1_STROKES"/>

<use xlink:href="#Symbol_80_copy_0_Layer0_0_2_STROKES"/>
</g>
</g>

<g id="back" transform="matrix( 1.136810302734375, 0, 0, 1.2127685546875, -0.1,6.25) ">
<g transform="matrix( 1, 0, 0, 1, 0,0) ">
<use filter="url(#Filter_2)" xlink:href="#Symbol_82_0_Layer0_0_FILL"/>
</g>
</g>

<g transform="matrix( 1, 0, 0, 1, 0,0) ">
<use xlink:href="#Symbol_84_copy_0_Layer0_0_1_STROKES"/>
</g>
</g>
</svg>
