
<svg xmlns="http://www.w3.org/2000/svg" version="1.1" xmlns:xlink="http://www.w3.org/1999/xlink" preserveAspectRatio="none" x="0px" y="0px" width="40px" height="40px" viewBox="0 0 40 40">
<defs>
<radialGradient id="Gradient_1" gradientUnits="userSpaceOnUse" cx="0" cy="0" r="9.667964172978714" fx="0" fy="0" gradientTransform="matrix( 0.4835557844811113, -0.8753135457051132, 0.5145861022018243, 0.28185871929647666, 8.15,13.8) " spreadMethod="pad">
<stop  offset="0%" stop-color="#000000" stop-opacity="0.4117647058823529"/>

<stop  offset="100%" stop-color="#013198" stop-opacity="0"/>
</radialGradient>

<radialGradient id="Gradient_2" gradientUnits="userSpaceOnUse" cx="0" cy="0" r="5.021096120370531" fx="0" fy="0" gradientTransform="matrix( 0.7767228323269383, -0.6298425531369083, 0.4008088974507598, 0.4929202589767108, 6.9,5.15) " spreadMethod="pad">
<stop  offset="0%" stop-color="#000000" stop-opacity="0.4235294117647059"/>

<stop  offset="100%" stop-color="#013198" stop-opacity="0"/>
</radialGradient>

<g id="_Extra__Chatter_ChatterB_0_Layer0_0_FILL">
<path fill="#009900" stroke="none" d="
M 8.3 3.4
Q 8.2974609375 1.993359375 7.3 1 6.3072265625 0.00390625 4.9 0 3.492578125 0.00390625 2.5 1 1.50234375 1.993359375 1.5 3.4 1.50234375 4.806640625 2.5 5.8 3.492578125 6.78359375 4.9 6.75 3.2388671875 6.9326171875 1.7 9.1 -0.062109375 11.6072265625 0 14.85 0.025 15.912890625 5.15 16 10.26640625 16.0830078125 10.2 15.05 10.011328125 11.7240234375 8.45 9.2 6.997265625 6.7763671875 5.15 6.75 6.40390625 6.6900390625 7.3 5.8 8.2974609375 4.806640625 8.3 3.4 Z"/>
</g>

<g id="pawn_0_Layer1_0_FILL">
<path fill="url(#Gradient_1)" stroke="none" d="
M 5.7 7.3
Q 5.55 7.3 5.45 7.3
L 5.4 7.3
Q 3.75 7.45 2.2 9.65 0.45 12.1 0.5 15.4 0.55 16.4 5.65 16.5 10.75 16.6 10.7 15.55 10.5 12.2 9 9.75 7.5 7.3 5.7 7.3
M 2.7 14.9
Q 3 10.65 5.4 9.1 3 10.65 2.7 14.9 Z"/>

<path fill="url(#Gradient_2)" stroke="none" d="
M 7.8 1.5
Q 6.8 0.5 5.4 0.5 4 0.5 3 1.5 2 2.5 2 3.9 2 5.3 3 6.3 4 7.3 5.4 7.3
L 5.45 7.3
Q 5.55 7.3 5.7 7.3 6.9 7.2 7.8 6.3 8.8 5.3 8.8 3.9 8.8 2.5 7.8 1.5
M 3.7 3.95
Q 3.9 2.65 5 2.1 3.9 2.65 3.7 3.95 Z"/>
</g>

<g id="_Extra_pawnb_0_Layer2_0_FILL">
<path fill="#0033FF" stroke="none" d="
M 8.8 3.9
Q 8.8 2.5 7.8 1.5 6.8 0.5 5.4 0.5 4 0.5 3 1.5 2 2.5 2 3.9 2 5.3 3 6.3 4 7.3 5.4 7.3 3.75 7.45 2.2 9.65 0.45 12.1 0.5 15.4 0.55 16.4 5.65 16.5 10.75 16.6 10.7 15.55 10.5 12.2 9 9.75 7.5 7.3 5.7 7.3 6.9 7.2 7.8 6.3 8.8 5.3 8.8 3.9 Z"/>
</g>

<g id="_Extra_pawnb_0_Layer1_0_FILL">
<path fill="url(#Gradient_1)" stroke="none" d="
M 5.45 7.3
L 5.4 7.3
Q 3.75 7.45 2.2 9.65 0.45 12.1 0.5 15.4 0.55 16.4 5.65 16.5 10.75 16.6 10.7 15.55 10.5 12.2 9 9.75 7.5 7.3 5.7 7.3 5.55 7.3 5.45 7.3
M 2.7 14.9
Q 3 10.65 5.4 9.1 3 10.65 2.7 14.9 Z"/>

<path fill="url(#Gradient_2)" stroke="none" d="
M 7.8 1.5
Q 6.8 0.5 5.4 0.5 4 0.5 3 1.5 2 2.5 2 3.9 2 5.3 3 6.3 4 7.3 5.4 7.3
L 5.45 7.3
Q 5.55 7.3 5.7 7.3 6.9 7.2 7.8 6.3 8.8 5.3 8.8 3.9 8.8 2.5 7.8 1.5
M 3.7 3.95
Q 3.9 2.65 5 2.1 3.9 2.65 3.7 3.95 Z"/>
</g>

<g id="_Extra_pawnr_0_Layer2_0_FILL">
<path fill="#FF0000" stroke="none" d="
M 8.8 3.9
Q 8.8 2.5 7.8 1.5 6.8 0.5 5.4 0.5 4 0.5 3 1.5 2 2.5 2 3.9 2 5.3 3 6.3 4 7.3 5.4 7.3 3.75 7.45 2.2 9.65 0.45 12.1 0.5 15.4 0.55 16.4 5.65 16.5 10.75 16.6 10.7 15.55 10.5 12.2 9 9.75 7.5 7.3 5.7 7.3 6.9 7.2 7.8 6.3 8.8 5.3 8.8 3.9 Z"/>
</g>

<g id="_Extra_pawnr_0_Layer1_0_FILL">
<path fill="url(#Gradient_1)" stroke="none" d="
M 5.45 7.3
L 5.4 7.3
Q 3.75 7.45 2.2 9.65 0.45 12.1 0.5 15.4 0.55 16.4 5.65 16.5 10.75 16.6 10.7 15.55 10.5 12.2 9 9.75 7.5 7.3 5.7 7.3 5.55 7.3 5.45 7.3
M 2.7 14.9
Q 3 10.65 5.4 9.1 3 10.65 2.7 14.9 Z"/>

<path fill="url(#Gradient_2)" stroke="none" d="
M 7.8 1.5
Q 6.8 0.5 5.4 0.5 4 0.5 3 1.5 2 2.5 2 3.9 2 5.3 3 6.3 4 7.3 5.4 7.3
L 5.45 7.3
Q 5.55 7.3 5.7 7.3 6.9 7.2 7.8 6.3 8.8 5.3 8.8 3.9 8.8 2.5 7.8 1.5
M 3.7 3.95
Q 3.9 2.65 5 2.1 3.9 2.65 3.7 3.95 Z"/>
</g>

<g id="_Extra_pawng_0_Layer2_0_FILL">
<path fill="#FF6600" stroke="none" d="
M 8.8 3.9
Q 8.8 2.5 7.8 1.5 6.8 0.5 5.4 0.5 4 0.5 3 1.5 2 2.5 2 3.9 2 5.3 3 6.3 4 7.3 5.4 7.3 3.75 7.45 2.2 9.65 0.45 12.1 0.5 15.4 0.55 16.4 5.65 16.5 10.75 16.6 10.7 15.55 10.5 12.2 9 9.75 7.5 7.3 5.7 7.3 6.9 7.2 7.8 6.3 8.8 5.3 8.8 3.9 Z"/>
</g>

<g id="_Extra_pawng_0_Layer1_0_FILL">
<path fill="url(#Gradient_1)" stroke="none" d="
M 5.45 7.3
L 5.4 7.3
Q 3.75 7.45 2.2 9.65 0.45 12.1 0.5 15.4 0.55 16.4 5.65 16.5 10.75 16.6 10.7 15.55 10.5 12.2 9 9.75 7.5 7.3 5.7 7.3 5.55 7.3 5.45 7.3
M 2.7 14.9
Q 3 10.65 5.4 9.1 3 10.65 2.7 14.9 Z"/>

<path fill="url(#Gradient_2)" stroke="none" d="
M 7.8 1.5
Q 6.8 0.5 5.4 0.5 4 0.5 3 1.5 2 2.5 2 3.9 2 5.3 3 6.3 4 7.3 5.4 7.3
L 5.45 7.3
Q 5.55 7.3 5.7 7.3 6.9 7.2 7.8 6.3 8.8 5.3 8.8 3.9 8.8 2.5 7.8 1.5
M 3.7 3.95
Q 3.9 2.65 5 2.1 3.9 2.65 3.7 3.95 Z"/>
</g>

<g id="_App_Icons_standard_0_Layer0_0_FILL">
<path fill="#333333" fill-opacity="0.24705882352941178" stroke="none" d="
M 19.85 2
Q 19.7 1.25 19.25 0.85 18.65 0.4 18 0.45 17.3 0.4 16.8 0.9
L 8.6 8.15 8.2 6.95
Q 8.05 6.45 7.6 6.1 7.15 5.7 6.6 5.7 6.05 5.65 5.5 5.9 5.05 6.2 4.85 6.75
L -0.8 18.8
Q -1.15 19.35 -0.95 20.05 -0.8 20.6 -0.2 21.1 0.25 21.45 0.9 21.45 1.6 21.4 2.05 20.95
L 7.45 16.2 7.65 16.7
Q 7.9 17.35 8.55 17.7 9.15 18 9.85 17.9 10.5 17.65 10.9 17.05
L 19.6 3.3
Q 19.95 2.65 19.85 2
M 18 0.9
Q 18.55 0.85 18.9 1.2 19.3 1.55 19.4 2.05 19.5 2.55 19.2 3
L 10.5 16.85
Q 10.2 17.25 9.75 17.4 9.15 17.55 8.7 17.3 8.25 17 8.15 16.55
L 7.65 15.45 1.8 20.6
Q 1.35 20.95 0.9 20.95 0.45 20.95 0.05 20.7 -0.3 20.4 -0.45 19.9 -0.6 19.45 -0.35 19.05
L 5.2 6.95
Q 5.4 6.5 5.8 6.35 6.1 6.1 6.55 6.15 7 6.2 7.3 6.45 7.65 6.7 7.8 7.1
L 8.35 8.9 17.1 1.2
Q 17.5 0.9 18 0.9 Z"/>

<path fill="#333333" fill-opacity="0.4980392156862745" stroke="none" d="
M 18.9 1.2
Q 18.55 0.85 18 0.9 17.5 0.9 17.1 1.2
L 8.35 8.9 7.8 7.1
Q 7.65 6.7 7.3 6.45 7 6.2 6.55 6.15 6.1 6.1 5.8 6.35 5.4 6.5 5.2 6.95
L -0.35 19.05
Q -0.6 19.45 -0.45 19.9 -0.3 20.4 0.05 20.7 0.45 20.95 0.9 20.95 1.35 20.95 1.8 20.6
L 7.65 15.45 8.15 16.55
Q 8.25 17 8.7 17.3 9.15 17.55 9.75 17.4 10.2 17.25 10.5 16.85
L 19.2 3
Q 19.5 2.55 19.4 2.05 19.3 1.55 18.9 1.2
M 18.6 1.55
Q 18.85 1.8 18.95 2.15 18.95 2.4 18.8 2.75
L 10.15 16.55
Q 10 16.9 9.65 16.95 9.25 17 9 16.95 8.6 16.7 8.5 16.35
L 7.9 14.6 1.5 20.25
Q 1.2 20.45 0.9 20.5 0.55 20.5 0.3 20.25 0.05 20.1 -0.1 19.8 -0.15 19.45 0.05 19.15
L 5.7 7.15
Q 5.8 6.85 6.05 6.75 6.2 6.55 6.5 6.55 6.8 6.55 7.1 6.8 7.2 6.95 7.3 7.25
L 8.15 9.7 17.45 1.55
Q 17.65 1.3 18 1.3 18.35 1.3 18.6 1.55 Z"/>

<path fill="#333333" fill-opacity="0.7333333333333333" stroke="none" d="
M 18.95 2.15
Q 18.85 1.8 18.6 1.55 18.35 1.3 18 1.3 17.65 1.3 17.45 1.55
L 8.15 9.7 7.3 7.25
Q 7.2 6.95 7.1 6.8 6.8 6.55 6.5 6.55 6.2 6.55 6.05 6.75 5.8 6.85 5.7 7.15
L 0.05 19.15
Q -0.15 19.45 -0.1 19.8 0.05 20.1 0.3 20.25 0.55 20.5 0.9 20.5 1.2 20.45 1.5 20.25
L 7.9 14.6 8.5 16.35
Q 8.6 16.7 9 16.95 9.25 17 9.65 16.95 10 16.9 10.15 16.55
L 18.8 2.75
Q 18.95 2.4 18.95 2.15
M 18.5 2.25
Q 18.55 2.35 18.45 2.55
L 9.75 16.3
Q 9.65 16.5 9.45 16.55 9.3 16.55 9.15 16.5 9 16.4 8.95 16.25
L 8.05 13.8 1.15 19.9
Q 1 20.05 0.85 20.05 0.75 20.05 0.6 20 0.45 19.85 0.45 19.7 0.4 19.5 0.45 19.4
L 6.05 7.4
Q 6.1 7.2 6.2 7.15 6.3 7.1 6.5 7.1 6.6 7.1 6.8 7.15 6.85 7.25 6.9 7.45
L 7.95 10.6 17.75 1.95
Q 17.85 1.8 18 1.85 18.2 1.8 18.3 1.95 18.45 2 18.5 2.25 Z"/>

<path fill="#FFFF00" stroke="none" d="
M 18.45 2.55
Q 18.55 2.35 18.5 2.25 18.45 2 18.3 1.95 18.2 1.8 18 1.85 17.85 1.8 17.75 1.95
L 7.95 10.6 6.9 7.45
Q 6.85 7.25 6.8 7.15 6.6 7.1 6.5 7.1 6.3 7.1 6.2 7.15 6.1 7.2 6.05 7.4
L 0.45 19.4
Q 0.4 19.5 0.45 19.7 0.45 19.85 0.6 20 0.75 20.05 0.85 20.05 1 20.05 1.15 19.9
L 8.05 13.8 8.95 16.25
Q 9 16.4 9.15 16.5 9.3 16.55 9.45 16.55 9.65 16.5 9.75 16.3
L 18.45 2.55 Z"/>
</g>

<path id="pawn_0_Layer1_0_1_STROKES" stroke="#000000" stroke-opacity="0.6509803921568628" stroke-width="1" stroke-linejoin="round" stroke-linecap="round" fill="none" d="
M 5.4 7.3
Q 4 7.3 3 6.3 2 5.3 2 3.9 2 2.5 3 1.5 4 0.5 5.4 0.5 6.8 0.5 7.8 1.5 8.8 2.5 8.8 3.9 8.8 5.3 7.8 6.3 6.9 7.2 5.7 7.3 7.5 7.3 9 9.75 10.5 12.2 10.7 15.55 10.75 16.6 5.65 16.5 0.55 16.4 0.5 15.4 0.45 12.1 2.2 9.65 3.75 7.45 5.4 7.3 Z"/>

<path id="pawn_0_Layer1_0_2_STROKES" stroke="#FFFFFF" stroke-width="1" stroke-linejoin="round" stroke-linecap="round" fill="none" d="
M 3.7 3.95
Q 3.9 2.65 5 2.1
M 2.7 14.9
Q 3 10.65 5.4 9.1"/>

<path id="pawn_0_Layer1_0_3_STROKES" stroke="#000000" stroke-width="1" stroke-linejoin="round" stroke-linecap="round" fill="none" d="
M 5.45 7.3
L 5.4 7.3"/>

<path id="_Extra_pawnb_0_Layer1_0_1_STROKES" stroke="#000000" stroke-opacity="0.6509803921568628" stroke-width="1" stroke-linejoin="round" stroke-linecap="round" fill="none" d="
M 5.4 7.3
Q 4 7.3 3 6.3 2 5.3 2 3.9 2 2.5 3 1.5 4 0.5 5.4 0.5 6.8 0.5 7.8 1.5 8.8 2.5 8.8 3.9 8.8 5.3 7.8 6.3 6.9 7.2 5.7 7.3 7.5 7.3 9 9.75 10.5 12.2 10.7 15.55 10.75 16.6 5.65 16.5 0.55 16.4 0.5 15.4 0.45 12.1 2.2 9.65 3.75 7.45 5.4 7.3 Z"/>

<path id="_Extra_pawnb_0_Layer1_0_2_STROKES" stroke="#FFFFFF" stroke-width="1" stroke-linejoin="round" stroke-linecap="round" fill="none" d="
M 3.7 3.95
Q 3.9 2.65 5 2.1
M 2.7 14.9
Q 3 10.65 5.4 9.1"/>

<path id="_Extra_pawnb_0_Layer1_0_3_STROKES" stroke="#000000" stroke-width="1" stroke-linejoin="round" stroke-linecap="round" fill="none" d="
M 5.45 7.3
L 5.4 7.3"/>

<path id="_Extra_pawnr_0_Layer1_0_1_STROKES" stroke="#000000" stroke-opacity="0.6509803921568628" stroke-width="1" stroke-linejoin="round" stroke-linecap="round" fill="none" d="
M 5.4 7.3
Q 4 7.3 3 6.3 2 5.3 2 3.9 2 2.5 3 1.5 4 0.5 5.4 0.5 6.8 0.5 7.8 1.5 8.8 2.5 8.8 3.9 8.8 5.3 7.8 6.3 6.9 7.2 5.7 7.3 7.5 7.3 9 9.75 10.5 12.2 10.7 15.55 10.75 16.6 5.65 16.5 0.55 16.4 0.5 15.4 0.45 12.1 2.2 9.65 3.75 7.45 5.4 7.3 Z"/>

<path id="_Extra_pawnr_0_Layer1_0_2_STROKES" stroke="#FFFFFF" stroke-width="1" stroke-linejoin="round" stroke-linecap="round" fill="none" d="
M 3.7 3.95
Q 3.9 2.65 5 2.1
M 2.7 14.9
Q 3 10.65 5.4 9.1"/>

<path id="_Extra_pawnr_0_Layer1_0_3_STROKES" stroke="#000000" stroke-width="1" stroke-linejoin="round" stroke-linecap="round" fill="none" d="
M 5.45 7.3
L 5.4 7.3"/>

<path id="_Extra_pawng_0_Layer1_0_1_STROKES" stroke="#000000" stroke-opacity="0.6509803921568628" stroke-width="1" stroke-linejoin="round" stroke-linecap="round" fill="none" d="
M 5.4 7.3
Q 4 7.3 3 6.3 2 5.3 2 3.9 2 2.5 3 1.5 4 0.5 5.4 0.5 6.8 0.5 7.8 1.5 8.8 2.5 8.8 3.9 8.8 5.3 7.8 6.3 6.9 7.2 5.7 7.3 7.5 7.3 9 9.75 10.5 12.2 10.7 15.55 10.75 16.6 5.65 16.5 0.55 16.4 0.5 15.4 0.45 12.1 2.2 9.65 3.75 7.45 5.4 7.3 Z"/>

<path id="_Extra_pawng_0_Layer1_0_2_STROKES" stroke="#FFFFFF" stroke-width="1" stroke-linejoin="round" stroke-linecap="round" fill="none" d="
M 3.7 3.95
Q 3.9 2.65 5 2.1
M 2.7 14.9
Q 3 10.65 5.4 9.1"/>

<path id="_Extra_pawng_0_Layer1_0_3_STROKES" stroke="#000000" stroke-width="1" stroke-linejoin="round" stroke-linecap="round" fill="none" d="
M 5.45 7.3
L 5.4 7.3"/>
</defs>

<g transform="matrix( 1, 0, 0, 1, 9.35,7.35) ">
<g transform="matrix( 1, 0, 0, 1, 0,0) ">
<g transform="matrix( 1.233154296875, 0, 0, 1.233154296875, 4.6,-0.6) ">
<g id="col0" transform="matrix( 1, 0, 0, 1, 0.5,0.5) ">
<g transform="matrix( 1, 0, 0, 1, 0,0) ">
<use xlink:href="#_Extra__Chatter_ChatterB_0_Layer0_0_FILL"/>
</g>
</g>

<g transform="matrix( 1, 0, 0, 1, 0,0) ">
<use xlink:href="#pawn_0_Layer1_0_FILL"/>

<use xlink:href="#pawn_0_Layer1_0_1_STROKES"/>

<use xlink:href="#pawn_0_Layer1_0_2_STROKES"/>

<use xlink:href="#pawn_0_Layer1_0_3_STROKES"/>
</g>
</g>

<g transform="matrix( 1.233154296875, 0, 0, 1.233154296875, -0.6,3) ">
<g transform="matrix( 1, 0, 0, 1, 0,0) ">
<use xlink:href="#_Extra_pawnb_0_Layer2_0_FILL"/>
</g>

<g transform="matrix( 1, 0, 0, 1, 0,0) ">
<use xlink:href="#_Extra_pawnb_0_Layer1_0_FILL"/>

<use xlink:href="#_Extra_pawnb_0_Layer1_0_1_STROKES"/>

<use xlink:href="#_Extra_pawnb_0_Layer1_0_2_STROKES"/>

<use xlink:href="#_Extra_pawnb_0_Layer1_0_3_STROKES"/>
</g>
</g>

<g transform="matrix( 1.233154296875, 0, 0, 1.233154296875, 9.9,3) ">
<g transform="matrix( 1, 0, 0, 1, 0,0) ">
<use xlink:href="#_Extra_pawnr_0_Layer2_0_FILL"/>
</g>

<g transform="matrix( 1, 0, 0, 1, 0,0) ">
<use xlink:href="#_Extra_pawnr_0_Layer1_0_FILL"/>

<use xlink:href="#_Extra_pawnr_0_Layer1_0_1_STROKES"/>

<use xlink:href="#_Extra_pawnr_0_Layer1_0_2_STROKES"/>

<use xlink:href="#_Extra_pawnr_0_Layer1_0_3_STROKES"/>
</g>
</g>

<g transform="matrix( 1.233154296875, 0, 0, 1.233154296875, 4.6,6.35) ">
<g transform="matrix( 1, 0, 0, 1, 0,0) ">
<use xlink:href="#_Extra_pawng_0_Layer2_0_FILL"/>
</g>

<g transform="matrix( 1, 0, 0, 1, 0,0) ">
<use xlink:href="#_Extra_pawng_0_Layer1_0_FILL"/>

<use xlink:href="#_Extra_pawng_0_Layer1_0_1_STROKES"/>

<use xlink:href="#_Extra_pawng_0_Layer1_0_2_STROKES"/>

<use xlink:href="#_Extra_pawng_0_Layer1_0_3_STROKES"/>
</g>
</g>
</g>

<g transform="matrix( 1.1063232421875, 0, 0, 1.1063232421875, 1.1,4.85) ">
<g transform="matrix( 1, 0, 0, 1, 0,0) ">
<use xlink:href="#_App_Icons_standard_0_Layer0_0_FILL"/>
</g>
</g>
</g>
</svg>
