
<svg xmlns="http://www.w3.org/2000/svg" version="1.1" xmlns:xlink="http://www.w3.org/1999/xlink" preserveAspectRatio="none" x="0px" y="0px" width="40px" height="40px" viewBox="0 0 40 40">
<defs>
<g id="_App_Icons_heart_0_Layer0_0_FILL">
<path fill="#990000" stroke="none" d="
M 12.75 23.05
Q 14.85 23.9 17.25 24.9 37.4 -0.55 26.3 -7.5 26.2 12 12.75 23.05 Z"/>

<path fill="#DF1D0E" stroke="none" d="
M 26.3 -7.5
Q 23.1 -9.6 17.1 -10.1 10.4 -9.25 9.9 -2.9 5.25 -8.5 -1.1 -5.15 -19.5 8.9 12.75 23.05 26.2 12 26.3 -7.5
M 16.6 -1.9
L 11 -5.15
Q 16.25 -10.1 22.35 -8.85 16.85 -6.75 16.6 -1.9
M 2.65 2.55
Q 0.4 9.65 10.15 16.85 2.05 16.1 -1.8 10.5 -7.05 1.7 -0.1 -1.4
L 2.65 2.55 Z"/>

<path fill="#FFFFFF" stroke="none" d="
M 10.15 16.85
Q 0.4 9.65 2.65 2.55
L -0.1 -1.4
Q -7.05 1.7 -1.8 10.5 2.05 16.1 10.15 16.85
M 11 -5.15
L 16.6 -1.9
Q 16.85 -6.75 22.35 -8.85 16.25 -10.1 11 -5.15 Z"/>
</g>

<path id="_App_Icons_heart_0_Layer0_0_1_STROKES" stroke="#990000" stroke-width="1" stroke-linejoin="round" stroke-linecap="round" fill="none" d="
M 12.75 23.05
Q -19.5 8.9 -1.1 -5.15 5.25 -8.5 9.9 -2.9 10.4 -9.25 17.1 -10.1 23.1 -9.6 26.3 -7.5 37.4 -0.55 17.25 24.9 14.85 23.9 12.75 23.05 Z"/>
</defs>

<g transform="matrix( 1, 0, 0, 1, 8.85,12.7) ">
<g transform="matrix( 1, 0, 0, 1, 0,0) ">
<use xlink:href="#_App_Icons_heart_0_Layer0_0_FILL"/>

<use xlink:href="#_App_Icons_heart_0_Layer0_0_1_STROKES"/>
</g>
</g>
</svg>
