
<svg xmlns="http://www.w3.org/2000/svg" version="1.1" xmlns:xlink="http://www.w3.org/1999/xlink" preserveAspectRatio="none" x="0px" y="0px" width="40px" height="40px" viewBox="0 0 40 40">
<defs>
<g id="Layer0_0_FILL">
<path fill="#FFFFFF" stroke="none" d="
M 25.05 21.2
Q 24.25 21.35 23.4 21.7 22.25 22.2 21.25 23.25 19.85 24.6 19.45 26.45 19.25 27.2 19.25 27.9 19.25 30.65 21.25 32.7 23.3 34.7 26 34.7 26.6 34.7 27.1 34.6 27.15 34.6 27.25 34.6
L 27.25 34.55 27.4 34.55
Q 27.85 34.5 28.3 34.3 29.35 34 30.25 33.2 30.25 33.1 30.3 33.1 30.55 32.95 30.8 32.7 32.4 31.05 32.7 28.9 32.75 28.4 32.75 27.9 32.75 25.15 30.8 23.25 28.8 21.15 26 21.15 25.5 21.15 25.05 21.2
M 23.3 23.75
Q 23.9 23.3 24.6 23.2 25.2 23 25.75 23 25.85 23 26 23 28.1 23 29.6 24.4 31 25.8 31 27.9 31 28.05 31 28.15 30.95 29.6 30.2 30.65
L 23.3 23.75
M 21.05 27.9
Q 21.05 27.6 21.1 27.25 21.25 25.95 22.05 24.95
L 29 31.95
Q 28.7 32.2 28.3 32.3 28.25 32.35 28.1 32.45
L 28.05 32.5 28 32.5
Q 27.3 32.8 26.5 32.85 26.25 32.85 26 32.85 24.05 32.85 22.55 31.4 21.05 29.9 21.05 27.9 Z"/>
</g>

<path id="Layer0_0_1_STROKES" stroke="#FFFFFF" stroke-width="1" stroke-linejoin="round" stroke-linecap="round" fill="none" d="
M 25.1 35.8
Q 23.2 36 19.95 35.95 11.55 35.8 11.5 34.15 11.4 28.45 14.25 24.3 16.75 20.65 19.4 20.3 17.15 20.2 15.6 18.55 13.95 16.8 13.95 14.5 13.95 12.1 15.6 10.35 17.2 8.6 19.55 8.6 21.85 8.6 23.5 10.35 25.1 12.1 25.1 14.5 25.1 16.8 23.5 18.55 21.9 20.2 19.9 20.25
L 20.8 20.4
Q 21.4 20.55 22.1 21.15
M 16.75 14.5
Q 17.1 12.4 18.9 11.35
M 15.1 33.2
Q 15.6 25.95 19.55 23.4"/>
</defs>

<g transform="matrix( 1, 0, 0, 1, 0,0) ">
<use xlink:href="#Layer0_0_FILL"/>

<use xlink:href="#Layer0_0_1_STROKES"/>
</g>
</svg>
