
<svg xmlns="http://www.w3.org/2000/svg" version="1.1" xmlns:xlink="http://www.w3.org/1999/xlink" preserveAspectRatio="none" x="0px" y="0px" width="40px" height="40px" viewBox="0 0 40 40">
<defs>
<g id="_App_Icons_kissselect_0_Layer0_0_FILL">
<path fill="#FFFFFF" stroke="none" d="
M 10.4 9.1
Q 10.65 8.95 10.8 8.75 10.95 8.55 10.95 8.25 10.95 7.8 10.6 7.5 10.3 7.25 9.75 7.25 9.15 7.25 8.85 7.5 8.55 7.8 8.55 8.25 8.55 8.5 8.65 8.75 8.8 8.95 9.1 9.1 8.75 9.25 8.6 9.5 8.45 9.8 8.45 10.1 8.45 10.7 8.85 11.05 9.2 11.3 9.75 11.3 10.35 11.3 10.7 10.95 11.05 10.65 11.05 10.05 11.05 9.75 10.9 9.5 10.7 9.2 10.4 9.1
M 10.3 10.05
Q 10.3 10.35 10.15 10.55 10 10.7 9.75 10.7 9.5 10.7 9.35 10.55 9.2 10.35 9.2 10.05 9.2 9.8 9.3 9.6 9.45 9.4 9.75 9.4 10 9.4 10.15 9.6 10.3 9.75 10.3 10.05
M 9.75 7.85
Q 9.95 7.85 10.1 7.95 10.2 8.1 10.2 8.3 10.2 8.55 10.1 8.65 9.95 8.8 9.75 8.8 9.5 8.8 9.4 8.65 9.25 8.55 9.25 8.3 9.25 8.1 9.4 7.95 9.5 7.85 9.75 7.85 Z"/>
</g>

<path id="_App_Icons_kissselect_0_Layer0_0_1_STROKES" stroke="#FFFFFF" stroke-width="1" stroke-linejoin="round" stroke-linecap="round" fill="none" d="
M 14.25 9.5
Q 14.25 11.45 12.85 12.85 11.45 14.25 9.5 14.25 7.55 14.25 6.15 12.85 4.75 11.45 4.75 9.5 4.75 7.55 6.15 6.15 7.55 4.75 9.5 4.75 11.45 4.75 12.85 6.15 14.25 7.55 14.25 9.5 Z
M 19 9.5
Q 19 13.45 16.25 16.2 13.45 19 9.5 19 5.6 19 2.8 16.2 0 13.45 0 9.5 0 5.55 2.8 2.8 5.6 0 9.5 0 13.45 0 16.25 2.8 19 5.55 19 9.5 Z"/>
</defs>

<g transform="matrix( 1.5, 0, 0, 1.5, 5.75,5.75) ">
<g transform="matrix( 1, 0, 0, 1, 0,0) ">
<use xlink:href="#_App_Icons_kissselect_0_Layer0_0_FILL"/>

<use xlink:href="#_App_Icons_kissselect_0_Layer0_0_1_STROKES"/>
</g>
</g>
</svg>
