
<svg xmlns="http://www.w3.org/2000/svg" version="1.1" xmlns:xlink="http://www.w3.org/1999/xlink" preserveAspectRatio="none" x="0px" y="0px" width="11px" height="14px" viewBox="0 0 11 14">
<defs>
<linearGradient id="Gradient_1" gradientUnits="userSpaceOnUse" x1="0.46249999999999947" y1="9.8" x2="9.6375" y2="9.8" spreadMethod="pad">
<stop  offset="6.2745098039215685%" stop-color="#FFFFFF" stop-opacity="0.8470588235294118"/>

<stop  offset="37.64705882352941%" stop-color="#FF9900"/>
</linearGradient>
</defs>

<g id="Capa_1">
<g transform="matrix( 1.083038330078125, 0, 0, 1.0659942626953125, 0,0) ">
<g id="lock_svg">
<g transform="matrix( 1, 0, 0, 1, 0,0) ">
<g>
<g>
<path fill="#666666" stroke="none" d="
M 6.95 2.85
Q 7.716796875 3.6287109375 7.75 4.75
L 7.8 7.1
Q 7.803515625 7.5107421875 8.1 7.8 8.3892578125 8.096484375 8.8 8.1 9.2107421875 8.096484375 9.5 7.8 9.796484375 7.5107421875 9.8 7.1
L 9.75 4.7
Q 9.6830078125 2.7708984375 8.35 1.45 6.8939453125 -0.0130859375 5.05 0 3.10859375 -0.0064453125 1.75 1.45
L 1.75 1.5
Q 0.361328125 2.689453125 0.35 4.75
L 0.35 7.1
Q 0.353515625 7.5107421875 0.65 7.8 0.9392578125 8.096484375 1.35 8.1 1.7607421875 8.096484375 2.05 7.8 2.346484375 7.5107421875 2.35 7.1
L 2.35 4.75
Q 2.338671875 3.610546875 3.15 2.9 3.2017578125 2.8630859375 3.25 2.8 3.9912109375 2.0064453125 5.05 2 6.105859375 2.012890625 6.95 2.85 Z"/>
</g>
</g>
</g>

<g transform="matrix( 1, 0, 0, 1, 0,0) ">
<g>
<g>
<path fill="url(#Gradient_1)" stroke="none" d="
M 0.5 6.9
L 0.5 12.65 9.65 12.65 9.65 6.9 0.5 6.9 Z"/>
</g>
</g>
</g>

<g transform="matrix( 1, 0, 0, 1, 0,0) ">
<g>
<path stroke="#FF9900" stroke-width="1" stroke-linejoin="round" stroke-linecap="round" fill="none" d="
M 0.5 9.8
L 9.65 9.8"/>
</g>
</g>

<g transform="matrix( 1, 0, 0, 1, 0.1,0.15) ">
<g>
<path stroke="#FFFFFF" stroke-opacity="0.6470588235294118" stroke-width="1" stroke-linejoin="round" stroke-linecap="round" fill="none" d="
M 1.35 3.65
Q 1.6 2.5 2.35 1.8 3.5 0.65 5 0.65"/>
</g>
</g>

<g transform="matrix( 1, 0, 0, 1, 0,0) ">
<g>
<g>
<path fill="#333333" fill-opacity="0.7490196078431373" stroke="none" d="
M 0.15 6.55
Q 0.0017578125 6.6947265625 0 6.9
L 0 12.65
Q 0.0017578125 12.8552734375 0.15 13 0.2947265625 13.1482421875 0.5 13.15
L 9.65 13.15
Q 9.8552734375 13.1482421875 10 13 10.1482421875 12.8552734375 10.15 12.65
L 10.15 6.9
Q 10.1482421875 6.6947265625 10 6.55 9.8552734375 6.4017578125 9.65 6.4
L 0.5 6.4
Q 0.2947265625 6.4017578125 0.15 6.55
M 1 12.15
L 1 7.4 9.15 7.4 9.15 12.15 1 12.15 Z"/>
</g>
</g>
</g>
</g>
</g>
</g>
</svg>
