
<svg xmlns="http://www.w3.org/2000/svg" version="1.1" xmlns:xlink="http://www.w3.org/1999/xlink" preserveAspectRatio="none" x="0px" y="0px" width="40px" height="40px" viewBox="0 0 40 40">
<defs>
<path id="_Command_Icons_makemember_0_Layer2_0_1_STROKES" stroke="#FFFFFF" stroke-width="1" stroke-linejoin="round" stroke-linecap="round" fill="none" d="
M -20.5 11.2
L -7.65 11.2 -7.65 1.45 5.2 1.45 5.2 -8.25 18.55 -8.25"/>

<path id="_Command_Icons_makemember_0_Layer0_0_1_STROKES" stroke="#FFFFFF" stroke-width="1" stroke-linejoin="round" stroke-linecap="round" fill="none" d="
M 1.85 -10.85
Q 0.8 -9.75 -0.55 -9.65 1.55 -9.65 3.25 -6.7 4.95 -3.8 5.2 0.1 5.25 1.4 -0.6 1.25 -6.45 1.2 -6.5 0 -6.55 -3.95 -4.55 -6.85 -2.8 -9.45 -0.9 -9.65 -2.5 -9.65 -3.65 -10.85 -4.8 -12.05 -4.8 -13.65 -4.8 -15.35 -3.65 -16.55 -2.5 -17.75 -0.9 -17.75 0.7 -17.75 1.85 -16.55 3 -15.35 3 -13.65 3 -12.05 1.85 -10.85 Z
M -2.8 -13.65
Q -2.6 -15.15 -1.3 -15.85
M -3.95 -0.65
Q -3.65 -5.65 -0.9 -7.5"/>
</defs>

<g transform="matrix( 0.73822021484375, 0, 0, 0.73822021484375, 20.4,20.25) ">
<g transform="matrix( 1, 0, 0, 1, 0,0) ">
<use xlink:href="#_Command_Icons_makemember_0_Layer2_0_1_STROKES"/>
</g>

<g transform="matrix( 1, 0, 0, 1, 0,0) ">
<use xlink:href="#_Command_Icons_makemember_0_Layer0_0_1_STROKES"/>
</g>
</g>
</svg>
