
<svg xmlns="http://www.w3.org/2000/svg" version="1.1" xmlns:xlink="http://www.w3.org/1999/xlink" preserveAspectRatio="none" x="0px" y="0px" width="40px" height="40px" viewBox="0 0 40 40">
<defs>
<path id="_Command_Icons_makemoderator_0_Layer2_0_1_STROKES" stroke="#FFFFFF" stroke-width="1" stroke-linejoin="round" stroke-linecap="round" fill="none" d="
M -20.5 11.2
L -7.65 11.2 -7.65 1.45 5.2 1.45 5.2 -8.25 18.55 -8.25"/>

<path id="_Command_Icons_makemoderator_0_Layer0_0_1_STROKES" stroke="#FFFFFF" stroke-width="1" stroke-linejoin="round" stroke-linecap="round" fill="none" d="
M 12.45 -27.25
Q 14.05 -27.25 15.2 -26.05 16.35 -24.85 16.35 -23.15 16.35 -21.55 15.2 -20.35 14.15 -19.25 12.8 -19.15 14.9 -19.15 16.6 -16.2 18.3 -13.3 18.55 -9.4 18.6 -8.1 12.75 -8.25 6.9 -8.3 6.85 -9.5 6.8 -13.45 8.8 -16.35 10.55 -18.95 12.45 -19.15 10.85 -19.15 9.7 -20.35 8.55 -21.55 8.55 -23.15 8.55 -24.85 9.7 -26.05 10.85 -27.25 12.45 -27.25 Z
M 9.4 -10.15
Q 9.7 -15.15 12.45 -17
M 10.55 -23.15
Q 10.75 -24.65 12.05 -25.35"/>
</defs>

<g transform="matrix( 0.73822021484375, 0, 0, 0.73822021484375, 20.4,20.25) ">
<g transform="matrix( 1, 0, 0, 1, 0,0) ">
<use xlink:href="#_Command_Icons_makemoderator_0_Layer2_0_1_STROKES"/>
</g>

<g transform="matrix( 1, 0, 0, 1, 0,0) ">
<use xlink:href="#_Command_Icons_makemoderator_0_Layer0_0_1_STROKES"/>
</g>
</g>
</svg>
