
<svg xmlns="http://www.w3.org/2000/svg" version="1.1" xmlns:xlink="http://www.w3.org/1999/xlink" preserveAspectRatio="none" x="0px" y="0px" width="40px" height="40px" viewBox="0 0 40 40">
<defs>
<path id="_Command_Icons_make_0_Layer0_0_1_STROKES" stroke="#FFFFFF" stroke-width="1" stroke-linejoin="round" stroke-linecap="round" fill="none" d="
M 38.55 -6.2
Q 38.8 -8 40.3 -8.8
M 37.6 -9.6
Q 38.9 -11 40.8 -11 42.7 -11 44 -9.6 45.35 -8.2 45.35 -6.25 45.35 -4.35 44 -2.95 42.8 -1.65 41.2 -1.55 43.65 -1.55 45.65 1.9 47.65 5.3 47.95 9.9 48 11.4 41.15 11.25 34.3 11.15 34.25 9.75 34.15 5.15 36.5 1.75 38.6 -1.3 40.8 -1.55 38.9 -1.55 37.6 -2.95 36.25 -4.35 36.25 -6.25 36.25 -8.2 37.6 -9.6 Z
M 49.3 14.3
L 33.4 14.3 31.65 13.1 51.05 13.1 49.3 14.3 Z
M 47.95 16.55
L 47.95 32.35 45.9 32.35 45.9 16.55 47.95 16.55 Z
M 48.6 16.1
L 34 16.1 32.9 15.35 49.7 15.35 48.6 16.1 Z
M 44.1 16.55
L 44.1 32.35 42.05 32.35 42.05 16.55 44.1 16.55 Z
M 40.5 32.35
L 38.45 32.35 38.45 16.55 40.5 16.55 40.5 32.35 Z
M 36.7 32.35
L 34.65 32.35 34.65 16.55 36.7 16.55 36.7 32.35 Z
M 37.2 9
Q 37.6 3.15 40.8 1"/>
</defs>

<g transform="matrix( 0.73822021484375, 0, 0, 0.73822021484375, 20.4,20.25) ">
<g transform="matrix( 1, 0, 0, 1, -41.5,-11) ">
<use xlink:href="#_Command_Icons_make_0_Layer0_0_1_STROKES"/>
</g>
</g>
</svg>
