
<svg xmlns="http://www.w3.org/2000/svg" version="1.1" xmlns:xlink="http://www.w3.org/1999/xlink" preserveAspectRatio="none" x="0px" y="0px" width="40px" height="40px" viewBox="0 0 40 40">
<defs>
<path id="_Command_Icons_make_0_Layer0_0_1_STROKES" stroke="#FFFFFF" stroke-width="1" stroke-linejoin="round" stroke-linecap="round" fill="none" d="
M 15.6 16.25
L 17.2 15.7
Q 18.05 15.4 18.4 14.5
L 18.35 11.9 19.75 9.7
Q 20 8.75 19.4 8.15
L 18.4 6.8 18.3 6.6 18.3 4
Q 17.95 3.1 17.15 2.8
L 15.5 2.25
M 4.85 2.1
L 5.85 0.75
Q 6.4 0.1 7.4 0
L 10.1 0.75 12.75 0
Q 13.8 0.1 14.3 0.75
L 15.25 2.1
M 4.7 16.25
L 3.1 15.7
Q 2.25 15.4 1.9 14.5
L 1.95 11.9 0.55 9.7
Q 0.3 8.75 0.85 8.15
L 1.9 6.6 1.85 4
Q 2.2 3.1 3 2.8
L 4.65 2.25
M 9.9 21.3
Q 10 21.3 9.25 23.4
L 7.6 27.95 5.55 25.25 2 25.95 4.85 19.3
Q 5.6 21.75 9.55 21.35
M 15.35 16.4
L 14.35 17.75
Q 13.85 18.4 12.8 18.5
L 10.15 17.75 7.5 18.5
Q 6.45 18.4 5.95 17.75
L 4.9 16.4
M 12.9 21.65
Q 15.05 21.4 15.75 19.3
L 18.55 25.95 15 25.25 13 27.95 11.4 23.7 12.9 21.65 Z"/>

<path id="_Command_Icons_make_0_Layer0_0_2_STROKES" stroke="#FFFFFF" stroke-width="1" stroke-linejoin="round" stroke-linecap="round" fill="none" d="
M 9.9 15.3
Q 6.5 15.2 6.45 14.45 6.4 11.85 7.75 9.9 8.9 8.2 10.15 8.05 9.1 8.05 8.35 7.25 7.55 6.5 7.55 5.4 7.55 4.3 8.35 3.5 8.9 2.95 9.65 2.75 9.85 2.7 10.15 2.7 10.45 2.7 10.7 2.75 11.4 2.95 11.95 3.5 12.75 4.3 12.75 5.4 12.75 6.5 11.95 7.25 11.25 8 10.35 8.05 11.8 8.05 12.9 10 14 11.95 14.2 14.55 14.25 15.2 12 15.3 11.25 15.3 10.35 15.3
M 8.85 5.4
Q 9.05 4.4 9.85 3.95
M 8.15 14
Q 8.35 10.75 10.15 9.5"/>
</defs>

<g transform="matrix( 1, 0, 0, 1, 9.9,6.55) ">
<g transform="matrix( 1, 0, 0, 1, 0,0) ">
<use xlink:href="#_Command_Icons_make_0_Layer0_0_1_STROKES"/>

<use xlink:href="#_Command_Icons_make_0_Layer0_0_2_STROKES"/>
</g>
</g>
</svg>
