
<svg xmlns="http://www.w3.org/2000/svg" version="1.1" xmlns:xlink="http://www.w3.org/1999/xlink" preserveAspectRatio="none" x="0px" y="0px" width="40px" height="40px" viewBox="0 0 40 40">
<defs>
<path id="Layer0_0_1_STROKES" stroke="#FFFFFF" stroke-width="1" stroke-linejoin="round" stroke-linecap="round" fill="none" d="
M 15.8 28
Q 14.6 28.2 13.45 28.2 12.25 28.2 11.3 28.15 8.25 31.2 4.15 31.9 6.95 29.45 7.3 26.85 6.35 26.3 5.45 25.6 2.1 23 2.1 19.35 2.1 15.65 5.45 13.15 8.7 10.6 13.45 10.6 18.15 10.6 21.5 13.15 23.65 14.75 24.2 16.6
M 30.4 18.7
Q 29.4 18.5 28.25 18.5 27.95 18.5 27.6 18.6 23.95 18.65 21.3 20.75 18.35 22.9 18.35 26.1 18.35 28 19.35 29.55 20.1 30.65 21.3 31.55 24.15 33.8 28.25 33.8 29.25 33.8 30.1 33.65 30.2 33.85 30.4 34.1 32.95 36.4 36.3 36.95 33.85 34.85 33.55 32.6 34.4 32.15 35.2 31.55 38.05 29.3 38.05 26.1 38.05 22.9 35.2 20.75 33.15 19.15 30.4 18.7 Z
M 12.4 25.7
Q 8.4 24.45 6.8 22.5 5.25 20.5 5.65 17.2
M 30.4 31.5
Q 35.55 29.15 35 24.25"/>
</defs>

<g transform="matrix( 1, 0, 0, 1, 0,0) ">
<use xlink:href="#Layer0_0_1_STROKES"/>
</g>
</svg>
