
<svg xmlns="http://www.w3.org/2000/svg" version="1.1" xmlns:xlink="http://www.w3.org/1999/xlink" preserveAspectRatio="none" x="0px" y="0px" width="19px" height="19px" viewBox="0 0 19 19">
<defs>
<linearGradient id="Gradient_1" gradientUnits="userSpaceOnUse" x1="-2.7" y1="-0.3" x2="2.7" y2="-0.3" spreadMethod="pad">
<stop  offset="0%" stop-color="#000000" stop-opacity="0"/>

<stop  offset="71.76470588235294%" stop-color="#FFFFFF" stop-opacity="0.6705882352941176"/>
</linearGradient>
</defs>

<g id="Capa_1">
<g transform="matrix( 0.4331512451171875, 0.2483062744140625, -0.2483062744140625, 0.4331512451171875, 9.5,9.4) ">
<g id="Layer_3">
<g transform="matrix( 1, 0, 0, 1, 0,0) ">
<g id="Layer_2">
<g transform="matrix( 1, 0, 0, 1, 0,0) ">
<g>
<path stroke="#666666" stroke-width="1" stroke-linejoin="round" stroke-linecap="round" fill="none" d="
M 2.7 -8.15
L 2.7 6.85 2.7 8.3 1.7 10.55 0.4 13.55 -0.25 13.55 -1.15 11.5 -2.7 6.85 -2.7 -8.15
Q -3.65 -9.7 -2.9 -11.1
L -2.65 -11.1
Q -3.65 -12.2 -2.7 -13.1 -0.1 -13.85 2.7 -13.1 3.7 -12.25 2.65 -11.1
L 2.9 -11.1
Q 3.7 -9.65 2.7 -8.15
L -2.7 -8.15
M -2.7 6.85
Q -1.6 6.1 -1.05 7.6 0.1 6.95 1.2 7.6 1.2 6.3 2.7 6.85
M -1.15 11.5
Q -0.2 9.95 1.7 10.55
M 2.65 -11.1
L -2.65 -11.1"/>
</g>
</g>
</g>

<g id="Layer_1">
<g transform="matrix( 1, 0, 0, 1, 0,0) ">
<g>
<g>
<path fill="#333333" stroke="none" d="
M -1.15 11.5
L -0.25 13.55 0.4 13.55 1.7 10.55
Q -0.2 9.95 -1.15 11.5 Z"/>

<path fill="#EAE9B4" stroke="none" d="
M -1.05 7.6
Q -1.6 6.1 -2.7 6.85
L -1.15 11.5
Q -0.2 9.95 1.7 10.55
L 2.7 8.3 2.7 6.85
Q 1.2 6.3 1.2 7.6 0.1 6.95 -1.05 7.6 Z"/>

<path fill="#FF3333" stroke="none" d="
M 2.65 -11.1
Q 3.7 -12.25 2.7 -13.1 -0.1 -13.85 -2.7 -13.1 -3.65 -12.2 -2.65 -11.1
L 2.65 -11.1 Z"/>

<path fill="#999999" stroke="none" d="
M 2.7 -8.15
Q 3.7 -9.65 2.9 -11.1
L 2.65 -11.1 -2.65 -11.1 -2.9 -11.1
Q -3.65 -9.7 -2.7 -8.15
L 2.7 -8.15 Z"/>
</g>
</g>
</g>
</g>
</g>
</g>

<g id="Layer_2">
<g transform="matrix( 1, 0, 0, 1, 0,-0.25) ">
<g id="Layer_1">
<g transform="matrix( 1, 0, 0, 1, 0,0) ">
<g>
<g>
<path fill="#F5B62A" stroke="none" d="
M 1.2 7.85
Q 1.2 6.55 2.7 7.1
L 2.7 -7.9 -2.7 -7.9 -2.7 7.1
Q -1.6 6.35 -1.05 7.85 0.1 7.2 1.2 7.85 Z"/>
</g>
</g>
</g>
</g>
</g>
</g>

<g id="Layer_1">
<g transform="matrix( 1, 0, 0, 1, 0,0) ">
<g>
<g>
<path fill="url(#Gradient_1)" stroke="none" d="
M 1.2 7.6
Q 1.2 6.3 2.7 6.85
L 2.7 -8.15 -2.7 -8.15 -2.7 6.85
Q -1.6 6.1 -1.05 7.6 0.1 6.95 1.2 7.6 Z"/>
</g>
</g>
</g>
</g>
</g>
</g>
</svg>
