<?xml version="1.0" encoding="utf-8"?>
<!-- Generator: Adobe Illustrator 25.1.0, SVG Export Plug-In . SVG Version: 6.00 Build 0)  -->
<svg version="1.1" id="Camada_1" xmlns="http://www.w3.org/2000/svg" xmlns:xlink="http://www.w3.org/1999/xlink" x="0px" y="0px"
	 viewBox="0 0 19 19" style="enable-background:new 0 0 19 19;" xml:space="preserve">
<style type="text/css">
	.st0{fill:#D00912;}
	.st1{fill:#9A0912;fill-opacity:0.1765;}
	.st2{fill:#480912;fill-opacity:0.6;}
	.st3{fill:#FFFFFF;}
	.st4{fill:none;stroke:#999999;stroke-width:1.0002;stroke-linecap:round;stroke-linejoin:round;stroke-miterlimit:4.001;stroke-opacity:0.6471;}
	.st5{fill:none;stroke:#FFFFFF;stroke-width:1.0002;stroke-linecap:round;stroke-linejoin:round;stroke-miterlimit:4.001;}
</style>
<g transform="matrix( 1.000244140625, 0, 0, 1.000244140625, 370.8,-105.4) ">
	<g transform="matrix( 1, 0, 0, 1, 0,0) ">
		<g>
			<g id="C_pia_de_Symbol_11_2_0_Layer5_0_FILL_1_">
				<path class="st0" d="M-362,105.3c-1.6,0.1-3.1,0.6-4.4,1.5l-1.5,1.2l-0.6,0.7c-1.5,1.7-2.2,3.8-2.2,6.1c0,2.6,0.9,4.8,2.8,6.7
					c0,0,0.1,0.1,0.2,0.1c1.3,1.2,2.7,2,4.3,2.4c0.7,0.2,1.4,0.2,2.2,0.2c0.7,0,1.5-0.1,2.1-0.2c1.7-0.4,3.2-1.2,4.6-2.5
					c1.9-1.9,2.8-4.1,2.8-6.7c0-2.1-0.6-4-1.9-5.7c-0.3-0.4-0.6-0.7-0.9-1.1l-1.4-1.1c-1.6-1.1-3.4-1.7-5.4-1.7H-362z"/>
			</g>
		</g>
	</g>
	<g transform="matrix( 1, 0, 0, 1, 0,0) ">
		<g>
			<g id="C_pia_de_Symbol_11_2_0_Layer4_0_FILL_1_">
				<path class="st1" d="M-353.6,109.1c-0.3-0.4-0.6-0.7-0.9-1.1c1.6,13.3-3.5,16.8-15.4,10.6c0.5,1,1.1,2,2,2.9
					c0,0,0.1,0.1,0.2,0.1c1.3,1.2,2.7,2,4.4,2.4c0.7,0.2,1.4,0.2,2.1,0.2c0.7,0,1.5-0.1,2.1-0.2c1.7-0.4,3.2-1.2,4.6-2.5
					c1.9-1.9,2.8-4.1,2.8-6.7C-351.7,112.7-352.3,110.8-353.6,109.1z"/>
			</g>
		</g>
	</g>
	<g transform="matrix( 1, 0, 0, 1, 0,0) ">
		<g>
			<g id="C_pia_de_Symbol_11_2_0_Layer3_0_FILL_1_">
				<path class="st2" d="M-364.3,118.6l8.8-3.7l-8.8-1.6V118.6z"/>
			</g>
		</g>
	</g>
	<g transform="matrix( 1, 0, 0, 1, 0,0) ">
		<g>
			<g id="C_pia_de_Symbol_11_2_0_Layer2_0_FILL_1_">
				<path class="st3" d="M-363.7,117.4l7.2-3.2l-7.2-2.2V117.4z"/>
			</g>
		</g>
	</g>
	<g transform="matrix( 1, 0, 0, 1, 0,0) ">
		<g>
			<path id="C_pia_de_Symbol_11_2_0_Layer1_0_1_STROKES_1_" class="st4" d="M-368.3,107.1c4.9,4.9,9.7,10,14.2,15.5"/>
		</g>
	</g>
	<g transform="matrix( 1, 0, 0, 1, 0,0) ">
		<g>
			<path id="C_pia_de_Symbol_11_2_0_Layer0_0_1_STROKES_1_" class="st5" d="M-353.4,121.6l-0.4,0.4l-14.2-15.5l0.4-0.5L-353.4,121.6
				z"/>
		</g>
	</g>
</g>
</svg>
