
<svg xmlns="http://www.w3.org/2000/svg" version="1.1" xmlns:xlink="http://www.w3.org/1999/xlink" preserveAspectRatio="none" x="0px" y="0px" width="40px" height="40px" viewBox="0 0 40 40">
<defs>
<g id="_App_Icons_plus_0_Layer0_0_FILL">
<path fill="#ffffff" stroke="none" d="
M 23.8 -6.3
L 9.8 -6.3 9.8 -20.1 -0.55 -20.1 -0.55 -6.3 -14.2 -6.3 -14.2 4.05 -0.55 4.05 -0.55 17.9 9.8 17.9 9.8 4.05 23.8 4.05 23.8 -6.3 Z"/>
</g>

<path id="_App_Icons_plus_0_Layer0_0_1_STROKES" stroke="#666666" stroke-width="1" stroke-linejoin="round" stroke-linecap="round" fill="none" d="
M 23.8 -6.3
L 23.8 4.05 9.8 4.05 9.8 17.9 -0.55 17.9 -0.55 4.05 -14.2 4.05 -14.2 -6.3 -0.55 -6.3 -0.55 -20.1 9.8 -20.1 9.8 -6.3 23.8 -6.3 Z"/>
</defs>

<g transform="matrix( 1, 0, 0, 1, 15.25,21.1) ">
<g transform="matrix( 1, 0, 0, 1, 0,0) ">
<use xlink:href="#_App_Icons_plus_0_Layer0_0_FILL"/>

<use xlink:href="#_App_Icons_plus_0_Layer0_0_1_STROKES"/>
</g>
</g>
</svg>
