
<svg xmlns="http://www.w3.org/2000/svg" version="1.1" xmlns:xlink="http://www.w3.org/1999/xlink" preserveAspectRatio="none" x="0px" y="0px" width="40px" height="40px" viewBox="0 0 40 40">
<defs>
<g id="_App_Icons_popularIcon_0_Layer2_0_FILL">
<path fill="#FFCC00" stroke="none" d="
M 15.3 -12.55
Q 15.3 -18.55 9.7 -22.9 4.2 -27.1 -3.7 -27.1 -4.55 -27.1 -5.7 -27 -12.15 -26.55 -17.1 -22.9 -22.7 -18.55 -22.7 -12.55 -22.7 -6.35 -17.1 -2.15 -15.5 -0.95 -13.85 0 -14.35 4.2 -19.2 8.3 -12.15 7.25 -7.2 2 -5.5 2.2 -3.7 2.2 4.2 2.2 9.7 -2.15 11.7 -3.6 13 -5.5 15.3 -8.65 15.3 -12.55 Z"/>
</g>

<g id="_App_Icons_popularIcon_0_Layer0_0_FILL">
<path fill="#FFFFFF" stroke="none" d="
M 2.55 -4.25
L 1.15 -10.75 5.9 -15.5 -0.75 -16.15 -3.8 -22.15 -6.45 -16.05 -13.1 -15.1 -8.15 -10.55 -9.2 -3.9 -3.4 -7.3 2.55 -4.25 Z"/>
</g>

<path id="_App_Icons_popularIcon_0_Layer1_0_1_STROKES" stroke="#FFFFFF" stroke-opacity="0.45098039215686275" stroke-width="1" stroke-linejoin="round" stroke-linecap="round" fill="none" d="
M 9.05 -18.55
Q -3.9 -28.35 -16.6 -18.8"/>

<path id="_App_Icons_popularIcon_0_Layer1_0_2_STROKES" stroke="#CD8F42" stroke-width="1" stroke-linejoin="round" stroke-linecap="round" fill="none" d="
M 9.7 -22.9
Q 4.2 -27.1 -3.7 -27.1 -4.55 -27.1 -5.7 -27 -12.15 -26.55 -17.1 -22.9 -22.7 -18.55 -22.7 -12.55 -22.7 -6.35 -17.1 -2.15 -15.5 -0.95 -13.85 0 -14.35 4.2 -19.2 8.3 -12.15 7.25 -7.2 2 -5.5 2.2 -3.7 2.2 4.2 2.2 9.7 -2.15 11.7 -3.6 13 -5.5 15.3 -8.65 15.3 -12.55 15.3 -18.55 9.7 -22.9 Z"/>
</defs>

<g transform="matrix( 1, 0, 0, 1, 23.75,29.5) ">
<g transform="matrix( 1, 0, 0, 1, 0,0) ">
<use xlink:href="#_App_Icons_popularIcon_0_Layer2_0_FILL"/>
</g>

<g transform="matrix( 1, 0, 0, 1, 0,0) ">
<use xlink:href="#_App_Icons_popularIcon_0_Layer1_0_1_STROKES"/>

<use xlink:href="#_App_Icons_popularIcon_0_Layer1_0_2_STROKES"/>
</g>

<g transform="matrix( 1, 0, 0, 1, 0,0) ">
<use xlink:href="#_App_Icons_popularIcon_0_Layer0_0_FILL"/>
</g>
</g>
</svg>
