
<svg xmlns="http://www.w3.org/2000/svg" version="1.1" xmlns:xlink="http://www.w3.org/1999/xlink" preserveAspectRatio="none" x="0px" y="0px" width="40px" height="40px" viewBox="0 0 40 40">
<defs>
<path id="_App_Icons_powerselect_0_Layer0_0_1_STROKES" stroke="#000000" stroke-width="1" stroke-linejoin="round" stroke-linecap="round" fill="none" d="
M 25.7 0
Q 26.2 0 26.55 0.35 26.9 0.7 27.05 1.2 27.05 1.55 26.85 2.05
L 14.55 21.65
Q 14.35 22.15 13.85 22.2 13.3 22.3 12.95 22.2 12.35 21.85 12.2 21.35
L 11.35 18.9 2.3 26.9
Q 1.85 27.2 1.45 27.25 0.95 27.25 0.6 26.9 0.2 26.7 0 26.25 -0.05 25.75 0.2 25.35
L 8.25 8.3
Q 8.4 7.9 8.75 7.75 8.95 7.45 9.4 7.45 9.8 7.45 10.25 7.8 10.4 8 10.5 8.45
L 11.7 11.95 24.95 0.35
Q 25.2 0 25.7 0 Z"/>
</defs>

<g transform="matrix( 1, 0, 0, 1, 7.6,5.45) ">
<g transform="matrix( 1, 0, 0, 1, 0,0) ">
<use xlink:href="#_App_Icons_powerselect_0_Layer0_0_1_STROKES"/>
</g>
</g>
</svg>
