
<svg xmlns="http://www.w3.org/2000/svg" version="1.1" xmlns:xlink="http://www.w3.org/1999/xlink" preserveAspectRatio="none" x="0px" y="0px" width="40px" height="40px" viewBox="0 0 40 40">
<defs>
<g id="_App_Icons_PrivateCIcon_0_Layer0_0_FILL">
<path fill="#0099FF" stroke="none" d="
M 5.9 -17.05
Q 6.55 -17.05 7.4 -16.95 6.35 -18.35 4.9 -19.5 0.9 -22.55 -4.7 -22.55 -10.4 -22.55 -14.4 -19.5 -18.4 -16.4 -18.4 -12.05 -18.4 -7.55 -14.4 -4.5 -13.35 -3.65 -12.05 -3 -12.55 0.1 -16 3.05 -10.95 2.3 -7.3 -1.5 -6.75 -1.5 -6.1 -1.4 -7.8 -3.75 -7.8 -6.55 -7.8 -10.9 -3.8 -14 0.25 -17.05 5.9 -17.05
M -12.45 -18.35
Q -4.8 -22.2 2.55 -18.35 -4.8 -22.2 -12.45 -18.35 Z"/>

<path fill="#FFCC00" stroke="none" d="
M 7.4 -16.95
Q 6.55 -17.05 5.9 -17.05 0.25 -17.05 -3.8 -14 -7.8 -10.9 -7.8 -6.55 -7.8 -3.75 -6.1 -1.4 -5.15 -0.1 -3.8 1 0.25 4.1 5.9 4.1 7.2 4.1 8.4 4 12.05 7.8 17.1 8.55 13.65 5.55 13.25 2.5 14.5 1.85 15.6 1 19.6 -2.05 19.6 -6.55 19.6 -10.9 15.6 -14 12.05 -16.7 7.4 -16.95
M -3.3 -10.9
Q 6.1 -18 15.2 -11 6.1 -18 -3.3 -10.9 Z"/>
</g>

<path id="_App_Icons_PrivateCIcon_0_Layer0_0_1_STROKES" stroke="#515151" stroke-opacity="0.6509803921568628" stroke-width="1" stroke-linejoin="round" stroke-linecap="round" fill="none" d="
M 7.4 -16.95
Q 6.55 -17.05 5.9 -17.05 0.25 -17.05 -3.8 -14 -7.8 -10.9 -7.8 -6.55 -7.8 -3.75 -6.1 -1.4 -5.15 -0.1 -3.8 1 0.25 4.1 5.9 4.1 7.2 4.1 8.4 4 12.05 7.8 17.1 8.55 13.65 5.55 13.25 2.5 14.5 1.85 15.6 1 19.6 -2.05 19.6 -6.55 19.6 -10.9 15.6 -14 12.05 -16.7 7.4 -16.95 6.35 -18.35 4.9 -19.5 0.9 -22.55 -4.7 -22.55 -10.4 -22.55 -14.4 -19.5 -18.4 -16.4 -18.4 -12.05 -18.4 -7.55 -14.4 -4.5 -13.35 -3.65 -12.05 -3 -12.55 0.1 -16 3.05 -10.95 2.3 -7.3 -1.5 -6.75 -1.5 -6.1 -1.4"/>

<path id="_App_Icons_PrivateCIcon_0_Layer0_0_2_STROKES" stroke="#FFFFFF" stroke-opacity="0.5607843137254902" stroke-width="1" stroke-linejoin="round" stroke-linecap="round" fill="none" d="
M -12.45 -18.35
Q -4.8 -22.2 2.55 -18.35
M -3.3 -10.9
Q 6.1 -18 15.2 -11"/>
</defs>

<g transform="matrix( 1, 0, 0, 1, 19.5,27.5) ">
<g transform="matrix( 1, 0, 0, 1, 0,0) ">
<use xlink:href="#_App_Icons_PrivateCIcon_0_Layer0_0_FILL"/>

<use xlink:href="#_App_Icons_PrivateCIcon_0_Layer0_0_1_STROKES"/>

<use xlink:href="#_App_Icons_PrivateCIcon_0_Layer0_0_2_STROKES"/>
</g>
</g>
</svg>
