
<svg xmlns="http://www.w3.org/2000/svg" version="1.1" xmlns:xlink="http://www.w3.org/1999/xlink" preserveAspectRatio="none" x="0px" y="0px" width="20px" height="20px" viewBox="0 0 20 20">
<defs>
<linearGradient id="Gradient_1" gradientUnits="userSpaceOnUse" x1="-8.881784197001252e-16" y1="9.1" x2="9.2" y2="9.1" spreadMethod="pad">
<stop  offset="0.7843137254901961%" stop-color="#FFFFFF"/>

<stop  offset="51.76470588235294%" stop-color="#FF9900"/>

<stop  offset="100%" stop-color="#FFFFFF"/>
</linearGradient>

<filter id="Filter_1" x="-20%" y="-20%" width="140%" height="140%" color-interpolation-filters="sRGB">
<feColorMatrix in="SourceGraphic" type="matrix" values="1 0 0 0 0 0 1 0 0 0 0 0 1 0 0 0 0 0 0 0" result="result1"/>
</filter>

<g id="symbol_0_Layer2_0_FILL">
<path fill="#DEDEDE" stroke="none" d="
M 78.4 -42.65
Q 49.45 -36.3 24.2 -25.8 2.1 -15.8 -16.3 -2.1 -30 8.4 -42.1 20.55 -63.15 43.7 -78.4 73.7
L -78.4 78.95
Q -78.4 87.35 -70 87.35
L 69.45 87.35
Q 78.4 87.35 78.4 78.95
L 78.4 -42.65 Z"/>

<path fill="#FFFFFF" stroke="none" d="
M 77.35 -58.95
L 54.2 -58.95
Q 46.85 -62.65 46.85 -67.9
L 46.85 -87.35 -70 -87.35
Q -78.4 -87.35 -78.4 -78.95
L -78.4 73.7
Q -63.15 43.7 -42.1 20.55 -30 8.4 -16.3 -2.1 2.1 -15.8 24.2 -25.8 49.45 -36.3 78.4 -42.65
L 78.4 -58.4 77.35 -58.95 Z"/>

<path fill="#CBCBCB" stroke="none" d="
M 77.35 -58.95
L 51.6 -87.35 46.85 -87.35 46.85 -67.9
Q 46.85 -62.65 54.2 -58.95
L 77.35 -58.95 Z"/>
</g>

<g id="icons_lock_0_Layer3_0_FILL">
<path fill="url(#Gradient_1)" stroke="none" d="
M 0 12
L 9.2 12 9.2 6.25 0 6.25 0 12 Z"/>
</g>

<g id="icons_PadBody_0_Layer0_0_FILL">
<path fill="#00FF00" stroke="none" d="
M 8.2 0
L 0 0 0 4.75 8.2 4.75 8.2 0 Z"/>
</g>

<path id="symbol_0_Layer2_0_1_STROKES" stroke="#444444" stroke-opacity="0.45098039215686275" stroke-width="8" stroke-linejoin="round" stroke-linecap="round" fill="none" d="
M 46.85 -87.35
L 51.6 -87.35 77.35 -58.95 78.4 -58.95 78.4 -58.4 78.4 -42.65 78.4 78.95
Q 78.4 87.35 69.45 87.35
L -70 87.35
Q -78.4 87.35 -78.4 78.95
L -78.4 73.7 -78.4 -78.95
Q -78.4 -87.35 -70 -87.35
L 46.85 -87.35 46.85 -67.9
Q 46.85 -62.65 54.2 -58.95
L 77.35 -58.95 78.4 -58.4"/>

<path id="symbol_0_Layer1_0_1_STROKES" stroke="#3399FF" stroke-width="8" stroke-linejoin="round" stroke-linecap="round" fill="none" d="
M -60.55 -49.45
L -6.3 -49.45
M -60.55 -3.7
L -12.1 -3.7
M -60.55 -18.95
L 13.7 -18.95
M -60.55 -34.75
L 13.7 -34.75"/>

<path id="icons_lock_0_Layer4_0_1_STROKES" stroke="#666666" stroke-width="2" stroke-linejoin="round" stroke-linecap="round" fill="none" d="
M 0.9 6.425
Q 0.9 4.3484375 0.9 4.025 0.9025390625 2.4994140625 1.975 1.425 3.037890625 0.3373046875 4.55 0.325 6.0740234375 0.3373046875 7.15 1.425 8.222265625 2.4994140625 8.225 4.025 8.242578125 4.3658203125 8.275 6.425"/>

<path id="icons_lock_0_Layer2_0_1_STROKES" stroke="#FF9900" stroke-width="1" stroke-linejoin="round" stroke-linecap="round" fill="none" d="
M 0 9.125
L 9.2 9.125"/>

<path id="icons_lock_0_Layer2_0_2_STROKES" stroke="#FFFFFF" stroke-width="1" stroke-linejoin="round" stroke-linecap="round" fill="none" d="
M 0.9 3
Q 1.0693359375 1.9046875 1.875 1.075 2.9505859375 -0.000390625 4.475 0 5.1857421875 -0.000390625 5.8 0.225"/>

<path id="icons_lock_0_Layer0_0_1_STROKES" stroke="#484848" stroke-width="1" stroke-linejoin="round" stroke-linecap="round" fill="none" d="
M 9.2 6.25
L 9.2 12 0 12 0 6.25 9.2 6.25 Z"/>
</defs>

<g transform="matrix( 0.0999908447265625, 0, 0, 0.0999908447265625, 9.95,9.95) ">
<g transform="matrix( 1, 0, 0, 1, 0,0) ">
<use xlink:href="#symbol_0_Layer2_0_FILL"/>

<use xlink:href="#symbol_0_Layer2_0_1_STROKES"/>
</g>

<g transform="matrix( 1, 0, 0, 1, 0,0) ">
<use xlink:href="#symbol_0_Layer1_0_1_STROKES"/>
</g>

<g transform="matrix( 6.707916259765625, 0, 0, 6.707916259765625, 4.7,-3.7) ">
<g transform="matrix( 1, 0, 0, 1, 0,0) ">
<use xlink:href="#icons_lock_0_Layer4_0_1_STROKES"/>
</g>

<g transform="matrix( 1, 0, 0, 1, 0,0) ">
<use xlink:href="#icons_lock_0_Layer3_0_FILL"/>
</g>

<g transform="matrix( 1, 0, 0, 1, 0,0) ">
<use xlink:href="#icons_lock_0_Layer2_0_1_STROKES"/>

<use xlink:href="#icons_lock_0_Layer2_0_2_STROKES"/>
</g>

<g id="back" transform="matrix( 1.136810302734375, 0, 0, 1.2127685546875, -0.1,6.25) ">
<g transform="matrix( 1, 0, 0, 1, 0,0) ">
<use filter="url(#Filter_1)" xlink:href="#icons_PadBody_0_Layer0_0_FILL"/>
</g>
</g>

<g transform="matrix( 1, 0, 0, 1, 0,0) ">
<use xlink:href="#icons_lock_0_Layer0_0_1_STROKES"/>
</g>
</g>
</g>
</svg>
