
<svg xmlns="http://www.w3.org/2000/svg" version="1.1" xmlns:xlink="http://www.w3.org/1999/xlink" preserveAspectRatio="none" x="0px" y="0px" width="20px" height="20px" viewBox="0 0 20 20">
<defs>
<g id="symbol_0_Layer0_0_FILL">
<path fill="#E6E6E6" stroke="none" d="
M 45.1 138.55
L 40.6 111.9 23.7 118.1 33.65 141.75 45.1 138.55 Z"/>

<path fill="#D9D9D9" stroke="none" d="
M 50.75 102.15
L 52.6 107.75
Q 91.3 98.4 141.6 120.35
L 126.6 78.3 50.75 102.15 Z"/>

<path fill="#EB373B" stroke="none" d="
M 41.35 76.4
L 3.4 90.5
Q -6.7 110 13.2 122.05
L 23.7 118.1 40.6 111.9 49.05 108.7
Q 50.9 108.35 52.6 107.75
L 50.75 102.15 41.35 76.4 Z"/>

<path fill="#EBEBEB" stroke="none" d="
M 126.6 78.3
L 104.25 16.5
Q 85.45 52 48.5 73.8
L 41.35 76.4 50.75 102.15 126.6 78.3 Z"/>
</g>

<path id="symbol_0_Layer0_0_1_STROKES" stroke="#000000" stroke-width="4" stroke-linejoin="round" stroke-linecap="round" fill="none" d="
M 126 24.8
L 128.45 0
M 138.8 43.75
L 159.65 20.1
M 146.1 60.85
L 186.5 49
M 149.1 79.4
L 179.55 88.25
M 148.55 102.5
L 163.95 122.05"/>

<path id="symbol_0_Layer0_0_2_STROKES" stroke="#333333" stroke-width="4" stroke-linejoin="round" stroke-linecap="round" fill="none" d="
M 41.35 76.4
L 48.5 73.8
Q 85.45 52 104.25 16.5
L 126.6 78.3 141.6 120.35
Q 91.3 98.4 52.6 107.75 50.9 108.35 49.05 108.7
L 40.6 111.9 45.1 138.55 33.65 141.75 23.7 118.1 13.2 122.05
Q -6.7 110 3.4 90.5
L 41.35 76.4 Z
M 23.7 118.1
L 40.6 111.9"/>
</defs>

<g transform="matrix( 0.0999908447265625, 0, 0, 0.0999908447265625, 0.8,2.25) ">
<g transform="matrix( 1, 0, 0, 1, 0,0) ">
<use xlink:href="#symbol_0_Layer0_0_FILL"/>

<use xlink:href="#symbol_0_Layer0_0_1_STROKES"/>

<use xlink:href="#symbol_0_Layer0_0_2_STROKES"/>
</g>
</g>
</svg>
