
<svg xmlns="http://www.w3.org/2000/svg" version="1.1" xmlns:xlink="http://www.w3.org/1999/xlink" preserveAspectRatio="none" x="0px" y="0px" width="15px" height="15px" viewBox="0 0 15 15">
<defs>
<linearGradient id="Gradient_1" gradientUnits="userSpaceOnUse" x1="7.45" y1="11.600000000000001" x2="7.45" y2="3.3999999999999995" spreadMethod="pad">
<stop  offset="0%" stop-color="#ADADAD"/>

<stop  offset="100%" stop-color="#FFFFFF"/>
</linearGradient>

<g id="Layer1_0_FILL">
<path fill="url(#Gradient_1)" stroke="none" d="
M 7.5 13.3
Q 9.95 13.3 11.6 11.6 13.3 9.95 13.3 7.5 13.3 5.1 11.6 3.45 9.95 1.75 7.5 1.75 5.1 1.75 3.45 3.45 1.75 5.1 1.75 7.5 1.75 9.95 1.75 13.3 5.1 13.3 7.5 13.3 Z"/>
</g>

<g id="quote_0_Layer0_0_MEMBER_0_FILL">
<path fill="#000000" fill-opacity="0.6666666666666666" stroke="none" d="
M 10.7 10.15
Q 11.25 7.65 10.8 5.25 10.3 2.6 8.45 1.1 8.2 0.95 7.95 0.8 7.15 0.35 6.4 0.25 3.35 -0.6 1.25 1.9 -0.3958984375 3.8458984375 -0.3 6.35 -0.1623046875 8.8623046875 1.65 10.15 3.46640625 11.48359375 6.15 10.3 5.35 13.8 4.1 15.7 2.75 17.55 1.7 18.2 3.3 18.55 5 17.8 6.65 17 8.4 14.95 10.1 12.85 10.7 10.15 Z"/>
</g>

<path id="Layer1_1_1_STROKES" stroke="#000000" stroke-opacity="0.4980392156862745" stroke-width="1.2" stroke-linejoin="round" stroke-linecap="round" fill="none" d="
M 13.253290557861327 7.499629211425781
Q 13.253290557861327 9.893488311767577 11.573389434814452 11.531391906738282 9.93548583984375 13.211293029785157 7.541626739501953 13.211293029785157 5.105770111083984 13.211293029785157 1.7879653930664061 13.211293029785157 1.7879653930664061 9.893488311767577 1.7879653930664061 7.499629211425781 1.7879653930664061 5.105770111083984 3.4258689880371094 3.4258689880371094 5.105770111083984 1.7459678649902344 7.541626739501953 1.7459678649902344 9.93548583984375 1.7459678649902344 11.573389434814452 3.4258689880371094 13.253290557861327 5.105770111083984 13.253290557861327 7.499629211425781 Z"/>
</defs>

<g transform="matrix( 1, 0, 0, 1, 0,0) ">
<use xlink:href="#Layer1_0_FILL"/>
</g>

<g transform="matrix( 0.8399505615234375, 0, 0, 0.8399505615234375, 1.2,1.2) ">
<use xlink:href="#Layer1_1_1_STROKES" transform="matrix( 1.1905364990234375, 0, 0, 1.1905364990234375, -1.4,-1.4) "/>
</g>

<g transform="matrix( 0.2855224609375, 0, 0, 0.2849273681640625, 3.85,5.2) ">
<g transform="matrix( 1, 0, 0, 1, 0,0) ">
<use xlink:href="#quote_0_Layer0_0_MEMBER_0_FILL"/>
</g>
</g>

<g transform="matrix( 0.2855224609375, 0, 0, 0.2849273681640625, 8.05,5.2) ">
<g transform="matrix( 1, 0, 0, 1, 0,0) ">
<use xlink:href="#quote_0_Layer0_0_MEMBER_0_FILL"/>
</g>
</g>
</svg>
