
<svg xmlns="http://www.w3.org/2000/svg" version="1.1" xmlns:xlink="http://www.w3.org/1999/xlink" preserveAspectRatio="none" x="0px" y="0px" width="19px" height="19px" viewBox="0 0 19 19">
<defs>
<radialGradient id="Gradient_1" gradientUnits="userSpaceOnUse" cx="0" cy="0" r="1.5124999999999993" fx="0" fy="0" gradientTransform="matrix( 1.0000000000000004, 0, 0, 1.016528925619835, 11.25,22.6) " spreadMethod="pad">
<stop  offset="0%" stop-color="#FFFFFF"/>

<stop  offset="100%" stop-color="#000000"/>
</radialGradient>

<radialGradient id="Gradient_2" gradientUnits="userSpaceOnUse" cx="0" cy="0" r="1.5125000000000002" fx="0" fy="0" gradientTransform="matrix( 1, 0, 0, 1.0165289256198347, 6.7,20.6) " spreadMethod="pad">
<stop  offset="0%" stop-color="#FFFFFF"/>

<stop  offset="100%" stop-color="#000000"/>
</radialGradient>

<radialGradient id="Gradient_3" gradientUnits="userSpaceOnUse" cx="0" cy="0" r="1.5125000000000002" fx="0" fy="0" gradientTransform="matrix( 1, 0, 0, 1.0165289256198347, 2.5,19.2) " spreadMethod="pad">
<stop  offset="0%" stop-color="#FFFFFF"/>

<stop  offset="100%" stop-color="#000000"/>
</radialGradient>

<g id="MessageList_Radio_0_Layer3_0_FILL">
<path fill="#999999" stroke="none" d="
M 15.4 12.1
L 15 26.5 21.7 20 21.7 6.3 15.4 12.1 Z"/>

<path fill="#CCCCCC" stroke="none" d="
M 0.5 5.2
Q 8.34609375 -2.438671875 15.4 12.1
L 21.7 6.3
Q 11.495703125 -8.694921875 0.5 5.2
M 15.4 12.1
Q 8.34609375 -2.438671875 0.5 5.2
L 0.5 21.9 15 26.5 15.4 12.1 Z"/>
</g>

<g id="MessageList_Radio_0_Layer2_0_FILL">
<path fill="#999999" stroke="none" d="
M 8.7 13
L 12.8 14.4
Q 12.605859375 8.5732421875 8.7 7.2
L 8.7 13
M 6.7 6.3
Q 3.38515625 6.55859375 2.4 10.7
L 6.3 12.2 6.7 11.9 6.7 6.3 Z"/>

<path fill="url(#Gradient_1)" stroke="none" d="
M 11.75 24.5
Q 12.26796875 24.5056640625 12.6 24.05 12.9939453125 23.6328125 13 23 12.9939453125 22.3794921875 12.6 21.95 12.26796875 21.5068359375 11.75 21.5 11.2193359375 21.5068359375 10.85 21.95 10.4935546875 22.3794921875 10.5 23 10.4935546875 23.6328125 10.85 24.05 11.2193359375 24.5056640625 11.75 24.5 Z"/>

<path fill="url(#Gradient_2)" stroke="none" d="
M 6.3 19.95
Q 5.9435546875 20.3794921875 5.95 21 5.9435546875 21.6328125 6.3 22.05 6.6693359375 22.5056640625 7.2 22.5 7.71796875 22.5056640625 8.05 22.05 8.4439453125 21.6328125 8.45 21 8.4439453125 20.3794921875 8.05 19.95 7.71796875 19.5068359375 7.2 19.5 6.6693359375 19.5068359375 6.3 19.95 Z"/>

<path fill="url(#Gradient_3)" stroke="none" d="
M 3.85 18.55
Q 3.51796875 18.1068359375 3 18.1 2.4693359375 18.1068359375 2.1 18.55 1.7435546875 18.9794921875 1.75 19.6 1.7435546875 20.2328125 2.1 20.65 2.4693359375 21.1056640625 3 21.1 3.51796875 21.1056640625 3.85 20.65 4.2439453125 20.2328125 4.25 19.6 4.2439453125 18.9794921875 3.85 18.55 Z"/>
</g>

<g id="MessageList_Radio_0_Layer1_0_FILL">
<path fill="#0000FF" stroke="none" d="
M -0.65 6.8
Q -1.0564453125 6.4060546875 -1.7 6.4 -2.30625 6.40625 -2.75 6.8 -3.16875 7.26875 -3.2 7.9 -3.16875 8.5375 -2.75 8.95 -2.30625 9.4 -1.7 9.4 -1.0375 9.4 -0.65 8.95 -0.175 8.5375 -0.2 7.9 -0.175 7.26875 -0.65 6.8
L -0.65 6.8
M 11.8 6.8
Q 11.3935546875 6.4060546875 10.75 6.4 10.14375 6.40625 9.7 6.8 9.28125 7.26875 9.25 7.9 9.28125 8.5375 9.7 8.95 10.14375 9.4 10.75 9.4 11.4125 9.4 11.8 8.95 12.275 8.5375 12.25 7.9 12.275 7.26875 11.8 6.8
L 11.8 6.8
M 16.8 5.4
L 16.8 5.4
Q 16.3935546875 5.0060546875 15.75 5 15.14375 5.00625 14.7 5.4 14.28125 5.86875 14.25 6.5 14.28125 7.1375 14.7 7.55 15.14375 8 15.75 8 16.4125 8 16.8 7.55 17.275 7.1375 17.25 6.5 17.275 5.86875 16.8 5.4 Z"/>
</g>

<path id="MessageList_Radio_0_Layer3_0_1_STROKES" stroke="#999999" stroke-width="1" stroke-linejoin="round" stroke-linecap="round" fill="none" d="
M 15.4 12.1
Q 8.34609375 -2.438671875 0.5 5.2
L 0.5 21.9 15 26.5 15.4 12.1 21.7 6.3
Q 11.495703125 -8.694921875 0.5 5.2
M 15 26.5
L 21.7 20 21.7 6.3"/>

<path id="MessageList_Radio_0_Layer2_0_1_STROKES" stroke="#999999" stroke-width="1" stroke-linejoin="round" stroke-linecap="round" fill="none" d="
M 6.7 6.3
L 6.7 11.9
M 12.8 14.4
Q 12.605859375 8.5732421875 8.7 7.2"/>

<path id="MessageList_Radio_0_Layer2_0_2_STROKES" stroke="#000000" stroke-width="1" stroke-linejoin="round" stroke-linecap="round" fill="none" d="
M 2.4 10.7
Q 3.38515625 6.55859375 6.7 6.3
M 16.5 17.4
L 20 14.2
M 16.6 20.8
L 20.1 17.6
M 16.5 14.3
L 20 11.1
M 2.4 16.1
L 13 20.5
M 8.7 7.2
L 8.7 13"/>

<path id="MessageList_Radio_0_Layer2_0_3_STROKES" stroke="#FFFFFF" stroke-width="1" stroke-linejoin="round" stroke-linecap="round" fill="none" d="
M 6.3 12.2
L 2.4 10.7
M 8.7 13
L 12.8 14.4"/>

<path id="MessageList_Radio_0_Layer2_0_4_STROKES" stroke="#000000" stroke-width="2" stroke-linejoin="round" stroke-linecap="round" fill="none" d="
M 2.7 13.625
L 12.7 17.825"/>

<path id="MessageList_Radio_0_Layer1_0_1_STROKES" stroke="#0000FF" stroke-width="1" stroke-linejoin="round" stroke-linecap="round" fill="none" d="
M 16.8 5.4
L 16.8 1 11.8 2.5 11.8 6.8
M -0.65 6.8
L -0.65 2.5
Q 1.1259765625 3.0732421875 1.75 5.95"/>
</defs>

<g transform="matrix( 0.63238525390625, 0, 0, 0.6285552978515625, 3.4,1.85) ">
<g transform="matrix( 1, 0, 0, 1, 0,0) ">
<use xlink:href="#MessageList_Radio_0_Layer3_0_FILL"/>

<use xlink:href="#MessageList_Radio_0_Layer3_0_1_STROKES"/>
</g>

<g transform="matrix( 1, 0, 0, 1, 0,0) ">
<use xlink:href="#MessageList_Radio_0_Layer2_0_FILL"/>

<use xlink:href="#MessageList_Radio_0_Layer2_0_1_STROKES"/>

<use xlink:href="#MessageList_Radio_0_Layer2_0_2_STROKES"/>

<use xlink:href="#MessageList_Radio_0_Layer2_0_3_STROKES"/>

<use xlink:href="#MessageList_Radio_0_Layer2_0_4_STROKES"/>
</g>

<g transform="matrix( 1, 0, 0, 1, 0,0) ">
<use xlink:href="#MessageList_Radio_0_Layer1_0_FILL"/>

<use xlink:href="#MessageList_Radio_0_Layer1_0_1_STROKES"/>
</g>
</g>
</svg>
