<?xml version="1.0" encoding="utf-8"?>
<!-- Generator: Adobe Illustrator 25.1.0, SVG Export Plug-In . SVG Version: 6.00 Build 0)  -->
<svg version="1.1" id="Camada_1" xmlns="http://www.w3.org/2000/svg" xmlns:xlink="http://www.w3.org/1999/xlink" x="0px" y="0px"
	 viewBox="0 0 19 19" style="enable-background:new 0 0 19 19;" xml:space="preserve">
<style type="text/css">
	.st0{fill:#999999;}
	.st1{fill:#CCCCCC;}
	.st2{fill:none;stroke:#999999;stroke-linecap:round;stroke-linejoin:round;}
	.st3{fill:url(#SVGID_1_);}
	.st4{fill:url(#SVGID_2_);}
	.st5{fill:url(#SVGID_3_);}
	.st6{fill:none;stroke:#000000;stroke-width:0.7;stroke-linecap:round;stroke-linejoin:round;}
	.st7{fill:none;stroke:#FFFFFF;stroke-linecap:round;stroke-linejoin:round;}
	.st8{fill:none;stroke:#000000;stroke-width:0.5;stroke-linecap:round;stroke-linejoin:round;}
	.st9{fill:#0000FF;}
	.st10{fill:none;stroke:#0000FF;stroke-linecap:round;stroke-linejoin:round;}
	
		.st11{fill:none;stroke:#CCCCCC;stroke-width:1.0002;stroke-linecap:round;stroke-linejoin:round;stroke-miterlimit:4.001;stroke-opacity:0.6471;}
	.st12{fill:none;stroke:#999999;stroke-width:1.0002;stroke-linecap:round;stroke-linejoin:round;stroke-miterlimit:4.001;}
	.st13{fill:none;stroke:#FFFFFF;stroke-width:1.0002;stroke-linecap:round;stroke-linejoin:round;stroke-miterlimit:4.001;}
</style>
<g transform="matrix(.63239 0 0 .62856 3.4 1.85)">
	<g>
		<g id="d">
			<path class="st0" d="M15.4,12.1L15,26.5l6.7-6.5V6.3C21.7,6.3,15.4,12.1,15.4,12.1z"/>
			<path class="st1" d="M0.5,5.2c5.2-5.1,10.2-2.8,14.9,6.9l6.3-5.8C14.9-3.7,7.8-4.1,0.5,5.2 M15.4,12.1c-4.7-9.7-9.7-12-14.9-6.9
				v16.7L15,26.5L15.4,12.1z"/>
		</g>
	</g>
	<g>
		<path id="e" class="st2" d="M15.4,12.1c-4.7-9.7-9.7-12-14.9-6.9v16.7L15,26.5L15.4,12.1l6.3-5.8C14.9-3.7,7.8-4.1,0.5,5.2
			 M15,26.5l6.7-6.5V6.3"/>
	</g>
</g>
<g transform="matrix(.63239 0 0 .62856 3.4 1.85)">
	<g>
		<g id="f">
			<path class="st0" d="M8.7,13l4.1,1.4c-0.1-3.9-1.5-6.3-4.1-7.2L8.7,13 M6.7,6.3c-2.2,0.2-3.6,1.6-4.3,4.4l3.9,1.5l0.4-0.3V6.3z"
				/>
			
				<radialGradient id="SVGID_1_" cx="259.3576" cy="-340.7836" r="1.512" gradientTransform="matrix(0.6324 0 0 -0.639 -152.7652 -195.1437)" gradientUnits="userSpaceOnUse">
				<stop  offset="0" style="stop-color:#FFFFFF"/>
				<stop  offset="1" style="stop-color:#000000"/>
			</radialGradient>
			<path class="st3" d="M11.8,24.5c0.3,0,0.6-0.1,0.9-0.5c0.3-0.3,0.4-0.6,0.4-1c0-0.4-0.1-0.8-0.4-1c-0.2-0.3-0.5-0.4-0.9-0.5
				c-0.4,0-0.7,0.2-0.9,0.5c-0.2,0.3-0.4,0.6-0.4,1c0,0.4,0.1,0.8,0.4,1C11.1,24.4,11.4,24.5,11.8,24.5z"/>
			
				<radialGradient id="SVGID_2_" cx="259.3576" cy="-340.7836" r="1.513" gradientTransform="matrix(0.6324 0 0 -0.639 -157.3152 -197.1437)" gradientUnits="userSpaceOnUse">
				<stop  offset="0" style="stop-color:#FFFFFF"/>
				<stop  offset="1" style="stop-color:#000000"/>
			</radialGradient>
			<path class="st4" d="M6.3,19.9c-0.2,0.3-0.4,0.6-0.3,1c0,0.4,0.1,0.8,0.3,1c0.2,0.3,0.5,0.5,0.9,0.5c0.3,0,0.6-0.1,0.8-0.5
				c0.3-0.3,0.4-0.6,0.4-1c0-0.4-0.1-0.8-0.4-1c-0.2-0.3-0.5-0.4-0.8-0.5C6.8,19.5,6.5,19.7,6.3,19.9z"/>
			
				<radialGradient id="SVGID_3_" cx="259.3576" cy="-340.7836" r="1.513" gradientTransform="matrix(0.6324 0 0 -0.639 -161.5152 -198.5437)" gradientUnits="userSpaceOnUse">
				<stop  offset="0" style="stop-color:#FFFFFF"/>
				<stop  offset="1" style="stop-color:#000000"/>
			</radialGradient>
			<path class="st5" d="M3.9,18.5c-0.2-0.3-0.5-0.4-0.8-0.5c-0.4,0-0.7,0.2-0.9,0.5c-0.2,0.3-0.4,0.6-0.4,1c0,0.4,0.1,0.8,0.4,1
				C2.3,21,2.6,21.1,3,21.1c0.3,0,0.6-0.1,0.8-0.5c0.3-0.3,0.4-0.6,0.4-1C4.2,19.2,4.1,18.8,3.9,18.5z"/>
		</g>
	</g>
	<g>
		<path id="g" class="st2" d="M6.7,6.3v5.6 M12.8,14.4c-0.1-3.9-1.5-6.3-4.1-7.2"/>
	</g>
	<g>
		<path id="h" class="st6" d="M2.4,10.7c0.7-2.8,2.1-4.2,4.3-4.4 M16.5,17.4l3.5-3.2 M16.6,20.8l3.5-3.2 M16.5,14.3l3.5-3.2
			 M2.4,16.1L13,20.5 M8.7,7.2V13"/>
	</g>
	<g>
		<path id="i" class="st7" d="M6.3,12.2l-3.9-1.5 M8.7,13l4.1,1.4"/>
	</g>
	<g>
		<path id="j" class="st8" d="M2.7,13.6l10,4.2"/>
	</g>
</g>
<g>
	<path id="k" class="st9" d="M3,6.1C2.8,6,2.6,5.9,2.3,5.9C2.1,5.9,1.8,6,1.7,6.1C1.5,6.3,1.4,6.6,1.4,6.8c0,0.3,0.1,0.5,0.3,0.7
		c0.2,0.2,0.4,0.3,0.7,0.3c0.3,0,0.5-0.1,0.7-0.3c0.2-0.2,0.3-0.4,0.3-0.7C3.3,6.6,3.2,6.3,3,6.1 M10.9,6.1
		c-0.2-0.2-0.4-0.2-0.7-0.3C9.9,5.9,9.7,6,9.5,6.1C9.4,6.3,9.3,6.6,9.2,6.8c0,0.3,0.1,0.5,0.3,0.7c0.2,0.2,0.4,0.3,0.7,0.3
		c0.3,0,0.5-0.1,0.7-0.3c0.2-0.2,0.3-0.4,0.3-0.7C11.2,6.6,11.1,6.3,10.9,6.1 M14,5.2C13.9,5.1,13.6,5,13.4,5
		c-0.3,0-0.5,0.1-0.7,0.3c-0.2,0.2-0.3,0.4-0.3,0.7c0,0.3,0.1,0.5,0.3,0.7c0.2,0.2,0.4,0.3,0.7,0.3c0.3,0,0.5-0.1,0.7-0.3
		c0.2-0.2,0.3-0.4,0.3-0.7C14.3,5.7,14.2,5.4,14,5.2z"/>
</g>
<path id="l" class="st10" d="M14,5.2V1.8l-3.2,0.7v3.6 M3,6.1V2.5c0.7,0.2,1.1-0.1,1.5,2.4"/>
<g transform="matrix( 1, 0, 0, 1, 0,0) ">
	<g>
		<path id="C_pia_de_Symbol_11_2_0_Layer1_0_1_STROKES_1_" class="st11" d="M2.8,2.2L17,17.7"/>
	</g>
</g>
<g transform="matrix( 1, 0, 0, 1, 0,0) ">
	<g>
		<path id="C_pia_de_Symbol_11_2_0_Layer0_0_1_STROKES_1_" class="st12" d="M17.2,17.1L17.2,17.1"/>
	</g>
	<g>
		<path id="C_pia_de_Symbol_11_2_0_Layer0_0_2_STROKES_1_" class="st13" d="M17.2,17.1L3.1,1.7l0.4-0.5l14.1,15.4L17.2,17.1"/>
	</g>
</g>
</svg>
