
<svg xmlns="http://www.w3.org/2000/svg" version="1.1" xmlns:xlink="http://www.w3.org/1999/xlink" preserveAspectRatio="none" x="0px" y="0px" width="19px" height="19px" viewBox="0 0 19 19">
<defs>
<radialGradient id="Gradient_1" gradientUnits="userSpaceOnUse" cx="0" cy="0" r="1.5124999999999993" fx="0" fy="0" gradientTransform="matrix( 1.0000000000000004, 0, 0, 1.016528925619835, 11.25,22.6) " spreadMethod="pad">
<stop  offset="0%" stop-color="#FFFFFF"/>

<stop  offset="100%" stop-color="#000000"/>
</radialGradient>

<radialGradient id="Gradient_2" gradientUnits="userSpaceOnUse" cx="0" cy="0" r="1.5125000000000002" fx="0" fy="0" gradientTransform="matrix( 1, 0, 0, 1.0165289256198347, 6.7,20.6) " spreadMethod="pad">
<stop  offset="0%" stop-color="#FFFFFF"/>

<stop  offset="100%" stop-color="#000000"/>
</radialGradient>

<radialGradient id="Gradient_3" gradientUnits="userSpaceOnUse" cx="0" cy="0" r="1.5125000000000002" fx="0" fy="0" gradientTransform="matrix( 1, 0, 0, 1.0165289256198347, 2.5,19.2) " spreadMethod="pad">
<stop  offset="0%" stop-color="#FFFFFF"/>

<stop  offset="100%" stop-color="#000000"/>
</radialGradient>

<radialGradient id="Gradient_4" gradientUnits="userSpaceOnUse" cx="0" cy="0" r="12.621856044179875" fx="0" fy="0" gradientTransform="matrix( 0.7071067811865476, -0.7071067811865476, 0.23669260602742978, 0.23669260602742978, 5.85,5.85) " spreadMethod="pad">
<stop  offset="0%" stop-color="#FFFFFF"/>

<stop  offset="80.7843137254902%" stop-color="#A8000C"/>
</radialGradient>

<radialGradient id="Gradient_5" gradientUnits="userSpaceOnUse" cx="0" cy="0" r="39.89850012845095" fx="0" fy="0" gradientTransform="matrix( 0.7071067811865476, -0.7071067811865476, 0.10182087013098269, 0.10182087013098269, 25.1,25.3) " spreadMethod="pad">
<stop  offset="0%" stop-color="#5E0000"/>

<stop  offset="80.7843137254902%" stop-color="#A8000C"/>
</radialGradient>

<g id="MessageList_Radio_0_Layer3_0_FILL">
<path fill="#CCCCCC" stroke="none" d="
M 15 26.5
L 15.4 12.1
Q 8.34609375 -2.438671875 0.5 5.2
L 0.5 21.9 15 26.5
M 15.4 12.1
L 21.7 6.3
Q 11.495703125 -8.694921875 0.5 5.2 8.34609375 -2.438671875 15.4 12.1 Z"/>

<path fill="#999999" stroke="none" d="
M 21.7 6.3
L 15.4 12.1 15 26.5 21.7 20 21.7 6.3 Z"/>
</g>

<g id="MessageList_Radio_0_Layer2_0_FILL">
<path fill="#999999" stroke="none" d="
M 8.7 7.2
L 8.7 13 12.8 14.4
Q 12.605859375 8.5732421875 8.7 7.2
M 2.4 10.7
L 6.3 12.2 6.7 11.9 6.7 6.3
Q 3.38515625 6.55859375 2.4 10.7 Z"/>

<path fill="url(#Gradient_1)" stroke="none" d="
M 11.75 24.5
Q 12.26796875 24.5056640625 12.6 24.05 12.9939453125 23.6328125 13 23 12.9939453125 22.3794921875 12.6 21.95 12.26796875 21.5068359375 11.75 21.5 11.2193359375 21.5068359375 10.85 21.95 10.4935546875 22.3794921875 10.5 23 10.4935546875 23.6328125 10.85 24.05 11.2193359375 24.5056640625 11.75 24.5 Z"/>

<path fill="url(#Gradient_2)" stroke="none" d="
M 6.3 19.95
Q 5.9435546875 20.3794921875 5.95 21 5.9435546875 21.6328125 6.3 22.05 6.6693359375 22.5056640625 7.2 22.5 7.71796875 22.5056640625 8.05 22.05 8.4439453125 21.6328125 8.45 21 8.4439453125 20.3794921875 8.05 19.95 7.71796875 19.5068359375 7.2 19.5 6.6693359375 19.5068359375 6.3 19.95 Z"/>

<path fill="url(#Gradient_3)" stroke="none" d="
M 3.85 18.55
Q 3.51796875 18.1068359375 3 18.1 2.4693359375 18.1068359375 2.1 18.55 1.7435546875 18.9794921875 1.75 19.6 1.7435546875 20.2328125 2.1 20.65 2.4693359375 21.1056640625 3 21.1 3.51796875 21.1056640625 3.85 20.65 4.2439453125 20.2328125 4.25 19.6 4.2439453125 18.9794921875 3.85 18.55 Z"/>
</g>

<g id="MessageList_Radio_0_Layer1_0_FILL">
<path fill="#0000FF" stroke="none" d="
M -0.65 6.8
Q -1.0564453125 6.4060546875 -1.7 6.4 -2.30625 6.40625 -2.75 6.8 -3.16875 7.26875 -3.2 7.9 -3.16875 8.5375 -2.75 8.95 -2.30625 9.4 -1.7 9.4 -1.0375 9.4 -0.65 8.95 -0.175 8.5375 -0.2 7.9 -0.175 7.26875 -0.65 6.8
L -0.65 6.8
M 11.8 6.8
Q 11.3935546875 6.4060546875 10.75 6.4 10.14375 6.40625 9.7 6.8 9.28125 7.26875 9.25 7.9 9.28125 8.5375 9.7 8.95 10.14375 9.4 10.75 9.4 11.4125 9.4 11.8 8.95 12.275 8.5375 12.25 7.9 12.275 7.26875 11.8 6.8
L 11.8 6.8
M 16.8 5.4
Q 16.3935546875 5.0060546875 15.75 5 15.14375 5.00625 14.7 5.4 14.28125 5.86875 14.25 6.5 14.28125 7.1375 14.7 7.55 15.14375 8 15.75 8 16.4125 8 16.8 7.55 17.275 7.1375 17.25 6.5 17.275 5.86875 16.8 5.4
L 16.8 5.4 Z"/>
</g>

<g id="MessageList_SoundOff_0_Layer0_0_FILL">
<path fill="#FFFFFF" stroke="none" d="
M 16.05 4
Q 15.7560546875 4 15.45 4 10.7 4 7.35 7.35 4 10.7 4 15.45 4 15.7560546875 4 16.05 4.1640625 19.262890625 5.9 21.8
L 21.8 5.9
Q 19.26015625 4.162109375 16.05 4
M 26.9 15.45
Q 26.9 14.6552734375 26.8 13.9 26.4486328125 11.0408203125 24.75 8.75
L 8.75 24.75
Q 9.48203125 25.2927734375 10.25 25.7 10.5701171875 25.851953125 10.85 25.95 10.9408203125 26.004296875 11 26 12.6466796875 26.733984375 14.5 26.85 14.9830078125 26.9 15.45 26.9 20.2 26.9 23.55 23.55 26.9 20.2 26.9 15.45 Z"/>

<path fill="url(#Gradient_4)" stroke="none" d="
M 17.7 0.15
Q 16.6423828125 0 15.5 0 9.1 0 4.55 4.55 0 9.1 0 15.5 0 16.642578125 0.15 17.7 0.7474609375 17.551953125 1.4 17.3 2.7099609375 16.788671875 4 16.05 4 15.7560546875 4 15.45 4 10.7 7.35 7.35 10.7 4 15.45 4 15.7560546875 4 16.05 4 16.7873046875 2.6974609375 17.3 1.35 17.54765625 0.7353515625 17.7 0.15 Z"/>

<path fill="url(#Gradient_5)" stroke="none" d="
M 29.75 12.45
Q 28.2740234375 13.0470703125 26.8 13.9 26.9 14.6552734375 26.9 15.45 26.9 20.2 23.55 23.55 20.2 26.9 15.45 26.9 14.9830078125 26.9 14.5 26.85 14.1466796875 27.6326171875 13.85 28.4 13.3345703125 29.721875 13.1 30.8 14.278515625 31 15.5 31 21.9 31 26.45 26.45 31 21.9 31 15.5 31 13.7544921875 30.65 12.15 30.21953125 12.2931640625 29.75 12.45 Z"/>

<path fill="#A8000C" stroke="none" d="
M 30.65 12.15
Q 29.76015625 7.86015625 26.45 4.55 22.7115234375 0.8115234375 17.7 0.15 17.54765625 0.7353515625 17.3 1.35 16.7873046875 2.6974609375 16.05 4 19.26015625 4.162109375 21.8 5.9
L 5.9 21.8
Q 4.1640625 19.262890625 4 16.05 2.7099609375 16.788671875 1.4 17.3 0.7474609375 17.551953125 0.15 17.7 0.8138671875 22.7138671875 4.55 26.45 5.0779296875 26.9779296875 5.6 27.45 5.6798828125 27.49609375 5.7 27.55 9.00234375 30.2404296875 13.1 30.8 13.3345703125 29.721875 13.85 28.4 14.1466796875 27.6326171875 14.5 26.85 12.6466796875 26.733984375 11 26 10.9408203125 26.004296875 10.85 25.95 10.5701171875 25.851953125 10.25 25.7 9.48203125 25.2927734375 8.75 24.75
L 24.75 8.75
Q 26.4486328125 11.0408203125 26.8 13.9 28.2740234375 13.0470703125 29.75 12.45 30.21953125 12.2931640625 30.65 12.15 Z"/>
</g>

<path id="MessageList_Radio_0_Layer3_0_1_STROKES" stroke="#999999" stroke-width="1" stroke-linejoin="round" stroke-linecap="round" fill="none" d="
M 21.7 6.3
L 15.4 12.1 15 26.5 21.7 20 21.7 6.3
Q 11.495703125 -8.694921875 0.5 5.2 8.34609375 -2.438671875 15.4 12.1
M 0.5 5.2
L 0.5 21.9 15 26.5"/>

<path id="MessageList_Radio_0_Layer2_0_1_STROKES" stroke="#999999" stroke-width="1" stroke-linejoin="round" stroke-linecap="round" fill="none" d="
M 6.7 6.3
L 6.7 11.9
M 12.8 14.4
Q 12.605859375 8.5732421875 8.7 7.2"/>

<path id="MessageList_Radio_0_Layer2_0_2_STROKES" stroke="#000000" stroke-width="1" stroke-linejoin="round" stroke-linecap="round" fill="none" d="
M 2.4 10.7
Q 3.38515625 6.55859375 6.7 6.3
M 16.5 17.4
L 20 14.2
M 16.6 20.8
L 20.1 17.6
M 8.7 7.2
L 8.7 13
M 2.4 16.1
L 13 20.5
M 16.5 14.3
L 20 11.1"/>

<path id="MessageList_Radio_0_Layer2_0_3_STROKES" stroke="#FFFFFF" stroke-width="1" stroke-linejoin="round" stroke-linecap="round" fill="none" d="
M 6.3 12.2
L 2.4 10.7
M 8.7 13
L 12.8 14.4"/>

<path id="MessageList_Radio_0_Layer2_0_4_STROKES" stroke="#000000" stroke-width="2" stroke-linejoin="round" stroke-linecap="round" fill="none" d="
M 2.7 13.625
L 12.7 17.825"/>

<path id="MessageList_Radio_0_Layer1_0_1_STROKES" stroke="#0000FF" stroke-width="1" stroke-linejoin="round" stroke-linecap="round" fill="none" d="
M 16.8 5.4
L 16.8 1 11.8 2.5 11.8 6.8
M -0.65 6.8
L -0.65 2.5
Q 1.1259765625 3.0732421875 1.75 5.95"/>
</defs>

<g transform="matrix( 0.63238525390625, 0, 0, 0.6285400390625, 3.4,1.85) ">
<g transform="matrix( 1, 0, 0, 1, 0,0) ">
<use xlink:href="#MessageList_Radio_0_Layer3_0_FILL"/>

<use xlink:href="#MessageList_Radio_0_Layer3_0_1_STROKES"/>
</g>

<g transform="matrix( 1, 0, 0, 1, 0,0) ">
<use xlink:href="#MessageList_Radio_0_Layer2_0_FILL"/>

<use xlink:href="#MessageList_Radio_0_Layer2_0_1_STROKES"/>

<use xlink:href="#MessageList_Radio_0_Layer2_0_2_STROKES"/>

<use xlink:href="#MessageList_Radio_0_Layer2_0_3_STROKES"/>

<use xlink:href="#MessageList_Radio_0_Layer2_0_4_STROKES"/>
</g>

<g transform="matrix( 1, 0, 0, 1, 0,0) ">
<use xlink:href="#MessageList_Radio_0_Layer1_0_FILL"/>

<use xlink:href="#MessageList_Radio_0_Layer1_0_1_STROKES"/>
</g>

<g id="SoundIsOff" transform="matrix( 0.403076171875, 0, 0, 0.403076171875, 9.65,9.6) ">
<g transform="matrix( 1, 0, 0, 1, 0,0) ">
<use xlink:href="#MessageList_SoundOff_0_Layer0_0_FILL"/>
</g>
</g>
</g>
</svg>
