
<svg xmlns="http://www.w3.org/2000/svg" version="1.1" xmlns:xlink="http://www.w3.org/1999/xlink" preserveAspectRatio="none" x="0px" y="0px" width="19px" height="19px" viewBox="0 0 19 19">
<defs>
<g id="Layer0_0_FILL">
<path fill="#FF0000" stroke="none" d="
M 30.65 12.15
Q 29.76015625 7.86015625 26.45 4.55 22.7115234375 0.8115234375 17.7 0.15 16.6423828125 0 15.5 0 9.1 0 4.55 4.55 0 9.1 0 15.5 0 16.642578125 0.15 17.7 0.8138671875 22.7138671875 4.55 26.45 5.0779296875 26.9779296875 5.6 27.45 5.6798828125 27.49609375 5.7 27.55 9.00234375 30.2404296875 13.1 30.8 14.278515625 31 15.5 31 21.9 31 26.45 26.45 31 21.9 31 15.5 31 13.7544921875 30.65 12.15
M 26.9 15.45
Q 26.9 20.2 23.55 23.55 20.2 26.9 15.45 26.9 14.9830078125 26.9 14.5 26.85 12.6466796875 26.733984375 11 26 10.9408203125 26.004296875 10.85 25.95 10.5701171875 25.851953125 10.25 25.7 9.48203125 25.2927734375 8.75 24.75
L 24.75 8.75
Q 26.4486328125 11.0408203125 26.8 13.9 26.9 14.6552734375 26.9 15.45
M 15.45 4
Q 15.7560546875 4 16.05 4 19.26015625 4.162109375 21.8 5.9
L 5.9 21.8
Q 4.1640625 19.262890625 4 16.05 4 15.7560546875 4 15.45 4 10.7 7.35 7.35 10.7 4 15.45 4 Z"/>
</g>
</defs>

<g transform="matrix( -0.5669403076171875, 0, 0, 0.5669403076171875, 18.25,0.7) ">
<g transform="matrix( 1, 0, 0, 1, 0,0) ">
<use xlink:href="#Layer0_0_FILL"/>
</g>
</g>
</svg>
