
<svg xmlns="http://www.w3.org/2000/svg" version="1.1" xmlns:xlink="http://www.w3.org/1999/xlink" preserveAspectRatio="none" x="0px" y="0px" width="40px" height="40px" viewBox="0 0 40 40">
<defs>
<radialGradient id="Gradient_1" gradientUnits="userSpaceOnUse" cx="0" cy="0" r="11.8" fx="0" fy="0" gradientTransform="matrix( 1, 0, 0, 1, 24.55,14.85) " spreadMethod="pad">
<stop  offset="10.196078431372548%" stop-color="#FFFFFF"/>

<stop  offset="100%" stop-color="#FFFFFF" stop-opacity="0"/>
</radialGradient>

<g id="_App_Icons_search_0_Layer1_0_FILL">
<path fill="#FFFFFF" stroke="none" d="
M 55.3 48.45
L 44.3 37.45
Q 42.75 35.9 40.85 37.8
L 40.75 37.9 37.8 35
Q 42.7 29.2 42.7 21.35 42.7 12.5 36.45 6.25 30.2 0 21.35 0 12.5 0 6.25 6.25 0 12.5 0 21.35 0 30.2 6.25 36.45 12.5 42.7 21.35 42.7 28.9 42.7 34.55 38.2
L 37.45 41.2 37.2 41.45
Q 35.35 43.3 36.9 44.85
L 47.9 55.85
Q 49.45 57.4 51.3 55.55
L 54.95 51.9
Q 56.85 50 55.3 48.45
M 33.95 8.55
Q 39.2 13.8 39.2 21.2 39.2 28.6 33.95 33.8 28.75 39.05 21.35 39.05 13.95 39.05 8.7 33.8 3.5 28.6 3.5 21.2 3.5 13.8 8.7 8.55 13.95 3.35 21.35 3.35 28.75 3.35 33.95 8.55
M 10.8 29
Q 12.1 31 14.05 32.45 19.5 36.6 26.35 31.75 12 31.25 9.45 15 5.85 21.6 10.8 29 Z"/>

<path fill="#66CCFF" fill-opacity="0.5607843137254902" stroke="none" d="
M 39.2 21.2
Q 39.2 13.8 33.95 8.55 28.75 3.35 21.35 3.35 13.95 3.35 8.7 8.55 3.5 13.8 3.5 21.2 3.5 28.6 8.7 33.8 13.95 39.05 21.35 39.05 28.75 39.05 33.95 33.8 39.2 28.6 39.2 21.2
M 14.05 32.45
Q 12.1 31 10.8 29 5.85 21.6 9.45 15 12 31.25 26.35 31.75 19.5 36.6 14.05 32.45 Z"/>
</g>

<g id="_App_Icons_search_0_Layer0_0_FILL">
<path fill="url(#Gradient_1)" stroke="none" d="
M 24.55 26.35
Q 29.3 26.35 32.65 22.95 36.05 19.6 36.05 14.85 36.05 10.05 32.65 6.7 29.3 3.35 24.55 3.35 19.8 3.35 16.4 6.7 13.05 10.05 13.05 14.85 13.05 19.6 16.4 22.95 19.8 26.35 24.55 26.35 Z"/>
</g>

<path id="_App_Icons_search_0_Layer1_0_1_STROKES" stroke="#333333" stroke-width="1" stroke-linejoin="round" stroke-linecap="round" fill="none" d="
M 55.3 48.45
Q 56.85 50 54.95 51.9
L 51.3 55.55
Q 49.45 57.4 47.9 55.85
L 36.9 44.85
Q 35.35 43.3 37.2 41.45
L 37.45 41.2 34.55 38.2
Q 28.9 42.7 21.35 42.7 12.5 42.7 6.25 36.45 0 30.2 0 21.35 0 12.5 6.25 6.25 12.5 0 21.35 0 30.2 0 36.45 6.25 42.7 12.5 42.7 21.35 42.7 29.2 37.8 35
L 40.75 37.9 40.85 37.8
Q 42.75 35.9 44.3 37.45
L 55.3 48.45 Z
M 39.2 21.2
Q 39.2 28.6 33.95 33.8 28.75 39.05 21.35 39.05 13.95 39.05 8.7 33.8 3.5 28.6 3.5 21.2 3.5 13.8 8.7 8.55 13.95 3.35 21.35 3.35 28.75 3.35 33.95 8.55 39.2 13.8 39.2 21.2 Z"/>
</defs>

<g transform="matrix( 0.51763916015625, 0, 0, 0.51763916015625, 5.5,5.6) ">
<g transform="matrix( 1, 0, 0, 1, 0,0) ">
<use xlink:href="#_App_Icons_search_0_Layer1_0_FILL"/>

<use xlink:href="#_App_Icons_search_0_Layer1_0_1_STROKES"/>
</g>

<g transform="matrix( 1, 0, 0, 1, 0,0) ">
<use xlink:href="#_App_Icons_search_0_Layer0_0_FILL"/>
</g>
</g>
</svg>
