
<svg xmlns="http://www.w3.org/2000/svg" version="1.1" xmlns:xlink="http://www.w3.org/1999/xlink" preserveAspectRatio="none" x="0px" y="0px" width="40px" height="40px" viewBox="0 0 40 40">
<defs>
<g id="Layer3_0_FILL">
<path fill="#FFAF85" stroke="none" d="
M 16.65 26.8
Q 16.95 27.75 17.1 28.8 26.9 25.4 28.6 16.7 24.65 24.75 16.65 26.8
M 15.6 24.5
Q 14.65 23.05 13.25 22.4
L 3.25 29.15
Q 3.35 30.65 4.4 32.1
L 15.6 24.5
M 28.3 4.25
L 36.65 10.9
Q 37.15 5.05 30.35 2.1 29.35 3.05 28.3 4.25 Z"/>

<path fill="#FF5800" stroke="none" d="
M 36.65 10.9
L 28.3 4.25
Q 25 7.9 23.3 12.6
L 28.6 16.7
Q 26.9 25.4 17.1 28.8 16.95 27.75 16.65 26.8 16.3 25.4 15.6 24.5
L 4.4 32.1
Q 5.8 33.9 8.55 35.45 15.2 37.55 23.95 30.05 34.05 21.2 36.65 10.9 Z"/>
</g>

<g id="Layer3_0_STROKES_1_FILL">
<path fill="#333333" fill-opacity="0.5607843137254902" stroke="none" d="
M 32.1 2.4
Q 32.022265625 2.3630859375 31.95 2.35 31.921875 2.337890625 31.9 2.3 31.2771484375 1.961328125 30.55 1.65 30.4046875 1.5822265625 30.25 1.6 30.1060546875 1.6369140625 30 1.75 28.9876953125 2.710546875 27.9 3.9 27.4615234375 4.4365234375 27.05 5 27.0263671875 5.031640625 27 5.05 26.919140625 5.11484375 26.85 5.2 24.919140625 7.6453125 23.6 10.55 23.57890625 10.5923828125 23.55 10.6 23.52734375 10.6861328125 23.5 10.75 23.1369140625 11.5619140625 22.8 12.4 22.7740234375 12.5869140625 22.8 12.75 22.871484375 12.903515625 23 13
L 26.3 15.5
Q 26.331640625 15.523828125 26.35 15.55 26.414453125 15.630859375 26.5 15.7
L 27.95 16.8
Q 27.2068359375 18.258203125 26.35 19.5
L 26.35 19.55
Q 26.2650390625 19.610546875 26.2 19.7 24.3916015625 22.2380859375 22 23.95 21.9119140625 23.9671875 21.8 24 19.6337890625 25.46171875 17 26.2 16.7666015625 25.4765625 16.45 24.85 16.391796875 24.7671875 16.3 24.7 16.28125 24.609375 16.2 24.5 16.125 24.375 16 24.2 14.98359375 22.6509765625 13.45 21.95 13.330078125 21.8908203125 13.2 21.9 13.0759765625 21.91796875 12.95 22
L 10.95 23.4
Q 10.8701171875 23.4115234375 10.75 23.45
L 5.75 26.8
Q 5.73984375 26.8486328125 5.7 26.85 5.640234375 26.9015625 5.55 26.95
L 2.95 28.75
Q 2.86171875 28.816015625 2.8 28.9 2.7416015625 29.0435546875 2.75 29.15 2.8583984375 30.7158203125 3.9 32.2 3.92421875 32.30703125 4 32.4 5.448046875 34.26953125 8.3 35.85 8.3490234375 35.90390625 8.4 35.9 8.55 35.975 8.7 36 8.772265625 36.05 8.85 36.05 8.8818359375 36.0669921875 8.9 36.05 11.84296875 36.7576171875 15.1 35.85 15.218359375 35.8513671875 15.3 35.8 15.3447265625 35.7939453125 15.4 35.75 17.959765625 34.963671875 20.75 33.05 20.81015625 33.0515625 20.85 33 20.9095703125 32.9984375 20.95 32.95 22.599609375 31.839453125 24.25 30.4 25.1876953125 29.6248046875 26.05 28.8
L 26.05 28.8
Q 26.1451171875 28.7552734375 26.2 28.7 28.4146484375 26.5880859375 30.2 24.35 30.3048828125 24.279296875 30.3 24.15
L 30.35 24.15
Q 32.315625 21.675390625 33.75 19.15 33.813671875 19.08359375 33.8 19 33.8546875 18.984765625 33.85 18.95 35.404296875 16.26328125 36.35 13.45 36.385546875 13.442578125 36.4 13.4 36.4458984375 13.340625 36.45 13.25 36.825 12.1375 37.1 11 37.141015625 10.9873046875 37.15 10.95 37.359765625 8.709375 36.55 6.95 36.5294921875 6.90234375 36.5 6.85 36.508203125 6.74140625 36.45 6.6 35.252734375 4.1396484375 32.1 2.4
M 31.5 3.2
Q 31.5400390625 3.2650390625 31.6 3.3 34.447265625 4.860546875 35.55 7.05 35.5712890625 7.11484375 35.6 7.15 35.6005859375 7.25 35.65 7.35 36.3400390625 8.890625 36.15 10.85 35.8626953125 11.900390625 35.5 12.95 35.4599609375 13.02421875 35.4 13.1 34.495703125 15.83671875 33 18.45 32.98671875 18.516015625 32.95 18.55 32.9455078125 18.61484375 32.9 18.65 31.484375 21.124609375 29.55 23.55 29.4740234375 23.6427734375 29.45 23.75 27.6826171875 25.911328125 25.5 27.95 25.4306640625 28.00625 25.35 28.05 24.5125 28.8748046875 23.6 29.65 22.0001953125 31.0607421875 20.4 32.15 20.3248046875 32.1583984375 20.2 32.2 17.53984375 34.0365234375 15.1 34.8 15.0060546875 34.8552734375 14.9 34.9 14.9048828125 34.916796875 14.85 34.9 11.8572265625 35.7423828125 9.15 35.1 9.1283203125 35.11328125 9.05 35.1 9.0439453125 35.0892578125 9 35.05 8.8650390625 35.030078125 8.7 34.95 6.133984375 33.507421875 4.8 31.8 4.7671875 31.690234375 4.7 31.6 3.92734375 30.5056640625 3.75 29.35
L 6.1 27.75
Q 6.2298828125 27.7384765625 6.3 27.65
L 11.3 24.3
Q 11.36015625 24.3013671875 11.4 24.25 11.4599609375 24.2482421875 11.5 24.2
L 13.25 22.95
Q 14.396875 23.5734375 15.15 24.75 15.275 24.925 15.35 25.05 15.4322265625 25.160546875 15.5 25.2 15.52265625 25.27109375 15.55 25.3 15.90625 25.98359375 16.15 26.8 16.149609375 26.8763671875 16.15 26.95 16.459375 27.864453125 16.6 28.85 16.6318359375 29.07734375 16.8 29.2 16.968359375 29.326953125 17.15 29.3 17.37734375 29.268359375 17.5 29.1 17.6267578125 28.931640625 17.6 28.7 17.4798828125 27.9052734375 17.25 27.15 20.0666015625 26.3765625 22.35 24.85
L 22.4 24.85
Q 22.516796875 24.812109375 22.6 24.75 25.1083984375 22.96171875 27 20.3 27.01796875 20.2759765625 27 20.25 27.14765625 20.1908203125 27.2 20.05 28.18828125 18.6013671875 29.05 16.9 29.1361328125 16.7697265625 29.1 16.6 29.0513671875 16.4173828125 28.9 16.3
L 27.1 14.9
Q 27.0728515625 14.8779296875 27.05 14.85 26.99296875 14.7681640625 26.9 14.7
L 23.9 12.4
Q 24.13359375 11.77265625 24.4 11.15 24.4208984375 11.1076171875 24.4 11.05 24.4724609375 11.0138671875 24.5 10.95 25.780859375 8.154296875 27.65 5.8 27.6720703125 5.773046875 27.7 5.75 27.78203125 5.6931640625 27.85 5.6 28.23828125 5.06328125 28.65 4.55 29.5921875 3.5376953125 30.45 2.7 30.962890625 2.9203125 31.4 3.15 31.4466796875 3.2021484375 31.5 3.2 Z"/>
</g>
</defs>

<g transform="matrix( 1, 0, 0, 1, 0,0) ">
<use xlink:href="#Layer3_0_FILL"/>

<use xlink:href="#Layer3_0_STROKES_1_FILL"/>
</g>
</svg>
