
<svg xmlns="http://www.w3.org/2000/svg" version="1.1" xmlns:xlink="http://www.w3.org/1999/xlink" preserveAspectRatio="none" x="0px" y="0px" width="40px" height="40px" viewBox="0 0 40 40">
<defs>
<g id="Layer4_0_FILL">
<path fill="#663300" stroke="none" d="
M 36.55 7.1
Q 35.05 5.5 33.75 6.95 32.7 19.2 19.9 19.05 7 19.2 6 6.95 4.7 5.5 3.1 7.1 3 14.85 8 19.2
L 8 21.75 0.9 21.75
Q -0.75 23.25 0.9 24.65
L 8.3 24.65 8.9 27
Q 1.65 31.35 1.85 37.8 2.9 38.85 4.35 37.85 5.5 31.15 10.45 30.25 14.05 34.85 18.9 36.6
L 18.9 22.25
Q 19.8 21.1 20.8 22.25
L 20.8 36.6
Q 25.65 34.85 29.25 30.25 34.2 31.15 35.35 37.85 36.8 38.85 37.85 37.8 38 31.35 30.7 27
L 31.35 24.65 38.8 24.65
Q 40.45 23.25 38.8 21.75
L 31.7 21.75 31.7 19.2
Q 36.7 14.85 36.55 7.1 Z"/>
</g>

<g id="Layer3_0_FILL">
<path fill="#663300" stroke="none" d="
M 28.55 10.65
Q 28.55 8.15 25.95 6.35 25.05 5.75 24.15 5.35 23.85 4.4 23.05 3.65 21.7 2.3 19.8 2.3 17.95 2.3 16.65 3.65 16 4.4 15.6 5.25 14.45 5.7 13.55 6.35 11.05 8.15 11.05 10.65 11.05 13.2 13.55 14.95 16.15 16.75 19.8 16.75 23.4 16.75 25.95 14.95 28.55 13.2 28.55 10.65 Z"/>
</g>

<path id="Layer4_0_1_STROKES" stroke="#000000" stroke-width="1" stroke-linejoin="round" stroke-linecap="round" fill="none" d="
M 6 6.95
Q 7 19.2 19.9 19.05 32.7 19.2 33.75 6.95 35.05 5.5 36.55 7.1 36.7 14.85 31.7 19.2
L 31.7 21.75 38.8 21.75
Q 40.45 23.25 38.8 24.65
L 31.35 24.65 30.7 27
Q 38 31.35 37.85 37.8 36.8 38.85 35.35 37.85 34.2 31.15 29.25 30.25 25.65 34.85 20.8 36.6
L 20.8 22.25
Q 19.8 21.1 18.9 22.25
L 18.9 36.6
Q 14.05 34.85 10.45 30.25 5.5 31.15 4.35 37.85 2.9 38.85 1.85 37.8 1.65 31.35 8.9 27
L 8.3 24.65 0.9 24.65
Q -0.75 23.25 0.9 21.75
L 8 21.75 8 19.2
Q 3 14.85 3.1 7.1 4.7 5.5 6 6.95 Z"/>

<path id="Layer3_0_1_STROKES" stroke="#000000" stroke-width="1" stroke-linejoin="round" stroke-linecap="round" fill="none" d="
M 28.55 10.65
Q 28.55 13.2 25.95 14.95 23.4 16.75 19.8 16.75 16.15 16.75 13.55 14.95 11.05 13.2 11.05 10.65 11.05 8.15 13.55 6.35 14.45 5.7 15.6 5.25 16 4.4 16.65 3.65 17.95 2.3 19.8 2.3 21.7 2.3 23.05 3.65 23.85 4.4 24.15 5.35 25.05 5.75 25.95 6.35 28.55 8.15 28.55 10.65 Z"/>
</defs>

<g transform="matrix( 1, 0, 0, 1, 0,0) ">
<use xlink:href="#Layer4_0_FILL"/>

<use xlink:href="#Layer4_0_1_STROKES"/>
</g>

<g transform="matrix( 1, 0, 0, 1, 0,0) ">
<use xlink:href="#Layer3_0_FILL"/>

<use xlink:href="#Layer3_0_1_STROKES"/>
</g>
</svg>
