
<svg xmlns="http://www.w3.org/2000/svg" version="1.1" xmlns:xlink="http://www.w3.org/1999/xlink" preserveAspectRatio="none" x="0px" y="0px" width="40px" height="40px" viewBox="0 0 40 40">
<defs>
<radialGradient id="Gradient_1" gradientUnits="userSpaceOnUse" cx="0" cy="0" r="9.667964172978714" fx="0" fy="0" gradientTransform="matrix( 0.4835557844811113, -0.8753135457051132, 0.5145861022018243, 0.28185871929647666, 8.15,13.8) " spreadMethod="pad">
<stop  offset="0%" stop-color="#000000" stop-opacity="0.4117647058823529"/>

<stop  offset="100%" stop-color="#013198" stop-opacity="0"/>
</radialGradient>

<radialGradient id="Gradient_2" gradientUnits="userSpaceOnUse" cx="0" cy="0" r="5.021096120370531" fx="0" fy="0" gradientTransform="matrix( 0.7767228323269383, -0.6298425531369083, 0.4008088974507598, 0.4929202589767108, 6.9,5.15) " spreadMethod="pad">
<stop  offset="0%" stop-color="#000000" stop-opacity="0.4235294117647059"/>

<stop  offset="100%" stop-color="#013198" stop-opacity="0"/>
</radialGradient>

<g id="Extra_Symbols__Ignore_This_Folder__Profilex_0_Layer2_0_FILL">
<path fill="#009900" stroke="none" d="
M 8.8 3.9
Q 8.8 2.5 7.8 1.5 6.8 0.5 5.4 0.5 4 0.5 3 1.5 2 2.5 2 3.9 2 5.3 3 6.3 4 7.3 5.4 7.3 3.75 7.45 2.2 9.65 1.6578125 10.4091796875 1.3 11.25 0.989453125 11.9470703125 0.8 12.7
L 10.25 12.7
Q 10.0421875 11.9455078125 9.75 11.25 9.4359375 10.462109375 9 9.75 7.5 7.3 5.7 7.3 6.9 7.2 7.8 6.3 8.8 5.3 8.8 3.9 Z"/>
</g>

<g id="Extra_Symbols__Ignore_This_Folder__Profilex_0_Layer1_0_FILL">
<path fill="url(#Gradient_1)" stroke="none" d="
M 2.3 9.7
Q 1.7822265625 10.45 1.4 11.25 1.1134765625 11.946484375 0.9 12.7
L 10.1 12.7
Q 9.9181640625 11.944921875 9.6 11.25 9.3150390625 10.5025390625 8.9 9.8 7.441015625 7.4423828125 5.7 7.4 5.6556640625 7.4298828125 5.6 7.4 5.5828125 7.3576171875 5.55 7.3
L 5.5 7.3
Q 5.530078125 7.343359375 5.5 7.35 5.4583984375 7.416796875 5.4 7.4 3.8046875 7.5814453125 2.3 9.7
M 3.35 12.25
Q 3.5 11.65 3.7 11.15 4.25 10.15 5.1 9.6 4.25 10.15 3.7 11.15 3.5 11.65 3.35 12.25 Z"/>

<path fill="url(#Gradient_2)" stroke="none" d="
M 7.7 1.6
Q 6.7423828125 0.630859375 5.4 0.6 4.057421875 0.630859375 3.1 1.6 2.130859375 2.557421875 2.1 3.9 2.130859375 5.2423828125 3.1 6.2 4.057421875 7.1689453125 5.4 7.15 5.4443359375 7.1701171875 5.45 7.2 5.5169921875 7.242578125 5.5 7.3
L 5.55 7.3
Q 5.5697265625 7.25625 5.6 7.2 5.641796875 7.183203125 5.7 7.15 6.8443359375 7.0720703125 7.7 6.2 8.6689453125 5.2423828125 8.65 3.9 8.6689453125 2.557421875 7.7 1.6
M 3.7 3.95
Q 3.9 2.65 5 2.1 3.9 2.65 3.7 3.95 Z"/>

<path fill="#000000" fill-opacity="0.6509803921568628" stroke="none" d="
M 7.9 1.4
Q 6.857421875 0.3689453125 5.4 0.35 3.9423828125 0.3689453125 2.9 1.4 1.8689453125 2.4423828125 1.85 3.9 1.8689453125 5.357421875 2.9 6.4 3.655859375 7.1474609375 4.6 7.35 3.3322265625 7.8318359375 2.1 9.55 1.5328125 10.3685546875 1.15 11.25 0.8494140625 11.94765625 0.65 12.7
L 0.9 12.7
Q 1.1134765625 11.946484375 1.4 11.25 1.7822265625 10.45 2.3 9.7 3.8046875 7.5814453125 5.4 7.4 5.4583984375 7.416796875 5.5 7.35 5.530078125 7.343359375 5.5 7.3 5.5169921875 7.242578125 5.45 7.2 5.4443359375 7.1701171875 5.4 7.15 4.057421875 7.1689453125 3.1 6.2 2.130859375 5.2423828125 2.1 3.9 2.130859375 2.557421875 3.1 1.6 4.057421875 0.630859375 5.4 0.6 6.7423828125 0.630859375 7.7 1.6 8.6689453125 2.557421875 8.65 3.9 8.6689453125 5.2423828125 7.7 6.2 6.8443359375 7.0720703125 5.7 7.15 5.641796875 7.183203125 5.6 7.2 5.5697265625 7.25625 5.55 7.3 5.5828125 7.3576171875 5.6 7.4 5.6556640625 7.4298828125 5.7 7.4 7.441015625 7.4423828125 8.9 9.8 9.3150390625 10.5025390625 9.6 11.25 9.9181640625 11.944921875 10.1 12.7
L 10.35 12.7
Q 10.18203125 11.94609375 9.9 11.25 9.5568359375 10.421484375 9.1 9.65 7.8826171875 7.6861328125 6.45 7.25 7.2556640625 7.0330078125 7.9 6.4 8.930859375 5.357421875 8.9 3.9 8.930859375 2.4423828125 7.9 1.4 Z"/>
</g>

<path id="Extra_Symbols__Ignore_This_Folder__Profilex_0_Layer1_0_1_STROKES" stroke="#FFFFFF" stroke-width="1" stroke-linejoin="round" stroke-linecap="round" fill="none" d="
M 3.7 3.95
Q 3.9 2.65 5 2.1
M 3.35 12.25
Q 3.5 11.65 3.7 11.15 4.25 10.15 5.1 9.6"/>
</defs>

<g transform="matrix( 2.925018310546875, 0, 0, 2.925018310546875, 4.15,0.6) ">
<g transform="matrix( 1, 0, 0, 1, 0,0) ">
<use xlink:href="#Extra_Symbols__Ignore_This_Folder__Profilex_0_Layer2_0_FILL"/>
</g>

<g transform="matrix( 1, 0, 0, 1, 0,0) ">
<use xlink:href="#Extra_Symbols__Ignore_This_Folder__Profilex_0_Layer1_0_FILL"/>

<use xlink:href="#Extra_Symbols__Ignore_This_Folder__Profilex_0_Layer1_0_1_STROKES"/>
</g>
</g>
</svg>
