
<svg xmlns="http://www.w3.org/2000/svg" version="1.1" xmlns:xlink="http://www.w3.org/1999/xlink" preserveAspectRatio="none" x="0px" y="0px" width="40px" height="40px" viewBox="0 0 40 40">
<defs>
<g id="Layer7_0_FILL">
<path fill="#0099FF" stroke="none" d="
M 20.1 33.45
Q 14.3 33.45 10.2 32.3 6.1 31.1 6.1 29.45 6.1 27.75 10.2 26.55 14.15 25.4 19.7 25.35 19.8 24.6 19.95 23.75 12.05 23.75 6.4 25.45 0.8 27.05 0.8 29.45 0.8 31.7 6.4 33.35 12.1 35.05 20.1 35.05 28.05 35.05 33.75 33.35 39.45 31.7 39.45 29.45 39.45 27.05 33.75 25.45 28.45 23.85 21.2 23.75 21.2 24.6 21.35 25.4 26.35 25.45 29.95 26.55 34.05 27.75 34.05 29.45 34.05 31.1 29.95 32.3 25.9 33.45 20.1 33.45
M 21.2 23.75
Q 21.2 23.7 21.2 23.6 21.2 23.4 21.4 22.85 21.75 22 21.75 20.75 21.75 19.45 21.4 18.5 21.05 17.65 20.55 17.65 20.1 17.65 19.75 18.5 19.4 19.45 19.4 20.75 19.4 22 19.75 22.85 19.95 23.4 19.95 23.5 19.95 23.65 19.95 23.75 19.8 24.6 19.7 25.35 19.4 26.35 19.05 27.1 18.45 27.95 17.65 28.25 20.55 29.4 23.4 28.4 22.65 27.85 22.15 27.15 21.6 26.3 21.35 25.4 21.2 24.6 21.2 23.75 Z"/>

<path fill="#00CCFF" stroke="none" d="
M 17.65 28.25
Q 18.45 27.95 19.05 27.1 16.75 27.15 15.05 27.75 12.95 28.4 12.95 29.3 12.95 29.55 13.1 29.8 13.45 30.35 15.05 30.75 15.6 30.95 17.25 31.1 18.75 31.15 20.55 30.8 18.75 31.15 17.25 31.1 15.6 30.95 15.05 30.75 13.45 30.35 13.1 29.8 12.95 29.55 12.95 29.3 12.95 28.4 15.05 27.75 16.75 27.15 19.05 27.1 19.4 26.35 19.7 25.35 14.15 25.4 10.2 26.55 6.1 27.75 6.1 29.45 6.1 31.1 10.2 32.3 14.3 33.45 20.1 33.45 25.9 33.45 29.95 32.3 34.05 31.1 34.05 29.45 34.05 27.75 29.95 26.55 26.35 25.45 21.35 25.4 21.6 26.3 22.15 27.15 23.9 27.25 25.3 27.75 27.4 28.4 27.4 29.3 27.4 30.25 25.3 30.9 24.95 30.95 24.6 31.1 24.95 30.95 25.3 30.9 27.4 30.25 27.4 29.3 27.4 28.4 25.3 27.75 23.9 27.25 22.15 27.15 22.65 27.85 23.4 28.4 20.55 29.4 17.65 28.25 Z"/>
</g>

<path id="Layer7_0_1_STROKES" stroke="#0066FF" stroke-opacity="0.7490196078431373" stroke-width="1" stroke-linejoin="round" stroke-linecap="round" fill="none" d="
M 21.2 23.75
Q 28.45 23.85 33.75 25.45 39.45 27.05 39.45 29.45 39.45 31.7 33.75 33.35 28.05 35.05 20.1 35.05 12.1 35.05 6.4 33.35 0.8 31.7 0.8 29.45 0.8 27.05 6.4 25.45 12.05 23.75 19.95 23.75
M 20.55 30.8
Q 18.75 31.15 17.25 31.1 15.6 30.95 15.05 30.75 13.45 30.35 13.1 29.8 12.95 29.55 12.95 29.3 12.95 28.4 15.05 27.75 16.75 27.15 19.05 27.1
M 21.35 25.4
Q 26.35 25.45 29.95 26.55 34.05 27.75 34.05 29.45 34.05 31.1 29.95 32.3 25.9 33.45 20.1 33.45 14.3 33.45 10.2 32.3 6.1 31.1 6.1 29.45 6.1 27.75 10.2 26.55 14.15 25.4 19.7 25.35
M 22.15 27.15
Q 23.9 27.25 25.3 27.75 27.4 28.4 27.4 29.3 27.4 30.25 25.3 30.9 24.95 30.95 24.6 31.1"/>

<path id="Layer7_0_2_STROKES" stroke="#0066FF" stroke-width="1" stroke-linejoin="round" stroke-linecap="round" fill="none" d="
M 19.95 23.75
Q 19.95 23.65 19.95 23.5 19.95 23.4 19.75 22.85 19.4 22 19.4 20.75 19.4 19.45 19.75 18.5 20.1 17.65 20.55 17.65 21.05 17.65 21.4 18.5 21.75 19.45 21.75 20.75 21.75 22 21.4 22.85 21.2 23.4 21.2 23.6 21.2 23.7 21.2 23.75
M 19.95 23.75
Q 19.8 24.6 19.7 25.35 19.4 26.35 19.05 27.1 18.45 27.95 17.65 28.25
M 23.4 28.4
Q 22.65 27.85 22.15 27.15 21.6 26.3 21.35 25.4 21.2 24.6 21.2 23.75"/>
</defs>

<g transform="matrix( 1, 0, 0, 1, 0,0) ">
<use xlink:href="#Layer7_0_FILL"/>

<use xlink:href="#Layer7_0_1_STROKES"/>

<use xlink:href="#Layer7_0_2_STROKES"/>
</g>
</svg>
