
<svg xmlns="http://www.w3.org/2000/svg" version="1.1" xmlns:xlink="http://www.w3.org/1999/xlink" preserveAspectRatio="none" x="0px" y="0px" width="40px" height="40px" viewBox="0 0 40 40">
<defs>
<linearGradient id="Gradient_1" gradientUnits="userSpaceOnUse" x1="-8.881784197001252e-16" y1="9.1" x2="9.2" y2="9.1" spreadMethod="pad">
<stop  offset="0.7843137254901961%" stop-color="#FFFFFF"/>

<stop  offset="51.76470588235294%" stop-color="#FF9900"/>

<stop  offset="100%" stop-color="#FFFFFF"/>
</linearGradient>

<filter id="Filter_1" x="-20%" y="-20%" width="140%" height="140%" color-interpolation-filters="sRGB">
<feColorMatrix in="SourceGraphic" type="matrix" values="1 0 0 0 0 0 1 0 0 0 0 0 1 0 0 0 0 0 0 0" result="result1"/>
</filter>

<g id="Layer4_0_FILL">
<path fill="#0173B6" stroke="none" d="
M 30.45 0.7
L 30.45 5
Q 30.45 6.2 32.1 6.95
L 37.3 6.95 31.45 0.7 30.45 0.7 Z"/>

<path fill="#FFFFFF" stroke="none" d="
M 37.5 7.2
L 37.3 6.95 32.1 6.95
Q 30.45 6.2 30.45 5
L 30.45 0.7 4.6 0.7
Q 2.75 0.7 2.75 2.55
L 2.75 37.6
Q 2.75 39.45 4.6 39.45
L 35.55 39.45
Q 37.5 39.45 37.5 37.6
L 37.5 7.2
M 7.45 31.15
L 32.25 31.15 7.45 31.15
M 7.45 25.9
L 32.25 25.9 7.45 25.9
M 7.45 36.25
L 30.15 36.25 7.45 36.25 Z"/>
</g>

<g id="Extra_Symbols__Ignore_This_Folder__Symbols_icons_lock_0_Layer3_0_FILL">
<path fill="url(#Gradient_1)" stroke="none" d="
M 0 12
L 9.2 12 9.2 6.25 0 6.25 0 12 Z"/>
</g>

<g id="Extra_Symbols__Ignore_This_Folder__Symbols_icons_PadBody_0_Layer0_0_FILL">
<path fill="#00FF00" stroke="none" d="
M 8.2 0
L 0 0 0 4.75 8.2 4.75 8.2 0 Z"/>
</g>

<path id="Layer4_0_1_STROKES" stroke="#000000" stroke-width="1" stroke-linejoin="round" stroke-linecap="round" fill="none" d="
M 37.3 6.95
L 37.5 6.95 37.5 7.2 37.5 37.6
Q 37.5 39.45 35.55 39.45
L 4.6 39.45
Q 2.75 39.45 2.75 37.6
L 2.75 2.55
Q 2.75 0.7 4.6 0.7
L 30.45 0.7 31.45 0.7 37.3 6.95 37.5 7.2
M 30.45 0.7
L 30.45 5
Q 30.45 6.2 32.1 6.95
L 37.3 6.95"/>

<path id="Layer4_0_2_STROKES" stroke="#3399FF" stroke-width="1" stroke-linejoin="round" stroke-linecap="round" fill="none" d="
M 7.45 31.15
L 32.25 31.15
M 7.45 25.9
L 32.25 25.9
M 7.45 36.25
L 30.15 36.25"/>

<path id="Extra_Symbols__Ignore_This_Folder__Symbols_icons_lock_0_Layer4_0_1_STROKES" stroke="#666666" stroke-width="2" stroke-linejoin="round" stroke-linecap="round" fill="none" d="
M 0.9 6.425
Q 0.9 4.3484375 0.9 4.025 0.9025390625 2.4994140625 1.975 1.425 3.037890625 0.3373046875 4.55 0.325 6.0740234375 0.3373046875 7.15 1.425 8.222265625 2.4994140625 8.225 4.025 8.242578125 4.3658203125 8.275 6.425"/>

<path id="Extra_Symbols__Ignore_This_Folder__Symbols_icons_lock_0_Layer2_0_1_STROKES" stroke="#FF9900" stroke-width="1" stroke-linejoin="round" stroke-linecap="round" fill="none" d="
M 0 9.125
L 9.2 9.125"/>

<path id="Extra_Symbols__Ignore_This_Folder__Symbols_icons_lock_0_Layer2_0_2_STROKES" stroke="#FFFFFF" stroke-width="1" stroke-linejoin="round" stroke-linecap="round" fill="none" d="
M 0.9 3
Q 1.0693359375 1.9046875 1.875 1.075 2.9505859375 -0.000390625 4.475 0 5.1857421875 -0.000390625 5.8 0.225"/>

<path id="Extra_Symbols__Ignore_This_Folder__Symbols_icons_lock_0_Layer0_0_1_STROKES" stroke="#484848" stroke-width="1" stroke-linejoin="round" stroke-linecap="round" fill="none" d="
M 9.2 6.25
L 9.2 12 0 12 0 6.25 9.2 6.25 Z"/>
</defs>

<g transform="matrix( 1, 0, 0, 1, 0,0) ">
<use xlink:href="#Layer4_0_FILL"/>

<use xlink:href="#Layer4_0_1_STROKES"/>

<use xlink:href="#Layer4_0_2_STROKES"/>
</g>

<g transform="matrix( 1.58837890625, 0, 0, 1.58837890625, 12.55,3.55) ">
<g transform="matrix( 1, 0, 0, 1, 0,0) ">
<use xlink:href="#Extra_Symbols__Ignore_This_Folder__Symbols_icons_lock_0_Layer4_0_1_STROKES"/>
</g>

<g transform="matrix( 1, 0, 0, 1, 0,0) ">
<use xlink:href="#Extra_Symbols__Ignore_This_Folder__Symbols_icons_lock_0_Layer3_0_FILL"/>
</g>

<g transform="matrix( 1, 0, 0, 1, 0,0) ">
<use xlink:href="#Extra_Symbols__Ignore_This_Folder__Symbols_icons_lock_0_Layer2_0_1_STROKES"/>

<use xlink:href="#Extra_Symbols__Ignore_This_Folder__Symbols_icons_lock_0_Layer2_0_2_STROKES"/>
</g>

<g id="back" transform="matrix( 1.136810302734375, 0, 0, 1.2127685546875, -0.1,6.25) ">
<g transform="matrix( 1, 0, 0, 1, 0,0) ">
<use filter="url(#Filter_1)" xlink:href="#Extra_Symbols__Ignore_This_Folder__Symbols_icons_PadBody_0_Layer0_0_FILL"/>
</g>
</g>

<g transform="matrix( 1, 0, 0, 1, 0,0) ">
<use xlink:href="#Extra_Symbols__Ignore_This_Folder__Symbols_icons_lock_0_Layer0_0_1_STROKES"/>
</g>
</g>
</svg>
