
<svg xmlns="http://www.w3.org/2000/svg" version="1.1" xmlns:xlink="http://www.w3.org/1999/xlink" preserveAspectRatio="none" x="0px" y="0px" width="40px" height="40px" viewBox="0 0 40 40">
<defs>
<radialGradient id="Gradient_1" gradientUnits="userSpaceOnUse" cx="0" cy="0" r="10.600000000000001" fx="0" fy="0" gradientTransform="matrix( 1, 0, 0, 1, 8.5,8.25) " spreadMethod="pad">
<stop  offset="0%" stop-color="#000000" stop-opacity="0"/>

<stop  offset="69.80392156862744%" stop-color="#000000" stop-opacity="0"/>

<stop  offset="100%" stop-color="#000000" stop-opacity="0.25098039215686274"/>
</radialGradient>

<linearGradient id="Gradient_2" gradientUnits="userSpaceOnUse" x1="9.35" y1="11.5625" x2="9.35" y2="-2.2625" spreadMethod="pad">
<stop  offset="20.392156862745097%" stop-color="#FFFFFF" stop-opacity="0"/>

<stop  offset="73.72549019607843%" stop-color="#FFFFFF" stop-opacity="0.9490196078431372"/>

<stop  offset="100%" stop-color="#FFFFFF" stop-opacity="0.6509803921568628"/>

<stop  offset="100%" stop-color="#000000" stop-opacity="0.25098039215686274"/>
</linearGradient>

<radialGradient id="Gradient_3" gradientUnits="userSpaceOnUse" cx="0" cy="0" r="3.875" fx="0" fy="0" gradientTransform="matrix( 1, 0, 0, 0.5838709677419355, 1.45,4.95) " spreadMethod="pad">
<stop  offset="0%" stop-color="#FFFFFF"/>

<stop  offset="100%" stop-color="#000000"/>
</radialGradient>

<radialGradient id="Gradient_4" gradientUnits="userSpaceOnUse" cx="0" cy="0" r="3.875" fx="0" fy="0" gradientTransform="matrix( 1, 0, 0, 0.5838709677419355, 9.4,4.95) " spreadMethod="pad">
<stop  offset="0%" stop-color="#FFFFFF"/>

<stop  offset="100%" stop-color="#000000"/>
</radialGradient>

<g id="Extra_Symbols__Ignore_This_Folder__smBack_0_Layer0_0_FILL">
<path fill="#FEDA18" stroke="none" d="
M 19 9.55
Q 19 5.6 16.2 2.8 15.55 2.15 14.85 1.7 12.5 0 9.5 0.05 9.1 0 8.7 0.05 6.25 0.25 4.3 1.55 3.5 2.1 2.8 2.8 2.45 3.1 2.2 3.45 0 6.05 0 9.55 0 13.45 2.8 16.25 5.55 19 9.5 19.05 13.4 19 16.2 16.25 19 13.45 19 9.55 Z"/>
</g>

<g id="Extra_Symbols__Ignore_This_Folder__smShad_0_Layer0_0_FILL">
<path fill="url(#Gradient_1)" stroke="none" d="
M 19 9.55
Q 19 5.6 16.2 2.8 15.65 2.25 15.05 1.85 14.95 1.75 14.85 1.7 12.5 0 9.5 0.05 9.1 0 8.7 0.05 6.25 0.25 4.3 1.55 3.5 2.1 2.8 2.8 2.45 3.1 2.2 3.45 0 6.05 0 9.55 0 11.3 0.55 12.85 1.25 14.7 2.8 16.25 5.55 19 9.5 19.05 13.4 19 16.2 16.25 19 13.45 19 9.55 Z"/>
</g>

<g id="Extra_Symbols__Ignore_This_Folder__coolFace_0_Layer2_0_FILL">
<path fill="url(#Gradient_2)" stroke="none" d="
M 1.6 7.1
Q 1.6 8 1.85 8.7
L 16.95 8.55
Q 17.1 7.9 17.1 7.1 17.1 4.45 14.85 2.55 12.55 0.65 9.35 0.65 6.2 0.65 3.85 2.55 1.6 4.45 1.6 7.1 Z"/>
</g>

<g id="Extra_Symbols__Ignore_This_Folder__coolFace_0_Layer0_0_FILL">
<path fill="url(#Gradient_3)" stroke="none" d="
M 6.3 4.8
Q 6.044140625 4.344140625 5.65 3.95 4.6 2.85 3 2.85 1.45 2.85 0.3 3.95 -0.75 5.05 -0.75 6.65 -0.75 8.25 0.3 9.35 1.45 10.45 3 10.45 4.6 10.45 5.65 9.35 6.75 8.25 6.75 6.65 6.75 5.6232421875 6.3 4.8 Z"/>

<path fill="#990000" stroke="none" d="
M 11.6 12.35
Q 11.45 12.3 11.35 12.3 7.05 13.1 3.25 12.35 3.05 12.35 2.9 12.45 2.75 12.5 2.65 12.7 2.55 12.8 2.55 13 2.55 14.7 3.9 16.15 5.3 17.75 7.35 17.75
L 7.4 17.75
Q 9.5 17.7 10.9 16.2
L 10.95 16.2
Q 12.15 14.7 11.95 12.85 11.95 12.7 11.85 12.55 11.7 12.45 11.6 12.35
M 10.1 15.35
L 10.1 15.45
Q 9 16.45 7.35 16.55 5.75 16.55 4.7 15.3 4 14.55 3.8 13.7 7.15 14.2 10.85 13.65 10.7 14.55 10.1 15.35 Z"/>

<path fill="#FFFFFF" stroke="none" d="
M 10.1 15.45
L 10.1 15.35
Q 10.7 14.55 10.85 13.65 7.15 14.2 3.8 13.7 4 14.55 4.7 15.3 5.75 16.55 7.35 16.55 9 16.45 10.1 15.45 Z"/>

<path fill="url(#Gradient_4)" stroke="none" d="
M 13.6 9.35
Q 14.7 8.25 14.7 6.65 14.7 5.648046875 14.25 4.85 14.0111328125 4.3611328125 13.6 3.95 12.55 2.85 10.95 2.85 9.4 2.85 8.3 3.95 7.9212890625 4.3466796875 7.65 4.8 7.25 5.6271484375 7.25 6.65 7.25 8.25 8.3 9.35 9.4 10.45 10.95 10.45 12.55 10.45 13.6 9.35 Z"/>
</g>

<g id="Layer4_0_FILL">
<path fill="#0099FF" stroke="none" d="
M 36.4 21.9
Q 35.85 21.35 35.35 20.9 33.45 19.55 30.95 19.7 30.65 19.55 30.35 19.7 28.35 19.75 26.75 20.8 26.1 21.35 25.6 21.9 25.2 22.15 25.05 22.4 23.25 24.5 23.25 27.35 23.25 30.5 25.6 32.85 27.75 35 30.95 35 34.1 35 36.4 32.85 38.7 30.5 38.7 27.35 38.7 24.2 36.4 21.9
M 32.35 25.5
L 36.45 24.85 33.55 27.95 35.4 31.85 31.6 30.05 28.5 32.9 29.1 28.75 25.3 26.65 29.55 25.95 30.25 21.7 32.35 25.5 Z"/>

<path fill="#FFCC00" stroke="none" d="
M 36.45 24.85
L 32.35 25.5 30.25 21.7 29.55 25.95 25.3 26.65 29.1 28.75 28.5 32.9 31.6 30.05 35.4 31.85 33.55 27.95 36.45 24.85 Z"/>
</g>

<g id="Layer3_0_FILL">
<path fill="#FFCC00" stroke="none" d="
M 25.3 26.65
L 29.1 28.75 28.5 32.9 31.6 30.05 35.4 31.85 33.55 27.95 36.45 24.85 32.35 25.5 30.25 21.7 29.55 25.95 25.3 26.65 Z"/>
</g>

<path id="Extra_Symbols__Ignore_This_Folder__coolFace_0_Layer1_0_1_STROKES" stroke="#000000" stroke-width="1" stroke-linejoin="round" stroke-linecap="round" fill="none" d="
M 6.3 4.8
L 7.675 4.8"/>

<path id="Extra_Symbols__Ignore_This_Folder__coolFace_0_Layer0_0_1_STROKES" stroke="#000000" stroke-width="1" stroke-linejoin="round" stroke-linecap="round" fill="none" d="
M 14.275 4.85
L 15.8 4.85
Q 18.15 5 17.8 7.55"/>

<path id="Layer4_0_1_STROKES" stroke="#FFFFFF" stroke-width="1" stroke-linejoin="round" stroke-linecap="round" fill="none" d="
M 38.7 27.35
Q 38.7 30.5 36.4 32.85 34.1 35 30.95 35 27.75 35 25.6 32.85 23.25 30.5 23.25 27.35 23.25 24.5 25.05 22.4 25.2 22.15 25.6 21.9 26.1 21.35 26.75 20.8 28.35 19.75 30.35 19.7 30.65 19.55 30.95 19.7 33.45 19.55 35.35 20.9 35.85 21.35 36.4 21.9 38.7 24.2 38.7 27.35 Z"/>
</defs>

<g transform="matrix( 1.5916748046875, 0, 0, 1.5916748046875, 1.5,5.45) ">
<g id="Back" transform="matrix( 1, 0, 0, 1, 0,-0.05) ">
<g transform="matrix( 1, 0, 0, 1, 0,0) ">
<use xlink:href="#Extra_Symbols__Ignore_This_Folder__smBack_0_Layer0_0_FILL"/>
</g>
</g>

<g id="Shad" transform="matrix( 1, 0, 0, 1, 0,-0.05) ">
<g transform="matrix( 1, 0, 0, 1, 0,0) ">
<use xlink:href="#Extra_Symbols__Ignore_This_Folder__smShad_0_Layer0_0_FILL"/>
</g>
</g>

<g transform="matrix( 1, 0, 0, 1, 0,0) ">
<use xlink:href="#Extra_Symbols__Ignore_This_Folder__coolFace_0_Layer2_0_FILL"/>
</g>

<g transform="matrix( 1, 0, 0, 1, 0,0) ">
<use xlink:href="#Extra_Symbols__Ignore_This_Folder__coolFace_0_Layer1_0_1_STROKES"/>
</g>

<g transform="matrix( 1, 0, 0, 1, 0,0) ">
<use xlink:href="#Extra_Symbols__Ignore_This_Folder__coolFace_0_Layer0_0_FILL"/>

<use xlink:href="#Extra_Symbols__Ignore_This_Folder__coolFace_0_Layer0_0_1_STROKES"/>
</g>
</g>

<g transform="matrix( 1, 0, 0, 1, 0,0) ">
<use xlink:href="#Layer4_0_FILL"/>

<use xlink:href="#Layer4_0_1_STROKES"/>
</g>

<g transform="matrix( 1, 0, 0, 1, 0,0) ">
<use xlink:href="#Layer3_0_FILL"/>
</g>
</svg>
