
<svg xmlns="http://www.w3.org/2000/svg" version="1.1" xmlns:xlink="http://www.w3.org/1999/xlink" preserveAspectRatio="none" x="0px" y="0px" width="40px" height="40px" viewBox="0 0 40 40">
<defs>
<g id="Layer3_0_FILL">
<path fill="#818181" stroke="none" d="
M 37.7 22.55
L 37.65 18.5
Q 34.85 18.35 31.05 15.85 32 11.4 33.9 9.3
L 31 6.5
Q 29 8.4 24.55 9.25 22 5.5 21.9 2.75
L 17.8 2.75
Q 17.6 5.5 15.15 9.25 10.7 8.4 8.65 6.5
L 5.8 9.3
Q 7.7 11.4 8.6 15.85 4.8 18.35 2.05 18.5
L 2 22.55
Q 4.8 22.65 8.6 25.2 7.65 29.6 5.8 31.6
L 8.7 34.5
Q 10.7 32.7 15.15 31.7 17.6 35.45 17.8 38.25
L 21.95 38.25
Q 22 35.5 24.45 31.7 29 32.6 31 34.5
L 33.95 31.6
Q 32 29.6 31.05 25.2 34.85 22.65 37.7 22.55
M 25.8 20.25
Q 25.8 22.65 23.95 24.4 22.25 26.15 19.8 26.15 17.35 26.15 15.6 24.4 13.9 22.65 13.9 20.25 13.9 17.8 15.6 16.05 17.35 14.35 19.8 14.35 22.25 14.35 23.95 16.05 25.8 17.8 25.8 20.25 Z"/>
</g>

<path id="Layer3_0_1_STROKES" stroke="#333333" stroke-width="1" stroke-linejoin="round" stroke-linecap="round" fill="none" d="
M 15.15 9.25
Q 17.6 5.5 17.8 2.75
L 21.9 2.75
Q 22 5.5 24.55 9.25 29 8.4 31 6.5
L 33.9 9.3
Q 32 11.4 31.05 15.85 34.85 18.35 37.65 18.5
L 37.7 22.55
Q 34.85 22.65 31.05 25.2 32 29.6 33.95 31.6
L 31 34.5
Q 29 32.6 24.45 31.7 22 35.5 21.95 38.25
L 17.8 38.25
Q 17.6 35.45 15.15 31.7 10.7 32.7 8.7 34.5
L 5.8 31.6
Q 7.65 29.6 8.6 25.2 4.8 22.65 2 22.55
L 2.05 18.5
Q 4.8 18.35 8.6 15.85 7.7 11.4 5.8 9.3
L 8.65 6.5
Q 10.7 8.4 15.15 9.25 Z
M 25.8 20.25
Q 25.8 22.65 23.95 24.4 22.25 26.15 19.8 26.15 17.35 26.15 15.6 24.4 13.9 22.65 13.9 20.25 13.9 17.8 15.6 16.05 17.35 14.35 19.8 14.35 22.25 14.35 23.95 16.05 25.8 17.8 25.8 20.25 Z"/>
</defs>

<g transform="matrix( 1, 0, 0, 1, 0,0) ">
<use xlink:href="#Layer3_0_FILL"/>

<use xlink:href="#Layer3_0_1_STROKES"/>
</g>
</svg>
