
<svg xmlns="http://www.w3.org/2000/svg" version="1.1" xmlns:xlink="http://www.w3.org/1999/xlink" preserveAspectRatio="none" x="0px" y="0px" width="40px" height="40px" viewBox="0 0 40 40">
<defs>
<g id="Layer4_0_FILL">
<path fill="#0173B6" stroke="none" d="
M 30.45 0.7
L 30.45 5
Q 30.45 6.2 32.1 6.95
L 37.3 6.95 31.45 0.7 30.45 0.7 Z"/>

<path fill="#FFFFFF" stroke="none" d="
M 37.5 7.2
L 37.3 6.95 32.1 6.95
Q 30.45 6.2 30.45 5
L 30.45 0.7 4.6 0.7
Q 2.75 0.7 2.75 2.55
L 2.75 37.6
Q 2.75 39.45 4.6 39.45
L 35.55 39.45
Q 37.5 39.45 37.5 37.6
L 37.5 7.2
M 7.45 31.15
L 32.25 31.15 7.45 31.15
M 7.45 25.9
L 32.25 25.9 7.45 25.9
M 7.45 36.25
L 30.15 36.25 7.45 36.25 Z"/>
</g>

<g id="Layer3_0_FILL">
<path fill="#FF0000" stroke="none" d="
M 21.5 8.85
Q 22.05 4.6 22.05 3.8 22.05 3 21.5 2.35 20.9 1.85 19.95 1.85 18.95 1.85 18.4 2.35 17.85 3 17.85 3.8 17.85 4.6 18.3 8.85 18.9 13.05 19.2 16.95
L 20.6 16.95
Q 20.9 13.05 21.5 8.85
M 22.2 21.65
Q 22.2 20.85 21.65 20.25 20.9 19.65 19.95 19.65 18.95 19.65 18.3 20.25 17.6 20.85 17.6 21.65 17.6 22.45 18.3 23.05 18.95 23.6 19.95 23.6 20.9 23.6 21.65 23.05 22.2 22.45 22.2 21.65 Z"/>
</g>

<path id="Layer4_0_1_STROKES" stroke="#000000" stroke-width="1" stroke-linejoin="round" stroke-linecap="round" fill="none" d="
M 37.3 6.95
L 37.5 6.95 37.5 7.2 37.5 37.6
Q 37.5 39.45 35.55 39.45
L 4.6 39.45
Q 2.75 39.45 2.75 37.6
L 2.75 2.55
Q 2.75 0.7 4.6 0.7
L 30.45 0.7 31.45 0.7 37.3 6.95 37.5 7.2
M 30.45 0.7
L 30.45 5
Q 30.45 6.2 32.1 6.95
L 37.3 6.95"/>

<path id="Layer4_0_2_STROKES" stroke="#3399FF" stroke-width="1" stroke-linejoin="round" stroke-linecap="round" fill="none" d="
M 7.45 31.15
L 32.25 31.15
M 7.45 25.9
L 32.25 25.9
M 7.45 36.25
L 30.15 36.25"/>
</defs>

<g transform="matrix( 1, 0, 0, 1, 0,0) ">
<use xlink:href="#Layer4_0_FILL"/>

<use xlink:href="#Layer4_0_1_STROKES"/>

<use xlink:href="#Layer4_0_2_STROKES"/>
</g>

<g transform="matrix( 1, 0, 0, 1, 0,0) ">
<use xlink:href="#Layer3_0_FILL"/>
</g>
</svg>
