
<svg xmlns="http://www.w3.org/2000/svg" version="1.1" xmlns:xlink="http://www.w3.org/1999/xlink" preserveAspectRatio="none" x="0px" y="0px" width="40px" height="40px" viewBox="0 0 40 40">
<defs>
<g id="Layer4_0_FILL">
<path fill="#0099FF" stroke="none" d="
M 39.05 19.75
Q 39.05 12.05 33.5 6.65 28 1.15 20.2 1.15 12.2 1.15 6.7 6.65 1.15 12.05 1.15 19.75 1.15 27.4 6.7 32.95 12.2 38.35 20.2 38.35 28 38.35 33.5 32.95 39.05 27.4 39.05 19.75 Z"/>
</g>

<g id="Layer3_0_FILL">
<path fill="#FFFFFF" stroke="none" d="
M 12.1 24.45
Q 12.05 24.3 11.95 24.2 11.3 23.55 10.4 23.55 9.45 23.55 8.75 24.2 8.1 24.75 8.1 25.75 8.1 26.7 8.75 27.3 9.45 27.95 10.4 27.95 11.3 27.95 11.95 27.3 12.6 26.7 12.6 25.75 12.6 25.05 12.1 24.45
M 19.35 17.75
Q 19.35 16.9 18.6 16.2 18 15.45 17.1 15.45 16.2 15.45 15.4 16.2 14.85 16.9 14.85 17.75 14.85 18.7 15.4 19.35 15.6 19.45 15.75 19.65 16.4 20.05 17.1 20.05 17.85 20.05 18.45 19.55
L 17.75 18.9 18.45 19.55
Q 18.55 19.4 18.6 19.35 19.35 18.7 19.35 17.75
M 24.6 22.65
Q 24.1 22.3 23.6 22.3 22.65 22.3 21.9 22.95 21.9 23 21.85 23 21.3 23.7 21.3 24.55 21.3 25.5 21.9 26.1 22.65 26.75 23.6 26.75 24.5 26.75 25 26.1 25.75 25.5 25.75 24.55 25.75 23.6 25 22.95 24.85 22.7 24.6 22.65
M 28.3 15.45
Q 28.6 15.8 28.9 16 29.4 16.25 29.95 16.25 30.9 16.25 31.5 15.45 32.25 14.95 32.25 14 32.25 13.05 31.5 12.45 30.9 11.75 29.95 11.75 29.05 11.75 28.3 12.45 27.75 13.05 27.75 14 27.75 14.95 28.3 15.45 Z"/>
</g>

<path id="Layer4_0_1_STROKES" stroke="#FFFFFF" stroke-width="1" stroke-linejoin="round" stroke-linecap="round" fill="none" d="
M 39.05 19.75
Q 39.05 27.4 33.5 32.95 28 38.35 20.2 38.35 12.2 38.35 6.7 32.95 1.15 27.4 1.15 19.75 1.15 12.05 6.7 6.65 12.2 1.15 20.2 1.15 28 1.15 33.5 6.65 39.05 12.05 39.05 19.75 Z"/>

<path id="Layer3_0_1_STROKES" stroke="#FFFFFF" stroke-width="1" stroke-linejoin="round" stroke-linecap="round" fill="none" d="
M 28.9 16
Q 28.6 15.8 28.3 15.45 27.75 14.95 27.75 14 27.75 13.05 28.3 12.45 29.05 11.75 29.95 11.75 30.9 11.75 31.5 12.45 32.25 13.05 32.25 14 32.25 14.95 31.5 15.45 30.9 16.25 29.95 16.25 29.4 16.25 28.9 16
L 24.6 22.65
Q 24.85 22.7 25 22.95 25.75 23.6 25.75 24.55 25.75 25.5 25 26.1 24.5 26.75 23.6 26.75 22.65 26.75 21.9 26.1 21.3 25.5 21.3 24.55 21.3 23.7 21.85 23
L 18.45 19.55
Q 17.85 20.05 17.1 20.05 16.4 20.05 15.75 19.65
L 12.1 24.45
Q 12.6 25.05 12.6 25.75 12.6 26.7 11.95 27.3 11.3 27.95 10.4 27.95 9.45 27.95 8.75 27.3 8.1 26.7 8.1 25.75 8.1 24.75 8.75 24.2 9.45 23.55 10.4 23.55 11.3 23.55 11.95 24.2 12.05 24.3 12.1 24.45
M 21.85 23
Q 21.9 23 21.9 22.95 22.65 22.3 23.6 22.3 24.1 22.3 24.6 22.65
M 15.75 19.65
Q 15.6 19.45 15.4 19.35 14.85 18.7 14.85 17.75 14.85 16.9 15.4 16.2 16.2 15.45 17.1 15.45 18 15.45 18.6 16.2 19.35 16.9 19.35 17.75 19.35 18.7 18.6 19.35 18.55 19.4 18.45 19.55
L 17.75 18.9"/>
</defs>

<g transform="matrix( 1, 0, 0, 1, 0,0) ">
<use xlink:href="#Layer4_0_FILL"/>

<use xlink:href="#Layer4_0_1_STROKES"/>
</g>

<g transform="matrix( 1, 0, 0, 1, 0,0) ">
<use xlink:href="#Layer3_0_FILL"/>

<use xlink:href="#Layer3_0_1_STROKES"/>
</g>
</svg>
