
<svg xmlns="http://www.w3.org/2000/svg" version="1.1" xmlns:xlink="http://www.w3.org/1999/xlink" preserveAspectRatio="none" x="0px" y="0px" width="32px" height="32px" viewBox="0 0 32 32">
<defs>

<g id="smilies_smile_0_Layer0_0_FILL">
<path fill="#303030" stroke="none" d="
M 7.55 5.95
Q 7 5.4 6.2 5.4 5.4 5.4 4.8 5.95 4.25 6.55 4.25 7.4 4.25 8.25 4.8 8.8 5.4 9.4 6.2 9.4 7 9.4 7.55 8.8 8.15 8.25 8.15 7.4 8.15 6.55 7.55 5.95
M 13.7 5.95
Q 13.15 5.4 12.35 5.4 11.55 5.4 10.95 5.95 10.4 6.55 10.4 7.4 10.4 8.25 10.95 8.8 11.55 9.4 12.35 9.4 13.15 9.4 13.7 8.8 14.3 8.25 14.3 7.4 14.3 6.55 13.7 5.95 Z"/>
</g>

<path id="smilies_smile_0_Layer1_0_1_STROKES" stroke="#303030" stroke-width="1" stroke-linejoin="round" stroke-linecap="round" fill="none" d="
M 12.9 3.4
Q 14.05 3.4 14.9 4.5 15.75 5.6 15.75 7.15 15.75 8.7 14.9 9.8 14.05 10.9 12.9 10.9 11.8 10.9 10.95 9.8 10.1 8.7 10.1 7.15 10.1 5.6 10.95 4.5 11.8 3.4 12.9 3.4 Z
M 3.7 9.8
Q 2.85 8.7 2.85 7.15 2.85 5.6 3.7 4.5 4.55 3.4 5.65 3.4 6.8 3.4 7.65 4.5 8.5 5.6 8.5 7.15 8.5 8.7 7.65 9.8 6.8 10.9 5.65 10.9 4.55 10.9 3.7 9.8 Z"/>

<path id="smilies_smile_0_Layer1_0_2_STROKES" stroke="#303030" stroke-width="1" stroke-linejoin="round" stroke-linecap="round" fill="none" d="
M 4.25 13
Q 9.2 18.95 15.1 12.9"/>
</defs>

<g transform="matrix( 1, 0, 0, 1, 11.2,12.75) ">
<g transform="matrix( 1.5263214111328125, 0, 0, 1.524932861328125, -9.6,-11.1) ">
<g transform="matrix( 1, 0, 0, 1, 0,0.05) ">
<g transform="matrix( 1, 0, 0, 1, 0,0) ">
<use xlink:href="#smilies_smileback_0_Layer2_0_FILL"/>
</g>

<g transform="matrix( 1, 0, 0, 1, 0,0) ">
<use xlink:href="#smilies_smileback_0_Layer1_0_FILL"/>
</g>
</g>

<g transform="matrix( 1, 0, 0, 1, 0,0) ">
<use xlink:href="#smilies_smile_0_Layer1_0_FILL"/>

<use xlink:href="#smilies_smile_0_Layer1_0_1_STROKES"/>

<use xlink:href="#smilies_smile_0_Layer1_0_2_STROKES"/>
</g>

<g transform="matrix( 1, 0, 0, 1, 0,0) ">
<use xlink:href="#smilies_smile_0_Layer0_0_FILL"/>
</g>
</g>
</g>
</svg>
