
<svg xmlns="http://www.w3.org/2000/svg" version="1.1" xmlns:xlink="http://www.w3.org/1999/xlink" preserveAspectRatio="none" x="0px" y="0px" width="40px" height="40px" viewBox="0 0 40 40">
<defs>
<g id="_App_Icons_epicpower_0_Layer1_0_FILL">
<path fill="#333333" fill-opacity="0.24705882352941178" stroke="none" d="
M 19.85 2
Q 19.7 1.25 19.25 0.85 18.65 0.4 18 0.45 17.3 0.4 16.8 0.9
L 8.6 8.15 8.2 6.95
Q 8.05 6.45 7.6 6.1 7.15 5.7 6.6 5.7 6.05 5.65 5.5 5.9 5.05 6.2 4.85 6.75
L -0.8 18.8
Q -1.15 19.35 -0.95 20.05 -0.8 20.6 -0.2 21.1 0.25 21.45 0.9 21.45 1.6 21.4 2.05 20.95
L 7.45 16.2 7.65 16.7
Q 7.9 17.35 8.55 17.7 9.15 18 9.85 17.9 10.5 17.65 10.9 17.05
L 19.6 3.3
Q 19.95 2.65 19.85 2
M 18 0.9
Q 18.55 0.85 18.9 1.2 19.3 1.55 19.4 2.05 19.5 2.55 19.2 3
L 10.5 16.85
Q 10.2 17.25 9.75 17.4 9.15 17.55 8.7 17.3 8.25 17 8.15 16.55
L 7.65 15.45 1.8 20.6
Q 1.35 20.95 0.9 20.95 0.45 20.95 0.05 20.7 -0.3 20.4 -0.45 19.9 -0.6 19.45 -0.35 19.05
L 5.2 6.95
Q 5.4 6.5 5.8 6.35 6.1 6.1 6.55 6.15 7 6.2 7.3 6.45 7.65 6.7 7.8 7.1
L 8.35 8.9 17.1 1.2
Q 17.5 0.9 18 0.9 Z"/>

<path fill="#333333" fill-opacity="0.4980392156862745" stroke="none" d="
M 18.9 1.2
Q 18.55 0.85 18 0.9 17.5 0.9 17.1 1.2
L 8.35 8.9 7.8 7.1
Q 7.65 6.7 7.3 6.45 7 6.2 6.55 6.15 6.1 6.1 5.8 6.35 5.4 6.5 5.2 6.95
L -0.35 19.05
Q -0.6 19.45 -0.45 19.9 -0.3 20.4 0.05 20.7 0.45 20.95 0.9 20.95 1.35 20.95 1.8 20.6
L 7.65 15.45 8.15 16.55
Q 8.25 17 8.7 17.3 9.15 17.55 9.75 17.4 10.2 17.25 10.5 16.85
L 19.2 3
Q 19.5 2.55 19.4 2.05 19.3 1.55 18.9 1.2
M 18.95 2.15
Q 18.95 2.4 18.8 2.75
L 10.15 16.55
Q 10 16.9 9.65 16.95 9.25 17 9 16.95 8.6 16.7 8.5 16.35
L 7.9 14.6 1.5 20.25
Q 1.2 20.45 0.9 20.5 0.55 20.5 0.3 20.25 0.05 20.1 -0.1 19.8 -0.15 19.45 0.05 19.15
L 5.7 7.15
Q 5.8 6.85 6.05 6.75 6.2 6.55 6.5 6.55 6.8 6.55 7.1 6.8 7.2 6.95 7.3 7.25
L 8.15 9.7 17.45 1.55
Q 17.65 1.3 18 1.3 18.35 1.3 18.6 1.55 18.85 1.8 18.95 2.15 Z"/>

<path fill="#333333" fill-opacity="0.7333333333333333" stroke="none" d="
M 18.8 2.75
Q 18.95 2.4 18.95 2.15 18.85 1.8 18.6 1.55 18.35 1.3 18 1.3 17.65 1.3 17.45 1.55
L 8.15 9.7 7.3 7.25
Q 7.2 6.95 7.1 6.8 6.8 6.55 6.5 6.55 6.2 6.55 6.05 6.75 5.8 6.85 5.7 7.15
L 0.05 19.15
Q -0.15 19.45 -0.1 19.8 0.05 20.1 0.3 20.25 0.55 20.5 0.9 20.5 1.2 20.45 1.5 20.25
L 7.9 14.6 8.5 16.35
Q 8.6 16.7 9 16.95 9.25 17 9.65 16.95 10 16.9 10.15 16.55
L 18.8 2.75
M 17.75 1.95
Q 17.85 1.8 18 1.85 18.2 1.8 18.3 1.95 18.45 2 18.5 2.25 18.55 2.35 18.45 2.55
L 9.75 16.3
Q 9.65 16.5 9.45 16.55 9.3 16.55 9.15 16.5 9 16.4 8.95 16.25
L 8.05 13.8 1.15 19.9
Q 1 20.05 0.85 20.05 0.75 20.05 0.6 20 0.45 19.85 0.45 19.7 0.4 19.5 0.45 19.4
L 6.05 7.4
Q 6.1 7.2 6.2 7.15 6.3 7.1 6.5 7.1 6.6 7.1 6.8 7.15 6.85 7.25 6.9 7.45
L 7.95 10.6 17.75 1.95 Z"/>

<path fill="#B8B719" stroke="none" d="
M 18 1.85
Q 17.85 1.8 17.75 1.95
L 7.95 10.6 6.9 7.45
Q 6.85 7.25 6.8 7.15 6.6 7.1 6.5 7.1 6.3 7.1 6.2 7.15 6.1 7.2 6.05 7.4
L 0.45 19.4
Q 0.4 19.5 0.45 19.7 0.45 19.85 0.6 20 0.75 20.05 0.85 20.05 1 20.05 1.15 19.9
L 8.05 13.8 8.95 16.25
Q 9 16.4 9.15 16.5 9.3 16.55 9.45 16.55 9.65 16.5 9.75 16.3
L 18.45 2.55
Q 18.55 2.35 18.5 2.25 18.45 2 18.3 1.95 18.2 1.8 18 1.85 Z"/>
</g>

<g id="_App_Icons_epicpower_0_Layer0_0_FILL">
<path fill="#FFFFFF" stroke="none" d="
M 3.3 16.9
L 3.45 14.75 5.3 13.6 3.15 13.45 2 11.6 1.85 13.75 0 14.9 2.15 15.05 3.3 16.9
M 7.8 16.35
L 9.4 16.95 9.9 18.55 10.45 17 12.15 16.45 10.5 15.9 10 14.25 9.45 15.85 7.8 16.35
M 10.45 9.25
L 12.15 8.7 10.5 8.15 10 6.5 9.45 8.1 7.8 8.6 9.4 9.2 9.9 10.8 10.45 9.25
M 17.35 1.5
L 16.7 3.4 14.8 3.95 16.65 4.65 17.25 6.55 17.9 4.7 19.85 4.1 18 3.45 17.35 1.5 Z"/>
</g>
</defs>

<g transform="matrix( 1.420166015625, 0, 0, 1.420166015625, 7.75,3.6) ">
<g transform="matrix( 1, 0, 0, 1, 0,0) ">
<use xlink:href="#_App_Icons_epicpower_0_Layer1_0_FILL"/>
</g>

<g transform="matrix( 1, 0, 0, 1, 0,0) ">
<use xlink:href="#_App_Icons_epicpower_0_Layer0_0_FILL"/>
</g>
</g>
</svg>
