
<svg xmlns="http://www.w3.org/2000/svg" version="1.1" xmlns:xlink="http://www.w3.org/1999/xlink" preserveAspectRatio="none" x="0px" y="0px" width="23px" height="23px" viewBox="0 0 23 23">
<defs>
<g id="Layer2_0_MEMBER_0_FILL">
<path fill="#000000" stroke="none" d="
M 9.85 13.75
L 9.85 19
Q 9.85 21 9.45 21.55 9.15 21.95 7.3 22.1
L 6.65 22.1 6.65 23 16.35 23 16.35 22.1 15.7 22.1
Q 13.8 21.95 13.55 21.55 13.15 21 13.15 19
L 13.15 13.75 9.85 13.75
M 21.4 4.15
L 21.4 0 1.6 0 1.6 4.15 3.2 4.15 3.2 3.85
Q 3.3 3.35 3.3 2.55 3.3 1.45 4 1.35 4.9 1.2 6.1 1.2
L 9.85 1.2 9.85 12.25 13.15 12.25 13.15 1.2 16.75 1.2
Q 18.05 1.2 19 1.35 19.65 1.45 19.65 2.55 19.65 3.35 19.65 3.85
L 19.8 4.15 21.4 4.15 Z"/>
</g>

<g id="Layer2_0_MEMBER_1_FILL">
<path fill="#000000" stroke="none" d="
M 1.7 10.75
L 1.7 12.25 21.35 12.25 21.35 10.75 1.7 10.75 Z"/>
</g>
</defs>

<g transform="matrix( 1, 0, 0, 1, 0,0) ">
<use xlink:href="#Layer2_0_MEMBER_0_FILL"/>
</g>

<g transform="matrix( 1, 0, 0, 1, 0,0) ">
<use xlink:href="#Layer2_0_MEMBER_1_FILL"/>
</g>
</svg>
