
<svg xmlns="http://www.w3.org/2000/svg" version="1.1" xmlns:xlink="http://www.w3.org/1999/xlink" preserveAspectRatio="none" x="0px" y="0px" width="20px" height="20px" viewBox="0 0 20 20">
<defs>
<g id="symbol_0_Layer2_0_FILL">
<path fill="#DEDEDE" stroke="none" d="
M 78.4 -42.65
Q 49.45 -36.3 24.2 -25.8 2.1 -15.8 -16.3 -2.1 -30 8.4 -42.1 20.55 -63.15 43.7 -78.4 73.7
L -78.4 78.95
Q -78.4 87.35 -70 87.35
L 69.45 87.35
Q 78.4 87.35 78.4 78.95
L 78.4 -42.65 Z"/>

<path fill="#FFFFFF" stroke="none" d="
M 77.35 -58.95
L 54.2 -58.95
Q 46.85 -62.65 46.85 -67.9
L 46.85 -87.35 -70 -87.35
Q -78.4 -87.35 -78.4 -78.95
L -78.4 73.7
Q -63.15 43.7 -42.1 20.55 -30 8.4 -16.3 -2.1 2.1 -15.8 24.2 -25.8 49.45 -36.3 78.4 -42.65
L 78.4 -58.4 77.35 -58.95 Z"/>

<path fill="#CBCBCB" stroke="none" d="
M 54.2 -58.95
L 77.35 -58.95 51.6 -87.35 46.85 -87.35 46.85 -67.9
Q 46.85 -62.65 54.2 -58.95 Z"/>
</g>

<path id="symbol_0_Layer2_0_1_STROKES" stroke="#444444" stroke-opacity="0.45098039215686275" stroke-width="8" stroke-linejoin="round" stroke-linecap="round" fill="none" d="
M 46.85 -87.35
L 46.85 -67.9
Q 46.85 -62.65 54.2 -58.95
L 77.35 -58.95 51.6 -87.35 46.85 -87.35 -70 -87.35
Q -78.4 -87.35 -78.4 -78.95
L -78.4 73.7
M 78.4 -42.65
L 78.4 -58.4 77.35 -58.95 78.4 -58.95 78.4 -58.4
M 78.4 -42.65
L 78.4 78.95
Q 78.4 87.35 69.45 87.35
L -70 87.35
Q -78.4 87.35 -78.4 78.95
L -78.4 73.7"/>

<path id="symbol_0_Layer1_0_1_STROKES" stroke="#3399FF" stroke-width="8" stroke-linejoin="round" stroke-linecap="round" fill="none" d="
M -60.55 -49.45
L -6.3 -49.45
M -60.55 -3.7
L -12.1 -3.7
M -60.55 -18.95
L 13.7 -18.95
M -60.55 -34.75
L 13.7 -34.75"/>

<path id="symbol_0_Layer0_0_1_STROKES" stroke="#008C1C" stroke-width="8" stroke-linejoin="round" stroke-linecap="round" fill="none" d="
M -21.05 36.85
L 11.6 64.2 57.35 0"/>
</defs>

<g transform="matrix( 0.0999908447265625, 0, 0, 0.0999908447265625, 9.95,9.95) ">
<g transform="matrix( 1, 0, 0, 1, 0,0) ">
<use xlink:href="#symbol_0_Layer2_0_FILL"/>

<use xlink:href="#symbol_0_Layer2_0_1_STROKES"/>
</g>

<g transform="matrix( 1, 0, 0, 1, 0,0) ">
<use xlink:href="#symbol_0_Layer1_0_1_STROKES"/>
</g>

<g transform="matrix( 1, 0, 0, 1, 0,0) ">
<use xlink:href="#symbol_0_Layer0_0_1_STROKES"/>
</g>
</g>
</svg>
