
<svg xmlns="http://www.w3.org/2000/svg" version="1.1" xmlns:xlink="http://www.w3.org/1999/xlink" preserveAspectRatio="none" x="0px" y="0px" width="40px" height="40px" viewBox="0 0 40 40">
<defs>
<path id="Layer0_0_1_STROKES" stroke="#FFFFFF" stroke-width="1" stroke-linejoin="round" stroke-linecap="round" fill="none" d="
M 20.3 23.8
Q 22.3 23.35 24.05 22.6 27.05 21.15 27.1 19.15
L 27.1 16.1
Q 27.05 18 24.05 19.45 20.9 20.95 16.55 20.95 15.4 20.95 14.4 20.85 12.85 20.75 11.45 20.35 10.1 20 9.05 19.45 6 18 6 15.95
L 5.9 18.8
M 6 15.95
L 6 15.85
Q 6.05 13.9 9.05 12.45 12.1 10.95 16.55 10.95 20.9 10.95 24.05 12.45 27.1 13.9 27.1 15.95
L 27.1 16.1
Q 30.1 16.3 32.45 17.45 35.5 18.85 35.5 20.95
L 35.5 21 35.5 24.65
Q 35.4 25.65 34.6 26.3 34.15 26.65 32.45 27.5
M 35.5 21
Q 35.45 23 32.45 24.45 31.45 24.95 30.3 25.2
M 4.55 27.85
L 4.6 25 4.6 24.95
Q 4.7 23 7.5 21.65 6.05 20.5 6 19.15
M 7.5 21.65
Q 8.1 22.15 9.05 22.6 9.85 22.95 10.7 23.3
M 17.9 33
Q 16.6 33.15 15.2 33.15 10.75 33.15 7.7 31.65 4.7 30.2 4.6 28.2
M 9.7 29.3
Q 8.6 28.95 7.7 28.5 4.6 27.1 4.6 25"/>

<path id="Layer0_0_2_STROKES" stroke="#FFFFFF" stroke-width="2" stroke-linejoin="round" stroke-linecap="round" fill="none" d="
M 16.8 24.1
L 14.75 24.1 12.9 25.95 12.9 27.95 14.45 29.5 29.9 29.85 25.6 25.7
M 29.9 29.85
L 25.75 34.2"/>
</defs>

<g transform="matrix( 1, 0, 0, 1, 0,0) ">
<use xlink:href="#Layer0_0_1_STROKES"/>

<use xlink:href="#Layer0_0_2_STROKES"/>
</g>
</svg>
