<?xml version="1.0" encoding="utf-8"?>
<!-- Generator: Adobe Illustrator 25.1.0, SVG Export Plug-In . SVG Version: 6.00 Build 0)  -->
<svg version="1.1" id="Camada_1" xmlns="http://www.w3.org/2000/svg" xmlns:xlink="http://www.w3.org/1999/xlink" x="0px" y="0px"
	 viewBox="0 0 19 19" style="enable-background:new 0 0 19 19;" xml:space="preserve">
<style type="text/css">
	.st0{fill:#009900;}
	.st1{fill:url(#SVGID_1_);}
	.st2{fill:url(#SVGID_2_);}
	.st3{fill:none;stroke:#000000;stroke-width:0.4;stroke-linecap:round;stroke-linejoin:round;stroke-opacity:0.651;}
	.st4{fill:none;stroke:#FFFFFF;stroke-linecap:round;stroke-linejoin:round;}
	.st5{fill:none;stroke:#000000;stroke-width:5.000000e-02;stroke-linecap:round;stroke-linejoin:round;}
	.st6{fill:url(#SVGID_3_);}
	.st7{fill:url(#SVGID_4_);}
	.st8{fill:none;stroke:#000000;stroke-width:0.6;stroke-linecap:round;stroke-linejoin:round;stroke-opacity:0.651;}
</style>
<g id="col0" transform="matrix( 1, 0, 0, 1, 30.5,0.5) ">
	<g transform="matrix( 1, 0, 0, 1, 0,0) ">
		<g>
			<g id="ChatterB_0_Layer0_0_FILL">
				<path class="st0" d="M-16.1,5.4c0-0.9-0.3-1.6-0.9-2.2c-0.6-0.6-1.3-0.9-2.2-0.9c-0.9,0-1.6,0.3-2.2,0.9
					c-0.6,0.6-0.9,1.3-0.9,2.2c0,0.9,0.3,1.6,0.9,2.2c0.6,0.6,1.3,0.9,2.2,0.9c-1,0.1-2,0.8-2.9,2.1c-1.1,1.5-1.6,3.3-1.5,5.2
					c0,0.6,1.6,1,4.7,1c3.1,0.1,4.6-0.2,4.6-0.9c-0.1-2-0.6-3.8-1.6-5.3c-0.9-1.5-1.9-2.2-3-2.2c0.8,0,1.4-0.3,2-0.9
					C-16.4,6.9-16.1,6.2-16.1,5.4z"/>
			</g>
		</g>
	</g>
</g>
<g transform="matrix( 1, 0, 0, 1, 0,0) ">
	<g>
		<g id="Layer1_0_FILL">
			
				<radialGradient id="SVGID_1_" cx="-522.7656" cy="-302.0513" r="8.8066" gradientTransform="matrix(0.4836 -0.8753 -0.5146 -0.2819 111.144 -527.8403)" gradientUnits="userSpaceOnUse">
				<stop  offset="0" style="stop-color:#000000;stop-opacity:0.4118"/>
				<stop  offset="1" style="stop-color:#013198;stop-opacity:0"/>
			</radialGradient>
			<path class="st1" d="M11.3,9c-1,0.1-2,0.8-2.9,2.1c-1.1,1.5-1.6,3.2-1.5,5.2c0,0.6,1.6,0.9,4.7,1c3.1,0.1,4.6-0.2,4.6-0.9
				c-0.1-2-0.6-3.8-1.5-5.3S12.7,9,11.6,9C11.5,9,11.4,9,11.3,9L11.3,9 M8.8,15.9c0.2-2.6,1-4.3,2.5-5.3C9.8,11.5,9,13.3,8.8,15.9z"
				/>
			
				<radialGradient id="SVGID_2_" cx="-343.8249" cy="-335.3378" r="4.5737" gradientTransform="matrix(0.7767 -0.6298 -0.4008 -0.4929 145.3006 -374.8504)" gradientUnits="userSpaceOnUse">
				<stop  offset="0" style="stop-color:#000000;stop-opacity:0.4235"/>
				<stop  offset="1" style="stop-color:#013198;stop-opacity:0"/>
			</radialGradient>
			<path class="st2" d="M14.4,5.9c0-0.9-0.3-1.6-0.9-2.2c-0.6-0.6-1.3-0.9-2.2-0.9c-0.9,0-1.6,0.3-2.2,0.9C8.5,4.3,8.2,5,8.2,5.9
				S8.5,7.4,9.1,8C9.7,8.7,10.4,9,11.3,9h0c0.1,0,0.1,0,0.2,0c0.7-0.1,1.4-0.4,1.9-0.9C14.1,7.4,14.4,6.7,14.4,5.9 M9.7,5.9
				c0.1-0.8,0.5-1.4,1.2-1.7C10.3,4.6,9.9,5.1,9.7,5.9z"/>
		</g>
	</g>
	<g>
		<path id="Layer1_0_1_STROKES" class="st3" d="M11.3,9C10.4,9,9.7,8.7,9.1,8C8.5,7.4,8.2,6.7,8.2,5.9s0.3-1.6,0.9-2.2
			c0.6-0.6,1.3-0.9,2.2-0.9c0.9,0,1.6,0.3,2.2,0.9c0.6,0.6,0.9,1.3,0.9,2.2S14.1,7.4,13.5,8C12.9,8.6,12,8.9,11.3,9
			c1.1,0,2.4,0.7,3.3,2.2s1.4,3.2,1.5,5.3c0,0.6-1.5,0.9-4.6,0.9c-3.1-0.1-4.7-0.4-4.7-1c0-2,0.5-3.7,1.5-5.2C9.3,9.8,10.3,9,11.3,9
			z"/>
	</g>
	<g>
		<path id="Layer1_0_2_STROKES" class="st4" d="M9.7,5.9c0.1-0.8,0.5-1.4,1.2-1.7 M8.8,15.9c0.2-2.6,1-4.3,2.5-5.3"/>
	</g>
	<g>
		<path id="Layer1_0_3_STROKES" class="st5" d="M11.3,9L11.3,9"/>
	</g>
</g>
<g transform="matrix( 0.6670684814453125, 0, 0, 0.736572265625, 25.85,4.35) ">
	<g id="col0_FL" transform="matrix( 1, 0, 0, 1, 0.5,0.5) ">
		<g transform="matrix( 1, 0, 0, 1, 0,0) ">
			<g>
				<g id="ChatterB_0_Layer0_0_FILL_1_">
					<path class="st0" d="M-27.4,5.7c0-0.9-0.3-1.6-0.9-2.2c-0.6-0.6-1.3-0.9-2.2-0.9c-0.9,0-1.6,0.3-2.2,0.9
						c-0.6,0.6-0.9,1.3-0.9,2.2c0,0.9,0.3,1.6,0.9,2.2c0.6,0.6,1.3,0.9,2.2,0.9c-1,0.1-2,0.8-2.9,2.1c-1.1,1.5-1.6,3.3-1.5,5.2
						c0,0.6,1.6,1,4.7,1c3.1,0.1,4.6-0.2,4.6-0.9c-0.1-2-0.6-3.8-1.6-5.3c-0.9-1.5-1.9-2.2-3-2.2c0.8,0,1.4-0.3,2-0.9
						C-27.7,7.2-27.4,6.5-27.4,5.7z"/>
				</g>
			</g>
		</g>
	</g>
	<g transform="matrix( 1, 0, 0, 1, 0,0) ">
		<g>
			<g id="C_pia_de_Pawn_0_Layer0_0_FILL">
				
					<radialGradient id="SVGID_3_" cx="-920.6636" cy="-849.1553" r="8.8066" gradientTransform="matrix(0.3226 -0.5839 -0.379 -0.2076 -52.3344 -698.6835)" gradientUnits="userSpaceOnUse">
					<stop  offset="0" style="stop-color:#000000;stop-opacity:0.4118"/>
					<stop  offset="1" style="stop-color:#013198;stop-opacity:0"/>
				</radialGradient>
				<path class="st6" d="M-29.7,9.3c-0.1,0-0.2,0-0.2,0h0c-1,0.1-2,0.8-2.9,2.1c-1.1,1.5-1.6,3.2-1.5,5.2c0,0.6,1.6,0.9,4.7,1
					s4.6-0.2,4.6-0.9c-0.1-2-0.6-3.8-1.5-5.3C-27.6,10-28.6,9.3-29.7,9.3 M-32.4,16.2c0.2-2.6,1-4.3,2.5-5.3
					C-31.4,11.8-32.2,13.6-32.4,16.2z"/>
				
					<radialGradient id="SVGID_4_" cx="-539.3698" cy="-883.9879" r="4.5737" gradientTransform="matrix(0.5181 -0.4201 -0.2952 -0.3631 -10.1044 -540.2663)" gradientUnits="userSpaceOnUse">
					<stop  offset="0" style="stop-color:#000000;stop-opacity:0.4235"/>
					<stop  offset="1" style="stop-color:#013198;stop-opacity:0"/>
				</radialGradient>
				<path class="st7" d="M-27.8,4c-0.6-0.6-1.3-0.9-2.2-0.9s-1.6,0.3-2.2,0.9c-0.6,0.6-0.9,1.3-0.9,2.2s0.3,1.6,0.9,2.2
					c0.6,0.6,1.3,0.9,2.2,0.9h0c0.1,0,0.1,0,0.2,0c0.7-0.1,1.4-0.4,1.9-0.9c0.6-0.6,0.9-1.3,0.9-2.2S-27.2,4.6-27.8,4 M-31.5,6.2
					c0.1-0.8,0.5-1.4,1.2-1.7C-31,4.9-31.4,5.4-31.5,6.2z"/>
			</g>
		</g>
		<g>
			<path id="C_pia_de_Pawn_0_Layer0_0_1_STROKES" class="st8" d="M-30,9.3c-0.9,0-1.6-0.3-2.2-0.9c-0.6-0.6-0.9-1.3-0.9-2.2
				s0.3-1.6,0.9-2.2c0.6-0.6,1.3-0.9,2.2-0.9s1.6,0.3,2.2,0.9s0.9,1.3,0.9,2.2s-0.3,1.6-0.9,2.2c-0.5,0.5-1.2,0.9-1.9,0.9
				c1.1,0,2.1,0.7,3,2.2c0.9,1.5,1.4,3.2,1.5,5.3c0,0.6-1.5,0.9-4.6,0.9s-4.7-0.4-4.7-1c0-2,0.5-3.7,1.5-5.2
				C-31.9,10.1-31,9.3-30,9.3z"/>
		</g>
		<g>
			<path id="C_pia_de_Pawn_0_Layer0_0_2_STROKES" class="st4" d="M-31.5,6.2c0.1-0.8,0.5-1.4,1.2-1.7 M-32.4,16.2
				c0.2-2.6,1-4.3,2.5-5.3"/>
		</g>
		<g>
			<path id="C_pia_de_Pawn_0_Layer0_0_3_STROKES" class="st5" d="M-29.9,9.3L-29.9,9.3"/>
		</g>
	</g>
</g>
</svg>
