
<svg xmlns="http://www.w3.org/2000/svg" version="1.1" xmlns:xlink="http://www.w3.org/1999/xlink" preserveAspectRatio="none" x="0px" y="0px" width="99px" height="30px" viewBox="0 0 99 30">
<defs>
<radialGradient id="Gradient_1" gradientUnits="userSpaceOnUse" cx="0" cy="0" r="162.775" fx="0" fy="0" gradientTransform="matrix( 1, 0, 0, 1, -302.05,35) " spreadMethod="pad">
<stop  offset="56.470588235294116%" stop-color="#02A9D2"/>

<stop  offset="81.56862745098039%" stop-color="#FFFFFF"/>
</radialGradient>

<radialGradient id="Gradient_2" gradientUnits="userSpaceOnUse" cx="0" cy="0" r="269.17551198056634" fx="0" fy="0" gradientTransform="matrix( 0.9113941985098248, -0.4115344638333877, 0.06348088603703916, 0.1405681360893325, -277.55,24.6) " spreadMethod="pad">
<stop  offset="64.70588235294117%" stop-color="#F9C931" stop-opacity="0"/>

<stop  offset="72.54901960784314%" stop-color="#F9C931"/>

<stop  offset="92.54901960784314%" stop-color="#F9C931"/>

<stop  offset="100%" stop-color="#F9C931" stop-opacity="0"/>
</radialGradient>

<g id="sat_0_Layer3_0_FILL">
<path fill="#000000" fill-opacity="0.25098039215686274" stroke="none" d="
M 70.1 92.05
L 70.1 92 70.05 92 70.1 92.05 Z"/>
</g>

<g id="sat_0_Layer2_0_FILL">
<path fill="url(#Gradient_1)" stroke="none" d="
M -196.55 -56.55
Q -200.7236328125 -60.7236328125 -205.15 -64.4 -235.96171875 -90.05 -277.5 -90.05 -324.95 -90.05 -358.5 -56.55 -392 -23 -392 24.45 -392 33.090625 -390.9 41.25 -385.899609375 78.000390625 -358.5 105.4 -324.95 138.95 -277.5 138.95 -230.05 138.95 -196.55 105.4 -163 71.9 -163 24.45 -163 -23 -196.55 -56.55 Z"/>
</g>

<g id="sat_0_Layer1_0_FILL">
<path fill="url(#Gradient_2)" stroke="none" d="
M -0.3 -93.6
L -407.25 -93.6 -542.8 141.6 -495.25 149.6 -175.45 149.6 -0.3 -93.6
M -196.55 -56.55
Q -181.3271484375 -41.3271484375 -173 -23.25
L -382.7 70.55
Q -388.79296875 56.7505859375 -390.9 41.25 -392 33.090625 -392 24.45 -392 -23 -358.5 -56.55 -324.95 -90.05 -277.5 -90.05 -235.96171875 -90.05 -205.15 -64.4 -200.7236328125 -60.7236328125 -196.55 -56.55 Z"/>
</g>

<g id="sat_0_Layer0_0_FILL">
<path fill="#FFFFFF" stroke="none" d="
M -76.3 -0.75
L -115 -0.75 -69.35 62.25 -119.8 132.05 -81.7 132.05 -50.3 88.45 -18.7 132.05 20 132.05 -31.05 61.75 14.15 -0.75 -23.95 -0.75 -50.1 35.5 -76.3 -0.75
M 127 0.85
L 127 15.5
Q 118.1 6.45 107.6 1.95 97.1 -2.6 85.15 -2.6 59.25 -2.6 41.1 17.05 22.9 36.75 22.9 67.5 22.9 97.15 41.7 117.15 60.5 137.05 86.1 137.05 97.6 137.05 107.5 133.05 117.25 128.9 127 119.6
L 127 133.65 160.35 133.65 160.35 0.85 127 0.85
M 92 28.2
Q 107.85 28.2 118.1 38.9 128.5 49.65 128.5 67 128.5 84.7 118.1 95.7 107.85 106.55 92.1 106.55 76.85 106.55 66.45 95.45 56.1 84.35 56.1 67.1 56.1 50.05 66.35 39.15 76.5 28.2 92 28.2
M 236.6 -49.7
L 203.25 -49.7 203.25 -0.75 186.2 -0.75 186.2 27.9 203.25 27.9 203.15 87.85
Q 203.15 106.75 206.8 116.15 210.6 125.45 218.65 130.45 226.7 135.45 238.05 135.45 248.1 135.45 262.95 130.45
L 262.95 104.2
Q 255.15 108 249.2 108 242.85 108 239.65 104.2 236.5 100.4 236.5 90.3
L 236.6 27.9 256.35 27.9 256.35 -0.75 236.6 -0.75 236.6 -49.7 Z"/>
</g>
</defs>

<g transform="matrix( 0.122589111328125, 0, 0, 0.122528076171875, 66.65,12.05) ">
<g transform="matrix( 1, 0, 0, 1, 0,0) ">
<use xlink:href="#sat_0_Layer3_0_FILL"/>
</g>

<g transform="matrix( 1, 0, 0, 1, 0,0) ">
<use xlink:href="#sat_0_Layer2_0_FILL"/>
</g>

<g transform="matrix( 1, 0, 0, 1, 0,0) ">
<use xlink:href="#sat_0_Layer1_0_FILL"/>
</g>

<g transform="matrix( 1, 0, 0, 1, 0,0) ">
<use xlink:href="#sat_0_Layer0_0_FILL"/>
</g>
</g>
</svg>
