
<svg xmlns="http://www.w3.org/2000/svg" version="1.1" xmlns:xlink="http://www.w3.org/1999/xlink" preserveAspectRatio="none" x="0px" y="0px" width="40px" height="40px" viewBox="0 0 40 40">
<defs>
<radialGradient id="Gradient_1" gradientUnits="userSpaceOnUse" cx="0" cy="0" r="30.30000000000001" fx="-0.7129411764705885" fy="8.731011297450545e-17" gradientTransform="matrix( 0.9999999999999997, 0, 0, 0.9999999999999997, -159.95,-50.25) " spreadMethod="pad">
<stop  offset="0%" stop-color="#FFFFFF"/>

<stop  offset="100%" stop-color="#CD0603"/>
</radialGradient>

<radialGradient id="Gradient_2" gradientUnits="userSpaceOnUse" cx="0" cy="0" r="236.10000000000002" fx="0" fy="0" gradientTransform="matrix( 1, 0, 0, 0.30537907666243114, -55,-53.95) " spreadMethod="pad">
<stop  offset="0%" stop-color="#FFFFFF"/>

<stop  offset="100%" stop-color="#000000"/>
</radialGradient>

<linearGradient id="Gradient_3" gradientUnits="userSpaceOnUse" x1="-114.25" y1="-82.15" x2="-83.94999999999999" y2="-64.65" spreadMethod="pad">
<stop  offset="0%" stop-color="#FFFFFF"/>

<stop  offset="45.88235294117647%" stop-color="#3C3C3C"/>

<stop  offset="100%" stop-color="#FFFFFF"/>
</linearGradient>

<linearGradient id="Gradient_4" gradientUnits="userSpaceOnUse" x1="-114.21249999999999" y1="-63.87500000000001" x2="-92.4875" y2="-76.42500000000001" spreadMethod="pad">
<stop  offset="0%" stop-color="#FFFFFF"/>

<stop  offset="100%" stop-color="#000000"/>
</linearGradient>

<radialGradient id="Gradient_5" gradientUnits="userSpaceOnUse" cx="0" cy="0" r="52.45" fx="0" fy="0" gradientTransform="matrix( 1, 0, 0, 1, 3.5,-42.3) " spreadMethod="pad">
<stop  offset="0%" stop-color="#FFFFFF"/>

<stop  offset="100%" stop-color="#CD0603"/>
</radialGradient>

<linearGradient id="Gradient_6" gradientUnits="userSpaceOnUse" x1="0" y1="4.9750000000000005" x2="0" y2="-4.9750000000000005" spreadMethod="pad">
<stop  offset="20.392156862745097%" stop-color="#FFFFFF" stop-opacity="0"/>

<stop  offset="73.72549019607843%" stop-color="#FFFFFF" stop-opacity="0.9490196078431372"/>

<stop  offset="100%" stop-color="#FFFFFF" stop-opacity="0.6509803921568628"/>

<stop  offset="100%" stop-color="#000000" stop-opacity="0.25098039215686274"/>
</linearGradient>

<filter id="Filter_1" x="-20%" y="-20%" width="140%" height="140%" color-interpolation-filters="sRGB">
<feColorMatrix in="SourceGraphic" type="matrix" values="1 0 0 0 0 0 1 0 0 0 0 0 1 0 0 0 0 0 0.49 0" result="result1"/>
</filter>

<g id="xatspace_0_Layer6_0_FILL">
<path fill="#000000" stroke="none" d="
M 13.15 6.45
Q 13.15 3.3 10.95 1.05 8.7 -1.15 5.55 -1.15 2.35 -1.15 0.15 1.05 -2.1 3.3 -2.1 6.45 -2.1 9.6 0.15 11.8 0.5158203125 12.2064453125 0.9 12.5 1.33984375 11.1041015625 2.2 9.9 3.75 7.7 5.4 7.55 4 7.55 3 6.55 2 5.55 2 4.15 2 2.75 3 1.75 4 0.75 5.4 0.75 6.8 0.75 7.8 1.75 8.8 2.75 8.8 4.15 8.8 5.55 7.8 6.55 6.9 7.45 5.7 7.55 7.5 7.55 9 10 9.711328125 11.1619140625 10.1 12.5 10.5556640625 12.1943359375 10.95 11.8 13.15 9.6 13.15 6.45 Z"/>
</g>

<g id="xatspace_0_Layer4_0_FILL">
<path fill="#000000" stroke="none" d="
M 10.95 11.8
Q 13.15 9.6 13.15 6.45 13.15 3.3 10.95 1.05 8.7 -1.15 5.55 -1.15 2.35 -1.15 0.15 1.05 -2.1 3.3 -2.1 6.45 -2.1 9.6 0.15 11.8 0.5158203125 12.2064453125 0.9 12.5 1.0064453125 12.5845703125 1.1 12.65 1.933984375 13.25234375 2.9 13.6 2.9728515625 13.62421875 3.05 13.65 4.2 14.05 5.55 14.05 8 14.05 9.9 12.7 10.0162109375 12.6154296875 10.1 12.5 10.5556640625 12.1943359375 10.95 11.8 Z"/>
</g>

<g id="Rocket_0_Layer3_0_FILL">
<path fill="#FF6600" stroke="none" d="
M 63.55 -79.5
Q 67.146875 -79.2583984375 70.7 -78.8 69.316796875 -90.55234375 65.35 -101.75 55.141796875 -100.824609375 45.35 -97.6 49.001953125 -105.733984375 59.35 -109.05 26.4494140625 -108.3384765625 3.6 -94.5
L 0.75 -83.65
Q 14.5416015625 -92.0115234375 34.4 -92.45 28.1591796875 -90.4416015625 25.95 -85.55 43.7765625 -91.409375 64.1 -84.6 43.2564453125 -85.9134765625 41.6 -79 52.6517578125 -80.2373046875 63.55 -79.5
M 42.05 -59.6
Q 44.0587890625 -52.77109375 64.85 -55.15 44.8458984375 -47.307421875 26.75 -52.3 29.1990234375 -47.4865234375 35.35 -46.1 15.6958984375 -45.21875 1.5 -52.9
L 4.85 -43.5
Q 28.3576171875 -30.8107421875 60.95 -32.25 50.7251953125 -34.5568359375 46.65 -42.55 57.498828125 -39.5439453125 68.7 -39.35 71.1490234375 -50.9091796875 71.45 -62 56.9501953125 -59.014453125 42.05 -59.6 Z"/>

<path fill="#FFFF00" stroke="none" d="
M 64.85 -55.15
Q 44.0587890625 -52.77109375 42.05 -59.6 56.9501953125 -59.014453125 71.45 -62 71.7216796875 -70.5283203125 70.7 -78.8 67.146875 -79.2583984375 63.55 -79.5 52.6517578125 -80.2373046875 41.6 -79 43.2564453125 -85.9134765625 64.1 -84.6 43.7765625 -91.409375 25.95 -85.55 28.1591796875 -90.4416015625 34.4 -92.45 14.5416015625 -92.0115234375 0.75 -83.65
L 3.6 -94.5
Q -9.363671875 -71.912109375 4.85 -43.5
L 1.5 -52.9
Q 15.6958984375 -45.21875 35.35 -46.1 29.1990234375 -47.4865234375 26.75 -52.3 44.8458984375 -47.307421875 64.85 -55.15 Z"/>
</g>

<g id="Rocket_0_Layer2_0_FILL">
<path fill="url(#Gradient_1)" stroke="none" d="
M -145.3 -48.4
L -144.85 -49.2
Q -148.84609375 -68.9625 -144.85 -88.75 -160.9455078125 -80.1708984375 -176.55 -68.45 -161.1625 -56.894921875 -145.3 -48.4 Z"/>

<path fill="url(#Gradient_2)" stroke="none" d="
M -4.55 -106
Q -22.23125 -110.226953125 -39.45 -111.5 -94.55078125 -115.506640625 -144.85 -88.75 -148.84609375 -68.9625 -144.85 -49.2
L -145.25 -48.4
Q -108.309765625 -28.6349609375 -68.8 -25.5 -68.676171875 -25.48671875 -68.55 -25.5 -54.1666015625 -24.3494140625 -39.45 -25.45 -35.693359375 -25.698046875 -31.95 -26.15 -18.327734375 -27.61328125 -4.45 -30.95
L -4.55 -31.35
Q -9.3046875 -68.6625 -4.55 -106
M -99.15 -91
Q -91.8853515625 -90.980078125 -86.8 -85.9 -81.6494140625 -80.7439453125 -81.65 -73.5 -81.6494140625 -66.2103515625 -86.8 -61.15 -91.8853515625 -55.9744140625 -99.15 -56 -106.4064453125 -55.9744140625 -111.55 -61.15 -116.642578125 -66.2103515625 -116.65 -73.5 -116.642578125 -80.7439453125 -111.55 -85.9 -106.4064453125 -90.980078125 -99.15 -91 Z"/>

<path fill="url(#Gradient_3)" stroke="none" d="
M -86.8 -85.9
Q -91.8853515625 -90.980078125 -99.15 -91 -106.4064453125 -90.980078125 -111.55 -85.9 -116.642578125 -80.7439453125 -116.65 -73.5 -116.642578125 -66.2103515625 -111.55 -61.15 -106.4064453125 -55.9744140625 -99.15 -56 -91.8853515625 -55.9744140625 -86.8 -61.15 -81.6494140625 -66.2103515625 -81.65 -73.5 -81.6494140625 -80.7439453125 -86.8 -85.9
M -99.2 -86.15
Q -93.9564453125 -86.110546875 -90.3 -82.45 -86.6162109375 -78.7703125 -86.65 -73.6 -86.6162109375 -68.3564453125 -90.3 -64.7 -93.9564453125 -61.016015625 -99.2 -61.05 -104.3701171875 -61.016015625 -108.05 -64.7 -111.7103515625 -68.3564453125 -111.75 -73.6 -111.7103515625 -78.7703125 -108.05 -82.45 -104.3701171875 -86.110546875 -99.2 -86.15 Z"/>

<path fill="url(#Gradient_4)" stroke="none" d="
M -90.3 -82.45
Q -93.9564453125 -86.110546875 -99.2 -86.15 -104.3701171875 -86.110546875 -108.05 -82.45 -111.7103515625 -78.7703125 -111.75 -73.6 -111.7103515625 -68.3564453125 -108.05 -64.7 -104.3701171875 -61.016015625 -99.2 -61.05 -93.9564453125 -61.016015625 -90.3 -64.7 -86.6162109375 -68.3564453125 -86.65 -73.6 -86.6162109375 -78.7703125 -90.3 -82.45 Z"/>

<path fill="url(#Gradient_5)" stroke="none" d="
M 4.5 -33.3
Q -0.18359375 -68.45 4.5 -103.6 -0.03984375 -104.88203125 -4.55 -106 -9.3046875 -68.6625 -4.55 -31.35
L -4.45 -30.95
Q 0.0095703125 -32.0328125 4.5 -33.3 Z"/>

<path fill="#08AAD2" stroke="none" d="
M 4.5 -103.6
Q 22.453125 -121.90859375 54.5 -122.6 1.028125 -160.7927734375 -39.45 -111.5 -22.23125 -110.226953125 -4.55 -106 -0.03984375 -104.88203125 4.5 -103.6 Z"/>
</g>

<g id="Rocket_0_Layer1_0_FILL">
<path fill="#08AAD2" stroke="none" d="
M 52.5 -77.2
Q 25.606640625 -82.2544921875 2 -81.5 -2.5869140625 -81.34296875 -7.05 -81 -25.2861328125 -79.4560546875 -41.45 -74.3
L 2.5 -72.2
Q 20.453125 -77.0177734375 52.5 -77.2
M 53.5 -23.3
Q 21.453125 -23.99140625 3.5 -42.3 -18.4625 -35.43828125 -40.45 -34.4 -36.7228515625 -29.8873046875 -32.95 -26.15 4.9326171875 11.3896484375 53.5 -23.3 Z"/>
</g>

<g id="overlay_0_Layer0_0_FILL">
<path fill="url(#Gradient_6)" stroke="none" d="
M 3.85 -1.55
Q 2.25 -2.9 0 -2.9 -2.25 -2.9 -3.85 -1.55 -5.45 -0.2 -5.45 1.75 -5.45 2.4 -5.3 2.9
L 5.3 2.75
Q 5.45 2.35 5.45 1.75 5.45 -0.2 3.85 -1.55 Z"/>
</g>

<path id="xatspace_0_Layer5_0_1_STROKES" stroke="#FFFFFF" stroke-width="1" stroke-linejoin="round" stroke-linecap="round" fill="none" d="
M 9.9 12.7
Q 8 14.05 5.55 14.05 4.2 14.05 3.05 13.65 2 13.3 1.1 12.65 1.0064453125 12.5845703125 0.925 12.525 0.5158203125 12.2064453125 0.15 11.8 -2.1 9.6 -2.1 6.45 -2.1 3.3 0.15 1.05 2.35 -1.15 5.55 -1.15 8.7 -1.15 10.95 1.05 13.15 3.3 13.15 6.45 13.15 9.6 10.95 11.8 10.5556640625 12.1943359375 10.125 12.525 10.0162109375 12.6154296875 9.9 12.7 Z"/>

<path id="Rocket_0_Layer3_0_1_STROKES" stroke="#FF6600" stroke-width="3" stroke-linejoin="round" stroke-linecap="round" fill="none" d="
M 71.475 -62
Q 56.9501953125 -59.014453125 42.075 -59.6 44.0587890625 -52.77109375 64.85 -55.15 44.8458984375 -47.307421875 26.75 -52.3 29.1990234375 -47.4865234375 35.375 -46.075 15.6958984375 -45.21875 1.5 -52.875
M 4.85 -43.5
Q 28.3576171875 -30.8107421875 60.95 -32.225 50.7251953125 -34.5568359375 46.675 -42.525 57.498828125 -39.5439453125 68.725 -39.325
M 70.725 -78.775
Q 67.146875 -79.2583984375 63.55 -79.5 52.6517578125 -80.2373046875 41.625 -79 43.2564453125 -85.9134765625 64.125 -84.575 43.7765625 -91.409375 25.975 -85.525 28.1591796875 -90.4416015625 34.4 -92.45
M 65.375 -101.75
Q 55.141796875 -100.824609375 45.375 -97.6 49.001953125 -105.733984375 59.35 -109.05
M 1.5 -52.875
L 4.85 -43.5
M 34.4 -92.45
Q 14.5416015625 -92.0115234375 0.75 -83.65
L 3.6 -94.5
Q 26.4494140625 -108.3384765625 59.35 -109.05"/>

<path id="Rocket_0_Layer2_0_1_STROKES" stroke="#000000" stroke-width="1" stroke-linejoin="round" stroke-linecap="round" fill="none" d="
M -39.45 -111.475
Q 1.028125 -160.7927734375 54.5 -122.6 22.453125 -121.90859375 4.5 -103.6 -0.18359375 -68.45 4.5 -33.3 0.0095703125 -32.0328125 -4.45 -30.95 -18.327734375 -27.61328125 -31.925 -26.125 -35.693359375 -25.698046875 -39.45 -25.425 -54.1666015625 -24.3494140625 -68.55 -25.475 -68.676171875 -25.48671875 -68.8 -25.5 -108.309765625 -28.6349609375 -145.225 -48.375 -145.2591796875 -48.393359375 -145.3 -48.4 -161.1625 -56.894921875 -176.55 -68.45 -160.9455078125 -80.1708984375 -144.85 -88.725 -94.55078125 -115.506640625 -39.45 -111.475 -22.23125 -110.226953125 -4.55 -105.975 -0.03984375 -104.88203125 4.5 -103.6
M -86.8 -85.9
Q -81.6494140625 -80.7439453125 -81.65 -73.475 -81.6494140625 -66.2103515625 -86.8 -61.125 -91.8853515625 -55.9744140625 -99.15 -55.975 -106.4064453125 -55.9744140625 -111.55 -61.125 -116.642578125 -66.2103515625 -116.65 -73.475 -116.642578125 -80.7439453125 -111.55 -85.9 -106.4064453125 -90.980078125 -99.15 -90.975 -91.8853515625 -90.980078125 -86.8 -85.9 Z
M -90.3 -82.45
Q -86.6162109375 -78.7703125 -86.625 -73.575 -86.6162109375 -68.3564453125 -90.3 -64.7 -93.9564453125 -61.016015625 -99.175 -61.025 -104.3701171875 -61.016015625 -108.05 -64.7 -111.7103515625 -68.3564453125 -111.725 -73.575 -111.7103515625 -78.7703125 -108.05 -82.45 -104.3701171875 -86.110546875 -99.175 -86.125 -93.9564453125 -86.110546875 -90.3 -82.45 Z
M -144.85 -88.725
Q -148.84609375 -68.9625 -144.85 -49.2
M -4.55 -105.975
Q -9.3046875 -68.6625 -4.55 -31.35"/>

<path id="Rocket_0_Layer1_0_1_STROKES" stroke="#000000" stroke-width="1" stroke-linejoin="round" stroke-linecap="round" fill="none" d="
M 3.5 -42.3
Q 21.453125 -23.99140625 53.5 -23.3 4.9326171875 11.3896484375 -32.925 -26.125 -36.7228515625 -29.8873046875 -40.425 -34.375
M 2.5 -72.2
Q 20.453125 -77.0177734375 52.5 -77.2 25.606640625 -82.2544921875 2 -81.5 -2.5869140625 -81.34296875 -7.05 -80.975 -25.2861328125 -79.4560546875 -41.45 -74.275
M -40.425 -34.375
Q -18.4625 -35.43828125 3.5 -42.3
M -41.45 -74.275
L 2.5 -72.2"/>

<path id="xatspace_0_Layer2_0_1_STROKES" stroke="#FFCC00" stroke-width="1" stroke-linejoin="round" stroke-linecap="round" fill="none" d="
M 9.9 12.7
Q 8 14.05 5.55 14.05 4.2 14.05 3.05 13.65 2.9728515625 13.62421875 2.9 13.6 1.933984375 13.25234375 1.1 12.65 1.0064453125 12.5845703125 0.925 12.525 0.5158203125 12.2064453125 0.15 11.8 -2.1 9.6 -2.1 6.45 -2.1 3.3 0.15 1.05 2.35 -1.15 5.55 -1.15 8.7 -1.15 10.95 1.05 13.15 3.3 13.15 6.45 13.15 9.6 10.95 11.8 10.5556640625 12.1943359375 10.125 12.525 10.0162109375 12.6154296875 9.9 12.7 Z"/>
</defs>

<g transform="matrix( 2.0840301513671875, 0, 0, 2.0840301513671875, 8.25,7.05) ">
<g transform="matrix( 1, 0, 0, 1, 0,0) ">
<use xlink:href="#xatspace_0_Layer6_0_FILL"/>
</g>

<g transform="matrix( 1, 0, 0, 1, 0,0) ">
<use xlink:href="#xatspace_0_Layer5_0_1_STROKES"/>
</g>

<g transform="matrix( 1, 0, 0, 1, 0,0) ">
<use xlink:href="#xatspace_0_Layer4_0_FILL"/>
</g>

<g id="Rocket" transform="matrix( -0.0489959716796875, 0.0283355712890625, -0.028289794921875, -0.049102783203125, 0.85,4.9) ">
<g transform="matrix( 1, 0, 0, 1, 0,0) ">
<use xlink:href="#Rocket_0_Layer3_0_FILL"/>

<use xlink:href="#Rocket_0_Layer3_0_1_STROKES"/>
</g>

<g transform="matrix( 1, 0, 0, 1, 0,0) ">
<use xlink:href="#Rocket_0_Layer2_0_FILL"/>

<use xlink:href="#Rocket_0_Layer2_0_1_STROKES"/>
</g>

<g transform="matrix( 1, 0, 0, 1, 0,0) ">
<use xlink:href="#Rocket_0_Layer1_0_FILL"/>

<use xlink:href="#Rocket_0_Layer1_0_1_STROKES"/>
</g>
</g>

<g transform="matrix( 1, 0, 0, 1, 0,0) ">
<use xlink:href="#xatspace_0_Layer2_0_1_STROKES"/>
</g>

<g transform="matrix( 1, 0, 0, 1, 5.45,2.5) ">
<g transform="matrix( 1, 0, 0, 1, 0,0) ">
<use filter="url(#Filter_1)" xlink:href="#overlay_0_Layer0_0_FILL"/>
</g>
</g>
</g>
</svg>
