<svg xmlns="http://www.w3.org/2000/svg" xmlns:xlink="http://www.w3.org/1999/xlink" preserveAspectRatio="none" width="19" height="19"><defs><radialGradient id="a" gradientUnits="userSpaceOnUse" cx="0" cy="0" r="5.1" fx="0" fy="0" gradientTransform="translate(4 3.85)" spreadMethod="pad"><stop offset="0%" stop-color="#F88"/><stop offset="100%" stop-color="red"/></radialGradient><path fill="url(#a)" d="M8.5 1.4Q7.623.503 6.3.5H3.65q-1.284.003-2.25.9-.871.953-.9 2.25V6.3q.029 1.31.9 2.2.966.948 2.25.95H6.3q1.323-.002 2.2-.95.972-.89.95-2.2V3.65q.022-1.297-.95-2.25z" id="b"/><path id="c" stroke="#FFF" stroke-width="1" stroke-linejoin="round" stroke-linecap="round" fill="none" d="M6.3.5H3.675q-1.309.003-2.25.9-.896.953-.9 2.275V6.3q.004 1.31.9 2.2.941.948 2.25.95H6.3q1.323-.002 2.225-.95.947-.89.95-2.2V3.675q-.003-1.322-.95-2.275Q7.623.503 6.3.5z"/><path id="d" stroke="#FFF" stroke-width="1" stroke-linejoin="round" stroke-linecap="round" fill="none" d="M3.05 2.9L7 6.8"/><path id="e" stroke="#FFF" stroke-width="1" stroke-linejoin="round" stroke-linecap="round" fill="none" d="M3 6.9l4.15-4.15"/></defs><g transform="matrix(1.67596 0 0 1.67596 .95 .95)"><use xlink:href="#b"/><use xlink:href="#c"/></g><use xlink:href="#d" transform="matrix(1.67596 0 0 1.67596 .95 .95)"/><use xlink:href="#e" transform="matrix(1.67596 0 0 1.67596 .95 .95)"/></svg>