<?xml version="1.0" encoding="UTF-8"?>
<!DOCTYPE svg PUBLIC "-//W3C//DTD SVG 1.1//EN" "http://www.w3.org/Graphics/SVG/1.1/DTD/svg11.dtd">
<svg xmlns="http://www.w3.org/2000/svg" xml:space="preserve" width="59px" height="65px" version="1.1" style="shape-rendering:geometricPrecision; text-rendering:geometricPrecision; image-rendering:optimizeQuality; fill-rule:evenodd; clip-rule:evenodd"
viewBox="0 0 4.83 6.54"
 xmlns:xlink="http://www.w3.org/1999/xlink"
 xmlns:xodm="http://www.corel.com/coreldraw/odm/2003">
 <defs>
  <style type="text/css">
   <![CDATA[
    .fil0 {fill:#08bd3e}
   ]]>
  </style>
 </defs>
 <g id="Camada_x0020_1">
  <metadata id="CorelCorpID_0Corel-Layer"/>
  <path class="fil0" d="M1.33 2.33c0.03,-0.03 0.37,-0.18 0.45,-0.21 0.13,-0.06 0.31,-0.12 0.41,-0.28 0.09,-0.18 0.03,-0.4 0.01,-0.57 -0.02,-0.18 -0.04,-0.35 -0.07,-0.53 -0.05,-0.36 -0.02,-0.74 -0.58,-0.74 -0.2,0 -0.38,0 -0.58,0 -0.48,0 -0.71,-0.04 -0.84,0.52 -0.13,0.57 -0.17,1.2 -0.09,1.76 0.05,0.43 0.16,0.84 0.32,1.24 0.07,0.17 0.13,0.29 0.21,0.45l0.11 0.21c0.1,0.19 0.29,0.45 0.42,0.62 0.05,0.06 0.1,0.12 0.16,0.19 0.64,0.72 1.4,1.21 2.34,1.5 0.25,0.07 0.37,0.08 0.54,-0.04 0.12,-0.09 0.21,-0.29 0.31,-0.45 0.09,-0.16 0.18,-0.32 0.28,-0.48 0.11,-0.18 0.14,-0.41 0.04,-0.55 -0.07,-0.1 -0.27,-0.24 -0.4,-0.34 -0.14,-0.11 -0.28,-0.21 -0.42,-0.32 -0.13,-0.1 -0.29,-0.27 -0.49,-0.27 -0.19,0 -0.33,0.13 -0.45,0.22 -0.1,0.07 -0.32,0.23 -0.4,0.28 -0.07,-0.04 -0.19,-0.17 -0.25,-0.22 -0.23,-0.23 -0.44,-0.5 -0.59,-0.77 -0.11,-0.19 -0.19,-0.38 -0.27,-0.59 -0.11,-0.3 -0.1,-0.35 -0.17,-0.63z"/>
 </g>
</svg>
