<?xml version="1.0" encoding="utf-8"?>
<!-- Generator: Adobe Illustrator 16.0.3, SVG Export Plug-In . SVG Version: 6.00 Build 0)  -->
<!DOCTYPE svg PUBLIC "-//W3C//DTD SVG 1.1//EN" "http://www.w3.org/Graphics/SVG/1.1/DTD/svg11.dtd">
<svg version="1.1" id="Bfill" xmlns="http://www.w3.org/2000/svg" xmlns:xlink="http://www.w3.org/1999/xlink" x="0px" y="0px"
	 width="256px" height="256px" viewBox="0 0 256 256" enable-background="new 0 0 256 256" xml:space="preserve">
<path fill="#1a1a1a" d="M127.4,19.922c-0.384,0.155-1.368,1.716-2.764,4.382c-7.616,14.539-17.887,27.736-39.313,50.509
	c-6.804,7.231-11.575,12.281-14.2,15.03c-8.369,8.763-12.492,13.236-16.866,18.292c-6.868,7.941-10.874,13.617-13.936,19.739
	c-7.586,15.172-7.858,31.364-0.76,45.262c7.406,14.5,22.044,24.007,38.805,25.199c1.843,0.131,3.703,0.188,4.098,0.127
	c0.4-0.063,2.028-0.182,3.644-0.269c7.189-0.375,15.655-3.079,23.737-7.582c3.148-1.752,8.996-5.532,9.983-6.452
	c0.289-0.271,0.907-0.74,1.333-1.015l0.794-0.512l-0.193,1.107c-0.433,2.467-1.902,8.309-2.876,11.43
	c-4.57,14.635-12.818,27.645-23.078,36.402c-4.991,4.26-5.154,4.43-4.95,5.113c0.101,0.34,0.443,0.852,0.753,1.119
	c0.534,0.467,2.694,0.498,36.386,0.498c33.69,0,35.853-0.031,36.387-0.498c0.31-0.271,0.65-0.779,0.753-1.119
	c0.204-0.687,0.04-0.854-4.951-5.113c-10.26-8.762-18.508-21.771-23.076-36.402c-0.976-3.121-2.442-8.963-2.877-11.43l-0.191-1.107
	l0.793,0.512c0.426,0.271,1.045,0.744,1.334,1.015c0.984,0.92,6.834,4.7,9.98,6.452c8.082,4.503,16.551,7.207,23.735,7.582
	c1.617,0.087,3.253,0.203,3.66,0.265c1.313,0.197,7.457-0.381,10.351-0.974c9.729-1.993,18.129-6.565,24.684-13.434
	c3.445-3.607,5.813-6.891,7.865-10.918c7.094-13.879,6.822-30.061-0.752-45.234c-4.229-8.473-11.781-18.093-25.43-32.387
	c-3.142-3.291-12.332-12.942-13.91-14.606c-4.836-5.104-14.966-16.127-19.15-20.844c-12.232-13.783-19.815-24.274-25.825-35.733
	c-1.188-2.269-2.388-4.239-2.667-4.395C128.116,19.612,128.167,19.613,127.4,19.922L127.4,19.922z"/>
</svg>
