<?xml version="1.0" encoding="UTF-8"?>
<!DOCTYPE svg PUBLIC "-//W3C//DTD SVG 1.1//EN" "http://www.w3.org/Graphics/SVG/1.1/DTD/svg11.dtd">
<!-- Creator: CorelDRAW -->
<svg xmlns="http://www.w3.org/2000/svg" xml:space="preserve" width="60px" height="60px" version="1.1" style="shape-rendering:geometricPrecision; text-rendering:geometricPrecision; image-rendering:optimizeQuality; fill-rule:evenodd; clip-rule:evenodd"
viewBox="0 0 60 60.08"
 xmlns:xlink="http://www.w3.org/1999/xlink"
 xmlns:xodm="http://www.corel.com/coreldraw/odm/2003">
 <defs>
  <style type="text/css">
   <![CDATA[
    .str0 {stroke:white;stroke-width:6.26;stroke-linecap:round;stroke-linejoin:round;stroke-miterlimit:22.9256}
    .fil1 {fill:none;fill-rule:nonzero}
    .fil2 {fill:#FEFEFE;fill-rule:nonzero}
    .fil0 {fill:#FF0009;fill-rule:nonzero}
    .fil3 {fill:url(#id2);fill-rule:nonzero}
   ]]>
  </style>
        <mask id="id0">
  <linearGradient id="id1" gradientUnits="userSpaceOnUse" x1="29.91" y1="32.72" x2="29.91" y2="0.08">
   <stop offset="0" style="stop-opacity:0; stop-color:#9e9e9e"/>
   <stop offset="1" style="stop-opacity:1; stop-color:#9e9e9e"/>
  </linearGradient>
         <rect style="fill:url(#id1)" x="0.43" y="0.43" width="59.14" height="59.22"/>
        </mask>
  <radialGradient id="id2" gradientUnits="userSpaceOnUse" gradientTransform="matrix(1.09501 -0 -0 1.09456 -3 -2)" cx="27" cy="26.44" r="28.57" fx="27" fy="26.44">
   <stop offset="0" style="stop-opacity:0; stop-color:black"/>
   <stop offset="0.701961" style="stop-opacity:0; stop-color:black"/>
   <stop offset="1" style="stop-opacity:0.25098; stop-color:black"/>
  </radialGradient>
 </defs>
 <g id="Camada_x0020_1">
  <metadata id="CorelCorpID_0Corel-Layer"/>
  <g id="_3090043213968">
   <g id="Back">
    <g>
     <g>
      <g>
       <path class="fil0" d="M60 30.08c0,-8.32 -2.95,-15.42 -8.84,-21.32 -1.37,-1.36 -2.79,-2.52 -4.27,-3.47 -4.94,-3.58 -10.57,-5.32 -16.89,-5.21 -0.84,-0.1 -1.68,-0.11 -2.53,0 -5.15,0.42 -9.79,2 -13.89,4.74 -1.69,1.15 -3.26,2.47 -4.74,3.94 -0.73,0.64 -1.37,1.32 -1.89,2.06 -4.63,5.47 -6.95,11.89 -6.95,19.26 0,8.21 2.95,15.26 8.84,21.16 5.79,5.79 12.84,8.73 21.16,8.84 8.21,-0.11 15.26,-3.05 21.16,-8.84 5.89,-5.9 8.84,-12.95 8.84,-21.16z"/>
      </g>
     </g>
    </g>
   </g>
   <g>
    <g>
     <g>
      <path class="fil1 str0" d="M18.89 18.93l11.11 11.11 11.11 -11.11m-22.22 22.22l11.11 -11.11 11.11 11.11"/>
     </g>
    </g>
   </g>
   <g id="Back_0">
    <g>
     <g>
      <g>
       <path class="fil2" style="mask:url(#id0)" d="M59.12 30.08c0,-8.07 -2.86,-14.97 -8.58,-20.69 -1.33,-1.33 -2.71,-2.46 -4.14,-3.38 -4.8,-3.47 -10.27,-5.16 -16.4,-5.06 -0.82,-0.1 -1.64,-0.1 -2.45,0 -5.01,0.41 -9.51,1.95 -13.49,4.6 -1.64,1.13 -3.17,2.4 -4.6,3.84 -0.72,0.61 -1.33,1.27 -1.84,1.99 -4.5,5.31 -6.74,11.54 -6.74,18.7 0,7.97 2.86,14.82 8.58,20.54 5.62,5.62 12.47,8.48 20.54,8.58 7.97,-0.1 14.82,-2.96 20.54,-8.58 5.72,-5.72 8.58,-12.57 8.58,-20.54z"/>
      </g>
     </g>
    </g>
   </g>
   <g id="Shad">
    <g>
     <g>
      <g>
       <path class="fil3" d="M60 30.08c0,-8.32 -2.95,-15.42 -8.84,-21.32 -1.16,-1.15 -2.37,-2.15 -3.63,-3 -0.21,-0.21 -0.42,-0.36 -0.64,-0.47 -4.94,-3.58 -10.57,-5.32 -16.89,-5.21 -0.84,-0.1 -1.68,-0.11 -2.53,0 -5.15,0.42 -9.79,2 -13.89,4.74 -1.69,1.15 -3.26,2.47 -4.74,3.94 -0.73,0.64 -1.37,1.32 -1.89,2.06 -4.63,5.47 -6.95,11.89 -6.95,19.26 0,3.68 0.58,7.16 1.74,10.42 1.47,3.9 3.84,7.47 7.1,10.74 5.79,5.79 12.84,8.73 21.16,8.84 8.21,-0.11 15.26,-3.05 21.16,-8.84 5.89,-5.9 8.84,-12.95 8.84,-21.16z"/>
      </g>
     </g>
    </g>
   </g>
  </g>
 </g>
</svg>
