
<svg xmlns="http://www.w3.org/2000/svg" version="1.1" xmlns:xlink="http://www.w3.org/1999/xlink" preserveAspectRatio="none" x="0px" y="0px" width="19px" height="19px" viewBox="0 0 19 19">
<defs>
<g id="embed_0_Layer4_0_FILL">
<path fill="#35333E" stroke="none" d="
M 18.3 -9.25
Q 18.3 -11.3 16.2 -11.3
L -16.3 -11.3
Q -18.35 -11.3 -18.35 -9.25
L -18.35 10.45
Q -18.35 12.55 -16.3 12.55
L 16.2 12.55
Q 18.3 12.55 18.3 10.45
L 18.3 -9.25 Z"/>
</g>

<g id="embed_0_Layer3_0_FILL">
<path fill="#36343C" stroke="none" d="
M 8.35 16.45
L 8.35 16.4
Q 8.35 15.8 7.9 15.35 7.5 14.95 6.9 14.95
L -6.9 14.95
Q -7.5 14.95 -7.95 15.35 -8.35 15.8 -8.35 16.4
L -8.35 16.45
Q -8.35 16.55 -8.35 16.65
L 8.35 16.65
Q 8.35 16.55 8.35 16.45 Z"/>
</g>

<g id="embed_0_Layer2_0_FILL">
<path fill="#656566" stroke="none" d="
M 3.85 14.95
Q 3.15 13.7 3.1 12.55
L -3.1 12.55
Q -3.1 13.7 -3.85 14.95
L 3.85 14.95 Z"/>
</g>

<g id="embed_0_Layer1_0_FILL">
<path fill="#000000" stroke="none" d="
M -16.95 9.35
L -16.95 9.7 16.95 9.7 16.95 -9.7
Q 1.2 4.2 -16.95 9.35 Z"/>

<path fill="#2A2A2A" stroke="none" d="
M 16.95 -9.7
L 16.95 -10.05 -16.95 -10.05 -16.95 9.35
Q 1.2 4.2 16.95 -9.7 Z"/>
</g>

<g id="embedcode_0_Layer0_0_FILL">
<path fill="#FFFFFF" stroke="none" d="
M 0 4.2
L 0 4.85 4.85 7 4.85 6.05 1.25 4.55 4.85 3 4.85 2.05 0 4.2
M 9.9 0
L 8.9 0 6.15 7.1 7.15 7.1 9.9 0
M 13.7 4.55
L 10.15 6.05 10.15 7 14.95 4.85 14.95 4.2 10.15 2.05 10.15 3 13.7 4.55 Z"/>
</g>
</defs>

<g transform="matrix( 0.48834228515625, 0, 0, 0.48834228515625, 9.5,8.2) ">
<g transform="matrix( 1, 0, 0, 1, 0,0) ">
<use xlink:href="#embed_0_Layer4_0_FILL"/>
</g>

<g transform="matrix( 1, 0, 0, 1, 0,0) ">
<use xlink:href="#embed_0_Layer3_0_FILL"/>
</g>

<g transform="matrix( 1, 0, 0, 1, 0,0) ">
<use xlink:href="#embed_0_Layer2_0_FILL"/>
</g>

<g transform="matrix( 1, 0, 0, 1, 0,0) ">
<use xlink:href="#embed_0_Layer1_0_FILL"/>
</g>

<g transform="matrix( 1.6619720458984375, 0, 0, 1.6619720458984375, -12.4,-7.3) ">
<g transform="matrix( 1, 0, 0, 1, 0,0) ">
<use xlink:href="#embedcode_0_Layer0_0_FILL"/>
</g>
</g>
</g>
</svg>
