<?xml version="1.0" encoding="utf-8"?>
<!-- Generator: Adobe Illustrator 24.0.1, SVG Export Plug-In . SVG Version: 6.00 Build 0)  -->
<svg version="1.1" xmlns="http://www.w3.org/2000/svg" xmlns:xlink="http://www.w3.org/1999/xlink" x="0px" y="0px" width="22px"
	 height="22px" viewBox="0 0 22 22" style="enable-background:new 0 0 22 22;" xml:space="preserve">
<style type="text/css">
	.Sombra_x0020_paralela{fill:none;}
	.Resplandor_x0020_externo_x0020_5_x0020_pt_x002E_{fill:none;}
	.Neón_x0020_azul{fill:none;stroke:#8AACDA;stroke-width:7;stroke-linecap:round;stroke-linejoin:round;}
	.Resalte_x0020_cromado{fill:url(#SVGID_1_);stroke:#FFFFFF;stroke-width:0.3629;stroke-miterlimit:1;}
	.A_x0020_todo_x0020_ritmo_GS{fill:#FFDD00;}
	.Alyssa_GS{fill:#A6D0E4;}
	.st0{fill:#FFFFFF;}
</style>
<linearGradient id="SVGID_1_" gradientUnits="userSpaceOnUse" x1="0" y1="0" x2="6.123234e-17" y2="-1">
	<stop  offset="0" style="stop-color:#656565"/>
	<stop  offset="0.618" style="stop-color:#1B1B1B"/>
	<stop  offset="0.6292" style="stop-color:#545454"/>
	<stop  offset="0.9831" style="stop-color:#3E3E3E"/>
</linearGradient>
<g id="Capa_2">
	<path class="st0" d="M11.113,0.16C5.186,0.16,0.38,4.965,0.38,10.893c0,5.159,3.662,9.399,8.517,10.422v0
		c-0.055-0.156-0.083-0.322-0.09-0.49c0-0.009-0.002-0.018-0.002-0.028c-0.004-0.166,0.017-0.331,0.06-0.49
		c0.002-0.007,0.003-0.014,0.005-0.021c0.012-0.043,0.04-0.077,0.056-0.118c0-0.009,0.003-0.018,0.003-0.028
		C8.925,20.093,8.915,20.048,8.917,20c-0.008-0.207,0.035-0.399,0.129-0.578c0-0.016-0.005-0.031-0.004-0.047v-0.042
		c0-0.035,0.011-0.066,0.013-0.1c-0.004-0.05-0.015-0.098-0.013-0.15v-0.046c-0.028-0.055-0.06-0.108-0.079-0.168
		c-0.094-0.179-0.137-0.371-0.129-0.578V18.25c0-0.035,0.011-0.066,0.013-0.1C8.842,18.1,8.831,18.052,8.833,18v-0.042
		c0-0.046,0.014-0.089,0.018-0.134c-0.009-0.066-0.02-0.131-0.018-0.2c0-0.002,0-0.004,0-0.007c0-0.006,0.053-0.395,0.054-0.401
		c0.001-0.003,0.002-0.007,0.003-0.01c0.001-0.004,0.013-0.033,0.029-0.071c0.001-0.019,0-0.038,0.003-0.057
		c0.012-0.098,0.031-0.287,0.058-0.426c0.002-0.01,0.005-0.021,0.007-0.031c0.003-0.011,0.007-0.023,0.011-0.034
		c0.005-0.013,0.011-0.026,0.016-0.039C9.009,16.492,8.998,16.435,9,16.375v-0.042c0-0.063,0.017-0.122,0.024-0.184
		C9.006,16.061,8.996,15.97,9,15.875v-0.208c0-0.03,0.012-0.057,0.014-0.087c-0.004-0.041-0.008-0.082-0.011-0.123
		c-0.012-0.03-0.031-0.056-0.041-0.087c-0.094-0.179-0.137-0.371-0.129-0.578V14.75c0.001-0.197,0.051-0.38,0.126-0.556
		c-0.056,0.006-0.11,0.017-0.168,0.015H8.296c-0.22,0.153-0.497,0.25-0.837,0.25c-1.033,0-1.508-0.856-1.436-1.653
		c-0.005-0.093,0.003-0.185,0.012-0.277C5.558,11.64,5.977,10.25,7.292,10.25c0.227,0,0.425,0.044,0.599,0.117
		c0.078-0.011,0.148-0.034,0.234-0.034c0.125,0,0.241,0.013,0.349,0.037c0.061-0.044,0.119-0.092,0.184-0.128
		c-0.052-0.189-0.064-0.389-0.049-0.585c-0.001-0.01,0.003-0.02,0.002-0.031c-0.113-0.258-0.148-0.547-0.122-0.83
		C8.472,8.689,8.468,8.58,8.472,8.471C8.466,8.26,8.501,8.05,8.57,7.854c0.005-0.034,0.02-0.066,0.029-0.099
		c-0.05-0.147-0.071-0.303-0.079-0.46c-0.005-0.07-0.007-0.14-0.004-0.21c0.001-0.013,0.002-0.027,0.003-0.04
		c0.037-0.529,0.33-1.019,0.851-1.241c0.016-0.034,0.024-0.07,0.043-0.103C9.43,5.679,9.448,5.656,9.465,5.634
		c0.006-0.017,0.011-0.033,0.017-0.049C9.485,5.578,9.487,5.572,9.49,5.565c0.052-0.124,0.103-0.25,0.157-0.373
		C9.653,5.182,9.658,5.17,9.663,5.16C9.68,5.131,9.704,5.11,9.722,5.084C9.745,5.026,9.756,4.965,9.788,4.91
		c0.078-0.101,0.156-0.202,0.234-0.304c0.04-0.04,0.089-0.067,0.132-0.102c0.047-0.067,0.097-0.132,0.16-0.19l0.167-0.167
		c0.187-0.186,0.408-0.314,0.662-0.386c0.042-0.006,0.083-0.011,0.125-0.017c0.14-0.052,0.285-0.084,0.44-0.078h0.125
		c0.023,0,0.044,0.008,0.067,0.009c0.034-0.002,0.065-0.01,0.1-0.009h0.125c0.133,0,0.261,0.018,0.385,0.051
		c0.117-0.034,0.238-0.056,0.365-0.051h0.292c0.205,0.001,0.397,0.053,0.581,0.131c0.146,0.004,0.281,0.026,0.405,0.061
		c0.011-0.003,0.021-0.011,0.032-0.014c0.133-0.018,0.266-0.036,0.399-0.054c0.139,0,0.273,0.02,0.403,0.056
		c0.12-0.032,0.246-0.056,0.389-0.056c0.885,0,1.359,0.628,1.434,1.31c0.844,0.802,0.53,2.607-0.975,2.607
		c-0.021,0-0.038-0.005-0.059-0.006C15.546,7.884,15.249,8,14.875,8c-0.141,0-0.269-0.02-0.389-0.05
		c-0.203,0.125-0.437,0.216-0.736,0.216c-0.004,0-0.006-0.001-0.01-0.001c-0.068,0.055-0.132,0.115-0.216,0.154
		c0.039,0.124,0.064,0.252,0.059,0.388c0.034,0.287-0.021,0.585-0.068,0.865c-0.022,0.129-0.058,0.254-0.093,0.38
		c0.007,0.023,0.019,0.042,0.024,0.065c0.036,0.107,0.067,0.216,0.097,0.324c0.027,0.053,0.058,0.105,0.077,0.163
		c0,0.001,0,0.002,0.001,0.002c0.029-0.001,0.057-0.009,0.087-0.008h0.083c0.023,0,0.044,0.008,0.067,0.009
		c0.034-0.002,0.065-0.01,0.1-0.009H14c0.001,0,0.002,0,0.003,0c0.144-0.056,0.294-0.09,0.455-0.084h0.038
		c0.22-0.153,0.497-0.25,0.837-0.25c1.576,0,1.864,1.991,0.873,2.729c0.004,0.199-0.037,0.385-0.127,0.558
		c-0.06,0.186-0.164,0.347-0.31,0.483c-0.014,0.014-0.026,0.029-0.039,0.043c-0.119,0.158-0.257,0.297-0.431,0.4
		c-0.04,0.017-0.079,0.034-0.119,0.05c-0.233,0.195-0.54,0.321-0.93,0.321c-0.206,0-0.384-0.04-0.546-0.1
		c-0.104,0.201-0.237,0.387-0.441,0.515c0.046,0.133,0.076,0.271,0.071,0.419v0.042c0,0.077-0.022,0.148-0.034,0.222
		c0.025,0.103,0.038,0.209,0.034,0.32v0.104c0.02,0.051,0.047,0.099,0.064,0.151c0.003,0.008,0.004,0.017,0.006,0.026
		c0-0.001,0.003,0.02,0.008,0.05c0.033,0.079,0.067,0.158,0.1,0.237c0.003,0.006,0.005,0.013,0.008,0.019
		c0.01,0.025,0.019,0.051,0.027,0.077c0.008,0.026,0.014,0.052,0.019,0.079c0.001,0.006,0.002,0.013,0.003,0.019
		c0.018,0.125,0.039,0.277,0.054,0.403c0,0.003,0.001,0.007,0.001,0.01c0.001,0.011,0.002,0.022,0.002,0.033
		c0,0.023-0.008,0.044-0.009,0.067c0.002,0.034,0.01,0.065,0.009,0.1v0.25c-0.001,0.271-0.069,0.523-0.205,0.757l-0.098,0.127
		c0.012,0.069,0.019,0.138,0.028,0.208c0.044,0.13,0.072,0.264,0.067,0.408v0.167c-0.001,0.232-0.061,0.448-0.161,0.653
		c-0.001,0.003-0.001,0.006-0.001,0.009c-0.002,0.011-0.007,0.021-0.009,0.032c-0.001,0.007,0,0.013-0.001,0.02
		c-0.007,0.057-0.017,0.143-0.029,0.234l0.01,0.074c0.016,0.042,0.042,0.078,0.055,0.122c0.018,0.133,0.036,0.266,0.054,0.399
		c0,0.017-0.006,0.033-0.007,0.05c0.001,0.025,0.008,0.049,0.007,0.075v0.125c0,0.017-0.004,0.034-0.007,0.05
		c0,0.018,0.005,0.036,0.005,0.054c4.857-1.025,8.515-5.3,8.515-10.462C21.846,4.965,17.041,0.16,11.113,0.16z"/>
</g>
<g id="Capa_3">
	<path class="st0" d="M20.956,10.499c-0.126-1.014-0.324-2.025-0.593-3.011c-0.492-1.801-1.351-3.35-2.883-4.469
		c-1.604-1.172-3.837-1.902-5.809-1.717c-1.021,0.096-2.055,0.115-2.949,0.636C7.83,2.459,6.866,2.821,5.945,3.288
		c-0.81,0.41-1.776,0.919-2.254,1.729c-0.485,0.822-0.793,1.771-1.276,2.61c-0.497,0.865-0.852,1.64-0.893,2.651
		c-0.045,1.081,0.313,2.008,0.556,3.045c0.445,1.895,0.678,4.229,2.276,5.563c0.678,0.566,1.525,0.877,2.274,1.33
		c0.408,0.247,0.842,0.603,1.302,0.847c0.058,0.013,0.11,0.034,0.163,0.053c0.087,0.017,0.177,0.031,0.253,0.063
		c0.145,0.019,0.272,0.063,0.394,0.112c0.09,0.011,0.176,0.027,0.257,0.051c0.06,0.008,0.123,0.011,0.179,0.025
		c0.005,0.001,0.012,0.001,0.017,0.002l-0.005-7.494H6.625v-3.038h2.563V7.375c0,0,0.042-2.521,3.219-3.219
		c0,0,1.236-0.374,3.55,0.193l0.07,2.963l-2.086,0.052c0,0-0.67,0.073-0.879,0.969v2.504h2.964l-0.589,3.225h-2.313v7.334
		c0.043-0.006,0.086-0.011,0.129-0.017c0.015-0.006,0.028-0.015,0.043-0.021c0.036-0.019,0.075-0.027,0.113-0.042
		c0.471-0.279,0.999-0.487,1.507-0.711c0.505-0.223,0.997-0.422,1.406-0.8c0.43-0.398,0.766-0.881,1.214-1.263
		c0.767-0.654,1.536-1.458,2.002-2.383c0.212-0.419,0.279-0.896,0.495-1.322c0.219-0.432,0.523-0.805,0.76-1.225
		C21.307,12.702,21.081,11.499,20.956,10.499z"/>
</g>
</svg>
