
<svg xmlns="http://www.w3.org/2000/svg" version="1.1" xmlns:xlink="http://www.w3.org/1999/xlink" preserveAspectRatio="none" x="0px" y="0px" width="19px" height="19px" viewBox="0 0 19 19">
<defs>
<g id="Extra_Symbols__Ignore_This_Folder___App_Icons_featured_0_Layer2_0_FILL">
<path fill="#0099FF" stroke="none" d="
M 9.15 -16.7
L 5.95 -13.15 3.2 -17.1 1.25 -12.75 -2.6 -15.7 -3.1 -10.9 -7.6 -12.5 -6.65 -7.8 -11.45 -8 -9.1 -3.75 -13.7 -2.35 -10.15 0.85 -14.1 3.6 -9.7 5.55 -12.7 9.35 -7.9 9.9 -9.5 14.4 -4.8 13.4 -4.9 18.15 -0.75 15.8 0.65 20.45 3.85 16.85 6.6 20.9 8.55 16.5 12.35 19.4 12.9 14.6 17.4 16.2 16.45 11.5 21.25 11.7 18.9 7.45 23.45 6.15 19.95 2.85 23.9 0.2 19.5 -1.75 22.4 -5.6 17.6 -6.1 19.2 -10.7 14.5 -9.65 14.7 -14.45 10.45 -12.1 9.15 -16.7 Z"/>
</g>

<g id="Extra_Symbols__Ignore_This_Folder___App_Icons_featured_0_Layer1_0_FILL">
<path fill="#FFFFFF" fill-opacity="0.45098039215686275" stroke="none" d="
M 10.45 -12.1
L 9.15 -16.7 5.95 -13.15 3.2 -17.1 1.25 -12.75 -2.6 -15.7 -3.1 -10.9 -7.6 -12.5 -6.65 -7.8 -10.55 -7.9
Q 3.3 3.3 20.05 7.15
L 23.45 6.15 19.95 2.85 23.9 0.2 19.5 -1.75 22.4 -5.6 17.6 -6.1 19.2 -10.7 14.5 -9.65 14.7 -14.45 10.45 -12.1 Z"/>
</g>
</defs>

<g transform="matrix( 0.5013427734375, 0, 0, 0.5013427734375, 9.5,9.5) ">
<g transform="matrix( 0.944366455078125, 0, 0, 0.944366455078125, -4.6,-1.8) ">
<g transform="matrix( 1, 0, 0, 1, 0,0) ">
<use xlink:href="#Extra_Symbols__Ignore_This_Folder___App_Icons_featured_0_Layer2_0_FILL"/>
</g>

<g transform="matrix( 1, 0, 0, 1, 0,0) ">
<use xlink:href="#Extra_Symbols__Ignore_This_Folder___App_Icons_featured_0_Layer1_0_FILL"/>
</g>
</g>
</g>
</svg>
