
<svg xmlns="http://www.w3.org/2000/svg" version="1.1" xmlns:xlink="http://www.w3.org/1999/xlink" preserveAspectRatio="none" x="0px" y="0px" width="20px" height="20px" viewBox="0 0 20 20">
<defs>
<g id="symbol_0_Layer0_0_FILL">
<path fill="#990000" stroke="none" d="
M 119.95 44.3
Q 117.7 42.1 114.55 42.1 111.4 42.1 109.15 44.3 106.95 46.55 106.95 49.7 106.95 52.45 108.7 54.55 108.9 54.8 109.15 55.1 111.4 57.3 114.55 57.3 117.7 57.3 119.95 55.1 122.15 52.85 122.15 49.7 122.15 48.45 121.85 47.4 121.3 45.7 119.95 44.3 Z"/>

<path fill="#FFFFFF" stroke="none" d="
M 114.55 42.1
Q 117.7 42.1 119.95 44.3 121.3 45.7 121.85 47.4 145.95 35 169.15 28.1 160.65 8 149.85 2.25 136.75 -3.75 117.65 6.35 106.85 11.15 94.55 10.45 81.55 11.15 70.75 6.35 51.65 -3.75 38.55 2.25 13.05 15.95 0.15 109.9 -1.1 127.1 7.35 132.4 59.85 82.4 108.7 54.55 106.95 52.45 106.95 49.7 106.95 46.55 109.15 44.3 111.4 42.1 114.55 42.1
M 140.2 31.3
Q 140.2 34.45 138 36.7 135.75 38.95 132.6 38.95 129.45 38.95 127.2 36.7 125 34.45 125 31.3 125 28.15 127.2 25.95 129.45 23.7 132.6 23.7 135.75 23.7 138 25.95 140.2 28.15 140.2 31.3
M 56.6 23.9
Q 67.5 23.9 75.15 31.55 82.85 39.25 82.85 50.15 82.85 61.05 75.15 68.75 67.5 76.4 56.6 76.4 45.7 76.4 38 68.75 30.35 61.05 30.35 50.15 30.35 39.25 38 31.55 45.7 23.9 56.6 23.9 Z"/>

<path fill="#666666" stroke="none" d="
M 75.15 31.55
Q 67.5 23.9 56.6 23.9 45.7 23.9 38 31.55 30.35 39.25 30.35 50.15 30.35 61.05 38 68.75 45.7 76.4 56.6 76.4 67.5 76.4 75.15 68.75 82.85 61.05 82.85 50.15 82.85 39.25 75.15 31.55
M 56.6 32.05
Q 64.15 32.05 69.4 37.35 74.7 42.65 74.7 50.15 74.7 57.7 69.4 63 64.15 68.35 56.6 68.35 49.05 68.35 43.8 63 38.45 57.7 38.45 50.15 38.45 42.65 43.8 37.35 49.05 32.05 56.6 32.05 Z"/>

<path fill="#999999" stroke="none" d="
M 69.4 37.35
Q 64.15 32.05 56.6 32.05 49.05 32.05 43.8 37.35 38.45 42.65 38.45 50.15 38.45 57.7 43.8 63 49.05 68.35 56.6 68.35 64.15 68.35 69.4 63 74.7 57.7 74.7 50.15 74.7 42.65 69.4 37.35 Z"/>

<path fill="#FFCC00" stroke="none" d="
M 138 36.7
Q 140.2 34.45 140.2 31.3 140.2 28.15 138 25.95 135.75 23.7 132.6 23.7 129.45 23.7 127.2 25.95 125 28.15 125 31.3 125 34.45 127.2 36.7 129.45 38.95 132.6 38.95 135.75 38.95 138 36.7 Z"/>

<path fill="#CBCBCB" stroke="none" d="
M 171.35 134.85
Q 190.05 134.9 188.25 109.9 180.8 55.6 169.15 28.1 145.95 35 121.85 47.4 122.15 48.45 122.15 49.7 122.15 52.85 119.95 55.1 117.7 57.3 114.55 57.3 111.4 57.3 109.15 55.1 108.9 54.8 108.7 54.55 59.85 82.4 7.35 132.4 11.25 134.85 17.05 134.85 28.7 134.65 62.5 101.5 67 97 90.15 96.9 92.15 96.9 94.4 96.9 96.35 96.9 98.25 96.9 121.4 97 125.9 101.5 159.7 134.65 171.35 134.85
M 150.85 42.1
Q 154 42.1 156.25 44.3 158.45 46.55 158.45 49.7 158.45 52.85 156.25 55.1 154 57.3 150.85 57.3 147.7 57.3 145.45 55.1 143.25 52.85 143.25 49.7 143.25 46.55 145.45 44.3 147.7 42.1 150.85 42.1
M 127.2 61.45
Q 129.45 59.2 132.6 59.2 135.75 59.2 138 61.45 140.2 63.65 140.2 66.85 140.2 70 138 72.2 135.75 74.45 132.6 74.45 129.45 74.45 127.2 72.2 125 70 125 66.85 125 63.65 127.2 61.45 Z"/>

<path fill="#009900" stroke="none" d="
M 132.6 59.2
Q 129.45 59.2 127.2 61.45 125 63.65 125 66.85 125 70 127.2 72.2 129.45 74.45 132.6 74.45 135.75 74.45 138 72.2 140.2 70 140.2 66.85 140.2 63.65 138 61.45 135.75 59.2 132.6 59.2 Z"/>

<path fill="#0033FF" stroke="none" d="
M 156.25 44.3
Q 154 42.1 150.85 42.1 147.7 42.1 145.45 44.3 143.25 46.55 143.25 49.7 143.25 52.85 145.45 55.1 147.7 57.3 150.85 57.3 154 57.3 156.25 55.1 158.45 52.85 158.45 49.7 158.45 46.55 156.25 44.3 Z"/>
</g>

<path id="symbol_0_Layer0_0_1_STROKES" stroke="#444444" stroke-opacity="0.45098039215686275" stroke-width="4" stroke-linejoin="round" stroke-linecap="round" fill="none" d="
M 7.35 132.4
Q 11.25 134.85 17.05 134.85 28.7 134.65 62.5 101.5 67 97 90.15 96.9 92.15 96.9 94.4 96.9 96.35 96.9 98.25 96.9 121.4 97 125.9 101.5 159.7 134.65 171.35 134.85 190.05 134.9 188.25 109.9 180.8 55.6 169.15 28.1
M 7.35 132.4
Q -1.1 127.1 0.15 109.9 13.05 15.95 38.55 2.25 51.65 -3.75 70.75 6.35 81.55 11.15 94.55 10.45 106.85 11.15 117.65 6.35 136.75 -3.75 149.85 2.25 160.65 8 169.15 28.1"/>
</defs>

<g transform="matrix( 0.0999908447265625, 0, 0, 0.0999908447265625, 0.55,3.2) ">
<g transform="matrix( 1, 0, 0, 1, 0,0) ">
<use xlink:href="#symbol_0_Layer0_0_FILL"/>

<use xlink:href="#symbol_0_Layer0_0_1_STROKES"/>
</g>
</g>
</svg>
