<?xml version="1.0" encoding="UTF-8"?>
<!DOCTYPE svg PUBLIC "-//W3C//DTD SVG 1.1//EN" "http://www.w3.org/Graphics/SVG/1.1/DTD/svg11.dtd">
<!-- Creator: CorelDRAW -->
<svg xmlns="http://www.w3.org/2000/svg" xml:space="preserve" width="60px" height="60px" version="1.1" style="shape-rendering:geometricPrecision; text-rendering:geometricPrecision; image-rendering:optimizeQuality; fill-rule:evenodd; clip-rule:evenodd"
viewBox="0 0 60 60.16"
 xmlns:xlink="http://www.w3.org/1999/xlink"
 xmlns:xodm="http://www.corel.com/coreldraw/odm/2003">
 <defs>
  <style type="text/css">
   <![CDATA[
    .str0 {stroke:#FEFEFE;stroke-width:0.9;stroke-miterlimit:22.9256}
    .fil3 {fill:none;fill-rule:nonzero}
    .fil4 {fill:#FEFEFE}
    .fil2 {fill:#FEFEFE;fill-rule:nonzero}
    .fil0 {fill:#2A3FAA;fill-rule:nonzero;fill-opacity:0.000000}
    .fil1 {fill:url(#id3);fill-rule:nonzero}
   ]]>
  </style>
    <clipPath id="id0" style="clip-rule:nonzero">
     <path d="M29.9 59.95c8.3,0.07 15.36,-2.84 21.17,-8.71 5.91,-5.84 8.81,-12.89 8.72,-21.16 0.09,-8.26 -2.81,-15.32 -8.72,-21.16 -5.81,-5.9 -12.87,-8.87 -21.17,-8.92 -8.28,0.05 -15.33,3.02 -21.18,8.92 -5.84,5.84 -8.74,12.9 -8.72,21.16 -0.02,8.27 2.88,15.32 8.72,21.16 5.85,5.87 12.9,8.78 21.18,8.71z"/>
    </clipPath>
      <mask id="id1">
  <linearGradient id="id2" gradientUnits="userSpaceOnUse" x1="29.77" y1="23.67" x2="29.77" y2="-9.37">
   <stop offset="0" style="stop-opacity:0; stop-color:white"/>
   <stop offset="0.54902" style="stop-opacity:0.501961; stop-color:white"/>
   <stop offset="1" style="stop-opacity:1; stop-color:white"/>
  </linearGradient>
       <rect style="fill:url(#id2)" x="0.23" y="0.9" width="59.33" height="59.48"/>
      </mask>
  <linearGradient id="id3" gradientUnits="userSpaceOnUse" x1="37.56" y1="58.96" x2="22.24" y2="1">
   <stop offset="0" style="stop-opacity:1; stop-color:#2A3FAA"/>
   <stop offset="0.611765" style="stop-opacity:1; stop-color:#2A3FAA"/>
   <stop offset="1" style="stop-opacity:1; stop-color:#2A3FAA"/>
  </linearGradient>
 </defs>
 <g id="Camada_x0020_1">
  <metadata id="CorelCorpID_0Corel-Layer"/>
  <g id="_3091195585120">
   <g>
    <g>
     <path class="fil0" d="M60 30.08c0.07,-8.32 -2.83,-15.45 -8.69,-21.39 -5.89,-5.8 -13.02,-8.7 -21.39,-8.69 -8.24,-0.01 -15.31,2.89 -21.23,8.69 -5.8,5.94 -8.7,13.07 -8.69,21.39 -0.01,8.32 2.89,15.4 8.69,21.23 5.92,5.91 12.99,8.87 21.23,8.85 8.37,0.02 15.5,-2.94 21.39,-8.85 5.86,-5.83 8.76,-12.91 8.69,-21.23m-13.2 -16.88c4.75,4.71 7.09,10.39 7.01,17.05 0.08,6.66 -2.26,12.34 -7.01,17.04 -4.68,4.73 -10.36,7.07 -17.05,7.02 -6.66,0.05 -12.34,-2.29 -17.05,-7.02 -4.7,-4.7 -7.04,-10.38 -7.02,-17.04 -0.02,-6.66 2.32,-12.34 7.02,-17.05 4.71,-4.75 10.39,-7.15 17.05,-7.18 6.69,0.03 12.37,2.43 17.05,7.18z"/>
    </g>
   </g>
   <path class="fil1" d="M29.9 59.95c8.3,0.07 15.36,-2.84 21.17,-8.71 5.91,-5.84 8.81,-12.89 8.72,-21.16 0.09,-8.26 -2.81,-15.32 -8.72,-21.16 -5.81,-5.9 -12.87,-8.87 -21.17,-8.92 -8.28,0.05 -15.33,3.02 -21.18,8.92 -5.84,5.84 -8.74,12.9 -8.72,21.16 -0.02,8.27 2.88,15.32 8.72,21.16 5.85,5.87 12.9,8.78 21.18,8.71z"/>
   <g style="clip-path:url(#id0)">
    <g>
     <path id="_1" class="fil2" style="mask:url(#id1)" d="M29.9 59.93c8.11,0.06 15.01,-2.78 20.69,-8.51 5.77,-5.71 8.61,-12.6 8.52,-20.68 0.09,-8.07 -2.75,-14.97 -8.52,-20.67 -5.68,-5.77 -12.58,-8.67 -20.69,-8.72 -8.09,0.05 -14.98,2.95 -20.69,8.72 -5.71,5.7 -8.55,12.6 -8.52,20.67 -0.03,8.08 2.81,14.97 8.52,20.68 5.71,5.73 12.6,8.57 20.69,8.51z"/>
    </g>
   </g>
   <path class="fil3" d="M29.9 59.95c8.3,0.07 15.36,-2.84 21.17,-8.71 5.91,-5.84 8.81,-12.89 8.72,-21.16 0.09,-8.26 -2.81,-15.32 -8.72,-21.16 -5.81,-5.9 -12.87,-8.87 -21.17,-8.92 -8.28,0.05 -15.33,3.02 -21.18,8.92 -5.84,5.84 -8.74,12.9 -8.72,21.16 -0.02,8.27 2.88,15.32 8.72,21.16 5.85,5.87 12.9,8.78 21.18,8.71z"/>
   <g>
    <path class="fil4 str0" d="M28.34 16.1c3.07,-0.32 5.39,0.09 6.98,1.78 1.43,1.49 2.15,4.42 0.86,6.74 -1,1.79 -3.03,2.85 -4.91,3.99 -1.72,1.03 -3.29,2.4 -3.91,4.89 -0.29,1.14 -0.44,3.08 0.22,3.96 0.63,0.81 1.74,1.47 3.21,1.02 1.13,-0.34 1.77,-1.2 1.87,-2.59 0.13,-1.52 0.77,-2.18 1.82,-2.81 0.95,-0.57 1.79,-1.17 2.7,-1.74 7.94,-5.02 6.14,-16.45 -0.86,-19.67 -2.56,-1.17 -4.58,-1.25 -7.75,-1.16 -4.7,0.12 -8.95,2.68 -10.5,7.24 -2.55,7.48 2.83,7.51 4.29,5.66 0.76,-0.98 0.48,-2.28 0.9,-3.55 0.77,-2.32 2.68,-3.52 5.08,-3.76z"/>
    <path class="fil4 str0" d="M26.47 46.57c0.29,1.73 1.89,3.18 3.99,2.84 4.45,-0.71 3.46,-7.6 -1.15,-6.86 -1.73,0.28 -3.18,1.94 -2.84,4.02z"/>
   </g>
  </g>
 </g>
</svg>
