
<svg xmlns="http://www.w3.org/2000/svg" version="1.1" xmlns:xlink="http://www.w3.org/1999/xlink" preserveAspectRatio="none" x="0px" y="0px" width="200px" height="200px" viewBox="0 0 200 200">
<defs>
<g id="Layer0_0_FILL">
<path fill="#636363" d="
M 150.95 23.05
Q 143.7 15.8 133.5 15.8
L 66.55 15.8
Q 56.3 15.8 49.05 23.05 41.8 30.3 41.8 40.5
L 41.8 159.5
Q 41.8 169.75 49.05 177 56.3 184.25 66.55 184.25
L 133.5 184.25
Q 143.7 184.25 150.95 177 158.25 169.75 158.25 159.5
L 158.25 40.5
Q 158.25 30.3 150.95 23.05
M 114.75 158.7
Q 114.75 164.5 110.65 168.6 106.55 172.7 100.75 172.7 94.9 172.7 90.8 168.6 86.7 164.5 86.7 158.7 86.7 152.85 90.8 148.75 94.9 144.65 100.75 144.65 106.55 144.65 110.65 148.75 114.75 152.85 114.75 158.7
M 145.05 127.1
L 55.15 127.1 55.15 38.1 145.05 38.1 145.05 127.1 Z"/>

<path fill="#48c0de" stroke="none" d="
M 55.15 127.1
L 145.05 127.1 145.05 38.1 55.15 38.1 55.15 127.1 Z"/>

<path fill="#dbdbdb" stroke="none" d="
M 110.65 168.6
Q 114.75 164.5 114.75 158.7 114.75 152.85 110.65 148.75 106.55 144.65 100.75 144.65 94.9 144.65 90.8 148.75 86.7 152.85 86.7 158.7 86.7 164.5 90.8 168.6 94.9 172.7 100.75 172.7 106.55 172.7 110.65 168.6 Z"/>
</g>
</defs>

<g transform="matrix( 1, 0, 0, 1, 0,0) ">
<use xlink:href="#Layer0_0_FILL"/>
</g>
</svg>
