
<svg xmlns="http://www.w3.org/2000/svg" version="1.1" xmlns:xlink="http://www.w3.org/1999/xlink" preserveAspectRatio="none" x="0px" y="0px" width="19px" height="19px" viewBox="0 0 19 19">
<defs>
<g id="Layer0_0_FILL">
<path fill="#FFCC00" stroke="none" d="
M 17.95 8.15
Q 17.95 5.5 15.5 3.55 13 1.7 9.5 1.7 9.1 1.7 8.65 1.75 5.75 1.95 3.55 3.55 1.05 5.5 1.05 8.15 1.05 10.95 3.55 12.8 4.25 13.3 5 13.75 4.8 15.6 2.6 17.45 5.75 16.95 7.95 14.65 8.75 14.75 9.5 14.75 13 14.75 15.5 12.8 16.35 12.1 16.95 11.3 17.95 9.9 17.95 8.15
M 15.2 5.5
Q 9.45 1.1 3.8 5.35 9.45 1.1 15.2 5.5 Z"/>
</g>

<path id="Layer0_0_1_STROKES" stroke="#FFFFFF" stroke-opacity="0.7490196078431373" stroke-width="1" stroke-linejoin="round" stroke-linecap="round" fill="none" d="
M 15.2 5.5
Q 9.45 1.1 3.8 5.35"/>
</defs>

<g transform="matrix( 1, 0, 0, 1, 0,0) ">
<use xlink:href="#Layer0_0_FILL"/>

<use xlink:href="#Layer0_0_1_STROKES"/>
</g>
</svg>
