
<svg xmlns="http://www.w3.org/2000/svg" version="1.1" xmlns:xlink="http://www.w3.org/1999/xlink" preserveAspectRatio="none" x="0px" y="0px" width="19px" height="19px" viewBox="0 0 19 19">
<defs>
<radialGradient id="Gradient_1" gradientUnits="userSpaceOnUse" cx="0" cy="0" r="6.1499999999999995" fx="0" fy="0" gradientTransform="matrix( 1, 0, 0, 1, 7.3,7.4) " spreadMethod="pad">
<stop  offset="0%" stop-color="#4DE6E6" stop-opacity="0.5490196078431373"/>

<stop  offset="100%" stop-color="#FFFFFF"/>
</radialGradient>

<g id="Layer1_0_FILL">
<path fill="#000000" stroke="none" d="
M 7.3 14.6
Q 6.4 14.6 5.6 14.4
L 5.6 24
Q 7.35 25.2 9.1 24
L 9.1 14.4
Q 8.25 14.6 7.3 14.6 Z"/>

<path fill="#CCCCCC" stroke="none" d="
M 14.6 7.3
Q 14.6 4.3 12.45 2.15 10.3 0 7.3 0 4.3 0 2.15 2.15 0 4.3 0 7.3 0 10.3 2.15 12.45 3.65 13.95 5.6 14.4 6.4 14.6 7.3 14.6 8.25 14.6 9.1 14.4 11 13.95 12.45 12.45 14.6 10.3 14.6 7.3
M 12.55 5.5
Q 12.8259765625 6.1974609375 12.85 6.95 12.9 7.1666015625 12.9 7.4 12.9 9.7 11.25 11.3 9.6 12.95 7.3 12.95 5 12.95 3.35 11.3 1.7 9.7 1.7 7.4 1.7 6.429296875 2 5.55 2.36875 4.486328125 3.2 3.55
L 3.35 3.45
Q 5 1.8 7.3 1.8 9.6 1.8 11.25 3.45
L 12.4 5.05 12.55 5.5 Z"/>

<path fill="url(#Gradient_1)" stroke="none" d="
M 11.25 11.3
Q 12.9 9.7 12.9 7.4 12.9 7.1666015625 12.85 6.95 6.8427734375 3.355078125 1.75 6.95 1.7859375 6.2318359375 2 5.55 1.7 6.429296875 1.7 7.4 1.7 9.7 3.35 11.3 5 12.95 7.3 12.95 9.6 12.95 11.25 11.3 Z"/>

<path fill="#C4FFFF" fill-opacity="0.8117647058823529" stroke="none" d="
M 12.85 6.95
Q 12.8259765625 6.1974609375 12.55 5.5
L 12.4 5.05 11.25 3.45
Q 9.6 1.8 7.3 1.8 5 1.8 3.35 3.45
L 3.2 3.55
Q 3.076171875 3.739453125 2.95 3.9 2.771484375 4.114453125 2.6 4.35
L 2 5.55
Q 1.7859375 6.2318359375 1.75 6.95 6.8427734375 3.355078125 12.85 6.95 Z"/>
</g>
</defs>

<g transform="matrix( 0.5931854248046875, -0.5648651123046875, 0.5648651123046875, 0.5931854248046875, -1.35,6.9) ">
<g transform="matrix( 1, 0, 0, 1, 0,0) ">
<use xlink:href="#Layer1_0_FILL"/>
</g>
</g>
</svg>
