<?xml version="1.0" encoding="utf-8"?>
<!-- Generator: Adobe Illustrator 24.0.1, SVG Export Plug-In . SVG Version: 6.00 Build 0)  -->
<svg version="1.1" id="Capa_2" xmlns="http://www.w3.org/2000/svg" xmlns:xlink="http://www.w3.org/1999/xlink" x="0px" y="0px"
	 width="222px" height="200px" viewBox="0 0 222 200" style="enable-background:new 0 0 222 200;" xml:space="preserve">
<style type="text/css">
	.Sombra_x0020_paralela{fill:none;}
	.Resplandor_x0020_externo_x0020_5_x0020_pt_x002E_{fill:none;}
	.Neón_x0020_azul{fill:none;stroke:#8AACDA;stroke-width:7;stroke-linecap:round;stroke-linejoin:round;}
	.Resalte_x0020_cromado{fill:url(#SVGID_1_);stroke:#FFFFFF;stroke-width:0.3629;stroke-miterlimit:1;}
	.A_x0020_todo_x0020_ritmo_GS{fill:#FFDD00;}
	.Alyssa_GS{fill:#A6D0E4;}
	.st0{fill:#FFFFFF;}
	.st1{fill:#DDDDDD;}
	.st2{fill:none;stroke:#ABD0E9;stroke-width:3;stroke-miterlimit:10;}
</style>
<linearGradient id="SVGID_1_" gradientUnits="userSpaceOnUse" x1="-467" y1="-214" x2="-467" y2="-215">
	<stop  offset="0" style="stop-color:#656565"/>
	<stop  offset="0.618" style="stop-color:#1B1B1B"/>
	<stop  offset="0.6292" style="stop-color:#545454"/>
	<stop  offset="0.9831" style="stop-color:#3E3E3E"/>
</linearGradient>
<g id="XMLID_1_">
	<g>
		<polygon class="st0" points="82.5,148.5 82.5,147.5 186.5,34.5 58.5,132.5 21.5,107.5 208.5,15.5 143.5,178.5 98.5,156.5 		"/>
		<polygon class="st1" points="98.5,156.5 81.5,178.5 82.5,148.5 		"/>
		<polygon class="st1" points="186.5,34.5 82.5,147.5 82.5,148.5 81.5,178.5 58.5,132.5 		"/>
	</g>
	<g>
		<polygon class="st2" points="98.5,156.5 143.5,178.5 208.5,15.5 21.5,107.5 58.5,132.5 81.5,178.5 		"/>
		<polyline class="st2" points="81.5,178.5 82.5,148.5 98.5,156.5 		"/>
		<polyline class="st2" points="58.5,132.5 186.5,34.5 82.5,147.5 		"/>
	</g>
</g>
</svg>
