
<svg xmlns="http://www.w3.org/2000/svg" version="1.1" xmlns:xlink="http://www.w3.org/1999/xlink" preserveAspectRatio="none" x="0px" y="0px" width="20px" height="20px" viewBox="0 0 20 20">
<defs>
<radialGradient id="Gradient_1" gradientUnits="userSpaceOnUse" cx="0" cy="0" r="9.667964172978714" fx="0" fy="0" gradientTransform="matrix( 0.4835557844811113, -0.8753135457051132, 0.5145861022018243, 0.28185871929647666, 2.65,5.3) " spreadMethod="pad">
<stop  offset="0%" stop-color="#000000" stop-opacity="0.4117647058823529"/>

<stop  offset="100%" stop-color="#013198" stop-opacity="0"/>
</radialGradient>

<radialGradient id="Gradient_2" gradientUnits="userSpaceOnUse" cx="0" cy="0" r="5.021096120370532" fx="0" fy="0" gradientTransform="matrix( 0.7767228323269382, -0.6298425531369082, 0.40080889745075976, 0.4929202589767107, 1.4,-3.35) " spreadMethod="pad">
<stop  offset="0%" stop-color="#000000" stop-opacity="0.4235294117647059"/>

<stop  offset="100%" stop-color="#013198" stop-opacity="0"/>
</radialGradient>

<g id="symbol_0_Layer3_0_FILL">
<path fill="#C6C6C6" stroke="none" d="
M -88.4 61.05
Q -88.4 68.4 -81.05 68.4
L 82.1 68.4
Q 88.95 68.4 88.95 61.05
L 88.95 4.2
Q -10.55 -11.05 -88.4 35.25
L -88.4 61.05 Z"/>

<path fill="#FFFFFF" stroke="none" d="
M 93.15 -35.8
Q 93.15 -43.15 85.8 -43.15
L -85.25 -43.15
Q -92.65 -43.15 -92.65 -35.8
L -92.65 37.35
Q -11.05 -12.1 93.15 4.2
L 93.15 -35.8 Z"/>
</g>

<g id="symbol_0_Layer2_0_FILL">
<path fill="#BBBBBB" stroke="none" d="
M 22.1 -54.75
Q 18.4 -62.65 0 -62.65 -14.75 -62.65 -18.4 -54.75 -22.1 -46.3 -27.35 -43.15 -28.95 -42.65 -30 -42.1
L -27.35 -42.1 -10 -42.1 31.6 -42.1 33.7 -42.1
Q 32.65 -42.65 31.6 -43.15 25.8 -46.3 22.1 -54.75
M 14.2 -54.75
Q 15.25 -53.7 15.25 -52.1 15.25 -50.55 14.2 -49.45 13.7 -48.4 12.1 -48.4
L -10 -48.4
Q -11.6 -48.4 -12.65 -49.45 -13.7 -50.55 -13.7 -52.1 -13.7 -53.7 -12.65 -54.75 -11.6 -55.8 -10 -55.8
L 12.1 -55.8
Q 13.7 -55.8 14.2 -54.75 Z"/>
</g>

<g id="_objects_ChatterB_0_Layer0_0_FILL">
<path fill="#009900" stroke="none" d="
M 8.3 3.4
Q 8.2974609375 1.993359375 7.3 1 6.3072265625 0.00390625 4.9 0 3.492578125 0.00390625 2.5 1 1.50234375 1.993359375 1.5 3.4 1.50234375 4.806640625 2.5 5.8 3.492578125 6.78359375 4.9 6.75 3.2388671875 6.9326171875 1.7 9.1 -0.062109375 11.6072265625 0 14.85 0.025 15.912890625 5.15 16 10.26640625 16.0830078125 10.2 15.05 10.011328125 11.7240234375 8.45 9.2 6.997265625 6.7763671875 5.15 6.75 6.40390625 6.6900390625 7.3 5.8 8.2974609375 4.806640625 8.3 3.4 Z"/>
</g>

<g id="_smiley_objects_pawn_0_Layer0_0_FILL">
<path fill="url(#Gradient_1)" stroke="none" d="
M -0.05 -1.2
L -0.1 -1.2
Q -1.75 -1.05 -3.3 1.15 -5.05 3.6 -5 6.9 -4.95 7.9 0.15 8 5.25 8.1 5.2 7.05 5 3.7 3.5 1.25 2 -1.2 0.2 -1.2 0.05 -1.2 -0.05 -1.2
M -2.8 6.4
Q -2.5 2.15 -0.1 0.6 -2.5 2.15 -2.8 6.4 Z"/>

<path fill="url(#Gradient_2)" stroke="none" d="
M 0.2 -1.2
Q 1.4 -1.3 2.3 -2.2 3.3 -3.2 3.3 -4.6 3.3 -6 2.3 -7 1.3 -8 -0.1 -8 -1.5 -8 -2.5 -7 -3.5 -6 -3.5 -4.6 -3.5 -3.2 -2.5 -2.2 -1.5 -1.2 -0.1 -1.2
L -0.05 -1.2
Q 0.05 -1.2 0.2 -1.2
M -1.8 -4.55
Q -1.6 -5.85 -0.5 -6.4 -1.6 -5.85 -1.8 -4.55 Z"/>
</g>

<path id="symbol_0_Layer2_0_1_STROKES" stroke="#000000" stroke-opacity="0.6470588235294118" stroke-width="4" stroke-linejoin="round" stroke-linecap="round" fill="none" d="
M -27.35 -43.15
Q -22.1 -46.3 -18.4 -54.75 -14.75 -62.65 0 -62.65 18.4 -62.65 22.1 -54.75 25.8 -46.3 31.6 -43.15
L 50 -42.1 85.8 -42.1
Q 93.15 -42.1 93.15 -34.75
L 93.15 62.1
Q 93.15 69.45 85.8 69.45
L -10 69.45 -85.25 69.45
Q -92.65 69.45 -92.65 62.1
L -92.65 -34.75
Q -92.65 -42.1 -85.25 -42.1
L -40.55 -42.1 -27.35 -43.15
Q -28.95 -42.65 -30 -42.1
M -27.35 -42.1
L -10 -42.1 31.6 -42.1
M 31.6 -43.15
Q 32.65 -42.65 33.7 -42.1
L 50 -42.1
M -40.55 -42.1
L -30 -42.1
M -10 -42.1
L -10 69.45"/>

<path id="symbol_0_Layer1_0_1_STROKES" stroke="#000000" stroke-opacity="0.6470588235294118" stroke-width="8" stroke-linejoin="round" stroke-linecap="round" fill="none" d="
M 4.75 4.2
L 77.35 4.2
M 4.75 23.7
L 77.35 23.7"/>

<path id="_smiley_objects_pawn_0_Layer0_0_1_STROKES" stroke="#000000" stroke-opacity="0.6509803921568628" stroke-width="0.05" stroke-linejoin="round" stroke-linecap="round" fill="none" d="
M -0.1 -1.2
Q -1.5 -1.2 -2.5 -2.2 -3.5 -3.2 -3.5 -4.6 -3.5 -6 -2.5 -7 -1.5 -8 -0.1 -8 1.3 -8 2.3 -7 3.3 -6 3.3 -4.6 3.3 -3.2 2.3 -2.2 1.4 -1.3 0.2 -1.2 2 -1.2 3.5 1.25 5 3.7 5.2 7.05 5.25 8.1 0.15 8 -4.95 7.9 -5 6.9 -5.05 3.6 -3.3 1.15 -1.75 -1.05 -0.1 -1.2 Z"/>

<path id="_smiley_objects_pawn_0_Layer0_0_2_STROKES" stroke="#FFFFFF" stroke-width="1" stroke-linejoin="round" stroke-linecap="round" fill="none" d="
M -1.8 -4.55
Q -1.6 -5.85 -0.5 -6.4
M -2.8 6.4
Q -2.5 2.15 -0.1 0.6"/>

<path id="_smiley_objects_pawn_0_Layer0_0_3_STROKES" stroke="#000000" stroke-width="0.05" stroke-linejoin="round" stroke-linecap="round" fill="none" d="
M -0.05 -1.2
L -0.1 -1.2"/>
</defs>

<g transform="matrix( 0.0999908447265625, 0, 0, 0.0999908447265625, 9.95,9.65) ">
<g transform="matrix( 1, 0, 0, 1, 0,0) ">
<use xlink:href="#symbol_0_Layer3_0_FILL"/>
</g>

<g transform="matrix( 1, 0, 0, 1, 0,0) ">
<use xlink:href="#symbol_0_Layer2_0_FILL"/>

<use xlink:href="#symbol_0_Layer2_0_1_STROKES"/>
</g>

<g transform="matrix( 1, 0, 0, 1, 0,0) ">
<use xlink:href="#symbol_0_Layer1_0_1_STROKES"/>
</g>

<g transform="matrix( 4.6490936279296875, 0, 0, 4.6490936279296875, -51.6,12.6) ">
<g id="col0" transform="matrix( 1, 0, 0, 1, -5,-8) ">
<g transform="matrix( 1, 0, 0, 1, 0,0) ">
<use xlink:href="#_objects_ChatterB_0_Layer0_0_FILL"/>
</g>
</g>

<g transform="matrix( 1, 0, 0, 1, 0,0) ">
<use xlink:href="#_smiley_objects_pawn_0_Layer0_0_FILL"/>

<use xlink:href="#_smiley_objects_pawn_0_Layer0_0_1_STROKES"/>

<use xlink:href="#_smiley_objects_pawn_0_Layer0_0_2_STROKES"/>

<use xlink:href="#_smiley_objects_pawn_0_Layer0_0_3_STROKES"/>
</g>
</g>
</g>
</svg>
