<?xml version="1.0" encoding="utf-8"?>
<!-- Generator: Adobe Illustrator 24.0.1, SVG Export Plug-In . SVG Version: 6.00 Build 0)  -->
<svg version="1.1" xmlns="http://www.w3.org/2000/svg" xmlns:xlink="http://www.w3.org/1999/xlink" x="0px" y="0px" width="464px"
	 height="463px" viewBox="0 0 464 463" style="enable-background:new 0 0 464 463;" xml:space="preserve">
<style type="text/css">
	.Sombra_x0020_paralela{fill:none;}
	.Resplandor_x0020_externo_x0020_5_x0020_pt_x002E_{fill:none;}
	.Neón_x0020_azul{fill:none;stroke:#8AACDA;stroke-width:7;stroke-linecap:round;stroke-linejoin:round;}
	.Resalte_x0020_cromado{fill:url(#SVGID_1_);stroke:#FFFFFF;stroke-width:0.3629;stroke-miterlimit:1;}
	.A_x0020_todo_x0020_ritmo_GS{fill:#FFDD00;}
	.Alyssa_GS{fill:#A6D0E4;}
	.st0{fill:none;stroke:#FFFFFF;stroke-width:22;stroke-miterlimit:10;}
	.st1{fill:#0ABDFF;stroke:#E6E6E6;stroke-width:12;stroke-miterlimit:10;}
	.st2{fill:none;stroke:#FFFFFF;stroke-width:21;stroke-miterlimit:10;}
	.st3{fill:#FFFFFF;stroke:#FFFFFF;stroke-width:12;stroke-miterlimit:10;}
</style>
<linearGradient id="SVGID_1_" gradientUnits="userSpaceOnUse" x1="7" y1="186" x2="7" y2="185">
	<stop  offset="0" style="stop-color:#656565"/>
	<stop  offset="0.618" style="stop-color:#1B1B1B"/>
	<stop  offset="0.6292" style="stop-color:#545454"/>
	<stop  offset="0.9831" style="stop-color:#3E3E3E"/>
</linearGradient>
<g id="Capa_2">
</g>
<g id="Capa_1">
	<path class="st0" d="M359.5,408h-260c-20.2-17.9-49.2-47.5-65.5-65.5v-193C34,113.3,63.3,84,99.5,84h260
		c36.2,0,65.5,29.3,65.5,65.5v193C425,378.7,395.7,408,359.5,408z"/>
	<path class="st1" d="M57,181"/>
	<circle class="st0" cx="163.5" cy="201.3" r="41.3"/>
	<circle class="st0" cx="298.6" cy="202.5" r="41.3"/>
	<path class="st2" d="M136,286.6c0,0,100.1,115.1,188.9-2.5"/>
	<polygon class="st3" points="101,395 121,311 39,337 	"/>
</g>
</svg>
