
<svg xmlns="http://www.w3.org/2000/svg" version="1.1" xmlns:xlink="http://www.w3.org/1999/xlink" preserveAspectRatio="none" x="0px" y="0px" width="19px" height="19px" viewBox="0 0 19 19">
<defs>
<g id="Extra_Symbols__Ignore_This_Folder___App_Icons_supportedIcon_0_Layer1_0_FILL">
<path fill="#C20303" stroke="none" d="
M 8.7 1.2
Q 10.7 2.05 12.8 3 31.1 -20.1 21.05 -26.4 20.95 -8.75 8.7 1.2 Z"/>

<path fill="#FF0000" stroke="none" d="
M 21.05 -26.4
Q 18.15 -28.3 12.7 -28.7 6.75 -27.95 6.2 -22.2 1.95 -27.25 -3.7 -24.2 -20.45 -11.55 8.7 1.2 20.95 -8.75 21.05 -26.4
M 8.7 -22.95
Q 12.8 -28.3 19.1 -25.25 12.8 -28.3 8.7 -22.95
M -6.85 -18.75
Q -2.7 -25.25 3.4 -22.1 -2.7 -25.25 -6.85 -18.75 Z"/>
</g>

<g id="Extra_Symbols__Ignore_This_Folder___App_Icons_plus_0_Layer0_0_FILL">
<path fill="#00FF33" stroke="none" d="
M 23.8 -6.3
L 9.8 -6.3 9.8 -20.1 -0.55 -20.1 -0.55 -6.3 -4.5 -6.3
Q -9.3470703125 -6.302734375 -14.2 -6.3
L -14.2 4.05 -0.55 4.05 -0.55 17.9 9.8 17.9 9.8 4.05 23.8 4.05 23.8 -6.3 Z"/>
</g>

<path id="Extra_Symbols__Ignore_This_Folder___App_Icons_supportedIcon_0_Layer1_0_1_STROKES" stroke="#FFFFFF" stroke-opacity="0.6509803921568628" stroke-width="1" stroke-linejoin="round" stroke-linecap="round" fill="none" d="
M 8.7 -22.95
Q 12.8 -28.3 19.1 -25.25
M -6.85 -18.75
Q -2.7 -25.25 3.4 -22.1"/>
</defs>

<g transform="matrix( 0.517730712890625, 0, 0, 0.517730712890625, 9.45,9.5) ">
<g transform="matrix( 0.944366455078125, 0, 0, 0.944366455078125, -7.85,12.15) ">
<g transform="matrix( 1, 0, 0, 1, 0,0) ">
<use xlink:href="#Extra_Symbols__Ignore_This_Folder___App_Icons_supportedIcon_0_Layer1_0_FILL"/>

<use xlink:href="#Extra_Symbols__Ignore_This_Folder___App_Icons_supportedIcon_0_Layer1_0_1_STROKES"/>
</g>

<g transform="matrix( 0.39471435546875, 0, 0, 0.39471435546875, 17,-4.05) ">
<g transform="matrix( 1, 0, 0, 1, 0,0) ">
<use xlink:href="#Extra_Symbols__Ignore_This_Folder___App_Icons_plus_0_Layer0_0_FILL"/>
</g>
</g>
</g>
</g>
</svg>
