<?xml version="1.0" encoding="UTF-8"?>
<!DOCTYPE svg PUBLIC "-//W3C//DTD SVG 1.1//EN" "http://www.w3.org/Graphics/SVG/1.1/DTD/svg11.dtd">
<!-- Creator: CorelDRAW -->
<svg xmlns="http://www.w3.org/2000/svg" xml:space="preserve" width="19px" height="19px" version="1.1" style="shape-rendering:geometricPrecision; text-rendering:geometricPrecision; image-rendering:optimizeQuality; fill-rule:evenodd; clip-rule:evenodd"
viewBox="0 0 0.66 0.66"
 xmlns:xlink="http://www.w3.org/1999/xlink"
 xmlns:xodm="http://www.corel.com/coreldraw/odm/2003">
 <defs>
  <style type="text/css">
   <![CDATA[
    .str0 {stroke:black;stroke-width:0.04;stroke-linecap:round;stroke-linejoin:round;stroke-miterlimit:22.9256}
    .fil4 {fill:none;fill-rule:nonzero}
    .fil0 {fill:#FEFEFE}
    .fil2 {fill:#FEFEFE;fill-rule:nonzero}
    .fil1 {fill:url(#id2);fill-rule:nonzero}
    .fil3 {fill:url(#id3);fill-rule:nonzero}
   ]]>
  </style>
    <mask id="id0">
  <linearGradient id="id1" gradientUnits="userSpaceOnUse" x1="0.34" y1="0.22" x2="0.34" y2="0.05">
   <stop offset="0" style="stop-opacity:0; stop-color:white"/>
   <stop offset="0.309804" style="stop-opacity:0.501961; stop-color:white"/>
   <stop offset="1" style="stop-opacity:1; stop-color:white"/>
  </linearGradient>
     <rect style="fill:url(#id1)" x="0.04" y="0.03" width="0.58" height="0.37"/>
    </mask>
  <linearGradient id="id2" gradientUnits="userSpaceOnUse" x1="0.32" y1="0.43" x2="0.34" y2="0.02">
   <stop offset="0" style="stop-opacity:1; stop-color:#FFA600"/>
   <stop offset="1" style="stop-opacity:1; stop-color:#FFDD00"/>
  </linearGradient>
  <linearGradient id="id3" gradientUnits="userSpaceOnUse" x1="0.34" y1="0.64" x2="0.32" y2="0.25">
   <stop offset="0" style="stop-opacity:1; stop-color:#010159"/>
   <stop offset="0.458824" style="stop-opacity:1; stop-color:#09097C"/>
   <stop offset="1" style="stop-opacity:1; stop-color:#1111A0"/>
  </linearGradient>
 </defs>
 <g id="Camada_x0020_1">
  <metadata id="CorelCorpID_0Corel-Layer"/>
  <g id="_2105230373632">
   <circle class="fil0" cx="0.33" cy="0.33" r="0.12"/>
   <path class="fil1" d="M0.02 0.34l0.1 -0.09 0.1 0.09 -0.1 -0.1 -0.1 0.1m0.23 -0.08c0.02,-0.03 0.05,-0.04 0.08,-0.04 0.03,0 0.05,0.01 0.08,0.04 0.02,0.02 0.03,0.04 0.03,0.07l0.1 0.1 0.1 -0.1c0,-0.09 -0.03,-0.16 -0.09,-0.22 -0.06,-0.06 -0.13,-0.09 -0.22,-0.09 -0.09,0 -0.16,0.03 -0.22,0.09 -0.06,0.06 -0.09,0.13 -0.09,0.22 0,0 0,0 0,0.01l0.1 -0.1 0.1 0.1c0,0 0,-0.01 0,-0.01 0,-0.03 0.01,-0.05 0.03,-0.07z"/>
   <path class="fil2" style="mask:url(#id0)" d="M0.05 0.31l0.09 -0.08 0.09 0.08 -0.09 -0.08 -0.09 0.08m0.21 -0.07c0.02,-0.02 0.04,-0.03 0.07,-0.03 0.02,0 0.05,0.01 0.07,0.03 0.02,0.02 0.03,0.04 0.03,0.06l0.09 0.09 0.09 -0.09c0,-0.07 -0.03,-0.13 -0.08,-0.18 -0.06,-0.05 -0.12,-0.08 -0.2,-0.08 -0.08,0 -0.14,0.03 -0.2,0.08 -0.05,0.05 -0.08,0.11 -0.08,0.18 0,0 0,0.01 0,0.01l0.09 -0.08 0.09 0.08c0,0 0,0 0,0 0,-0.03 0.01,-0.05 0.03,-0.07z"/>
   <path class="fil3" d="M0.55 0.55c0.06,-0.06 0.09,-0.13 0.09,-0.21l-0.1 0.1 -0.1 -0.1c0,0.03 -0.02,0.05 -0.03,0.07 -0.03,0.02 -0.05,0.03 -0.08,0.03 -0.03,0 -0.06,-0.01 -0.08,-0.03 -0.02,-0.02 -0.03,-0.04 -0.03,-0.07l-0.1 -0.09 -0.1 0.09c0,0.08 0.03,0.15 0.09,0.21 0.06,0.06 0.13,0.09 0.22,0.09 0.09,0 0.16,-0.03 0.22,-0.09m0.09 -0.21c0,0 0,-0.01 0,-0.01l-0.1 0.1 -0.1 -0.1 0 0c0,0.01 0,0.01 0,0.01l0.1 0.1 0.1 -0.1z"/>
   <g>
    <path class="fil4 str0" d="M0.22 0.34c0,0 0,-0.01 0,-0.01 0,-0.03 0.01,-0.05 0.03,-0.07 0.02,-0.03 0.05,-0.04 0.08,-0.04 0.03,0 0.05,0.01 0.08,0.04 0.02,0.02 0.03,0.04 0.03,0.07m0.2 0c0,-0.09 -0.03,-0.16 -0.09,-0.22 -0.06,-0.06 -0.13,-0.09 -0.22,-0.09 -0.09,0 -0.16,0.03 -0.22,0.09 -0.06,0.06 -0.09,0.13 -0.09,0.22 0,0 0,0 0,0.01l0.1 -0.1 0.1 0.1m-0.2 0c0,0.08 0.03,0.15 0.09,0.21 0.06,0.06 0.13,0.09 0.22,0.09 0.09,0 0.16,-0.03 0.22,-0.09 0.06,-0.06 0.09,-0.13 0.09,-0.21l-0.1 0.1 -0.1 -0.1c0,0.03 -0.02,0.05 -0.03,0.07 -0.03,0.02 -0.05,0.03 -0.08,0.03 -0.03,0 -0.06,-0.01 -0.08,-0.03 -0.02,-0.02 -0.03,-0.04 -0.03,-0.07m0.42 0c0,0 0,-0.01 0,-0.01m-0.2 0c0,0.01 0,0.01 0,0.01"/>
   </g>
  </g>
 </g>
</svg>
