
<svg xmlns="http://www.w3.org/2000/svg" version="1.1" xmlns:xlink="http://www.w3.org/1999/xlink" preserveAspectRatio="none" x="0px" y="0px" width="19px" height="19px" viewBox="0 0 19 19">
<defs>
<g id="embedx_0_Layer2_0_FILL">
<path fill="#27D700" stroke="none" d="
M 17.25 7.8
Q 17.009375 4.759375 14.8 2.55 12.25 0 8.65 0 5.05 0 2.55 2.55 0 5.05 0 8.65 0 12.25 2.55 14.8 2.6923828125 14.9423828125 2.85 15.05 5.255078125 17.3 8.65 17.3 12.25 17.3 14.8 14.8 17.3 12.25 17.3 8.65 17.3 8.2314453125 17.25 7.8 Z"/>
</g>

<g id="embedx_0_Layer1_0_FILL">
<path fill="#000000" fill-opacity="0.24705882352941178" stroke="none" d="
M 17.25 7.8
Q 6.1673828125 7.830078125 2.85 15.05 5.255078125 17.3 8.65 17.3 12.25 17.3 14.8 14.8 17.3 12.25 17.3 8.65 17.3 8.2314453125 17.25 7.8 Z"/>
</g>

<path id="x_0_Layer0_0_1_STROKES" stroke="#FFFFFF" stroke-width="2" stroke-linejoin="round" stroke-linecap="round" fill="none" d="
M 7.1 7.1
L 3.55 3.55 0 7.1
M 0 0
L 3.55 3.55 7.1 0"/>
</defs>

<g transform="matrix( 1, 0, 0, 1, 0.85,0.85) ">
<g transform="matrix( 1, 0, 0, 1, 0,0) ">
<use xlink:href="#embedx_0_Layer2_0_FILL"/>
</g>

<g transform="matrix( 1, 0, 0, 1, 0,0) ">
<use xlink:href="#embedx_0_Layer1_0_FILL"/>
</g>

<g transform="matrix( 0.7071075439453125, 0.70709228515625, -0.70709228515625, 0.7071075439453125, 8.65,3.65) ">
<g transform="matrix( 1, 0, 0, 1, 0,0) ">
<use xlink:href="#x_0_Layer0_0_1_STROKES"/>
</g>
</g>
</g>
</svg>
